<?xml version="1.0" encoding="utf-8"?>
<!-- Generator: Adobe Illustrator 16.0.0, SVG Export Plug-In . SVG Version: 6.00 Build 0)  -->
<!DOCTYPE svg PUBLIC "-//W3C//DTD SVG 1.1//EN" "http://www.w3.org/Graphics/SVG/1.1/DTD/svg11.dtd">
<svg version="1.1" id="Layer_1" xmlns="http://www.w3.org/2000/svg" xmlns:xlink="http://www.w3.org/1999/xlink" x="0px" y="0px"
	 width="130px" height="130px" viewBox="0 0 130 130" enable-background="new 0 0 130 130" xml:space="preserve">
<circle fill="#D94843" cx="65" cy="65" r="64"/>
<g>
	<path fill="#FFFFFF" d="M75.662,41.625c5.531-7.04,19.169-3.406,18.398,7.49c10.403-1.046,13.572,14.784,6.453,20.144
		c2.938,12.673-3.742,22.134-17.923,19.109c-3.097,4.524-8.151,9.478-15.771,8.522c-3.958-0.498-6.834-2.844-9.078-5.684
		c-7.073,6.221-19.279,0.65-17.443-10.33c-16.971,3.341-20.126-24.687-4.54-26.855c-7.381-9.661,3.667-23.59,13.618-17.045
		c1.27,0.834,2.074,2.076,3.108,3.618c2.55-4.363,6.892-8.313,13.38-7.489C70.695,33.719,74.184,37.284,75.662,41.625z"/>
</g>
</svg>
