<?xml version="1.0" encoding="utf-8"?>
<!-- Generator: Adobe Illustrator 16.0.0, SVG Export Plug-In . SVG Version: 6.00 Build 0)  -->
<!DOCTYPE svg PUBLIC "-//W3C//DTD SVG 1.1//EN" "http://www.w3.org/Graphics/SVG/1.1/DTD/svg11.dtd">
<svg version="1.1" id="Layer_1" xmlns="http://www.w3.org/2000/svg" xmlns:xlink="http://www.w3.org/1999/xlink" x="0px" y="0px"
	 width="43px" height="50px" viewBox="0 10 40 40" enable-background="new 0 0 40 30" preserveAspectRatio="none" xml:space="preserve">
<g>
	<circle fill="#D94843" cx="65" cy="64.999" r="64"/>
	<g>
		<g>
			<g>
				<polygon fill="#FFFFFF" points="68.464,49.325 68.818,48.734 68.749,48.449 68.559,48.426 68.204,48.545 67.92,48.237
					68.251,47.739 68.464,47.55 67.873,47.054 68.016,46.415 68.299,45.965 68.251,45.516 66.975,45.114 65.744,43.528
					64.963,43.149 64.607,43.386 62.478,43.149 61.887,43.646 61.342,43.101 61.248,43.197 60.963,43.433 60.348,43.292
					58.976,42.321 58.312,42.748 58.029,42.51 56.894,42.108 56.255,42.487 54.907,42.841 53.936,41.966 53.581,43.741
					52.895,44.096 52.635,44.521 52.99,46.013 53.793,48.638 55.189,50.958 56.397,51.833 56.705,53.159 56.752,53.561
					57.083,53.465 58.881,52.779 60.064,52.709 61.201,54.223 60.703,54.815 60.657,54.909 61.201,55.051 62.289,55.051
					62.478,54.507 62.88,54.365 63.329,54.743 64.015,54.412 64.347,54.412 64.607,53.916 65.034,53.513 65.034,52.473
					66.479,51.644 67.92,51.478 67.564,50.437 68.536,49.822 				"/>
				<path fill="#D94843" d="M62.645,55.551l-1.569-0.016l-1.135-0.295l0.38-0.746l0.242-0.288l-0.737-0.981l-0.838,0.049
					l-2.664,0.933l-0.115-0.989l-0.256-1.088l-1.192-0.913l-1.446-2.432l-0.803-2.625l-0.412-1.723l0.441-0.72l0.596-0.309
					l0.48-2.401l1.423,1.282l1.019-0.268l0.78-0.462l1.511,0.569l0.638-0.41l1.567,1.109l0.278,0.064l0.149-0.139l0.353-0.362
					l0.579,0.579l0.404-0.34l2.161,0.24l0.442-0.294l1.144,0.555l1.206,1.555l1.44,0.454l0.101,0.947l-0.33,0.524l-0.058,0.258
					l0.802,0.672l-0.46,0.409l0.385,0.047l0.199,0.82l-0.368,0.615l0.093,0.641l-0.912,0.578l0.429,1.255l-1.956,0.225l-1.104,0.634
					v0.966l-0.523,0.493l-0.361,0.69h-0.521l-0.875,0.422l-0.414-0.348L62.645,55.551z M61.579,54.551h0.354l0.151-0.436
					l0.898-0.316l0.42,0.354l0.641-0.24l0.22-0.36l0.27-0.255v-1.114l1.887-1.036l0.825-0.095l-0.282-0.827l1.031-0.653
					l-0.052-0.352l0.08-0.134l-0.737-0.8l0.458-0.688l-0.425-0.356l0.273-1.093l0.165-0.264l-1.082-0.341l-1.255-1.618l-0.419-0.203
					l-0.27,0.179l-2.097-0.233l-0.777,0.654l-0.539-0.538l-0.229,0.189L60.059,43.7l-1.096-0.776l-0.69,0.444l-0.496-0.417
					l-0.829-0.293l-0.566,0.313l-1.609,0.423l-0.519-0.468l-0.229,1.149l-0.776,0.401l-0.08,0.13l0.308,1.292l0.776,2.536
					l1.312,2.18l1.277,0.925l0.317,1.365l1.693-0.623l1.451-0.086l1.537,2.047L61.579,54.551z"/>
			</g>
		</g>
		<g>
			<g>
				<polygon fill="#FFFFFF" points="104.645,40.333 103.578,40.049 101.047,40.287 100.501,41.02 100.052,41.564 99.318,41.516
					98.633,41.706 96.268,40.973 96.146,41.824 95.794,41.824 95.604,42.108 95.271,42.108 95.105,42.297 95.132,42.7 95.816,42.96
					96.243,43.883 97.096,43.244 97.402,43.386 98.064,43.244 98.137,43.386 97.971,43.741 98.539,44.072 98.539,44.285
					98.326,44.57 98.277,45.824 97.189,47.384 97.285,48 97.45,49.231 98.088,49.231 98.23,49.775 97.898,50.437 97.213,52.709
					96.74,53.75 96.361,55.785 97.096,56.329 97.732,57.323 97.876,57.819 98.729,58.316 98.82,59.192 99.414,59.879 99.579,59.642
					100.598,59.524 101.591,59.145 101.639,58.601 102.419,57.536 101.73,56.684 101.542,55.832 101.945,53.561 101.802,51.577
					101.757,51.1 102.275,49.231 102.607,46.84 102.727,45.326 104.1,43.528 105.354,40.878 				"/>
				<path fill="#D94843" d="M99.456,60.692L98.34,59.4l-0.082-0.78l-0.807-0.47l-0.179-0.618l-0.548-0.855l-0.912-0.675l0.473-2.458
					l0.473-1.041l0.662-2.21l0.275-0.562h-0.683l-0.348-2.469l1.118-1.604l0.05-1.263l0.081-0.108l-0.59-0.343l0.017-0.036
					l-0.184-0.085l-1.108,0.83l-0.601-1.298l-0.794-0.301l-0.062-0.931l0.452-0.515h0.292l0.19-0.284h0.186l0.143-1.002l2.785,0.863
					l0.626-0.173l0.562,0.037l0.949-1.238l2.842-0.268l1.329,0.394l1.028,0.791l-1.48,3.104l-1.283,1.681l-0.108,1.367l-0.335,2.421
					l-0.507,1.845l0.185,2.442l-0.396,2.234l0.142,0.64l0.856,1.06l-0.925,1.263l-0.063,0.716l-1.406,0.52l-0.831,0.144
					L99.456,60.692z M99.301,58.984l0.147,0.17l1.029-0.119l0.643-0.245l0.033-0.372l0.635-0.867l-0.521-0.645l-0.235-1.064
					l0.41-2.308l-0.192-2.48l0.544-1.958l0.318-2.326l0.127-1.631l1.431-1.874l1.06-2.237l-0.311-0.238l-0.883-0.235l-2.221,0.209
					l-1.041,1.315l-0.904-0.059l-0.745,0.207l-1.945-0.603l-0.1,0.7h-0.52l-0.104,0.154l0.228,0.086l0.253,0.547l0.597-0.447
					l0.427,0.197l0.874-0.187l0.358,0.701l-0.076,0.163l0.422,0.246v0.667l-0.22,0.293l-0.048,1.246l-1.058,1.515l0.174,1.226h0.586
					l0.288,1.1l-0.416,0.831l-0.654,2.192L97.221,53.9l-0.311,1.669l0.606,0.49l0.696,1.125l0.088,0.304l0.898,0.524L99.301,58.984z
					"/>
			</g>
		</g>
		<g opacity="0.5">
			<g>
				<polygon fill="#FFFFFF" points="99.557,39.339 98.82,39.15 97.898,39.694 97.285,39.694 95.912,39.883 95.32,39.198
					94.137,39.08 93.782,39.553 92.906,39.15 90.684,36.382 90.328,36.382 88.907,35.791 88.009,36.618 87.561,36.737
					85.785,35.933 84.508,35.933 84.2,36.382 83.3,36.643 82.613,35.482 81.738,35.293 80.936,35.436 80.059,35.672 80.152,37.163
					79.916,38.157 80.152,38.464 79.82,38.984 79.964,39.6 79.516,39.932 79.562,40.499 79.277,41.067 80.152,42.155 80.343,42.748
					79.964,43.456 79.964,44.001 79.516,44.521 79.516,45.658 80.271,46.249 80.343,46.698 80.414,47.291 81.027,47.408
					81.479,48.165 82.874,48.875 84.15,49.467 84.436,49.75 83.963,50.059 84.27,50.603 85.003,50.698 85.926,51.786 86.542,51.952
					86.637,52.235 86.141,52.543 86.045,53.181 85.95,53.655 86.52,53.655 86.991,54.128 87.771,54.365 87.962,55.098
					88.458,55.264 89.145,55.193 89.596,54.01 89.736,53.868 90.872,54.601 92.104,54.601 92.291,54.46 93.096,55.146
					93.355,55.051 93.521,54.199 93.734,54.128 95.132,55.359 96.007,55.832 96.361,55.785 96.74,53.75 97.213,52.709
					97.898,50.437 98.23,49.775 98.088,49.231 97.45,49.231 97.285,48 97.189,47.384 98.277,45.824 98.326,44.57 98.539,44.285
					98.539,44.072 97.971,43.741 98.137,43.386 98.064,43.244 97.402,43.386 97.096,43.244 96.243,43.883 95.816,42.96 95.132,42.7
					95.105,42.297 95.271,42.108 95.604,42.108 95.794,41.824 96.146,41.824 96.268,40.973 98.633,41.706 99.318,41.516
					100.052,41.564 100.501,41.02 101.047,40.287 				"/>
				<path fill="#D94843" d="M95.912,56.349l-1.11-0.615l-0.913-0.804l-0.097,0.493l-0.799,0.292l-0.722-0.615l-0.001,0h-1.546
					l-0.811-0.523l-0.412,1.08l-1.1,0.114l-0.856-0.286l-0.188-0.724l-0.633-0.192l-0.414-0.415H85.34l0.343-1.916l-0.037-0.01
					l-0.898-1.06l-0.79-0.103l-0.659-1.169l0.245-0.161l-0.879-0.408l-1.541-0.783l-0.41-0.688l-0.752-0.144l-0.152-1.191
					l-0.793-0.62v-1.566l0.448-0.52v-0.485l0.338-0.631l-0.097-0.303l-1.019-1.267l0.366-0.729l-0.059-0.705l0.408-0.302
					l-0.117-0.501l0.257-0.401l-0.168-0.217l0.274-1.153l-0.114-1.825l1.271-0.342l0.941-0.17l1.186,0.256l0.601,1.015l0.355-0.103
					l0.355-0.519l1.747,0.044l1.613,0.73l0.156-0.042l1.043-0.96l1.624,0.675h0.496l2.299,2.863l0.401,0.185l0.282-0.375
					l1.662,0.166l0.545,0.63l1.104-0.152l0.544-0.004l0.983-0.581l1.081,0.303l1.944,1.237l-1.495,1.925l-0.904-0.059l-0.745,0.207
					l-1.945-0.603l-0.1,0.7h-0.52l-0.104,0.154l0.228,0.086l0.253,0.547l0.597-0.447l0.427,0.197l0.874-0.187l0.358,0.701
					l-0.076,0.163l0.422,0.246v0.667l-0.22,0.293l-0.048,1.246l-1.058,1.515l0.174,1.226h0.586l0.288,1.1l-0.416,0.831l-0.654,2.192
					L97.221,53.9l-0.435,2.333L95.912,56.349z M95.42,54.946l0.535,0.29l0.33-1.692l0.473-1.041l0.662-2.21l0.275-0.562h-0.683
					l-0.348-2.469l1.118-1.604l0.05-1.263l0.081-0.108l-0.59-0.343l0.017-0.036l-0.184-0.085l-1.108,0.83l-0.601-1.298l-0.794-0.301
					l-0.062-0.931l0.452-0.515h0.292l0.19-0.284h0.186l0.132-0.927l-0.134,0.018l-0.639-0.739l-0.705-0.07l-0.427,0.57l-1.351-0.621
					l-2.146-2.673l-0.308-0.038l-1.125-0.468l-0.754,0.694l-0.74,0.196l-1.839-0.833h-0.906l-0.26,0.379l-1.445,0.419l-0.772-1.307
					l-0.564-0.122l-1.146,0.245l0.073,1.158l-0.198,0.835l0.305,0.396l-0.407,0.639l0.17,0.731l-0.488,0.362l0.035,0.429
					l-0.204,0.406l0.76,0.999l0.256,0.794l-0.42,0.785v0.605l-0.448,0.52v0.708l0.719,0.562l0.132,0.893l0.476,0.091l0.492,0.826
					l1.267,0.644l1.402,0.683l0.724,0.719l-0.501,0.328l0.533,0.069l0.947,1.116l0.725,0.195l0.306,0.912l-0.636,0.395l-0.046,0.309
					h0.173l0.529,0.531l0.928,0.282l0.193,0.742l0.136,0.046l0.273-0.028l0.454-1.07l0.426-0.429l1.353,0.873l0.971-0.041
					l0.32-0.241l0.665,0.567l0.111-0.569l0.762-0.255L95.42,54.946z M96.019,40.373l2.622,0.812l0.626-0.173l0.562,0.037
					l0.496-0.628l-0.97-0.617l-0.459-0.118l-0.861,0.508h-0.75L96.019,40.373z"/>
			</g>
		</g>
		<g opacity="0.5">
			<g>
				<path fill="#FFFFFF" d="M21.732,73.271l0.449,0.142l0.166-0.19l-0.663-0.354L21.732,73.271z M23.578,70.501l-0.402-0.496
					l-0.238-0.495l-0.521-0.285l-0.189,0.285l0.639,0.711l0.686,0.471L23.578,70.501z M47.523,57.181v-0.899l0.284-0.639
					l-0.474-0.851l-0.567-0.048L46.341,54.2v-0.19l-0.143-0.143l-0.709,0.355l-1.325-0.757l-0.261-2.082l-0.143-0.142l-0.638,0.355
					l-0.876,0.236l-0.899,0.804l-0.993,0.142l-0.048-0.757l-0.733,0.023l-0.213-1.135l-0.591-0.308l-0.451,0.734l-1.562,0.142
					l-1.939,0.451l-0.544-0.143l-0.143-0.212l-1.492,0.117l-0.07,0.261l0.095,1.419l-0.403,1.04l0.498,1.373l0.284,1.586L32.9,57.77
					l-0.189-0.046l-1.088,0.472l-0.663,1.989l-1.727-0.734l-1.137,0.639l-2.058,1.135l-1.278,0.332l-0.592,0.45l-0.307,1.135
					l-2.746,1.137l-0.166,0.401l-0.402,0.144l-0.332,0.308l0.45,0.352l0.094,0.379l-0.212,0.309l0.095,0.094l0.567,0.332
					l0.662-0.261l0.758,0.448l0.922-0.778l0.899-0.19l3.218,1.468l-0.403,0.095l-2.058-0.972l-1.538-0.069l-0.403,0.354l0.095,0.994
					l-0.497,0.237l0.07,0.069l0.782,0.144l0.993,0.497l0.427,0.779l-0.64-0.047l-0.26,0.994l-0.616,0.804l-0.166,0.473l2.438,2.724
					l0.449,1.349l1.373,0.923l0.686,0.307l1.68,0.971l0.284-0.282l0.307,0.332l0.403,0.188v-0.287l0.78-0.166l0.78-0.564
					l0.971,0.141l-0.023,0.426l1.585,0.072l0.449-0.072l0.498-1.607l-0.143-1.279l0.378-0.354l-0.827-1.632l-0.403-0.427
					l0.544-0.451l0.096-0.092l-2.366-2.582l1.278,0.285l1.821-0.189l0.449-0.686l0.687-0.355l2.531,0.047l0.544-0.379l0.332-0.686
					l0.45-0.072l0.591-1.772l0.355-0.781l0.26-1.491v-1.017l0.379-0.095l0.946,0.332l2.081-1.728v-0.355l0.521-0.236l0.616-1.042
					l0.093-0.496l0.593-0.403l0.07-0.332L47.523,57.181z"/>
				<path fill="#D94843" d="M31.574,78.932l-1.226-0.586l-0.188,0.187L28.15,77.37l-0.64-0.283l-1.589-1.06l-0.47-1.412
					l-2.566-2.866l0.258-0.733l-0.647-0.461l-0.897-0.998l0.656-0.991l1.065,0.583l0.282,0.587l0.212,0.263l0.291-1.109
					l-0.548-0.274l-0.863-0.158l-0.617-0.608l0.754-0.463l-0.01-0.106l-0.14,0.118l-0.853-0.505l-0.661,0.261l-0.97-0.624
					l-0.299-0.294l0.32-0.466l-0.773-0.604l0.934-0.811l0.193-0.069l0.161-0.388l2.71-1.122l0.288-1.062l0.904-0.639l1.217-0.316
					l3.351-1.862l1.455,0.618l0.562-1.688l1.296-0.562l-0.25-1.393l-0.54-1.467l0.431-1.111l-0.093-1.392l0.184-0.682l2.134-0.167
					l0.201,0.297l0.242,0.063l1.818-0.423l1.38-0.13l0.564-0.918l1.22,0.636l0.179,0.953l0.789-0.025l0.044,0.7l0.308-0.044
					l0.875-0.782l0.931-0.25l0.912-0.508l0.533,0.527l0.251,2.006l0.875,0.5l0.792-0.396l0.544,0.544v0.225l0.185,0.236l0.615,0.052
					l0.726,1.302l-0.343,0.77v0.629l0.503,0.688l-0.159,0.747l-0.587,0.399l-0.116,0.454l-0.696,1.178l-0.371,0.201v0.235
					l-2.479,2.059l-0.927-0.325v0.54l-0.305,1.698l-0.355,0.781l-0.668,2.011l-0.492,0.079l-0.275,0.569l-0.784,0.546l-2.567-0.048
					l-0.458,0.237L36.78,69.84l-1.998,0.208l1.675,1.828l-0.609,0.564l0.12,0.157l0.997,1.966l-0.469,0.438l0.126,1.134l-0.62,2.004
					l-0.806,0.13l-2.14-0.098l0.025-0.473l-0.318-0.047l-0.805,0.53l-0.384,0.081V78.932z M30.379,76.906l0.456,0.493l0.812-0.173
					l0.858-0.621l1.624,0.234l-0.021,0.379l1.03,0.047l0.092-0.015l0.375-1.211l-0.159-1.425l0.287-0.269l-0.625-1.232l-0.719-0.763
					l0.652-0.54l-3.091-3.374l2.75,0.613l1.504-0.156l0.391-0.597l0.916-0.474l2.496,0.046l0.304-0.212l0.389-0.802l0.408-0.065
					l0.496-1.485l0.347-0.771l0.249-1.429l-0.007-1.322l0.903-0.226l0.821,0.288l1.683-1.397v-0.442l0.671-0.304l0.491-0.831
					l0.115-0.613l0.546-0.372l-0.397-0.542l0.043-1.266l0.183-0.411l-0.223-0.4l-0.519-0.044l-0.535-0.685l-0.499,0.25l-1.774-1.014
					l-0.226-1.802l-0.221,0.106l-0.761,0.205l-0.923,0.825l-1.679,0.24l-0.051-0.813l-0.678,0.021l-0.235-1.255l-0.312,0.508
					l-1.812,0.165l-1.992,0.468l-0.846-0.223l-0.085-0.126l-0.795,0.062l0.086,1.291l-0.375,0.969l0.434,1.197l0.33,1.798
					l-0.337,0.951l-0.464-0.113l-0.729,0.316l-0.764,2.291l-2-0.85l-3.1,1.702l-1.181,0.307l-0.376,0.286l-0.327,1.208l-2.781,1.151
					l-0.171,0.415l-0.255,0.091l0.037,0.029l0.189,0.765l-0.053,0.078l0.007,0.004l0.663-0.261l0.663,0.392l0.747-0.63l1.184-0.251
					l4.698,2.144l-1.997,0.469l-2.125-1.003l-1.237-0.056l-0.06,0.052l0.088,0.759l1.196,0.599l0.944,1.722l-1.142-0.083
					l-0.242,0.769l-0.609,0.859l2.343,2.679l0.395,1.188l1.231,0.827l0.611,0.266l1.395,0.803L30.379,76.906z M22.343,73.988
					l-1.069-0.337l-0.199-1.676l2.062,1.103L22.343,73.988z"/>
			</g>
		</g>
		<g opacity="0.75">
			<g>
				<polygon fill="#FFFFFF" points="54.338,40.287 53.936,39.883 54.338,39.292 54.48,38.89 53.793,38.204 53.676,37.258
					54.22,36.618 54.22,36.429 53.699,36.335 53.817,35.719 53.889,35.341 53.155,33.85 52.54,33.472 51.57,32.384 51.096,32.005
					49.795,33.306 47.24,34.347 45.82,34.561 44.022,35.436 42.792,36.571 42.128,36.879 41.182,39.009 41.395,39.435
					42.934,39.528 43.454,39.789 43.076,39.932 43.217,41.256 43.62,41.966 43.123,42.321 43.169,42.652 43.714,42.841
					43.903,44.829 43.927,45.469 44.022,46.344 45.489,46.344 46.294,47.693 46.979,48.379 47.24,49.231 48.352,48.331
					49.227,48.071 49.795,47.599 50.647,47.739 51.57,47.408 52.256,46.461 52.99,46.013 52.635,44.521 52.895,44.096
					53.581,43.741 53.936,41.966 54.622,41.469 				"/>
				<path fill="#D94843" d="M46.979,50.085l-0.441-1.441l-0.673-0.695l-0.66-1.105h-1.632l-0.327-3.636l-0.531-0.184l-0.129-0.934
					l0.376-0.269l-0.243-0.512l-0.138-1.301l-1.505-0.09l-0.447-0.896l1.118-2.517l0.764-0.354l1.292-1.164l1.942-0.92l1.361-0.205
					l2.406-0.98l1.546-1.546l0.823,0.658l0.981,1.091L53.54,33.5l0.872,1.771l-0.126,0.663l0.435,0.079v0.791l-0.521,0.612
					l0.069,0.557l0.789,0.788l-0.305,0.814l-0.17,0.25l0.21,0.211l0.395,1.643l-0.798,0.579l-0.364,1.819l-0.776,0.401l-0.08,0.13
					l0.392,1.645l-0.959,0.584l-0.718,0.991l-1.19,0.427l-0.755-0.125L49.37,48.55l-0.78,0.232L46.979,50.085z M46.691,47.383
					l0.729,0.73l0.081,0.263l0.708-0.525l0.777-0.231l0.665-0.552l0.949,0.156l0.655-0.235l0.74-0.956l0.424-0.259l-0.319-1.339
					l0.441-0.72l0.596-0.309l0.346-1.732l0.574-0.416l-0.173-0.72l-0.594-0.597l0.613-0.922l-0.585-0.584l-0.166-1.335l0.264-0.309
					l-0.303-0.055l0.253-1.326l-0.597-1.211l-0.603-0.396l-1.029-1.134l-1.154,1.099l-2.669,1.073l-1.345,0.202l-1.663,0.81
					l-1.305,1.171l-0.494,0.229l-0.756,1.702l1.406,0.125l1.538,0.772l-1.082,0.41l0.089,0.836l0.574,1.011l-0.374,0.267
					l0.277,0.096l0.289,3.37h1.303L46.691,47.383z"/>
			</g>
		</g>
		<g opacity="0.75">
			<g>
				<polygon fill="#FFFFFF" points="97.213,60.92 97.143,60.731 97.591,59.642 98.184,59.286 98.82,59.192 98.729,58.316
					97.876,57.819 97.732,57.323 97.096,56.329 96.361,55.785 96.007,55.832 95.132,55.359 93.734,54.128 93.521,54.199
					93.355,55.051 93.096,55.146 92.291,54.46 92.104,54.601 90.872,54.601 89.736,53.868 89.596,54.01 89.145,55.193
					88.458,55.264 88.294,55.69 87.962,55.738 87.605,56.282 87.156,56.329 86.874,57.323 86.613,58.458 86.045,58.742
					85.288,58.506 84.508,58.908 84.436,59.428 85.404,59.689 85.146,60.778 84.648,60.872 84.555,61.014 84.956,61.369
					84.956,62.008 85.596,62.174 86.021,63.309 85.689,63.64 85.785,64.184 85.501,64.516 85.57,65.013 85.191,65.417 85.1,65.961
					84.508,66.104 84.27,66.504 84.508,66.717 84.15,67.143 84.27,67.593 84.814,67.854 85.146,68.04 85.57,68.325 85.689,68.277
					85.785,68.537 84.91,69.059 84.91,69.318 85.24,69.65 85.1,69.957 85.501,70.268 85.689,70.359 85.785,71.732 85.404,72.018
					85.479,72.49 85.855,72.631 85.95,72.915 85.24,73.271 85.191,73.625 86.141,74.809 86.423,74.809 86.825,75.424 87.323,75.258
					87.866,74.643 88.507,74.738 88.742,75.046 89.736,74.761 91.463,73.082 91.416,72.631 91.559,72.252 91.725,71.779
					91.701,71.449 92.671,69.745 93.734,69.059 93.994,68.325 93.807,67.096 93.994,66.504 95.912,65.417 96.172,64.422
					97.213,63.545 97.309,63.001 98.23,61.63 98.277,61.227 97.994,60.778 				"/>
				<path fill="#D94843" d="M86.617,76.021l-0.477-0.712H85.9l-1.233-1.539l0.114-0.827l0.243-0.122l-0.161-1.022l0.404-0.303
					l-0.072-0.832l-0.716-0.554l0.162-0.353l-0.231-0.232v-0.75l0.494-0.295l-0.335-0.19l-0.724-0.345l-0.245-0.925l0.213-0.253
					l-0.185-0.164l0.557-0.936l0.476-0.115l0.062-0.367l0.318-0.34l-0.067-0.483l0.277-0.324l-0.101-0.568l0.289-0.288l-0.222-0.59
					l-0.763-0.198v-0.8l-0.558-0.493l0.449-0.681l0.387-0.073l0.071-0.301l-0.926-0.25l0.168-1.214l1.193-0.615l0.761,0.238
					l0.177-0.089l0.208-0.905l0.381-1.345l0.55-0.057l0.35-0.535l0.266-0.038l0.169-0.438l0.686-0.071l0.454-1.07l0.426-0.429
					l1.353,0.873l0.971-0.041l0.32-0.241l0.665,0.567l0.111-0.569l0.762-0.255l1.571,1.384l0.682,0.369l0.395-0.052l1.021,0.796
					l0.696,1.125l0.088,0.304l0.898,0.524l0.168,1.604l-1.012,0.15l-0.365,0.219l-0.127,0.308l0.374-0.068l0.557,0.884l-0.081,0.699
					l-0.931,1.384l-0.108,0.619l-1.059,0.891l-0.272,1.046l-1.932,1.094l-0.093,0.294l0.189,1.238l-0.359,1.012l-1.104,0.713
					l-0.834,1.466l0.02,0.283l-0.305,0.849l0.06,0.575l-1.99,1.936l-1.442,0.413l-0.32-0.417l-0.171-0.025l-0.452,0.512
					L86.617,76.021z M86.381,74.309h0.312l0.339,0.519l0.005-0.001l0.634-0.719l1.11,0.166l0.15,0.198l0.546-0.157l1.463-1.422
					l-0.034-0.327l0.312-0.854l-0.027-0.377l1.105-1.942l1.023-0.66l0.16-0.455l-0.186-1.221l0.282-0.89l1.904-1.08l0.247-0.944
					l1.023-0.863l0.142-0.557l0.867-1.378l-0.01-0.014l-0.86,0.157l-0.285-0.765l0.586-1.423l0.919-0.507l0.163-0.024l-0.016-0.147
					l-0.807-0.47l-0.179-0.618l-0.548-0.855l-0.498-0.369l-0.314,0.042l-1.11-0.615l-0.913-0.804l-0.097,0.493l-0.799,0.292
					l-0.722-0.615l-0.001,0h-1.546l-0.811-0.523l-0.412,1.08l-0.688,0.072l-0.159,0.413l-0.398,0.058l-0.363,0.554l-0.349,0.037
					l-0.189,0.668l-0.308,1.34l-0.96,0.479l-0.753-0.235l-0.138,0.071l0.806,0.217l-0.444,1.877l-0.103,0.019v0.393l0.517,0.134
					l0.63,1.681l-0.375,0.375l0.091,0.52l-0.291,0.34l0.071,0.511l-0.439,0.468l-0.121,0.721l-0.526,0.126l0.19,0.171l-0.489,0.584
					l0.916,0.512l0.352-0.142l0.417,1.133l-0.844,0.503l0.285,0.287l-0.119,0.261l0.188,0.105l0.26,0.126l0.135,1.934l-0.263,0.196
					l0.214,0.08l0.308,0.922L85.78,73.56L86.381,74.309z"/>
			</g>
		</g>
		<g opacity="0.5">
			<g>
				<polygon fill="#FFFFFF" points="85.479,72.49 85.404,72.018 85.785,71.732 85.689,70.359 85.501,70.268 85.1,69.957
					85.24,69.65 84.91,69.318 84.91,69.059 85.785,68.537 85.689,68.277 85.57,68.325 85.146,68.04 84.814,67.854 84.27,67.593
					84.15,67.143 84.508,66.717 84.27,66.504 84.508,66.104 85.1,65.961 85.191,65.417 85.57,65.013 85.501,64.516 85.785,64.184
					85.689,63.64 86.021,63.309 85.596,62.174 84.956,62.008 84.956,61.369 84.555,61.014 84.648,60.872 85.146,60.778
					85.404,59.689 84.436,59.428 83.749,59.879 83.3,59.428 82.922,59.239 82.639,59.428 82.094,59.239 81.691,59.002
					81.881,58.601 81.645,58.506 81.384,58.672 81.052,58.672 81.1,58.151 80.65,57.772 81.052,57.251 80.012,56.14 79.704,55.264
					78.663,55.004 78.189,55.336 77.527,55.193 77.385,55.453 77.74,55.95 77.455,56.116 75.634,55.95 75.277,56.376 74.688,56.187
					74.214,56.495 73.456,56.731 72.559,56.471 71.374,54.909 70.145,53.916 69.954,52.875 68.914,51.691 67.92,51.478
					66.479,51.644 65.034,52.473 65.034,53.513 64.607,53.916 64.347,54.412 65.034,54.649 65.506,55.098 65.887,56.637
					65.057,57.915 65.341,58.388 65.034,59.05 64.845,59.002 64.064,59.192 63.898,59.547 65.246,61.322 64.253,61.866
					64.347,62.174 64.655,62.765 64.513,64.184 65.341,65.273 66.098,68.682 66.287,70.359 66.287,71.236 67.564,72.087
					68.299,71.686 68.889,72.018 69.34,71.732 69.884,72.277 70.191,72.087 71.091,71.236 71.966,72.49 72.604,73.531
					73.932,74.217 74.145,75.779 73.788,76.466 73.932,76.938 73.883,77.27 74.285,77.412 74.568,77.859 75.421,77.527
					76.557,77.602 76.841,77.907 77.883,76.938 77.787,76.631 77.645,76.134 78,75.779 78.566,76.229 78.781,75.779 79.111,75.708
					79.277,76.039 79.516,76.087 79.729,75.496 80.271,75.589 80.461,75.874 80.365,76.087 80.604,76.395 80.555,76.678
					81.027,77.27 82.282,73.057 83.68,72.773 83.82,72.68 85.191,73.625 85.24,73.271 85.95,72.915 85.855,72.631 				"/>
				<path fill="#D94843" d="M76.815,78.614l-0.489-0.526l-0.827-0.055l-1.133,0.441l-0.411-0.649l-0.627-0.222l0.093-0.628
					l-0.171-0.56l0.378-0.727l-0.156-1.147l-1.222-0.631l-0.711-1.16l-0.526-0.753l-0.558,0.514l-0.646,0.399l-0.541-0.542
					l-0.365,0.23l-0.608-0.343l-0.756,0.414l-1.752-1.167v-1.145l-0.187-1.622l-0.724-3.249l-0.88-1.158l0.146-1.466l-0.239-0.459
					l-0.248-0.781l0.841-0.461l-1.18-1.553l0.396-0.846l1.018-0.248l0.045-0.097l-0.308-0.514l0.881-1.357l-0.293-1.187
					l-0.288-0.274l-1.134-0.391l0.63-1.143l0.27-0.255v-1.114l1.887-1.036l1.523-0.176l1.236,0.265l1.24,1.412l0.182,0.995
					l1.17,0.963l1.084,1.43l0.595,0.172l0.548-0.171l0.615-0.4l0.495,0.159l0.31-0.369l1.427,0.13l-0.051-0.07l0.474-0.863
					l0.812,0.176l0.481-0.338l1.524,0.381l0.361,1.031l1.259,1.344l-0.368,0.479l0.282,0.239l-0.002,0.02l0.94,0.379l-0.221,0.468
					l0.009,0.005l0.215,0.069l0.323-0.216l0.769,0.413l0.161,0.162l0.533-0.35l1.654,0.445l-0.444,1.877l-0.103,0.019v0.393
					l0.517,0.134l0.63,1.681l-0.375,0.375l0.091,0.52l-0.291,0.34l0.071,0.511l-0.439,0.468l-0.121,0.721l-0.526,0.126l0.19,0.171
					l-0.489,0.584l0.916,0.512l0.352-0.142l0.417,1.133l-0.844,0.503l0.285,0.287l-0.119,0.261l0.188,0.105l0.26,0.126l0.135,1.934
					l-0.263,0.196l0.214,0.08l0.308,0.922l-0.862,0.433l-0.123,0.896l-1.792-1.234l-1.108,0.225l-1.442,4.842l-1.21-1.515
					l0.05-0.288l-0.126-0.162l-0.107,0.298l-0.846-0.17l-0.247,0.518l-0.423-0.335l0.13,0.414L76.815,78.614z M74.438,76.936
					l0.178,0.063l0.155,0.245l0.572-0.223l1.444,0.094l0.079,0.085l0.445-0.414l-0.229-0.798l0.879-0.877l0.424,0.336l0.05-0.104
					l0.886-0.191l0.079-0.219l1.168,0.2l0.396,0.596l0.924-3.103l1.654-0.362l0.282-0.188l1.13,0.78l0.069-0.035l-0.161-1.022
					l0.404-0.303l-0.072-0.832l-0.716-0.554l0.162-0.353l-0.231-0.232v-0.75l0.494-0.295l-0.335-0.19l-0.724-0.345l-0.245-0.925
					l0.213-0.253l-0.185-0.164l0.557-0.936l0.476-0.115l0.062-0.367l0.318-0.34l-0.067-0.483l0.277-0.324l-0.101-0.568l0.289-0.288
					l-0.222-0.59l-0.763-0.198v-0.8l-0.558-0.493l0.449-0.681l0.387-0.073l0.071-0.301l-0.283-0.077l-0.84,0.551l-0.725-0.704
					l-0.248,0.166l-0.78-0.271l-0.886-0.511l0.014-0.029h-0.554l0.074-0.807l-0.616-0.519l0.435-0.563l-0.856-0.977l-0.219-0.622
					l-0.558-0.14l-0.466,0.326l0.169,0.235l-0.898,0.522l-1.719-0.157l-0.404,0.483l-0.685-0.219l-0.398,0.237l-0.901,0.28
					l-1.2-0.348l-1.248-1.646l-1.326-1.071l-0.199-1.087l-0.84-0.956l-0.752-0.161l-1.258,0.145l-1.104,0.634v0.966l-0.438,0.413
					l0.282,0.145l0.577,0.55l0.468,1.891l-0.777,1.198l0.26,0.433l-0.593,1.278l-0.471-0.119l-0.287,0.07l1.439,1.895l-1.13,0.62
					l0.302,0.565l-0.137,1.372l0.799,1.126l0.757,3.409l0.198,1.73l0.002,0.664l0.804,0.535l0.713-0.389l0.571,0.321l0.537-0.34
					l0.534,0.536l1.224-1.157l1.207,1.729l0.581,0.947l1.435,0.74l0.27,1.978l-0.335,0.646l0.116,0.384L74.438,76.936z"/>
			</g>
		</g>
		<g opacity="0.5">
			<g>
				<polygon fill="#FFFFFF" points="62.572,83.753 62.193,83.586 62.004,82.523 62.383,82.048 62.88,81.27 62.761,79.684
					62.691,79.114 62.619,78.667 62.004,77.602 61.058,76.915 60.112,75.684 59.26,75.684 58.147,75.874 56.562,75.684
					55.972,75.329 55.806,75.448 55.758,75.992 55.024,76.182 54.48,75.803 53.842,75.943 53.155,76.844 51.311,76.631
					50.197,76.938 49.749,77.859 48.849,77.721 48.352,78.761 48.305,79.73 48.305,80.182 48.991,81.104 49.132,81.622
					48.943,82.001 48.446,82.048 48.305,83.493 47.333,84.037 46.885,84.771 47.997,85.361 47.902,85.457 48.116,86.309
					48.375,86.402 49.038,85.859 50.126,85.859 50.647,86.592 51.073,86.592 51.333,86.783 51.311,87.137 51.311,87.493
					51.972,87.753 52.564,88.674 52.114,90.096 52.114,90.475 52.54,90.898 52.564,91.229 52.658,91.324 53.487,91.396
					53.487,91.773 54.125,92.841 55.426,92.675 56.562,93.667 58.929,93.027 59.615,92.721 59.709,91.893 60.207,91.089
					60.585,89.764 61.556,88.484 61.484,87.753 61.626,87.682 62.075,87.989 62.336,87.918 62.525,87.441 62.619,86.688
					62.691,86.096 62.336,84.984 62.761,84.534 				"/>
				<path fill="#D94843" d="M56.435,94.22l-1.168-1.021l-1.402,0.179l-0.877-1.523l-0.556-0.048l-0.353-0.358l-0.024-0.327
					l-0.441-0.438l0.023-0.738l0.379-1.197l-0.378-0.588l-0.828-0.325l0.002-0.742h-0.424l-0.521-0.732h-0.651l-0.745,0.61
					l-0.775-0.281l-0.268-1.062l-1.248-0.661l0.793-1.3l0.858-0.48l0.155-1.596l0.601-0.057l-0.056-0.206l-0.729-0.979l0.096-1.803
					l0.657-1.375l0.902,0.139l0.385-0.793l1.426-0.393l1.658,0.191l0.625-0.82l1.031-0.227l0.535,0.372l0.17-0.043l0.038-0.421
					l0.619-0.444l0.78,0.469l1.406,0.169l1.041-0.179l1.183-0.007l1.052,1.369l1.026,0.799l0.676,1.236l0.145,1.034l0.134,1.776
					l-0.855,1.259l0.103,0.579L63,83.395l0.312,1.286l-0.409,0.433l0.298,0.935l-0.21,1.578l-0.281,0.708l-0.647,0.178l0.012,0.119
					l-1.033,1.36l-0.408,1.361l-0.438,0.708l-0.113,1l-0.947,0.423L56.435,94.22z M55.585,92.15l1.104,0.964l2.109-0.569
					l0.352-0.161l0.134-0.755l0.461-0.744l0.441-1.424l0.853-1.123l-0.086-0.878l0.712-0.357l0.359,0.246l0.013-0.032l0.145-1.173
					l-0.412-1.288l0.441-0.468l-0.067-0.276l-0.397-0.176l-0.275-1.547l0.52-0.652l0.377-0.595l-0.229-2.305l-0.516-0.894
					l-0.962-0.724l-0.796-1.036H59.26l-1.1,0.195l-1.908-0.298l-0.027,0.307l-1.298,0.336l-0.553-0.386l-0.246,0.055l-0.749,0.98
					l-2.03-0.234l-0.802,0.221l-0.51,1.051l-0.897-0.139l-0.293,0.614l-0.042,0.869l0,0.261l0.668,0.957l0.19,0.702l-0.398,0.798
					l-0.363,0.034l-0.126,1.295l-1.086,0.607l-0.103,0.169l1.239,0.657l-0.372,0.374l0.017,0.066l0.387-0.316h1.524l0.521,0.732
					h0.333l0.611,0.45l-0.038,0.61l0.495,0.194l0.806,1.254l-0.498,1.666l0.412,0.409l0.013,0.18l0.949,0.083v0.697l0.399,0.668
					L55.585,92.15z"/>
			</g>
		</g>
		<g opacity="0.35">
			<g>
				<polygon fill="#FFFFFF" points="66.098,68.682 65.341,65.273 64.513,64.184 64.655,62.765 64.347,62.174 64.253,61.866
					65.246,61.322 63.898,59.547 64.064,59.192 64.845,59.002 65.034,59.05 65.341,58.388 65.057,57.915 65.887,56.637
					65.506,55.098 65.034,54.649 64.347,54.412 64.015,54.412 63.329,54.743 62.88,54.365 62.478,54.507 62.289,55.051
					61.201,55.051 60.657,54.909 60.703,54.815 61.201,54.223 60.064,52.709 58.881,52.779 57.083,53.465 56.752,53.561
					56.705,53.159 56.397,51.833 55.189,50.958 53.793,48.638 52.99,46.013 52.256,46.461 51.57,47.408 50.647,47.739
					49.795,47.599 49.227,48.071 48.352,48.331 47.24,49.231 48.163,50.46 48.446,51.739 48.305,52.235 47.619,52.732
					46.956,53.229 47.333,54.792 47.808,55.643 47.523,56.282 47.523,57.181 47.997,57.819 47.927,58.151 47.333,58.554
					47.24,59.05 46.624,60.091 46.103,60.328 46.103,60.683 44.022,62.41 43.076,62.079 42.696,62.174 42.696,63.191 42.437,64.682
					42.082,65.463 41.49,67.236 41.939,67.758 43.572,68.607 43.927,70.005 44.116,70.005 45.75,69.578 45.82,69.366 46.103,69.18
					46.53,69.46 47.24,70.598 48.754,72.3 48.707,73.91 50.173,74.809 51.215,75.992 51.311,76.631 53.155,76.844 53.842,75.943
					54.48,75.803 55.024,76.182 55.758,75.992 55.806,75.448 55.972,75.329 56.562,75.684 58.147,75.874 59.26,75.684
					60.112,75.684 60.869,74.643 62.525,74.193 62.785,73.721 62.856,72.396 63.211,71.945 64.204,71.589 65.152,70.811
					65.887,70.645 66.287,70.786 66.287,70.359 				"/>
				<path fill="#D94843" d="M53.38,77.373l-2.506-0.289l-0.131-0.872l-0.895-1.017l-1.648-1.01l0.05-1.702l-1.382-1.554
					l-0.681-1.077l-0.046,0.141l-2.213,0.512h-0.389l-0.396-1.558l-1.582-0.863l-0.634-0.736l0.682-2.043l0.347-0.771l0.248-1.429
					l-0.007-1.322l0.904-0.226l0.82,0.287l1.683-1.396v-0.442l0.671-0.305l0.491-0.83l0.115-0.613l0.545-0.371l-0.402-0.541
					l0.043-1.268l0.183-0.411l-0.402-0.759l-0.454-1.883l1.479-1.095l0.059-0.208l-0.232-1.05l-1.147-1.528l1.659-1.294l0.777-0.231
					l0.665-0.552l0.949,0.156l0.655-0.235l0.74-0.956l1.284-0.783l0.973,3.182l1.312,2.18l1.277,0.925l0.317,1.365l1.693-0.623
					l1.451-0.086l1.537,2.047l-0.261,0.31h0.354l0.151-0.436l0.898-0.316l0.42,0.354l0.612-0.24l0.495,0.027l0.869,0.347l0.577,0.55
					l0.468,1.891l-0.777,1.198l0.26,0.433l-0.593,1.278l-0.471-0.119l-0.287,0.07l1.439,1.895l-1.13,0.62l0.302,0.565l-0.137,1.372
					l0.799,1.126l0.757,3.409l0.198,1.73l0.003,1.189l-0.931-0.329l-0.479,0.108l-1.004,0.787l-0.858,0.308l-0.168,0.214
					l-0.124,1.381L62.86,74.62l-1.69,0.459l-0.804,1.104H59.26l-1.1,0.195l-1.908-0.298l-0.027,0.307l-1.298,0.336l-0.553-0.386
					l-0.246,0.055L53.38,77.373z M51.749,76.178l1.181,0.137l0.625-0.82l1.031-0.227l0.535,0.372l0.17-0.043l0.038-0.421
					l0.619-0.444l0.78,0.469l1.406,0.169l1.041-0.179l0.681-0.005l0.712-0.979l1.621-0.439l0.103-0.187l0.073-1.368l0.542-0.688
					l1.047-0.376l0.973-0.799l0.838-0.189l-0.164-1.422l-0.724-3.249l-0.88-1.158l0.146-1.466l-0.239-0.459l-0.248-0.781
					l0.841-0.461l-1.18-1.553l0.396-0.846l1.018-0.248l0.045-0.097l-0.308-0.514l0.881-1.357l-0.293-1.187l-0.288-0.274
					l-0.639-0.174l-0.875,0.422l-0.414-0.348l-0.196,0.565l-1.569-0.016l-1.135-0.295l0.38-0.746l0.242-0.288l-0.737-0.981
					l-0.838,0.049l-2.664,0.933l-0.115-0.989l-0.256-1.088l-1.192-0.913l-1.446-2.432l-0.614-2.009l-0.099,0.06l-0.718,0.991
					l-1.19,0.427l-0.755-0.125L49.37,48.55l-0.78,0.232l-0.66,0.534l0.722,1.036l0.31,1.402l-0.223,0.784l-1.22,0.894l0.284,1.176
					l0.563,1.01l-0.344,0.771v0.627l0.51,0.686l-0.159,0.75l-0.588,0.399l-0.116,0.454l-0.696,1.176l-0.371,0.202v0.235
					l-2.479,2.058l-0.928-0.325v0.54l-0.304,1.698l-0.355,0.781l-0.483,1.455l0.201,0.233l1.746,0.909l0.298,1.173l1.061-0.277
					l0.039-0.119l0.703-0.463l0.852,0.614l0.71,1.138l1.595,1.783l-0.044,1.519l1.333,0.844l1.139,1.294L51.749,76.178z"/>
			</g>
		</g>
		<g>
			<g>
				<path fill="#FFFFFF" d="M51.215,75.992l-1.042-1.186l-1.467-0.896l0.047-1.61l-1.514-1.702l-0.71-1.138l-0.427-0.28
					l-0.283,0.188l-0.071,0.212l-1.634,0.427h-0.189l-0.355-1.396l-1.633-0.851l-0.449-0.521l-0.45,0.07l-0.332,0.687l-0.544,0.379
					l-2.531-0.047l-0.687,0.354l-0.449,0.687l-1.821,0.19l-1.278-0.285l2.366,2.58l-0.096,0.094l-0.544,0.449l0.403,0.428
					l0.827,1.632l-0.378,0.354l0.143,1.278l-0.498,1.606l-0.449,0.072l-1.585-0.072l0.023-0.426l-0.971-0.14l-0.78,0.565
					l0.236,0.854l-0.426,0.188l-0.354,0.568v0.566h0.213l0.733,0.854l0.048,2.225l-0.308,0.426l-0.189-0.166l-0.189,0.166
					l0.046,0.45l-0.26,0.307l-0.354,0.545l0.117,1.136l0.64-0.33l2.555,1.773l1.065,1.704l0.166,0.663h0.615l1.468,0.497l0.26,0.731
					l0.497,0.758l1.822,0.662l0.78-0.285l0.616-0.73l0.52-0.402l0.9-0.047l0.639-0.711l0.212-1.799l0.875-0.663l0.947-1.135
					l1.135-1.728l0.449-0.733l0.971-0.544l0.141-1.445l0.497-0.047l0.189-0.379l-0.141-0.52l-0.687-0.922V79.73l0.047-0.969
					l0.498-1.041l0.899,0.141l0.449-0.924l1.113-0.307L51.215,75.992z M31.338,83.445l0.166-0.545l-0.449-0.637l-1.468-1.398v0.521
					l1.585,2.246L31.338,83.445z M30.771,79.59l-0.095-0.098l-0.473-0.213l-0.756-0.446l-0.544,0.165l-0.048-0.165l0.095-0.166
					l-0.142-0.119l-0.212-0.047l-0.189,0.448l0.497,0.402l0.402-0.047l1.135,0.497L30.771,79.59z"/>
				<path fill="#D94843" d="M40.258,92.804l-2.149-0.781l-0.641-1.004l-0.179-0.503l-1.161-0.393h-0.922l-0.242-0.965l-0.969-1.55
					l-2.224-1.544l-1.024,0.528l-0.21-2.04l0.322-0.495l-1.772-2.513v-1.711l-0.334,0.039l-0.952-0.771l0.497-1.179l0.738,0.163
					l0.306,0.257l0.17-0.052l0.945,0.558l0.432,0.191l0.435-0.699l0.171-0.075l-0.213-0.771l1.225-0.888l1.624,0.233l-0.021,0.379
					l1.03,0.047l0.092-0.015l0.375-1.21l-0.16-1.424l0.288-0.27l-0.625-1.233l-0.719-0.764l0.653-0.539l-3.093-3.373l2.751,0.614
					l1.503-0.157l0.391-0.598l0.916-0.473l2.496,0.046l0.304-0.212l0.389-0.804l0.983-0.154l0.568,0.658L44,68.27l0.298,1.172
					l1.062-0.277l0.04-0.119l0.702-0.464l0.852,0.614l0.71,1.138l1.595,1.783l-0.044,1.519l1.334,0.842l1.14,1.297l0.177,1.223
					l-1.32,0.363l-0.512,1.053l-0.896-0.14l-0.294,0.614L48.8,79.755l0,0.261l0.669,0.957l0.191,0.703l-0.397,0.798L48.9,82.508
					l-0.126,1.295l-1.085,0.607l-0.381,0.622l-1.143,1.741l-1.063,1.259l-0.705,0.534l-0.206,1.745l-0.883,0.983l-0.952,0.05
					l-0.354,0.274l-0.667,0.791L40.258,92.804z M38.763,91.196l1.494,0.543l0.484-0.177l0.606-0.702l0.644-0.498l0.849-0.044
					l0.394-0.438l0.218-1.853l1-0.758l0.911-1.091l1.609-2.513l0.857-0.48l0.155-1.596l0.601-0.057l-0.056-0.207l-0.729-0.979
					l0.096-1.802l0.659-1.377l0.901,0.142l0.386-0.795l0.906-0.25l-0.008-0.055l-0.894-1.018l-1.649-1.008l0.05-1.702l-1.382-1.554
					l-0.681-1.079l-0.048,0.144l-2.211,0.512h-0.389l-0.396-1.557l-1.582-0.863l-0.218-0.254l-0.241,0.499l-0.784,0.546
					l-2.567-0.048l-0.458,0.236l-0.506,0.775l-1.998,0.209l1.672,1.823l-0.607,0.568l0.12,0.157l0.997,1.966l-0.468,0.439
					l0.126,1.133l-0.621,2.003l-0.806,0.13l-2.14-0.098l0.025-0.473l-0.317-0.046l-0.335,0.243l0.259,0.936l-0.68,0.3l-0.193,0.311
					l0.938,1.093l0.056,2.571l-0.626,0.865l0.001,0.015l-0.104,0.127l-0.002-0.002l-0.291,0.344l-0.22,0.344l0.024,0.233
					l0.256-0.132l2.941,2.091l1.126,1.848l0.071,0.284l0.385,0.026l1.698,0.575l0.321,0.903L38.763,91.196z M29.213,79.819
					l2.187,2.082l0.396,0.55l-0.034-1.537l-0.466-0.543h-0.483v-0.214l-0.327,0.21l-1.256-0.55L29.213,79.819z"/>
			</g>
		</g>
		<g>
			<g>
				<path fill="#FFFFFF" d="M48.163,50.46l-0.922-1.229l-0.261-0.853l-0.685-0.686l-0.805-1.349h-1.467l-0.095-0.875l-0.023-0.64
					l-0.189-1.988l-0.545-0.189l-0.046-0.332l0.497-0.355l-0.403-0.709l-0.141-1.325l-0.663,0.283l-2.44,1.587l-0.355-0.07
					l-0.615,0.189l-1.917-0.663l-1.821,0.095l-2.508-0.686l-0.663,0.26l-0.426,0.64l-0.401-0.095l0.07-0.544l-0.283-0.591
					l-0.521-1.49l0.283-0.285l0.048-0.497l-0.284-0.638l-1.514-0.236l-0.355,0.472l-0.686,0.119l-0.544-0.261l-0.686-0.189
					l-1.137-0.355l-0.284,0.214l0.71,1.325l-0.143,0.78l0.402,1.775l1.585,2.083l0.072,1.68l0.402,0.497l0.047,1.135l-0.236,0.096
					l-0.212,0.685l0.449,0.995l0.805,1.324l0.331,0.119l0.095,0.236l-0.142,0.189h-0.284l-0.473,0.451l0.473,1.301l0.734,0.166
					l0.378-0.425l1.135-0.45l1.135,0.544l1.492-0.117l0.143,0.212l0.544,0.143l1.939-0.451l1.562-0.142l0.451-0.734l0.591,0.308
					l0.213,1.135l0.733-0.023l0.048,0.757l0.993-0.142l0.899-0.804l0.876-0.236l0.638-0.355l0.143,0.142l0.261,2.082l1.325,0.757
					l0.709-0.355l0.143,0.143v0.189l0.425,0.544l0.567,0.048l-0.378-1.562l0.663-0.497l0.686-0.497l0.141-0.496L48.163,50.46z
					 M25.944,46.864l0.143,0.284l0.26-0.094l-0.024-0.119L25.944,46.864z M26.441,46.461l0.355,0.332l0.094-0.142l-0.166-0.189
					L26.441,46.461L26.441,46.461z"/>
				<path fill="#D94843" d="M47.983,55.353l-1.475-0.125l-0.535-0.684l-0.499,0.25L43.7,53.78l-0.226-1.802l-0.221,0.106
					l-0.761,0.205l-0.923,0.826l-1.679,0.24l-0.051-0.814l-0.677,0.021l-0.236-1.255l-0.312,0.508l-1.812,0.165l-1.992,0.468
					l-0.846-0.223l-0.085-0.126l-1.335,0.104l-1.06-0.507l-0.821,0.326l-0.495,0.557l-1.289-0.292l-0.678-1.864l0.627-0.599l0,0
					L28.025,48.5l-0.556-1.222l0.338-1.092l0.13-0.053l-0.026-0.618l-0.402-0.497l-0.072-1.688l-1.58-2.151l-0.425-1.875l0.13-0.708
					l-0.83-1.549l0.832-0.626l2.051,0.616l0.48,0.223l0.336-0.058l0.417-0.553l2.08,0.324l0.448,1.007l-0.078,0.806l-0.188,0.189
					l0.418,1.195l0.198,0.409l0.041-0.062l0.963-0.377l2.591,0.708l1.838-0.096l1.855,0.642l0.579-0.178l0.279,0.055l2.27-1.476
					l1.361-0.589l0.202,1.894l0.574,1.01l-0.375,0.268l0.278,0.096l0.288,3.37h1.303l0.918,1.54l0.729,0.73l0.272,0.888l0.958,1.352
					l0.31,1.407l-0.222,0.784l-1.219,0.893L47.983,55.353z M44.63,53.16l0.876,0.5l0.792-0.397l0.199,0.199l-0.104-0.431
					l1.479-1.094l0.059-0.208l-0.232-1.056l-0.935-1.296l-0.225-0.734l-0.672-0.695l-0.66-1.105h-1.632l-0.326-3.636l-0.531-0.184
					l-0.129-0.935l0.376-0.269l-0.243-0.511l-0.07-0.652l-0.041,0.018l-2.534,1.657l-0.431-0.085l-0.651,0.2l-1.979-0.685
					l-1.804,0.094l-2.426-0.664l-0.362,0.142l-0.532,0.799l-1.177-0.28l0.108-0.844l-0.219-0.458l-0.645-1.836l0.377-0.38
					l0.019-0.188l-0.12-0.269l-0.949-0.148l-0.293,0.391l-1.039,0.18l-0.688-0.33l-1.067-0.303l0.41,0.765l-0.156,0.851l0.356,1.569
					l1.614,2.121l0.072,1.672l0.402,0.497l0.069,1.651l-0.343,0.14l-0.086,0.278l0.371,0.823l0.684,1.118l0.376,0.136l0.285,0.705
					l-0.462,0.614h-0.333l-0.091,0.087l0.268,0.737l0.181,0.041l0.26-0.293l1.449-0.575l1.211,0.581l1.648-0.129l0.201,0.297
					l0.242,0.063l1.818-0.423l1.38-0.13l0.564-0.918l1.219,0.636l0.179,0.953l0.789-0.025l0.044,0.701l0.308-0.044l0.875-0.782
					l0.931-0.251l0.914-0.508l0.531,0.529L44.63,53.16z M25.84,47.769l-0.797-1.581l0.467,0.087l-0.334-0.312h1.775l0.568,0.646
					l-0.632,0.954l-0.131-0.123L25.84,47.769z"/>
			</g>
		</g>
		<g>
			<g>
				<polygon fill="#FFFFFF" points="87.962,55.098 87.771,54.365 86.991,54.128 86.52,53.655 85.95,53.655 86.045,53.181
					86.141,52.543 86.637,52.235 86.542,51.952 85.926,51.786 85.003,50.698 84.27,50.603 83.963,50.059 84.436,49.75 84.15,49.467
					82.874,48.875 81.479,48.165 81.027,47.408 80.414,47.291 80.343,46.698 80.271,46.249 79.516,45.658 79.516,44.521
					79.964,44.001 79.964,43.456 80.343,42.748 80.152,42.155 79.277,41.067 79.562,40.499 79.516,39.932 79.964,39.6 79.82,38.984
					80.152,38.464 79.916,38.157 80.152,37.163 80.059,35.672 80.936,35.436 81.738,35.293 81.738,35.057 81.406,34.654
					80.461,34.347 79.111,33.234 78.189,33.164 78,32.88 78.07,32.477 77.645,31.886 77.455,31.484 77.74,30.703 77.622,30.277
					77.883,29.472 77.74,29.07 77.455,29.142 76.841,29.71 76.32,31.129 75.8,31.649 74.568,31.886 73.41,31.792 73.456,33.519
					73.078,33.921 73.104,34.892 72.227,35.837 71.966,36.831 72.154,37.281 72.154,37.518 72.512,38.062 72.415,38.701
					72.061,38.843 71.753,39.339 70.713,39.292 70.617,39.553 69.244,40.144 69.15,41.469 69.884,41.919 69.672,42.204
					69.292,42.155 68.796,42.297 69.009,42.865 68.7,43.197 68.652,43.528 68.818,43.694 69.292,43.622 69.387,43.788
					68.251,45.516 68.299,45.965 68.016,46.415 67.873,47.054 68.464,47.55 68.251,47.739 67.92,48.237 68.204,48.545
					68.559,48.426 68.749,48.449 68.818,48.734 68.464,49.325 68.536,49.822 67.564,50.437 67.92,51.478 68.914,51.691
					69.954,52.875 70.145,53.916 71.374,54.909 72.559,56.471 73.456,56.731 74.214,56.495 74.688,56.187 75.277,56.376
					75.634,55.95 77.455,56.116 77.74,55.95 77.385,55.453 77.527,55.193 78.189,55.336 78.663,55.004 79.704,55.264 80.012,56.14
					81.052,57.251 80.65,57.772 81.1,58.151 81.052,58.672 81.384,58.672 81.645,58.506 81.881,58.601 81.691,59.002 82.094,59.239
					82.639,59.428 82.922,59.239 83.3,59.428 83.749,59.879 84.436,59.428 84.508,58.908 85.288,58.506 86.045,58.742
					86.613,58.458 86.874,57.323 87.156,56.329 87.605,56.282 87.962,55.738 88.294,55.69 88.458,55.264 				"/>
				<path fill="#D94843" d="M83.683,60.521l-0.725-0.704l-0.248,0.166l-0.78-0.271l-0.886-0.511l0.014-0.029h-0.554l0.074-0.807
					l-0.616-0.519l0.435-0.563l-0.856-0.977l-0.219-0.622l-0.558-0.14l-0.466,0.326l0.169,0.235l-0.898,0.522l-1.72-0.157
					l-0.403,0.483l-0.685-0.219l-0.398,0.237l-0.901,0.28l-1.2-0.348l-1.248-1.646l-1.326-1.071l-0.199-1.087l-0.84-0.956
					l-1.109-0.237l-0.574-1.682l1.031-0.653l-0.052-0.352l0.08-0.134l-0.737-0.8l0.458-0.688l-0.425-0.356l0.273-1.093l0.19-0.304
					l-0.049-0.454l0.823-1.251l-0.436-0.436l0.105-0.733l0.205-0.22l-0.295-0.786l0.591-0.168l-0.099-0.06l0.137-1.931l1.477-0.686
					l0.127-0.344l1.112,0.05l0.24-0.387l0.241-0.096l0.024-0.167l-0.334-0.509v-0.286l-0.215-0.514l0.335-1.279l0.824-0.888
					l-0.025-0.973l0.378-0.401l-0.056-2.078l1.646,0.133l1.014-0.195l0.334-0.334l0.524-1.428l0.796-0.736l0.851-0.215l0.352,0.992
					l-0.268,0.823l0.121,0.436l-0.269,0.735l0.101,0.213l0.502,0.683l-0.058,0.334l0.767,0.058l1.398,1.154l0.993,0.322l0.539,0.655
					v0.834l-1.655,0.336l0.073,1.158l-0.198,0.835l0.305,0.396l-0.407,0.639l0.17,0.731l-0.488,0.362l0.035,0.429l-0.204,0.406
					l0.76,0.999l0.256,0.794l-0.42,0.785v0.605l-0.448,0.52v0.708l0.719,0.562l0.132,0.893l0.476,0.091l0.492,0.826l1.267,0.644
					l1.402,0.683l0.724,0.719l-0.501,0.328l0.533,0.069l0.947,1.116l0.725,0.195l0.306,0.912l-0.636,0.395l-0.046,0.309h0.173
					l0.529,0.531l0.928,0.282l0.193,0.742l0.734,0.246l-0.457,1.187l-0.398,0.058l-0.363,0.554l-0.349,0.037l-0.189,0.668
					l-0.308,1.34l-0.96,0.479l-0.753-0.235l-0.367,0.189l-0.068,0.488L83.683,60.521z M82.886,58.662l0.769,0.413l0.161,0.162
					l0.156-0.103l0.076-0.552l1.193-0.615l0.761,0.238l0.177-0.089l0.208-0.905l0.381-1.345l0.55-0.057l0.224-0.342l-0.183-0.705
					l-0.633-0.192l-0.414-0.415H85.34l0.343-1.916l-0.037-0.01l-0.898-1.06l-0.79-0.103l-0.659-1.169l0.245-0.161l-0.879-0.408
					l-1.541-0.783l-0.41-0.688l-0.752-0.144l-0.152-1.191l-0.793-0.62v-1.566l0.448-0.52v-0.485l0.338-0.631l-0.097-0.303
					l-1.019-1.267l0.366-0.729l-0.059-0.705l0.408-0.302l-0.117-0.501l0.257-0.401l-0.168-0.217l0.274-1.153l-0.114-1.825
					l1.219-0.328l-0.61-0.234l-1.228-1.012l-1.007-0.077l-0.436-0.653l0.069-0.392l-0.304-0.421l-0.324-0.669l0.302-0.826
					l-0.086-0.309l-0.456,1.109l-0.629,0.628l-1.449,0.279l-0.671-0.054l0.036,1.376l-0.378,0.402l0.025,0.969l-0.93,1.002
					l-0.187,0.709l0.162,0.575l0.381,0.579l-0.169,1.112l-0.468,0.187l-0.375,0.605l-0.968-0.043l-0.043,0.119l-1.291,0.556
					l-0.051,0.718l0.94,0.578l-0.713,0.958l-0.424-0.055l0.11,0.297l-0.1,0.107l0.071-0.011l0.416,0.73l-1.205,1.834l0.047,0.443
					l-0.33,0.524l-0.058,0.258l0.802,0.672l-0.46,0.409l0.385,0.047l0.199,0.82l-0.368,0.615l0.093,0.641l-0.912,0.578l0.137,0.4
					l0.879,0.188l1.24,1.412l0.182,0.995l1.17,0.963l1.084,1.43l0.595,0.172l0.548-0.171l0.615-0.4l0.495,0.159l0.309-0.369
					l1.428,0.13l-0.051-0.07l0.474-0.863l0.812,0.176l0.481-0.338l1.524,0.381l0.361,1.031l1.259,1.344l-0.368,0.479l0.282,0.239
					l-0.002,0.02l0.94,0.379l-0.221,0.468l0.009,0.005l0.215,0.069L82.886,58.662z"/>
			</g>
		</g>
		<g opacity="0.75">
			<g>
				<polygon fill="#FFFFFF" points="79.466,88.723 78.781,88.484 78.473,88.036 78.378,87.255 76.414,86.948 75.729,87.493
					75.374,87.441 74.568,87.441 74.924,86.096 74.828,85.575 73.291,83.941 72.604,82.9 72.913,81.032 73.195,79.398 72.7,77.625
					73.104,77.031 73.788,76.466 74.145,75.779 73.932,74.217 72.604,73.531 71.966,72.49 71.091,71.236 70.191,72.087
					69.884,72.277 69.34,71.732 68.889,72.018 68.299,71.686 67.564,72.087 66.287,71.236 66.287,70.786 65.887,70.645
					65.152,70.811 64.204,71.589 63.211,71.945 62.856,72.396 62.785,73.721 62.525,74.193 60.869,74.643 60.112,75.684
					61.058,76.915 62.004,77.602 62.619,78.667 62.691,79.114 62.761,79.684 62.88,81.27 62.383,82.048 62.004,82.523
					62.193,83.586 62.572,83.753 62.761,84.534 62.336,84.984 62.691,86.096 62.619,86.688 62.525,87.441 62.336,87.918
					62.075,87.989 61.626,87.682 61.484,87.753 61.556,88.484 60.585,89.764 60.207,91.089 59.709,91.893 59.615,92.721
					58.929,93.027 59.473,93.432 59.567,94.163 59.922,94.566 60.112,95.111 59.828,96.484 60.253,96.719 60.253,97.477
					60.657,96.932 61.745,96.531 62.1,96.909 62.525,96.932 63.329,96.438 63.52,95.773 63.898,95.184 63.922,94.639 64.465,93.977
					65.199,93.266 65.482,94.307 66.027,94.307 66.523,94.805 66.713,95.986 67.21,96.531 68.204,93.5 68.818,93.95 70.238,92.531
					71.091,94.448 71.872,93.879 72.203,93.407 72.463,93.359 72.889,93.432 72.913,93.667 73.148,93.811 73.434,93.667
					74.214,94.448 74.498,95.111 74.971,94.805 75.609,93.811 76.059,93.714 76.201,93.407 77.693,92.271 77.74,91.939
					78.143,91.702 78.143,91.441 78.781,90.945 78.757,90.663 				"/>
				<path fill="#D94843" d="M59.753,98.989v-1.976l-0.489-0.27l0.331-1.599l-0.112-0.322l-0.392-0.444l-0.086-0.673l-1.059-0.787
					l1.205-0.538l0.134-0.752l0.461-0.744l0.441-1.424l0.853-1.123l-0.086-0.878l0.712-0.357l0.359,0.246l0.013-0.032l0.145-1.173
					l-0.412-1.288l0.441-0.468l-0.067-0.276l-0.397-0.176l-0.275-1.547l0.52-0.652l0.377-0.595l-0.229-2.305l-0.516-0.894
					l-0.962-0.724l-1.174-1.528l1.081-1.485l1.621-0.439l0.103-0.187l0.073-1.368l0.542-0.688l1.047-0.376l0.973-0.799l0.991-0.224
					l0.87,0.308v0.536l0.803,0.534l0.713-0.389l0.571,0.321l0.537-0.34l0.534,0.536l1.224-1.157l1.207,1.729l0.581,0.947l1.435,0.74
					l0.27,1.978l-0.555,0.982l-0.63,0.52l-0.232,0.343l0.463,1.658l-0.578,3.416l0.579,0.878l1.585,1.674l0.143,0.775l-0.218,0.826
					l0.366,0.028l0.69-0.55l2.555,0.399l0.125,1.034l0.146,0.213l1.009,0.351l-0.845,2.313l0.038,0.442l-0.66,0.529v0.285
					l-0.441,0.261l-0.041,0.297l-1.558,1.186l-0.195,0.42l-0.489,0.105l-0.675,0.969l-0.971,0.629l-0.48-1.12l-0.457-0.457
					l-0.21,0.105l-0.687-0.44l-0.271,0.342l-1.281,0.934l-0.809-1.817l-1.209,1.207l-0.403-0.296l-1.047,3.19l-1.175-1.288
					l-0.188-1.17l-0.236-0.236H65.1l-0.161-0.593l-0.126,0.122l-0.398,0.49l-0.022,0.514l-0.411,0.642l-0.225,0.78l-1.102,0.678
					l-0.781-0.042l-0.266-0.282L60.97,97.35L59.753,98.989z M62.327,96.421l0.069,0.003l0.506-0.311l0.197-0.609l0.305-0.477
					l0.025-0.577l0.648-0.791l1.382-1.342l0.404,1.489h0.371l0.756,0.76l0.111,0.689l0.841-2.566l0.825,0.604l1.631-1.631
					l0.896,2.017l0.215-0.156l0.4-0.571l0.548-0.101l0.888,0.15l0.015,0.142l0.171-0.086l1.165,1.248l0.604-0.94l0.409-0.088
					l0.09-0.193l1.427-1.086l0.053-0.367l0.363-0.214v-0.221l0.617-0.479l-0.011-0.122l0.573-1.567l-0.36-0.126l-0.471-0.684
					l-0.064-0.528l-1.373-0.214L75.87,88.02l-0.568-0.083l-1.383,0.005l0.493-1.865l-0.049-0.266l-1.437-1.526l-0.849-1.272
					l0.605-3.587l-0.527-1.889l0.629-0.891l0.606-0.5l0.236-0.456l-0.156-1.147l-1.222-0.631l-0.711-1.16l-0.526-0.753l-0.559,0.514
					l-0.645,0.399l-0.541-0.542l-0.365,0.23l-0.608-0.343l-0.756,0.414l-1.752-1.167V71.18l-0.41,0.093l-1.004,0.787l-0.858,0.308
					l-0.168,0.214l-0.124,1.381L62.86,74.62l-1.69,0.459l-0.434,0.597l0.674,0.877l1.026,0.799l0.676,1.236l0.145,1.034l0.134,1.776
					l-0.855,1.259l0.103,0.579L63,83.395l0.312,1.286l-0.409,0.433l0.298,0.935l-0.21,1.578l-0.281,0.708l-0.647,0.178l0.012,0.119
					l-1.033,1.36l-0.408,1.361l-0.438,0.708l-0.113,1l-0.167,0.075l0.029,0.021l0.102,0.79l0.351,0.454l0.235,0.676l-0.237,1.147
					l0.295,0.163l1.195-0.44L62.327,96.421z"/>
			</g>
		</g>
		<g opacity="0.5">
			<g>
				<polygon fill="#FFFFFF" points="73.104,34.892 73.078,33.921 73.456,33.519 73.41,31.792 72.415,31.697 71.471,31.886
					71.423,31.744 71.658,31.508 71.327,31.2 70.382,31.98 69.104,31.058 68.371,31.484 67.968,31.247 67.684,31.484 67.66,31.886
					64.891,31.98 64.56,31.578 63.069,31.649 62.431,32.288 62.193,31.413 61.721,31.153 59.662,30.703 59.165,31.034
					58.929,30.892 58.881,30.655 59.473,30.064 59.118,29.663 57.84,29.756 56.705,30.254 56.42,30.064 56.302,29.236
					54.244,28.432 52.752,28.526 52.469,28.692 52.351,29.308 53.534,30.56 53.534,30.751 53.392,30.798 52.303,30.443
					51.57,31.508 51.096,32.005 51.57,32.384 52.54,33.472 53.155,33.85 53.889,35.341 53.817,35.719 53.699,36.335 54.22,36.429
					54.22,36.618 53.676,37.258 53.793,38.204 54.48,38.89 54.338,39.292 53.936,39.883 54.338,40.287 54.622,41.469 53.936,41.966
					54.907,42.841 56.255,42.487 56.894,42.108 58.029,42.51 58.312,42.748 58.976,42.321 60.348,43.292 60.963,43.433
					61.248,43.197 61.342,43.101 61.887,43.646 62.478,43.149 64.607,43.386 64.963,43.149 65.744,43.528 66.975,45.114
					68.251,45.516 69.387,43.788 69.292,43.622 68.818,43.694 68.652,43.528 68.7,43.197 69.009,42.865 68.796,42.297
					69.292,42.155 69.672,42.204 69.884,41.919 69.15,41.469 69.244,40.144 70.617,39.553 70.713,39.292 71.753,39.339
					72.061,38.843 72.415,38.701 72.512,38.062 72.154,37.518 72.154,37.281 71.966,36.831 72.227,35.837 				"/>
				<path fill="#D94843" d="M68.461,46.106l-1.785-0.562l-1.255-1.618l-0.419-0.203l-0.27,0.179l-2.097-0.233l-0.777,0.654
					l-0.539-0.538l-0.229,0.189L60.059,43.7l-1.096-0.776l-0.69,0.444l-0.496-0.417l-0.829-0.293l-0.566,0.313l-1.609,0.423
					l-1.631-1.47l0.916-0.663l-0.173-0.72l-0.594-0.597l0.613-0.922l-0.585-0.584l-0.166-1.335l0.264-0.309l-0.303-0.055
					l0.253-1.326l-0.597-1.211l-0.603-0.396l-0.97-1.088l-0.839-0.662l0.85-0.892l0.895-1.312l0.106,0.035l-0.397-0.421l0.209-1.09
					l0.581-0.341l1.722-0.108l2.432,0.95l0.109,0.762l0.939-0.381l1.525-0.111l0.831,0.938l-0.177,0.176l1.98,0.454l0.657,0.363
					l0.067,0.246l0.165-0.165l1.935-0.092l0.333,0.405l2.067-0.07l0.01-0.163l0.721-0.601l0.454,0.267l0.761-0.442l1.229,0.886
					l0.985-0.813l0.767,0.712l0.276-0.055l1.509,0.144l0.062,2.375l-0.378,0.402l0.025,0.969l-0.93,1.002l-0.187,0.709l0.162,0.575
					l0.381,0.579l-0.169,1.112l-0.468,0.187l-0.375,0.605l-0.968-0.043l-0.043,0.119l-1.291,0.556l-0.051,0.718l0.94,0.578
					l-0.713,0.958l-0.424-0.055l0.11,0.297l-0.1,0.107l0.071-0.011l0.416,0.73L68.461,46.106z M67.273,44.684l0.768,0.242
					l0.517-0.786l-0.436-0.436l0.105-0.733l0.205-0.22l-0.295-0.786l0.591-0.168l-0.099-0.06l0.137-1.931l1.477-0.686l0.127-0.344
					l1.112,0.05l0.24-0.387l0.241-0.096l0.024-0.167l-0.334-0.509v-0.286l-0.215-0.514l0.335-1.279l0.824-0.888l-0.025-0.973
					l0.378-0.401l-0.029-1.079l-0.481-0.045l-1.303,0.26l-0.121-0.357l-0.614,0.507l-1.328-0.958l-0.704,0.41l-0.212-0.125
					l-0.025,0.432l-3.471,0.118l-0.329-0.399l-1.047,0.05l-1.111,1.113l-0.409-1.504l-0.223-0.123l-1.781-0.389l-0.584,0.389
					l-0.695-0.419l-0.146-0.715l0.292-0.292l-0.667,0.049l-1.306,0.573l-0.699-0.466l-0.108-0.761l-1.683-0.657l-1.249,0.079
					l-0.026,0.134l1.144,1.21v0.751l-0.641,0.211l-0.89-0.29l-0.672,0.918l0.051,0.041l0.981,1.091L53.54,33.5l0.872,1.771
					l-0.126,0.663l0.435,0.079v0.791l-0.521,0.612l0.069,0.557l0.789,0.788l-0.305,0.814l-0.17,0.25l0.21,0.211l0.395,1.643
					l-0.457,0.331l0.312,0.28l1.019-0.268l0.78-0.462l1.511,0.569l0.638-0.41l1.567,1.109l0.278,0.064l0.149-0.139l0.353-0.362
					l0.579,0.579l0.404-0.34l2.161,0.24l0.442-0.294l1.144,0.555L67.273,44.684z"/>
			</g>
		</g>
		<g opacity="0.35">
			<g>
				<polygon fill="#FFFFFF" points="101.922,84.439 101.591,83.896 100.361,82.948 100.006,81.766 99.366,81.125 98.539,81.032
					98.35,80.725 98.277,80.346 100.123,78.311 99.579,76.915 98.277,76.134 97.898,75.543 98.088,74.051 97.591,73.438
					97.498,72.466 96.243,72.23 93.807,72.868 93.191,73.507 92.859,74.217 93.049,74.854 93.451,75.046 93.521,75.258
					92.314,76.275 90.966,76.727 90.825,76.371 91.061,75.874 91.818,75.496 91.961,73.816 91.463,73.082 89.736,74.761
					88.742,75.046 88.507,74.738 87.866,74.643 87.323,75.258 86.825,75.424 86.423,74.809 86.141,74.809 85.191,73.625
					83.82,72.68 83.68,72.773 82.282,73.057 81.027,77.27 80.555,76.678 80.604,76.395 80.365,76.087 80.461,75.874 80.271,75.589
					79.729,75.496 79.516,76.087 79.277,76.039 79.111,75.708 78.781,75.779 78.566,76.229 78,75.779 77.645,76.134 77.787,76.631
					77.883,76.938 76.841,77.907 76.557,77.602 75.421,77.527 74.568,77.859 74.285,77.412 73.883,77.27 73.932,76.938
					73.788,76.466 73.104,77.031 72.7,77.625 73.195,79.398 72.913,81.032 72.604,82.9 73.291,83.941 74.828,85.575 74.924,86.096
					74.568,87.441 75.374,87.441 75.729,87.493 76.414,86.948 78.378,87.255 78.473,88.036 78.781,88.484 79.466,88.723
					78.757,90.663 78.781,90.945 78.143,91.441 78.143,91.702 77.74,91.939 77.693,92.271 76.201,93.407 76.059,93.714
					75.609,93.811 74.971,94.805 74.498,95.111 75.066,97.004 75.609,97.027 76.012,98.305 76.699,98.589 76.841,99.844
					77.455,99.631 77.883,99.984 78.236,100.532 78.473,100.532 78.521,100.129 78.663,99.751 79.111,99.656 79.798,99.984
					80.365,99.393 81.312,99.891 81.596,100.176 81.834,99.561 82.874,99.561 83.205,100.316 83.324,100.436 83.68,100.034
					84.436,99.891 85.052,99.348 85.501,99.489 86.021,99.273 86.329,100.436 86.542,100.579 86.968,100.247 87.275,100.414
					87.369,100.482 87.677,100.176 88.057,100.342 88.294,100.859 88.555,100.768 89.357,101.549 89.949,101.17 89.877,101.075
					89.643,100.579 90.02,100.223 90.375,100.886 90.493,100.859 90.637,100.342 90.637,99.984 90.186,98.707 89.83,98.755
					89.452,98.66 89.238,98.802 89.098,98.707 88.104,97.619 88.198,97.477 88.646,97.525 88.555,96.932 88.695,96.909
					89.877,96.932 90.139,96.531 89.736,95.868 90.115,94.755 90.471,94.732 90.966,94.448 91.182,94.495 91.416,93.857
					91.51,93.619 92.74,92.744 92.671,92.531 93.096,92.13 93.782,91.939 95.036,91.158 95.225,90.119 95.105,89.954 94.326,90
					94.184,89.716 94.682,88.604 95.723,89.337 96.503,89.266 97.591,88.391 98.137,87.824 99.65,87.939 100.146,87.824
					100.715,86.783 101.377,86.354 101.922,85.811 101.757,85.172 				"/>
				<path fill="#D94843" d="M89.293,102.184l-0.865-0.842l-0.398,0.141l-0.3-0.653l-0.31,0.309l-0.404-0.294l-0.452,0.353
					l-0.67-0.451l-0.209-0.791l-0.16,0.066l-0.354-0.111l-0.508,0.447l-0.723,0.137l-0.594,0.672l-0.6-0.648l-0.2-0.456h-0.37
					l-0.393,1.014l-0.772-0.776l-0.546-0.287l-0.558,0.581l-0.859-0.411l-0.014,0.003l-0.024,0.064l-0.095,0.784h-0.952
					l-0.459-0.712l-0.151-0.125l-0.939,0.325l-0.179-1.582l-0.631-0.261l-0.367-1.166l-0.548-0.023l-0.778-2.593l0.697-0.452
					l0.692-1.078l0.409-0.088l0.09-0.193l1.427-1.086l0.052-0.367l0.364-0.214v-0.221l0.617-0.479l-0.011-0.122l0.573-1.567
					l-0.36-0.126l-0.471-0.684l-0.064-0.528l-1.373-0.215L75.87,88.02l-0.568-0.083l-1.383,0.005l0.493-1.865l-0.049-0.266
					l-1.437-1.526l-0.849-1.271l0.605-3.588l-0.527-1.889l0.629-0.891l1.263-1.043l0.395,1.297l-0.005,0.036l0.178,0.063
					l0.155,0.245l0.572-0.223l1.444,0.094l0.079,0.085l0.445-0.414l-0.229-0.798l0.879-0.877l0.424,0.336l0.05-0.104l0.886-0.191
					l0.079-0.219l1.168,0.2l0.396,0.596l0.924-3.103l1.654-0.362l0.282-0.188l1.756,1.237l0.842,0.996h0.271l0.339,0.519
					l0.005-0.001l0.634-0.719l1.11,0.166l0.15,0.198l0.546-0.157l2.064-2.007l0.932,1.375l-0.018,0.217l0.375-0.739l0.713-0.74
					l2.681-0.701l1.735,0.325l0.114,1.196l0.536,0.662l-0.193,1.523l0.218,0.34l1.349,0.809l0.718,1.843l-1.886,2.08l0.021,0.065
					l0.759,0.085l0.853,0.854l0.346,1.149l1.224,0.985l0.437,0.716l-0.183,0.812l0.206,0.799l-0.828,0.81l-0.557,0.361l-0.615,1.127
					l-0.789,0.183l-1.355-0.103l-0.382,0.396l-1.253,1.013l-1.054,0.096l0.11,0.153l-0.267,1.467l-1.572,0.955l-0.567,0.157
					l-0.104,0.1l0.085,0.261l-1.408,1.002l-0.42,1.136l-0.453-0.099l-0.43,0.246l-0.138,0.009l-0.195,0.576l0.444,0.732
					l-0.585,0.896l-1.009-0.019l0.104,0.675l-0.029-0.003l0.074,0.081l0.075-0.05l0.498,0.125l0.663-0.089l0.615,1.827l-0.019,0.491
					l-0.224,0.807l-0.297,0.066L89.293,102.184z M88.682,100.193l0.418,0.407l-0.064-0.136l0.931-0.879l-0.116-0.329l-0.048,0.007
					l-0.258-0.064l-0.308,0.204l-0.508-0.359l-1.258-1.376l0.479-0.722l0.103,0.012l-0.068-0.441l0.632-0.102l0.874,0.012
					l-0.303-0.499l0.562-1.65l0.573-0.036l0.531-0.306l0.244-0.638l1.053-0.748l-0.054-0.165l0.745-0.703l0.736-0.205l1.005-0.626
					l0.066-0.369l-0.623,0.037l-0.397-0.791l0.844-1.883l1.387,0.978l0.447-0.041l0.97-0.78l0.663-0.693l1.672,0.128l0.203-0.048
					l0.521-0.955l0.724-0.47l0.306-0.305l-0.124-0.479l0.147-0.652l-0.178-0.291l-1.283-0.99l-0.365-1.216l-0.427-0.428
					l-0.896-0.101l-0.383-0.684l-0.119-0.624l1.806-1.99l-0.369-0.948l-1.256-0.754l-0.54-0.842l0.186-1.461l-0.458-0.564
					l-0.071-0.747l-0.774-0.146l-2.192,0.574l-0.46,0.478l-0.217,0.463l0.072,0.241l0.394,0.188l0.244,0.735l-1.63,1.328
					l-1.798,0.601l-0.395-0.997l0.402-0.85l0.661-0.33l0.104-1.224l-0.063-0.094l-1.389,1.351l-1.442,0.413l-0.32-0.417
					l-0.171-0.025l-0.452,0.512l-0.992,0.331l-0.477-0.712H85.9l-1.053-1.313l-1.063-0.732l-1.108,0.225l-1.442,4.842l-1.21-1.515
					l0.05-0.288l-0.126-0.162l-0.107,0.298l-0.846-0.17l-0.247,0.518l-0.423-0.335l0.13,0.414l-1.639,1.525l-0.489-0.526
					l-0.827-0.055l-1.133,0.441l-0.411-0.649l-0.627-0.222l0.003-0.017l-0.087,0.127l0.463,1.658l-0.578,3.416l0.579,0.878
					l1.585,1.674l0.143,0.775l-0.218,0.826l0.366,0.028l0.69-0.55l2.555,0.399l0.125,1.034l0.146,0.213l1.009,0.351l-0.845,2.313
					l0.038,0.442l-0.66,0.529v0.285l-0.44,0.261l-0.042,0.297l-1.558,1.186l-0.195,0.42l-0.489,0.105l-0.675,0.969l-0.158,0.103
					l0.358,1.192l0.538,0.023l0.438,1.389l0.744,0.308l0.104,0.928l0.289-0.101l0.633,0.522l0.102-0.271l0.883-0.187l0.514,0.245
					l0.577-0.603l1.111,0.585l0.115-0.299h1.71l0.225,0.513l0.782-0.148l0.725-0.639l0.545,0.172l0.881-0.365l0.328,1.239
					l0.232-0.181l0.372,0.202l0.273-0.272l0.867,0.379l0.127,0.276L88.682,100.193z M92.408,74.455l-0.099,1.171l0.433-0.365
					l-0.109-0.052L92.408,74.455z"/>
			</g>
		</g>
	</g>
</g>
</svg>
