<?xml version="1.0" encoding="utf-8"?>
<!-- Generator: Adobe Illustrator 16.0.0, SVG Export Plug-In . SVG Version: 6.00 Build 0)  -->
<!DOCTYPE svg PUBLIC "-//W3C//DTD SVG 1.1//EN" "http://www.w3.org/Graphics/SVG/1.1/DTD/svg11.dtd">
<svg version="1.1" id="Layer_1" xmlns="http://www.w3.org/2000/svg" xmlns:xlink="http://www.w3.org/1999/xlink" x="0px" y="0px"
	 width="170px" height="170px" viewBox="0 0 170 170" enable-background="new 0 0 170 170" xml:space="preserve">
<path fill="#50B43C" d="M169.5,85c0,46.67-37.839,84.5-84.5,84.5S0.5,131.67,0.5,85S38.339,0.5,85,0.5S169.5,38.33,169.5,85z"/>
<path fill="#FFFFFF" d="M118.464,65.388c-1.66-5.289-5.806-8.628-10.879-8.805c-0.135-2.758-1.161-5.235-3.015-7.235
	c-2.506-2.705-6.418-4.319-10.465-4.319c-3.155,0-6.078,0.976-8.312,2.73c-2.326-4.334-6.523-7.272-11.379-7.843
	c-6.011-0.706-11.424,1.706-15.315,6.746c-0.772-0.975-1.588-1.825-2.691-2.494c-2.162-1.315-4.454-1.982-6.813-1.982
	c-5.123,0-9.935,3.188-12.259,8.121c-1.862,3.953-1.687,8.265,0.399,11.925c-7.653,2.145-10.761,9.444-10.351,15.841
	c0.662,10.316,8.198,15.015,14.92,15.014c0.453,0,0.915-0.019,1.381-0.055c-0.118,3.126,0.845,6.046,2.793,8.378
	c2.557,3.059,6.604,4.885,10.828,4.885c2.756,0,5.34-0.757,7.555-2.201c3.044,3.192,6.42,4.969,10.285,5.418
	c0.77,0.089,1.542,0.134,2.293,0.134c6.218,0,11.703-2.987,16.317-8.882c8.224,1.404,14.826-0.526,18.602-5.365
	c3.066-3.93,4.001-9.454,2.668-15.639C118.754,76.567,120.171,70.823,118.464,65.388z"/>
<path fill="#FFFFFF" d="M113.916,101.721c-4.87,0-8.833,3.963-8.833,8.834c0,4.87,3.963,8.832,8.833,8.832s8.833-3.962,8.833-8.832
	C122.749,105.684,118.786,101.721,113.916,101.721z"/>
<path fill="#FFFFFF" d="M131.416,114.809c-2.939,0-5.33,2.391-5.33,5.33s2.391,5.33,5.33,5.33s5.33-2.391,5.33-5.33
	S134.355,114.809,131.416,114.809z"/>
</svg>
