<?xml version="1.0" encoding="utf-8"?>
<!-- Generator: Adobe Illustrator 16.0.0, SVG Export Plug-In . SVG Version: 6.00 Build 0)  -->
<!DOCTYPE svg PUBLIC "-//W3C//DTD SVG 1.1//EN" "http://www.w3.org/Graphics/SVG/1.1/DTD/svg11.dtd">
<svg version="1.1" id="Layer_1" xmlns="http://www.w3.org/2000/svg" xmlns:xlink="http://www.w3.org/1999/xlink" x="0px" y="0px"
	 width="170px" height="170px" viewBox="0 0 170 170" enable-background="new 0 0 170 170" xml:space="preserve">
<path fill="#50B43C" d="M169.5,85c0,46.67-37.839,84.5-84.5,84.5S0.5,131.67,0.5,85S38.339,0.5,85,0.5S169.5,38.33,169.5,85z"/>
<g>
	<g>
		<path fill="#FFFFFF" d="M98.641,123.962c-1.183-0.237-2.55-0.552-4.436-1.018c-1.728-0.429-3.309-0.944-4.699-1.531l1.557-3.686
			c1.199,0.507,2.58,0.956,4.104,1.334c1.824,0.451,3.139,0.753,4.261,0.979L98.641,123.962z M108.877,123.409l-1.883-3.529
			c1.583-0.844,3.109-2.648,5.105-6.035l3.445,2.031C113.117,119.995,111.186,122.178,108.877,123.409z M31.288,120.709
			c-0.034-1.171-0.052-2.395-0.052-3.664c0-1.822,0.038-3.698,0.112-5.577l3.997,0.158c-0.073,1.826-0.109,3.649-0.109,5.419
			c0,1.229,0.017,2.413,0.05,3.547L31.288,120.709z M81.617,114.995c-1.513-2.507-2.296-5.582-2.466-9.678l3.996-0.166
			c0.143,3.443,0.728,5.843,1.895,7.777L81.617,114.995z M119.683,107.312l-3.803-1.24c0.797-2.442,1.342-5.219,1.666-8.487
			l3.98,0.395C121.173,101.539,120.57,104.592,119.683,107.312z M35.983,102.669l-3.979-0.41c0.323-3.124,0.746-6.205,1.257-9.158
			l3.941,0.684C36.708,96.646,36.297,99.637,35.983,102.669z M83.36,96.234l-3.996-0.188c0.091-1.935,0.188-4.191,0.188-6.492
			c0-0.806-0.011-1.62-0.039-2.445l3.998-0.131c0.028,0.868,0.041,1.728,0.041,2.576C83.552,91.941,83.453,94.254,83.36,96.234z
			 M121.945,88.709l-4-0.031c0.005-0.615,0.007-1.229,0.006-1.845c0-0.948-0.004-1.894-0.008-2.837
			c-0.004-0.944-0.008-1.885-0.008-2.822c0-0.533,0.001-1.064,0.005-1.594l4,0.029c-0.004,0.52-0.005,1.042-0.005,1.565
			c0,0.931,0.004,1.867,0.008,2.805c0.004,0.949,0.008,1.9,0.008,2.851C121.952,87.454,121.95,88.082,121.945,88.709z
			 M39.078,85.044l-3.871-1.006c0.816-3.14,1.757-6.129,2.799-8.884l3.741,1.414C40.756,79.19,39.858,82.042,39.078,85.044z
			 M79.043,78.084c-0.235-3.454-0.538-6.362-0.925-8.89l3.954-0.605c0.404,2.64,0.719,5.657,0.962,9.224L79.043,78.084z
			 M45.424,68.577l-3.49-1.953c1.645-2.939,3.483-5.56,5.465-7.787l2.988,2.659C48.598,63.507,46.928,65.89,45.424,68.577z
			 M76.075,60.755c-1.127-3.031-2.588-5.218-4.34-6.5l2.362-3.228c2.428,1.777,4.301,4.503,5.727,8.333L76.075,60.755z
			 M56.854,56.071l-2.043-3.438c0.537-0.319,1.084-0.62,1.643-0.903c2.664-1.349,5.165-2.248,7.436-2.671l0.733,3.933
			c-1.897,0.354-4.038,1.13-6.362,2.307C57.783,55.54,57.314,55.798,56.854,56.071z"/>
	</g>
	<g>
		<path fill="#FFFFFF" d="M106.09,78.719c-0.64,0-1.279-0.244-1.768-0.732c-0.977-0.976-0.977-2.559,0-3.535l28.52-28.521
			c0.977-0.977,2.559-0.977,3.535,0c0.977,0.976,0.977,2.559,0,3.535l-28.52,28.521C107.369,78.475,106.729,78.719,106.09,78.719z"
			/>
	</g>
	<g>
		<path fill="#FFFFFF" d="M134.68,77.985c-0.647,0-1.295-0.25-1.784-0.749L105.409,49.22c-0.968-0.986-0.952-2.568,0.033-3.536
			c0.985-0.966,2.567-0.952,3.535,0.034l27.486,28.016c0.968,0.986,0.952,2.568-0.033,3.536
			C135.944,77.747,135.312,77.985,134.68,77.985z"/>
	</g>
</g>
</svg>
