<?xml version="1.0" encoding="utf-8"?>
<!-- Generator: Adobe Illustrator 16.0.0, SVG Export Plug-In . SVG Version: 6.00 Build 0)  -->
<!DOCTYPE svg PUBLIC "-//W3C//DTD SVG 1.1//EN" "http://www.w3.org/Graphics/SVG/1.1/DTD/svg11.dtd">
<svg version="1.1" id="Layer_1" xmlns="http://www.w3.org/2000/svg" xmlns:xlink="http://www.w3.org/1999/xlink" x="0px" y="0px"
	 width="130px" height="130px" viewBox="0 0 130 130" enable-background="new 0 0 130 130" xml:space="preserve">
<g>
	<circle fill="#D94843" cx="65" cy="64.999" r="64"/>
	<g>
		<g>
			<rect x="19.087" y="63.639" fill="#FFFFFF" width="88.487" height="3"/>
		</g>
		<g>
			<circle fill="#D94843" cx="42.462" cy="65.139" r="5.565"/>
			<path fill="#FFFFFF" d="M42.462,72.204c-3.896,0-7.065-3.169-7.065-7.065c0-3.896,3.169-7.065,7.065-7.065
				s7.065,3.169,7.065,7.065C49.527,69.035,46.357,72.204,42.462,72.204z M42.462,61.074c-2.241,0-4.065,1.824-4.065,4.065
				c0,2.242,1.824,4.065,4.065,4.065s4.065-1.823,4.065-4.065C46.527,62.898,44.703,61.074,42.462,61.074z"/>
		</g>
		<g>
			<circle fill="#D94843" cx="74.738" cy="65.139" r="5.565"/>
			<path fill="#FFFFFF" d="M74.738,72.204c-3.896,0-7.064-3.169-7.064-7.065c0-3.896,3.169-7.065,7.064-7.065
				c3.896,0,7.066,3.169,7.066,7.065C81.805,69.035,78.635,72.204,74.738,72.204z M74.738,61.074c-2.241,0-4.064,1.824-4.064,4.065
				c0,2.242,1.823,4.065,4.064,4.065c2.242,0,4.066-1.823,4.066-4.065C78.805,62.898,76.98,61.074,74.738,61.074z"/>
		</g>
		<g>
			<polygon fill="#FFFFFF" points="100.271,75.834 98.141,73.721 106.792,65 98.142,56.279 100.271,54.167 111.017,65 			"/>
		</g>
	</g>
</g>
</svg>
