<?xml version="1.0" encoding="utf-8"?>
<!-- Generator: Adobe Illustrator 16.0.0, SVG Export Plug-In . SVG Version: 6.00 Build 0)  -->
<!DOCTYPE svg PUBLIC "-//W3C//DTD SVG 1.1//EN" "http://www.w3.org/Graphics/SVG/1.1/DTD/svg11.dtd">
<svg version="1.1" id="Layer_1" xmlns="http://www.w3.org/2000/svg" xmlns:xlink="http://www.w3.org/1999/xlink" x="0px" y="0px"
	 width="130px" height="130px" viewBox="0 0 130 130" enable-background="new 0 0 130 130" xml:space="preserve">
<g>
	<circle fill="#D94843" cx="65" cy="64.999" r="64"/>
	<g>
		<rect x="56.854" y="22.048" fill="#FFFFFF" width="16.625" height="7.714"/>
		<rect x="56.854" y="84.215" fill="#FFFFFF" width="16.625" height="7.715"/>
		<rect x="20.947" y="84.215" fill="#FFFFFF" width="16.624" height="7.715"/>
		<rect x="92.43" y="84.215" fill="#FFFFFF" width="16.625" height="7.715"/>
		<rect x="39.898" y="51.093" fill="#FFFFFF" width="16.623" height="7.714"/>
		<rect x="74.145" y="51.093" fill="#FFFFFF" width="16.625" height="7.714"/>
		<g>
			<polygon fill="#FFFFFF" points="83.121,53.81 82.121,53.81 82.121,42.738 48.876,42.738 48.876,53.584 47.876,53.584 
				47.876,41.738 83.121,41.738 			"/>
		</g>
		<g>
			<polygon fill="#FFFFFF" points="65.417,84.95 64.417,84.95 64.417,73.878 29.301,73.878 29.301,84.725 28.301,84.725 
				28.301,72.878 65.417,72.878 			"/>
		</g>
		<g>
			<rect x="64.667" y="27.264" fill="#FFFFFF" width="1" height="14.974"/>
		</g>
		<g>
			<rect x="47.96" y="58.404" fill="#FFFFFF" width="1" height="14.974"/>
		</g>
		<g>
			<polygon fill="#FFFFFF" points="101.325,86.539 100.325,86.539 100.325,73.598 81.996,73.598 81.996,58.462 82.996,58.462 
				82.996,72.598 101.325,72.598 			"/>
		</g>
	</g>
</g>
</svg>
