<?xml version="1.0" encoding="UTF-8"?>
<svg xmlns="http://www.w3.org/2000/svg" xmlns:xlink="http://www.w3.org/1999/xlink" width="85pt" height="85pt" viewBox="0 0 85 85" version="1.1">
<g id="surface1">
<path style=" stroke:none;fill-rule:nonzero;fill:rgb(85.098039%,28.235294%,26.27451%);fill-opacity:1;" d="M 84.347656 42.5 C 84.347656 65.609375 65.609375 84.347656 42.5 84.347656 C 19.390625 84.347656 0.652344 65.609375 0.652344 42.5 C 0.652344 19.390625 19.390625 0.652344 42.5 0.652344 C 65.609375 0.652344 84.347656 19.390625 84.347656 42.5 Z M 84.347656 42.5 "/>
<path style=" stroke:none;fill-rule:nonzero;fill:rgb(100%,100%,100%);fill-opacity:1;" d="M 49.472656 27.214844 C 53.085938 22.613281 62.003906 24.988281 61.5 32.113281 C 68.300781 31.429688 70.375 41.78125 65.71875 45.285156 C 67.640625 53.570312 63.273438 59.757812 54 57.777344 C 51.976562 60.738281 48.671875 63.976562 43.6875 63.351562 C 41.101562 63.027344 39.222656 61.492188 37.753906 59.632812 C 33.128906 63.703125 25.148438 60.058594 26.347656 52.878906 C 15.253906 55.066406 13.1875 36.738281 23.378906 35.320312 C 18.554688 29.003906 25.777344 19.898438 32.285156 24.175781 C 33.113281 24.722656 33.640625 25.535156 34.316406 26.542969 C 35.984375 23.691406 38.824219 21.105469 43.066406 21.644531 C 46.222656 22.046875 48.503906 24.378906 49.472656 27.214844 Z M 49.472656 27.214844 "/>
</g>
</svg>
