<?xml version="1.0" encoding="UTF-8"?>
<svg xmlns="http://www.w3.org/2000/svg" xmlns:xlink="http://www.w3.org/1999/xlink" width="85pt" height="85pt" viewBox="0 0 85 85" version="1.1">
<defs>
<filter id="alpha" filterUnits="objectBoundingBox" x="0%" y="0%" width="100%" height="100%">
  <feColorMatrix type="matrix" in="SourceGraphic" values="0 0 0 0 1 0 0 0 0 1 0 0 0 0 1 0 0 0 1 0"/>
</filter>
<mask id="mask0">
  <g filter="url(#alpha)">
<rect x="0" y="0" width="85" height="85" style="fill:rgb(0%,0%,0%);fill-opacity:0.501961;stroke:none;"/>
  </g>
</mask>
<clipPath id="clip1">
  <rect x="0" y="0" width="85" height="85"/>
</clipPath>
<g id="surface5" clip-path="url(#clip1)">
<path style=" stroke:none;fill-rule:nonzero;fill:rgb(100%,100%,100%);fill-opacity:1;" d="M 24.996094 28.253906 C 25.222656 28.332031 25.007812 28.40625 24.851562 28.402344 C 29.742188 29.65625 36.90625 30.65625 44.324219 30.160156 C 44.386719 30.941406 45.371094 31.199219 46.078125 30.890625 C 46.890625 31.546875 47.816406 31.453125 49.152344 31.621094 C 48.523438 32.113281 47.679688 32.390625 47.398438 33.238281 C 47.792969 33.761719 47.96875 32.839844 48.421875 32.9375 C 49.019531 32.894531 48.398438 33.144531 48.570312 33.527344 C 49.417969 33.507812 50.042969 32.621094 50.910156 32.207031 C 50.554688 32.875 51.375 33.058594 51.644531 33.527344 C 53.0625 33.070312 53.707031 32.851562 54.71875 33.378906 C 54.609375 34.894531 56.519531 34.703125 55.746094 36.453125 C 55.867188 36.882812 56.109375 36.261719 56.472656 36.453125 C 57.304688 37.542969 56.605469 38.335938 56.179688 39.53125 C 57.9375 40.214844 60.398438 38.710938 60.71875 36.601562 C 61.765625 36.605469 62.367188 36.585938 63.0625 36.015625 C 62.789062 33.191406 65.253906 33.574219 67.160156 32.796875 C 68.242188 31.828125 67.457031 28.367188 69.796875 29.136719 C 69.898438 30.351562 70.378906 31.1875 71.261719 31.621094 C 71.101562 32.488281 70.140625 32.550781 70.09375 33.527344 C 68.765625 33.523438 68.753906 34.792969 68.628906 36.308594 C 68.761719 36.4375 69.457031 36.726562 69.507812 36.453125 C 69.707031 37 69.023438 37.921875 68.1875 37.921875 C 67.679688 38.535156 67.164062 39.140625 66.136719 39.234375 C 66.574219 40.96875 65.367188 41.425781 65.84375 43.191406 C 64.261719 43.839844 65.703125 45.742188 66.136719 46.558594 C 65.738281 47.820312 63.988281 47.726562 63.941406 49.339844 C 63.527344 49.359375 63.175781 49.433594 62.773438 49.777344 C 62.554688 50.878906 61.953125 51.601562 61.015625 51.972656 C 60.902344 52.898438 60.445312 53.660156 60.574219 54.609375 C 60.75 55.882812 62.003906 56.589844 62.183594 57.976562 C 62.90625 58.878906 63.523438 59.941406 63.210938 61.488281 C 62.949219 61.472656 62.898438 61.671875 62.625 61.636719 C 61.121094 60.480469 59.429688 59.316406 59.550781 56.953125 C 58.761719 56.664062 58.632812 55.722656 57.648438 55.632812 C 57.089844 55.710938 57.023438 56.277344 56.476562 56.367188 C 55.425781 54.527344 53.363281 56.300781 51.644531 55.925781 C 51.417969 56.339844 51.339844 56.984375 51.496094 57.390625 C 49.652344 58.117188 49.605469 57.195312 47.835938 57.246094 C 45.496094 55.882812 44.050781 58.683594 42.125 59.144531 C 41.496094 60.078125 41.507812 61.078125 41.980469 62.222656 C 40.796875 62.160156 40.695312 61.679688 39.492188 61.488281 C 39.28125 60.574219 39.210938 59.523438 38.316406 59.292969 C 38.085938 57.765625 37.394531 56.703125 35.832031 56.511719 C 35.308594 56.71875 35.117188 57.261719 34.804688 57.683594 C 33.3125 57.46875 33.238281 56.300781 33.046875 55.632812 C 32.789062 54.722656 31.691406 54.59375 31.292969 53.4375 C 30.789062 53.652344 30.128906 53.394531 29.535156 53.289062 C 29.0625 53.160156 29.230469 53.667969 28.945312 53.730469 C 25.382812 54.070312 24.195312 52.039062 21.773438 51.238281 C 21.835938 50.933594 21.671875 50.851562 21.625 50.652344 C 20.464844 50.558594 19.933594 50.710938 18.992188 50.359375 C 19.003906 48.300781 17.457031 47.75 15.917969 46.84375 C 15.886719 44.027344 14.140625 41.800781 14.597656 38.941406 C 13.351562 37.851562 15.761719 36.730469 14.746094 35.574219 C 15.804688 32.945312 17.304688 31.527344 17.085938 27.519531 C 17.777344 27.5625 17.949219 28.121094 18.84375 27.960938 C 19.027344 27.488281 18.371094 27.847656 18.550781 27.375 C 18.863281 27.441406 18.832031 27.164062 18.84375 26.933594 C 20.773438 27.175781 23.117188 28.542969 24.996094 28.253906 Z M 24.996094 28.253906 "/>
</g>
</defs>
<g id="surface1">
<path style=" stroke:none;fill-rule:nonzero;fill:rgb(85.098039%,28.235294%,26.27451%);fill-opacity:1;" d="M 84.347656 42.5 C 84.347656 65.609375 65.609375 84.34375 42.5 84.34375 C 19.390625 84.34375 0.652344 65.609375 0.652344 42.5 C 0.652344 19.386719 19.390625 0.652344 42.5 0.652344 C 65.609375 0.652344 84.347656 19.386719 84.347656 42.5 Z M 84.347656 42.5 "/>
<use xlink:href="#surface5" mask="url(#mask0)"/>
<path style=" stroke:none;fill-rule:nonzero;fill:rgb(100%,100%,100%);fill-opacity:1;" d="M 31.191406 37.367188 C 31.191406 40.914062 28.316406 43.789062 24.769531 43.789062 C 21.222656 43.789062 18.347656 40.914062 18.347656 37.367188 C 18.347656 33.820312 21.222656 30.945312 24.769531 30.945312 C 28.316406 30.945312 31.191406 33.820312 31.191406 37.367188 Z M 31.191406 37.367188 "/>
<path style=" stroke:none;fill-rule:nonzero;fill:rgb(100%,100%,100%);fill-opacity:1;" d="M 46.398438 37.304688 C 46.398438 39.121094 44.925781 40.59375 43.109375 40.59375 C 41.292969 40.59375 39.820312 39.121094 39.820312 37.304688 C 39.820312 35.488281 41.292969 34.015625 43.109375 34.015625 C 44.925781 34.015625 46.398438 35.488281 46.398438 37.304688 Z M 46.398438 37.304688 "/>
<path style=" stroke:none;fill-rule:nonzero;fill:rgb(100%,100%,100%);fill-opacity:1;" d="M 50.074219 46.503906 C 50.074219 47.429688 49.324219 48.179688 48.398438 48.179688 C 47.472656 48.179688 46.71875 47.429688 46.71875 46.503906 C 46.71875 45.574219 47.472656 44.824219 48.398438 44.824219 C 49.324219 44.824219 50.074219 45.574219 50.074219 46.503906 Z M 50.074219 46.503906 "/>
<path style=" stroke:none;fill-rule:nonzero;fill:rgb(100%,100%,100%);fill-opacity:1;" d="M 42.808594 48.300781 C 42.808594 51.273438 40.398438 53.683594 37.425781 53.683594 C 34.453125 53.683594 32.042969 51.273438 32.042969 48.300781 C 32.042969 45.328125 34.453125 42.917969 37.425781 42.917969 C 40.398438 42.917969 42.808594 45.328125 42.808594 48.300781 Z M 42.808594 48.300781 "/>
<path style=" stroke:none;fill-rule:nonzero;fill:rgb(100%,100%,100%);fill-opacity:1;" d="M 62.476562 45.8125 C 62.476562 48.125 60.601562 50 58.289062 50 C 55.976562 50 54.101562 48.125 54.101562 45.8125 C 54.101562 43.5 55.976562 41.628906 58.289062 41.628906 C 60.601562 41.628906 62.476562 43.5 62.476562 45.8125 Z M 62.476562 45.8125 "/>
</g>
</svg>
