<?xml version="1.0" encoding="UTF-8"?>
<svg xmlns="http://www.w3.org/2000/svg" xmlns:xlink="http://www.w3.org/1999/xlink" width="85pt" height="85pt" viewBox="0 0 85 85" version="1.1">
<g id="surface1">
<path style=" stroke:none;fill-rule:nonzero;fill:rgb(85.098039%,28.235294%,26.27451%);fill-opacity:1;" d="M 84.347656 42.5 C 84.347656 65.609375 65.609375 84.347656 42.5 84.347656 C 19.390625 84.347656 0.652344 65.609375 0.652344 42.5 C 0.652344 19.390625 19.390625 0.652344 42.5 0.652344 C 65.609375 0.652344 84.347656 19.390625 84.347656 42.5 Z M 84.347656 42.5 "/>
<path style=" stroke:none;fill-rule:nonzero;fill:rgb(100%,100%,100%);fill-opacity:1;" d="M 52.488281 37.960938 C 52.488281 41.804688 49.371094 44.921875 45.527344 44.921875 C 41.6875 44.921875 38.570312 41.804688 38.570312 37.960938 C 38.570312 34.117188 41.6875 31 45.527344 31 C 49.371094 31 52.488281 34.117188 52.488281 37.960938 Z M 52.488281 37.960938 "/>
<path style=" stroke:none;fill-rule:nonzero;fill:rgb(100%,100%,100%);fill-opacity:1;" d="M 34.882812 50.28125 C 34.882812 52.425781 33.148438 54.160156 31.007812 54.160156 C 28.863281 54.160156 27.128906 52.425781 27.128906 50.28125 C 27.128906 48.140625 28.863281 46.402344 31.007812 46.402344 C 33.148438 46.402344 34.882812 48.140625 34.882812 50.28125 Z M 34.882812 50.28125 "/>
<path style=" stroke:none;fill-rule:nonzero;fill:rgb(100%,100%,100%);fill-opacity:1;" d="M 62.136719 47.933594 C 62.136719 49.835938 60.597656 51.375 58.699219 51.375 C 56.796875 51.375 55.257812 49.835938 55.257812 47.933594 C 55.257812 46.035156 56.796875 44.496094 58.699219 44.496094 C 60.597656 44.496094 62.136719 46.035156 62.136719 47.933594 Z M 62.136719 47.933594 "/>
<path style=" stroke:none;fill-rule:nonzero;fill:rgb(100%,100%,100%);fill-opacity:1;" d="M 62.578125 27.25 C 62.578125 28.664062 61.429688 29.808594 60.019531 29.808594 C 58.605469 29.808594 57.460938 28.664062 57.460938 27.25 C 57.460938 25.835938 58.605469 24.691406 60.019531 24.691406 C 61.429688 24.691406 62.578125 25.835938 62.578125 27.25 Z M 62.578125 27.25 "/>
<path style="fill:none;stroke-width:3;stroke-linecap:round;stroke-linejoin:miter;stroke:rgb(100%,100%,100%);stroke-opacity:1;stroke-miterlimit:4;" d="M 29.871324 32.924173 L 29.871324 94.847426 L 102.351103 94.847426 " transform="matrix(0.653846,0,0,0.653846,0,0)"/>
</g>
</svg>
