<?xml version="1.0" encoding="UTF-8"?>
<svg xmlns="http://www.w3.org/2000/svg" xmlns:xlink="http://www.w3.org/1999/xlink" width="85pt" height="85pt" viewBox="0 0 85 85" version="1.1">
<g id="surface1">
<path style=" stroke:none;fill-rule:nonzero;fill:rgb(85.098039%,28.235294%,26.27451%);fill-opacity:1;" d="M 84.347656 42.5 C 84.347656 65.609375 65.609375 84.34375 42.5 84.34375 C 19.390625 84.34375 0.652344 65.609375 0.652344 42.5 C 0.652344 19.386719 19.390625 0.652344 42.5 0.652344 C 65.609375 0.652344 84.347656 19.386719 84.347656 42.5 Z M 84.347656 42.5 "/>
<path style=" stroke:none;fill-rule:nonzero;fill:rgb(100%,100%,100%);fill-opacity:1;" d="M 68.742188 42.5 C 68.742188 56.992188 56.992188 68.742188 42.5 68.742188 C 28.007812 68.742188 16.257812 56.992188 16.257812 42.5 C 16.257812 28.007812 28.007812 16.257812 42.5 16.257812 C 56.992188 16.257812 68.742188 28.007812 68.742188 42.5 Z M 68.742188 42.5 "/>
<path style=" stroke:none;fill-rule:nonzero;fill:rgb(85.098039%,28.235294%,26.27451%);fill-opacity:1;" d="M 53.621094 49.273438 C 53.621094 58.132812 46.4375 65.316406 37.578125 65.316406 C 28.71875 65.316406 21.535156 58.132812 21.535156 49.273438 C 21.535156 40.414062 28.71875 33.230469 37.578125 33.230469 C 46.4375 33.230469 53.621094 40.414062 53.621094 49.273438 Z M 53.621094 49.273438 "/>
<path style=" stroke:none;fill-rule:nonzero;fill:rgb(85.098039%,28.235294%,26.27451%);fill-opacity:1;" d="M 60.894531 29.164062 C 60.894531 33.535156 57.351562 37.078125 52.980469 37.078125 C 48.609375 37.078125 45.066406 33.535156 45.066406 29.164062 C 45.066406 24.792969 48.609375 21.25 52.980469 21.25 C 57.351562 21.25 60.894531 24.792969 60.894531 29.164062 Z M 60.894531 29.164062 "/>
<path style=" stroke:none;fill-rule:nonzero;fill:rgb(85.098039%,28.235294%,26.27451%);fill-opacity:1;" d="M 43.675781 25.097656 C 43.675781 28.523438 40.898438 31.304688 37.472656 31.304688 C 34.046875 31.304688 31.269531 28.523438 31.269531 25.097656 C 31.269531 21.671875 34.046875 18.894531 37.472656 18.894531 C 40.898438 18.894531 43.675781 21.671875 43.675781 25.097656 Z M 43.675781 25.097656 "/>
<path style=" stroke:none;fill-rule:nonzero;fill:rgb(85.098039%,28.235294%,26.27451%);fill-opacity:1;" d="M 66.566406 43.546875 C 66.566406 46.886719 63.859375 49.589844 60.523438 49.589844 C 57.183594 49.589844 54.480469 46.886719 54.480469 43.546875 C 54.480469 40.210938 57.183594 37.507812 60.523438 37.507812 C 63.859375 37.507812 66.566406 40.210938 66.566406 43.546875 Z M 66.566406 43.546875 "/>
<path style=" stroke:none;fill-rule:nonzero;fill:rgb(100%,100%,100%);fill-opacity:1;" d="M 58.972656 26.917969 C 58.972656 29.101562 57.199219 30.875 55.015625 30.875 C 52.828125 30.875 51.058594 29.101562 51.058594 26.917969 C 51.058594 24.730469 52.828125 22.960938 55.015625 22.960938 C 57.199219 22.960938 58.972656 24.730469 58.972656 26.917969 Z M 58.972656 26.917969 "/>
<path style=" stroke:none;fill-rule:nonzero;fill:rgb(100%,100%,100%);fill-opacity:1;" d="M 52.445312 32.371094 C 52.445312 33.671875 51.394531 34.726562 50.09375 34.726562 C 48.792969 34.726562 47.738281 33.671875 47.738281 32.371094 C 47.738281 31.070312 48.792969 30.019531 50.09375 30.019531 C 51.394531 30.019531 52.445312 31.070312 52.445312 32.371094 Z M 52.445312 32.371094 "/>
<path style=" stroke:none;fill-rule:nonzero;fill:rgb(100%,100%,100%);fill-opacity:1;" d="M 50.09375 27.34375 C 50.09375 28.40625 49.230469 29.269531 48.167969 29.269531 C 47.105469 29.269531 46.242188 28.40625 46.242188 27.34375 C 46.242188 26.28125 47.105469 25.417969 48.167969 25.417969 C 49.230469 25.417969 50.09375 26.28125 50.09375 27.34375 Z M 50.09375 27.34375 "/>
<path style=" stroke:none;fill-rule:nonzero;fill:rgb(100%,100%,100%);fill-opacity:1;" d="M 57.152344 33.65625 C 57.152344 34.71875 56.289062 35.582031 55.230469 35.582031 C 54.164062 35.582031 53.304688 34.71875 53.304688 33.65625 C 53.304688 32.59375 54.164062 31.730469 55.230469 31.730469 C 56.289062 31.730469 57.152344 32.59375 57.152344 33.65625 Z M 57.152344 33.65625 "/>
<path style=" stroke:none;fill-rule:nonzero;fill:rgb(100%,100%,100%);fill-opacity:1;" d="M 41.324219 23.601562 C 41.324219 25.667969 39.644531 27.34375 37.578125 27.34375 C 35.511719 27.34375 33.835938 25.667969 33.835938 23.601562 C 33.835938 21.535156 35.511719 19.855469 37.578125 19.855469 C 39.644531 19.855469 41.324219 21.535156 41.324219 23.601562 Z M 41.324219 23.601562 "/>
<path style=" stroke:none;fill-rule:nonzero;fill:rgb(100%,100%,100%);fill-opacity:1;" d="M 38.542969 29.054688 C 38.542969 29.644531 38.0625 30.125 37.472656 30.125 C 36.882812 30.125 36.402344 29.644531 36.402344 29.054688 C 36.402344 28.464844 36.882812 27.984375 37.472656 27.984375 C 38.0625 27.984375 38.542969 28.464844 38.542969 29.054688 Z M 38.542969 29.054688 "/>
<path style=" stroke:none;fill-rule:nonzero;fill:rgb(100%,100%,100%);fill-opacity:1;" d="M 35.117188 28.09375 C 35.117188 28.566406 34.734375 28.949219 34.261719 28.949219 C 33.789062 28.949219 33.40625 28.566406 33.40625 28.09375 C 33.40625 27.621094 33.789062 27.238281 34.261719 27.238281 C 34.734375 27.238281 35.117188 27.621094 35.117188 28.09375 Z M 35.117188 28.09375 "/>
<path style=" stroke:none;fill-rule:nonzero;fill:rgb(100%,100%,100%);fill-opacity:1;" d="M 41.429688 27.988281 C 41.429688 28.339844 41.140625 28.628906 40.789062 28.628906 C 40.433594 28.628906 40.144531 28.339844 40.144531 27.988281 C 40.144531 27.632812 40.433594 27.34375 40.789062 27.34375 C 41.140625 27.34375 41.429688 27.632812 41.429688 27.988281 Z M 41.429688 27.988281 "/>
<path style=" stroke:none;fill-rule:nonzero;fill:rgb(100%,100%,100%);fill-opacity:1;" d="M 64.535156 41.785156 C 64.535156 42.789062 63.71875 43.605469 62.714844 43.605469 C 61.710938 43.605469 60.894531 42.789062 60.894531 41.785156 C 60.894531 40.78125 61.710938 39.964844 62.714844 39.964844 C 63.71875 39.964844 64.535156 40.78125 64.535156 41.785156 Z M 64.535156 41.785156 "/>
<path style=" stroke:none;fill-rule:nonzero;fill:rgb(100%,100%,100%);fill-opacity:1;" d="M 63.996094 46.382812 C 63.996094 47.386719 63.183594 48.199219 62.179688 48.199219 C 61.175781 48.199219 60.363281 47.386719 60.363281 46.382812 C 60.363281 45.378906 61.175781 44.566406 62.179688 44.566406 C 63.183594 44.566406 63.996094 45.378906 63.996094 46.382812 Z M 63.996094 46.382812 "/>
<path style=" stroke:none;fill-rule:nonzero;fill:rgb(100%,100%,100%);fill-opacity:1;" d="M 59.507812 44.886719 C 59.507812 45.890625 58.691406 46.703125 57.6875 46.703125 C 56.683594 46.703125 55.871094 45.890625 55.871094 44.886719 C 55.871094 43.882812 56.683594 43.070312 57.6875 43.070312 C 58.691406 43.070312 59.507812 43.882812 59.507812 44.886719 Z M 59.507812 44.886719 "/>
<path style=" stroke:none;fill-rule:nonzero;fill:rgb(100%,100%,100%);fill-opacity:1;" d="M 60.148438 40.5 C 60.148438 41.386719 59.429688 42.105469 58.542969 42.105469 C 57.65625 42.105469 56.9375 41.386719 56.9375 40.5 C 56.9375 39.613281 57.65625 38.894531 58.542969 38.894531 C 59.429688 38.894531 60.148438 39.613281 60.148438 40.5 Z M 60.148438 40.5 "/>
<path style=" stroke:none;fill-rule:nonzero;fill:rgb(100%,100%,100%);fill-opacity:1;" d="M 50.066406 44.886719 C 50.066406 49.65625 46.199219 53.523438 41.429688 53.523438 C 36.660156 53.523438 32.792969 49.65625 32.792969 44.886719 C 32.792969 40.117188 36.660156 36.25 41.429688 36.25 C 46.199219 36.25 50.066406 40.117188 50.066406 44.886719 Z M 50.066406 44.886719 "/>
<path style=" stroke:none;fill-rule:nonzero;fill:rgb(100%,100%,100%);fill-opacity:1;" d="M 35.839844 55.582031 C 35.839844 58.402344 33.554688 60.6875 30.734375 60.6875 C 27.910156 60.6875 25.625 58.402344 25.625 55.582031 C 25.625 52.761719 27.910156 50.476562 30.734375 50.476562 C 33.554688 50.476562 35.839844 52.761719 35.839844 55.582031 Z M 35.839844 55.582031 "/>
<path style=" stroke:none;fill-rule:nonzero;fill:rgb(100%,100%,100%);fill-opacity:1;" d="M 31.480469 45.742188 C 31.480469 47.867188 29.757812 49.59375 27.632812 49.59375 C 25.503906 49.59375 23.78125 47.867188 23.78125 45.742188 C 23.78125 43.617188 25.503906 41.890625 27.632812 41.890625 C 29.757812 41.890625 31.480469 43.617188 31.480469 45.742188 Z M 31.480469 45.742188 "/>
<path style=" stroke:none;fill-rule:nonzero;fill:rgb(100%,100%,100%);fill-opacity:1;" d="M 45.601562 59.003906 C 45.601562 61.429688 43.636719 63.390625 41.214844 63.390625 C 38.792969 63.390625 36.828125 61.429688 36.828125 59.003906 C 36.828125 56.582031 38.792969 54.621094 41.214844 54.621094 C 43.636719 54.621094 45.601562 56.582031 45.601562 59.003906 Z M 45.601562 59.003906 "/>
<path style=" stroke:none;fill-rule:nonzero;fill:rgb(85.098039%,28.235294%,26.27451%);fill-opacity:1;" d="M 57.472656 25.527344 C 57.472656 26.117188 56.996094 26.59375 56.40625 26.59375 C 55.8125 26.59375 55.335938 26.117188 55.335938 25.527344 C 55.335938 24.9375 55.8125 24.457031 56.40625 24.457031 C 56.996094 24.457031 57.472656 24.9375 57.472656 25.527344 Z M 57.472656 25.527344 "/>
<path style=" stroke:none;fill-rule:nonzero;fill:rgb(85.098039%,28.235294%,26.27451%);fill-opacity:1;" d="M 47.847656 42.320312 C 47.847656 44.503906 46.078125 46.277344 43.890625 46.277344 C 41.703125 46.277344 39.933594 44.503906 39.933594 42.320312 C 39.933594 40.132812 41.703125 38.359375 43.890625 38.359375 C 46.078125 38.359375 47.847656 40.132812 47.847656 42.320312 Z M 47.847656 42.320312 "/>
<path style=" stroke:none;fill-rule:nonzero;fill:rgb(85.098039%,28.235294%,26.27451%);fill-opacity:1;" d="M 31.589844 57.082031 C 31.589844 58.320312 30.582031 59.328125 29.34375 59.328125 C 28.101562 59.328125 27.097656 58.320312 27.097656 57.082031 C 27.097656 55.839844 28.101562 54.835938 29.34375 54.835938 C 30.582031 54.835938 31.589844 55.839844 31.589844 57.082031 Z M 31.589844 57.082031 "/>
<path style=" stroke:none;fill-rule:nonzero;fill:rgb(85.098039%,28.235294%,26.27451%);fill-opacity:1;" d="M 43.570312 60.609375 C 43.570312 61.617188 42.753906 62.429688 41.75 62.429688 C 40.746094 62.429688 39.933594 61.617188 39.933594 60.609375 C 39.933594 59.605469 40.746094 58.792969 41.75 58.792969 C 42.753906 58.792969 43.570312 59.605469 43.570312 60.609375 Z M 43.570312 60.609375 "/>
<path style=" stroke:none;fill-rule:nonzero;fill:rgb(85.098039%,28.235294%,26.27451%);fill-opacity:1;" d="M 28.164062 44.777344 C 28.164062 45.605469 27.496094 46.277344 26.667969 46.277344 C 25.839844 46.277344 25.171875 45.605469 25.171875 44.777344 C 25.171875 43.953125 25.839844 43.28125 26.667969 43.28125 C 27.496094 43.28125 28.164062 43.953125 28.164062 44.777344 Z M 28.164062 44.777344 "/>
<path style=" stroke:none;fill-rule:nonzero;fill:rgb(85.098039%,28.235294%,26.27451%);fill-opacity:1;" d="M 41.109375 48.203125 C 41.109375 49.796875 39.816406 51.089844 38.21875 51.089844 C 36.625 51.089844 35.332031 49.796875 35.332031 48.203125 C 35.332031 46.609375 36.625 45.316406 38.21875 45.316406 C 39.816406 45.316406 41.109375 46.609375 41.109375 48.203125 Z M 41.109375 48.203125 "/>
<path style=" stroke:none;fill-rule:nonzero;fill:rgb(85.098039%,28.235294%,26.27451%);fill-opacity:1;" d="M 38.21875 42.210938 C 38.21875 43.15625 37.453125 43.925781 36.507812 43.925781 C 35.5625 43.925781 34.796875 43.15625 34.796875 42.210938 C 34.796875 41.265625 35.5625 40.5 36.507812 40.5 C 37.453125 40.5 38.21875 41.265625 38.21875 42.210938 Z M 38.21875 42.210938 "/>
<path style=" stroke:none;fill-rule:nonzero;fill:rgb(85.098039%,28.235294%,26.27451%);fill-opacity:1;" d="M 46.027344 49.273438 C 46.027344 50.335938 45.167969 51.199219 44.101562 51.199219 C 43.039062 51.199219 42.175781 50.335938 42.175781 49.273438 C 42.175781 48.207031 43.039062 47.347656 44.101562 47.347656 C 45.167969 47.347656 46.027344 48.207031 46.027344 49.273438 Z M 46.027344 49.273438 "/>
</g>
</svg>
