<?xml version="1.0" encoding="UTF-8"?>
<svg xmlns="http://www.w3.org/2000/svg" xmlns:xlink="http://www.w3.org/1999/xlink" width="85pt" height="85pt" viewBox="0 0 85 85" version="1.1">
<g id="surface1">
<path style=" stroke:none;fill-rule:nonzero;fill:rgb(31.372549%,70.588235%,23.529412%);fill-opacity:1;" d="M 84.75 42.5 C 84.75 65.835938 65.832031 84.75 42.5 84.75 C 19.167969 84.75 0.25 65.835938 0.25 42.5 C 0.25 19.164062 19.167969 0.25 42.5 0.25 C 65.832031 0.25 84.75 19.164062 84.75 42.5 Z M 84.75 42.5 "/>
<path style=" stroke:none;fill-rule:nonzero;fill:rgb(100%,100%,100%);fill-opacity:1;" d="M 49.320312 61.980469 C 48.730469 61.863281 48.046875 61.703125 47.101562 61.472656 C 46.238281 61.257812 45.449219 61 44.753906 60.707031 L 45.53125 58.863281 C 46.132812 59.117188 46.820312 59.339844 47.582031 59.53125 C 48.496094 59.757812 49.152344 59.90625 49.714844 60.019531 Z M 54.4375 61.703125 L 53.496094 59.941406 C 54.289062 59.519531 55.050781 58.617188 56.050781 56.921875 L 57.773438 57.9375 C 56.558594 59.996094 55.59375 61.089844 54.4375 61.703125 Z M 15.644531 60.355469 C 15.628906 59.769531 15.617188 59.15625 15.617188 58.523438 C 15.617188 57.613281 15.636719 56.671875 15.675781 55.734375 L 17.671875 55.8125 C 17.636719 56.726562 17.617188 57.636719 17.617188 58.523438 C 17.617188 59.136719 17.625 59.730469 17.644531 60.296875 Z M 40.808594 57.496094 C 40.050781 56.242188 39.660156 54.707031 39.574219 52.660156 L 41.574219 52.574219 C 41.644531 54.296875 41.9375 55.496094 42.519531 56.464844 Z M 59.839844 53.65625 L 57.941406 53.035156 C 58.339844 51.816406 58.609375 50.425781 58.773438 48.792969 L 60.761719 48.988281 C 60.585938 50.769531 60.285156 52.296875 59.839844 53.65625 Z M 17.992188 51.335938 L 16.003906 51.128906 C 16.164062 49.566406 16.375 48.027344 16.628906 46.550781 L 18.601562 46.890625 C 18.355469 48.324219 18.148438 49.820312 17.992188 51.335938 Z M 41.679688 48.117188 L 39.683594 48.023438 C 39.726562 47.054688 39.777344 45.925781 39.777344 44.777344 C 39.777344 44.375 39.769531 43.96875 39.757812 43.554688 L 41.753906 43.488281 C 41.769531 43.921875 41.777344 44.351562 41.777344 44.777344 C 41.777344 45.96875 41.726562 47.128906 41.679688 48.117188 Z M 60.972656 44.355469 L 58.972656 44.339844 C 58.976562 44.03125 58.976562 43.722656 58.976562 43.417969 C 58.976562 42.941406 58.972656 42.46875 58.972656 41.996094 C 58.96875 41.527344 58.96875 41.054688 58.96875 40.585938 C 58.96875 40.320312 58.96875 40.054688 58.96875 39.789062 L 60.96875 39.804688 C 60.96875 40.066406 60.96875 40.324219 60.96875 40.585938 C 60.96875 41.050781 60.96875 41.519531 60.972656 41.988281 C 60.972656 42.464844 60.976562 42.941406 60.976562 43.414062 C 60.976562 43.726562 60.976562 44.039062 60.972656 44.355469 Z M 19.539062 42.523438 L 17.601562 42.019531 C 18.011719 40.449219 18.480469 38.953125 19.003906 37.578125 L 20.875 38.285156 C 20.378906 39.59375 19.929688 41.019531 19.539062 42.523438 Z M 39.523438 39.042969 C 39.402344 37.316406 39.253906 35.859375 39.058594 34.597656 L 41.035156 34.292969 C 41.238281 35.613281 41.394531 37.121094 41.515625 38.90625 Z M 22.710938 34.289062 L 20.96875 33.3125 C 21.789062 31.84375 22.707031 30.53125 23.699219 29.417969 L 25.195312 30.746094 C 24.300781 31.753906 23.464844 32.945312 22.710938 34.289062 Z M 38.039062 30.378906 C 37.472656 28.863281 36.742188 27.769531 35.867188 27.128906 L 37.046875 25.511719 C 38.261719 26.402344 39.199219 27.765625 39.910156 29.679688 Z M 28.425781 28.035156 L 27.40625 26.316406 C 27.675781 26.15625 27.949219 26.007812 28.226562 25.863281 C 29.558594 25.191406 30.808594 24.742188 31.945312 24.53125 L 32.3125 26.496094 C 31.363281 26.671875 30.292969 27.0625 29.128906 27.648438 C 28.890625 27.769531 28.65625 27.898438 28.425781 28.035156 Z M 28.425781 28.035156 "/>
<path style=" stroke:none;fill-rule:nonzero;fill:rgb(100%,100%,100%);fill-opacity:1;" d="M 53.046875 39.359375 C 52.726562 39.359375 52.40625 39.238281 52.160156 38.992188 C 51.671875 38.503906 51.671875 37.714844 52.160156 37.226562 L 66.421875 22.964844 C 66.910156 22.476562 67.699219 22.476562 68.1875 22.964844 C 68.675781 23.453125 68.675781 24.246094 68.1875 24.734375 L 53.929688 38.992188 C 53.683594 39.238281 53.363281 39.359375 53.046875 39.359375 Z M 53.046875 39.359375 "/>
<path style=" stroke:none;fill-rule:nonzero;fill:rgb(100%,100%,100%);fill-opacity:1;" d="M 67.339844 38.992188 C 67.015625 38.992188 66.691406 38.867188 66.449219 38.617188 L 52.703125 24.609375 C 52.21875 24.117188 52.226562 23.324219 52.722656 22.84375 C 53.214844 22.359375 54.003906 22.367188 54.488281 22.859375 L 68.230469 36.867188 C 68.714844 37.359375 68.707031 38.152344 68.214844 38.636719 C 67.972656 38.875 67.65625 38.992188 67.339844 38.992188 Z M 67.339844 38.992188 "/>
</g>
</svg>
