<?xml version="1.0" encoding="UTF-8"?>
<svg xmlns="http://www.w3.org/2000/svg" xmlns:xlink="http://www.w3.org/1999/xlink" width="85pt" height="85pt" viewBox="0 0 85 85" version="1.1">
<g id="surface1">
<path style=" stroke:none;fill-rule:nonzero;fill:rgb(31.372549%,70.588235%,23.529412%);fill-opacity:1;" d="M 84.75 42.5 C 84.75 65.835938 65.832031 84.75 42.5 84.75 C 19.167969 84.75 0.25 65.835938 0.25 42.5 C 0.25 19.164062 19.167969 0.25 42.5 0.25 C 65.832031 0.25 84.75 19.164062 84.75 42.5 Z M 84.75 42.5 "/>
<path style=" stroke:none;fill-rule:nonzero;fill:rgb(100%,100%,100%);fill-opacity:1;" d="M 25.289062 56.5 C 25.289062 57.882812 26.410156 59 27.789062 59 L 59.5 59 C 60.882812 59 62 57.882812 62 56.5 L 62 24.789062 C 62 23.410156 60.882812 22.289062 59.5 22.289062 L 27.789062 22.289062 C 26.410156 22.289062 25.289062 23.410156 25.289062 24.789062 Z M 25.289062 56.5 "/>
<path style=" stroke:none;fill-rule:nonzero;fill:rgb(31.372549%,70.588235%,23.529412%);fill-opacity:1;" d="M 21.4375 59.824219 C 21.4375 61.546875 22.835938 62.949219 24.5625 62.949219 L 44.386719 62.949219 L 44.386719 40 L 21.4375 40 Z M 21.4375 59.824219 "/>
<path style=" stroke:none;fill-rule:nonzero;fill:rgb(100%,100%,100%);fill-opacity:1;" d="M 21.539062 60.34375 C 21.539062 61.726562 22.660156 62.84375 24.039062 62.84375 L 39.894531 62.84375 L 39.894531 44.488281 L 21.539062 44.488281 Z M 21.539062 60.34375 "/>
</g>
</svg>
