<?xml version="1.0" encoding="UTF-8"?>
<svg xmlns="http://www.w3.org/2000/svg" xmlns:xlink="http://www.w3.org/1999/xlink" width="85pt" height="85pt" viewBox="0 0 85 85" version="1.1">
<g id="surface1">
<path style=" stroke:none;fill-rule:nonzero;fill:rgb(85.098039%,28.235294%,26.27451%);fill-opacity:1;" d="M 84.195312 42.496094 C 84.195312 65.605469 65.460938 84.339844 42.351562 84.339844 C 19.238281 84.339844 0.503906 65.605469 0.503906 42.496094 C 0.503906 19.382812 19.238281 0.648438 42.351562 0.648438 C 65.460938 0.648438 84.195312 19.382812 84.195312 42.496094 Z M 84.195312 42.496094 "/>
<path style=" stroke:none;fill-rule:nonzero;fill:rgb(100%,100%,100%);fill-opacity:1;" d="M 18.066406 58.789062 C 18.066406 55.882812 20.421875 53.527344 23.332031 53.527344 C 26.238281 53.527344 28.59375 55.882812 28.59375 58.789062 C 28.59375 61.695312 26.238281 64.054688 23.332031 64.054688 C 20.421875 64.054688 18.066406 61.695312 18.066406 58.789062 Z M 20.449219 58.789062 C 20.453125 60.382812 21.738281 61.667969 23.332031 61.667969 C 24.917969 61.667969 26.207031 60.378906 26.210938 58.789062 C 26.207031 57.199219 24.917969 55.914062 23.332031 55.910156 C 21.742188 55.914062 20.453125 57.199219 20.449219 58.789062 Z M 20.449219 58.789062 "/>
<path style=" stroke:none;fill-rule:nonzero;fill:rgb(100%,100%,100%);fill-opacity:1;" d="M 18.066406 46.671875 C 18.066406 43.765625 20.421875 41.410156 23.332031 41.410156 C 26.238281 41.410156 28.59375 43.765625 28.59375 46.671875 C 28.59375 49.582031 26.238281 51.933594 23.332031 51.9375 C 20.421875 51.9375 18.066406 49.582031 18.066406 46.671875 Z M 20.449219 46.671875 C 20.453125 48.265625 21.742188 49.550781 23.332031 49.554688 C 24.917969 49.550781 26.207031 48.265625 26.210938 46.671875 C 26.207031 45.085938 24.917969 43.796875 23.332031 43.792969 C 21.742188 43.792969 20.453125 45.085938 20.449219 46.671875 Z M 20.449219 46.671875 "/>
<path style=" stroke:none;fill-rule:nonzero;fill:rgb(100%,100%,100%);fill-opacity:1;" d="M 18.066406 33.960938 C 18.070312 31.050781 20.421875 28.699219 23.328125 28.699219 C 26.238281 28.699219 28.59375 31.054688 28.59375 33.960938 C 28.59375 36.867188 26.238281 39.222656 23.328125 39.226562 C 20.421875 39.222656 18.070312 36.867188 18.066406 33.960938 Z M 20.449219 33.960938 C 20.453125 35.550781 21.742188 36.835938 23.332031 36.839844 C 24.921875 36.839844 26.207031 35.550781 26.210938 33.960938 C 26.207031 32.371094 24.921875 31.082031 23.332031 31.078125 C 21.742188 31.082031 20.453125 32.371094 20.449219 33.960938 Z M 20.449219 33.960938 "/>
<path style=" stroke:none;fill-rule:nonzero;fill:rgb(100%,100%,100%);fill-opacity:1;" d="M 43.789062 34.460938 C 43.792969 31.550781 46.144531 29.195312 49.054688 29.195312 C 51.964844 29.195312 54.316406 31.550781 54.316406 34.460938 C 54.316406 37.367188 51.964844 39.71875 49.054688 39.71875 C 46.144531 39.71875 43.792969 37.367188 43.789062 34.460938 Z M 46.175781 34.460938 C 46.175781 36.046875 47.460938 37.335938 49.050781 37.335938 C 50.644531 37.335938 51.929688 36.046875 51.933594 34.460938 C 51.929688 32.867188 50.640625 31.582031 49.050781 31.578125 C 47.464844 31.582031 46.175781 32.867188 46.175781 34.460938 Z M 46.175781 34.460938 "/>
<path style=" stroke:none;fill-rule:nonzero;fill:rgb(100%,100%,100%);fill-opacity:1;" d="M 43.789062 21.746094 C 43.792969 18.835938 46.148438 16.484375 49.054688 16.480469 C 51.964844 16.484375 54.316406 18.835938 54.316406 21.746094 C 54.316406 24.652344 51.964844 27.007812 49.054688 27.007812 C 46.144531 27.007812 43.792969 24.652344 43.789062 21.746094 Z M 46.175781 21.746094 C 46.175781 23.332031 47.464844 24.621094 49.054688 24.625 C 50.644531 24.621094 51.929688 23.332031 51.929688 21.746094 C 51.929688 20.15625 50.640625 18.867188 49.054688 18.863281 C 47.464844 18.867188 46.175781 20.15625 46.175781 21.746094 Z M 46.175781 21.746094 "/>
<path style=" stroke:none;fill-rule:nonzero;fill:rgb(100%,100%,100%);fill-opacity:1;" d="M 31.722656 51.492188 C 31.257812 51.023438 31.257812 50.269531 31.722656 49.804688 L 38.476562 43.050781 C 38.941406 42.585938 39.699219 42.585938 40.164062 43.050781 C 40.628906 43.515625 40.628906 44.269531 40.164062 44.738281 L 33.410156 51.492188 C 33.175781 51.722656 32.871094 51.839844 32.566406 51.839844 C 32.261719 51.839844 31.957031 51.722656 31.722656 51.492188 Z M 31.722656 51.492188 "/>
<path style=" stroke:none;fill-rule:nonzero;fill:rgb(100%,100%,100%);fill-opacity:1;" d="M 38.476562 51.492188 L 31.726562 44.738281 C 31.257812 44.269531 31.257812 43.515625 31.726562 43.050781 C 32.191406 42.585938 32.945312 42.585938 33.410156 43.050781 L 40.164062 49.804688 C 40.628906 50.269531 40.628906 51.027344 40.164062 51.492188 C 39.933594 51.722656 39.628906 51.839844 39.320312 51.839844 C 39.015625 51.839844 38.710938 51.722656 38.476562 51.492188 Z M 38.476562 51.492188 "/>
<path style=" stroke:none;fill-rule:nonzero;fill:rgb(100%,100%,100%);fill-opacity:1;" d="M 31.722656 38.378906 C 31.257812 37.914062 31.257812 37.160156 31.722656 36.695312 L 38.476562 29.941406 C 38.941406 29.476562 39.699219 29.476562 40.164062 29.941406 C 40.628906 30.40625 40.628906 31.160156 40.164062 31.625 L 33.40625 38.378906 C 33.175781 38.613281 32.871094 38.730469 32.566406 38.730469 C 32.261719 38.730469 31.957031 38.613281 31.722656 38.378906 Z M 31.722656 38.378906 "/>
<path style=" stroke:none;fill-rule:nonzero;fill:rgb(100%,100%,100%);fill-opacity:1;" d="M 38.476562 38.378906 L 31.726562 31.625 C 31.257812 31.160156 31.257812 30.40625 31.726562 29.941406 C 32.191406 29.476562 32.945312 29.476562 33.410156 29.941406 L 40.164062 36.695312 C 40.628906 37.160156 40.628906 37.914062 40.164062 38.378906 C 39.933594 38.613281 39.625 38.730469 39.320312 38.730469 C 39.015625 38.730469 38.710938 38.613281 38.476562 38.378906 Z M 38.476562 38.378906 "/>
<path style=" stroke:none;fill-rule:nonzero;fill:rgb(100%,100%,100%);fill-opacity:1;" d="M 31.722656 25.367188 C 31.257812 24.902344 31.257812 24.148438 31.722656 23.683594 L 38.476562 16.929688 C 38.941406 16.464844 39.699219 16.464844 40.164062 16.929688 C 40.628906 17.394531 40.628906 18.148438 40.164062 18.613281 L 33.410156 25.367188 C 33.175781 25.601562 32.871094 25.71875 32.566406 25.71875 C 32.261719 25.71875 31.957031 25.601562 31.722656 25.367188 Z M 31.722656 25.367188 "/>
<path style=" stroke:none;fill-rule:nonzero;fill:rgb(100%,100%,100%);fill-opacity:1;" d="M 38.476562 25.367188 L 31.726562 18.613281 C 31.257812 18.152344 31.257812 17.394531 31.726562 16.929688 C 32.191406 16.464844 32.945312 16.464844 33.410156 16.929688 L 40.164062 23.683594 C 40.628906 24.148438 40.628906 24.902344 40.164062 25.371094 C 39.933594 25.601562 39.625 25.71875 39.320312 25.71875 C 39.015625 25.71875 38.710938 25.601562 38.476562 25.367188 Z M 38.476562 25.367188 "/>
<path style=" stroke:none;fill-rule:nonzero;fill:rgb(100%,100%,100%);fill-opacity:1;" d="M 57.84375 63.804688 C 57.382812 63.339844 57.382812 62.582031 57.84375 62.121094 L 64.597656 55.367188 C 65.066406 54.898438 65.816406 54.898438 66.285156 55.367188 C 66.75 55.832031 66.75 56.585938 66.285156 57.050781 L 59.53125 63.804688 C 59.296875 64.039062 58.996094 64.152344 58.6875 64.152344 C 58.382812 64.15625 58.078125 64.035156 57.84375 63.804688 Z M 57.84375 63.804688 "/>
<path style=" stroke:none;fill-rule:nonzero;fill:rgb(100%,100%,100%);fill-opacity:1;" d="M 64.597656 63.804688 L 57.84375 57.050781 C 57.382812 56.585938 57.382812 55.832031 57.84375 55.367188 C 58.308594 54.898438 59.066406 54.898438 59.53125 55.367188 L 66.285156 62.121094 C 66.75 62.585938 66.75 63.339844 66.285156 63.804688 C 66.050781 64.039062 65.746094 64.152344 65.441406 64.152344 C 65.136719 64.15625 64.832031 64.035156 64.597656 63.804688 Z M 64.597656 63.804688 "/>
<path style=" stroke:none;fill-rule:nonzero;fill:rgb(100%,100%,100%);fill-opacity:1;" d="M 57.84375 51.492188 C 57.382812 51.023438 57.382812 50.269531 57.84375 49.804688 L 64.597656 43.050781 C 65.066406 42.585938 65.820312 42.585938 66.285156 43.050781 C 66.75 43.515625 66.75 44.269531 66.285156 44.734375 L 59.53125 51.492188 C 59.296875 51.722656 58.996094 51.839844 58.6875 51.839844 C 58.382812 51.839844 58.078125 51.726562 57.84375 51.492188 Z M 57.84375 51.492188 "/>
<path style=" stroke:none;fill-rule:nonzero;fill:rgb(100%,100%,100%);fill-opacity:1;" d="M 64.597656 51.492188 L 57.84375 44.734375 C 57.382812 44.269531 57.382812 43.515625 57.84375 43.050781 C 58.3125 42.585938 59.066406 42.585938 59.53125 43.050781 L 66.285156 49.804688 C 66.75 50.269531 66.75 51.023438 66.285156 51.492188 C 66.050781 51.722656 65.746094 51.839844 65.441406 51.839844 C 65.136719 51.839844 64.832031 51.726562 64.597656 51.492188 Z M 64.597656 51.492188 "/>
<path style=" stroke:none;fill-rule:nonzero;fill:rgb(100%,100%,100%);fill-opacity:1;" d="M 57.84375 38.777344 C 57.382812 38.3125 57.382812 37.558594 57.84375 37.089844 L 64.597656 30.339844 C 65.066406 29.875 65.820312 29.875 66.285156 30.339844 C 66.75 30.804688 66.75 31.558594 66.285156 32.023438 L 59.53125 38.777344 C 59.296875 39.011719 58.996094 39.128906 58.6875 39.128906 C 58.382812 39.128906 58.078125 39.011719 57.84375 38.777344 Z M 57.84375 38.777344 "/>
<path style=" stroke:none;fill-rule:nonzero;fill:rgb(100%,100%,100%);fill-opacity:1;" d="M 64.597656 38.777344 L 57.84375 32.023438 C 57.382812 31.558594 57.382812 30.804688 57.84375 30.335938 C 58.308594 29.875 59.066406 29.875 59.53125 30.335938 L 66.285156 37.089844 C 66.75 37.558594 66.75 38.3125 66.285156 38.777344 C 66.050781 39.011719 65.746094 39.128906 65.441406 39.128906 C 65.136719 39.128906 64.832031 39.011719 64.597656 38.777344 Z M 64.597656 38.777344 "/>
</g>
</svg>
