<?xml version="1.0" encoding="UTF-8"?>
<svg xmlns="http://www.w3.org/2000/svg" xmlns:xlink="http://www.w3.org/1999/xlink" width="85pt" height="85pt" viewBox="0 0 85 85" version="1.1">
<g id="surface1">
<path style=" stroke:none;fill-rule:nonzero;fill:rgb(31.372549%,70.588235%,23.529412%);fill-opacity:1;" d="M 84.75 42.5 C 84.75 65.835938 65.832031 84.75 42.5 84.75 C 19.167969 84.75 0.25 65.835938 0.25 42.5 C 0.25 19.164062 19.167969 0.25 42.5 0.25 C 65.832031 0.25 84.75 19.164062 84.75 42.5 Z M 84.75 42.5 "/>
<path style=" stroke:none;fill-rule:nonzero;fill:rgb(100%,100%,100%);fill-opacity:1;" d="M 61.449219 20.167969 C 61.257812 21.5 61.109375 22.167969 60.785156 23.394531 C 61.835938 23.949219 62.320312 24.914062 63.058594 25.628906 C 64.214844 25.378906 65.226562 24.847656 66.292969 24.425781 C 66.933594 25.476562 67.664062 26.484375 67.929688 27.726562 C 67.519531 28.042969 67.125 28.265625 66.539062 28.550781 C 66.15625 28.734375 65.289062 29.113281 65.261719 29.488281 C 65.183594 30.488281 65.5625 31.578125 65.316406 32.800781 C 66.347656 33.296875 67.507812 33.71875 68.53125 34.214844 C 68.398438 35.484375 67.953125 36.5 67.460938 37.765625 C 66.382812 37.617188 65.238281 37.332031 64.09375 37.054688 C 63.453125 38.050781 62.570312 38.578125 62.023438 39.757812 C 62.523438 40.671875 62.765625 41.71875 63.269531 42.632812 C 62.265625 43.328125 61.238281 43.980469 60.082031 44.378906 C 59.699219 43.820312 59.089844 43.085938 58.734375 42.519531 C 58.480469 42.109375 58.472656 41.671875 58.003906 41.53125 C 57.601562 41.414062 56.941406 41.730469 56.429688 41.773438 C 55.835938 41.820312 55.351562 41.769531 54.761719 41.835938 C 54.378906 43.007812 53.863281 43.917969 53.4375 45.003906 C 52.335938 44.804688 50.867188 44.441406 49.90625 43.867188 C 50.054688 42.828125 50.320312 41.730469 50.574219 40.636719 C 50.257812 40.148438 49.714844 39.949219 49.210938 39.523438 C 48.789062 39.164062 48.417969 38.5 47.914062 38.429688 C 47.703125 38.398438 46.652344 38.871094 46.386719 38.984375 C 45.878906 39.199219 45.433594 39.5625 44.859375 39.542969 C 44.117188 38.617188 43.703125 37.527344 43.226562 36.46875 C 44.09375 35.691406 45.160156 35.300781 46.027344 34.523438 C 45.777344 33.445312 45.714844 32.265625 45.722656 31.054688 C 44.65625 30.65625 43.671875 30.214844 42.691406 29.773438 C 42.699219 28.808594 43.199219 27.175781 43.738281 26.292969 C 44.753906 26.390625 45.859375 26.671875 46.96875 26.960938 C 47.429688 26.734375 47.449219 26.339844 47.75 25.9375 C 48.1875 25.351562 49.09375 24.929688 49.222656 24.390625 C 49.316406 24.007812 48.839844 23.179688 48.691406 22.792969 C 48.472656 22.242188 48.269531 21.769531 48.042969 21.3125 C 49.003906 20.496094 50.113281 19.96875 51.296875 19.589844 C 51.796875 20.578125 52.484375 21.472656 53.082031 22.414062 C 54.269531 22.367188 55.28125 21.988281 56.597656 22.199219 C 56.949219 20.964844 57.457031 20.039062 57.921875 19.027344 C 59.054688 19.167969 60.421875 19.65625 61.449219 20.167969 Z M 50.820312 30.824219 C 50.519531 32.070312 50.765625 33.402344 51.257812 34.335938 C 52.996094 37.605469 58.363281 37.867188 60.03125 34.320312 C 60.925781 32.417969 60.636719 30.742188 60.097656 29.695312 C 59.445312 28.421875 58.101562 27.300781 56.015625 27.027344 C 53.96875 26.761719 51.453125 28.160156 50.820312 30.824219 Z M 50.820312 30.824219 "/>
<path style=" stroke:none;fill-rule:nonzero;fill:rgb(100%,100%,100%);fill-opacity:1;" d="M 43.40625 47.304688 C 44.785156 46.902344 46.152344 46.476562 47.449219 45.910156 C 47.355469 44.257812 47.050781 42.714844 46.367188 41.367188 C 44.820312 41.332031 43.535156 41.804688 41.976562 41.746094 C 41.492188 40.523438 40.574219 39.519531 39.824219 38.429688 C 40.347656 36.839844 41.15625 35.792969 41.746094 34.332031 C 40.542969 33.378906 39.171875 32.515625 37.726562 31.6875 C 36.78125 32.785156 35.929688 34.078125 34.964844 35.140625 C 33.320312 34.550781 32.015625 34.621094 30.515625 34.304688 C 30.121094 32.882812 29.675781 31.488281 29.164062 30.125 C 27.582031 30.386719 25.992188 30.636719 24.554688 31.183594 C 24.511719 31.886719 24.75 32.542969 24.84375 33.300781 C 24.925781 33.953125 25.191406 35.082031 24.933594 35.574219 C 24.683594 36.0625 23.621094 36.355469 23.164062 36.652344 C 22.480469 37.097656 22.117188 37.585938 21.53125 38 C 20.109375 37.367188 18.855469 36.652344 17.542969 35.964844 C 16.582031 37.148438 15.644531 38.375 14.988281 40.160156 C 16.125 41.054688 17.300781 41.925781 18.308594 42.878906 C 17.675781 44.542969 17.847656 45.796875 17.472656 47.332031 C 16.109375 47.6875 14.8125 48.183594 13.46875 48.585938 C 13.519531 50.28125 14.011719 51.746094 14.441406 53.246094 C 16.023438 53.273438 17.300781 52.710938 18.96875 52.910156 C 19.5 54.148438 20.480469 55.15625 21.257812 56.269531 C 20.648438 57.660156 19.917969 58.816406 19.3125 60.210938 C 20.476562 61.144531 22.007812 62.191406 23.417969 62.808594 C 24.359375 61.628906 25.238281 60.320312 26.269531 59.308594 C 27.847656 59.949219 29.105469 59.976562 30.382812 60.035156 C 30.980469 61.371094 31.292969 62.855469 31.796875 64.238281 C 33.511719 64.195312 35.027344 63.761719 36.480469 63.203125 C 36.484375 61.632812 35.976562 60.324219 36.140625 58.671875 C 37.308594 58.152344 38.3125 57.308594 39.320312 56.476562 C 40.84375 57.058594 41.957031 57.847656 43.402344 58.464844 C 44.246094 57.097656 45.308594 56.144531 45.933594 54.335938 C 44.824219 53.375 43.511719 52.515625 42.5 51.507812 C 43.195312 49.90625 43.019531 48.746094 43.40625 47.304688 Z M 30.460938 55.792969 C 25.703125 55.792969 21.847656 51.9375 21.847656 47.179688 C 21.847656 42.425781 25.703125 38.570312 30.460938 38.570312 C 35.214844 38.570312 39.070312 42.425781 39.070312 47.179688 C 39.070312 51.9375 35.214844 55.792969 30.460938 55.792969 Z M 30.460938 55.792969 "/>
<path style=" stroke:none;fill-rule:nonzero;fill:rgb(100%,100%,100%);fill-opacity:1;" d="M 61.917969 55.269531 C 62.609375 55.042969 64.277344 54.386719 64.921875 54.074219 C 64.84375 53.242188 64.660156 52.46875 64.289062 51.796875 C 63.511719 51.808594 61.882812 52.492188 61.09375 52.488281 C 60.824219 51.882812 60.34375 51.390625 59.945312 50.855469 C 60.179688 50.042969 60.960938 48.578125 61.230469 47.828125 C 60.605469 47.371094 59.898438 46.960938 59.152344 46.570312 C 58.695312 47.140625 57.898438 48.726562 57.429688 49.285156 C 56.585938 49.015625 55.929688 49.078125 55.167969 48.945312 C 54.941406 48.234375 54.703125 46.449219 54.421875 45.773438 C 53.625 45.933594 52.828125 46.089844 52.109375 46.390625 C 52.105469 46.75 52.253906 48.027344 52.316406 48.40625 C 52.371094 48.738281 52.492188 49.433594 52.371094 49.6875 C 52.253906 49.9375 51.757812 50.183594 51.527344 50.34375 C 51.191406 50.578125 50.988281 50.757812 50.699219 50.976562 C 49.96875 50.683594 48.355469 49.710938 47.679688 49.390625 C 47.21875 50.007812 46.765625 50.640625 46.46875 51.558594 C 47.058594 51.984375 48.632812 53.039062 49.160156 53.503906 C 48.875 54.355469 48.984375 54.984375 48.820312 55.765625 C 48.140625 55.96875 46.210938 56.617188 45.542969 56.847656 C 45.597656 57.699219 45.875 58.433594 46.117188 59.179688 C 46.917969 59.167969 48.835938 58.484375 49.679688 58.554688 C 49.972656 59.171875 50.484375 59.660156 50.898438 60.210938 C 50.617188 60.921875 49.597656 62.40625 49.320312 63.125 C 49.925781 63.574219 50.71875 64.074219 51.441406 64.363281 C 51.894531 63.746094 52.988281 62.179688 53.488281 61.652344 C 54.296875 61.945312 54.929688 61.9375 55.578125 61.941406 C 55.90625 62.605469 56.40625 64.28125 56.6875 64.972656 C 57.554688 64.917969 58.308594 64.671875 59.03125 64.363281 C 59.007812 63.566406 58.410156 61.984375 58.460938 61.148438 C 59.042969 60.863281 59.535156 60.417969 60.027344 59.976562 C 60.808594 60.242188 62.128906 61.097656 62.867188 61.382812 C 63.273438 60.675781 63.789062 60.175781 64.070312 59.25 C 63.492188 58.785156 62.070312 57.898438 61.539062 57.410156 C 61.859375 56.589844 61.75 56.007812 61.917969 55.269531 Z M 55.539062 59.800781 C 53.136719 59.886719 51.117188 58.011719 51.027344 55.613281 C 50.9375 53.210938 52.816406 51.191406 55.214844 51.101562 C 57.617188 51.011719 59.636719 52.886719 59.726562 55.289062 C 59.816406 57.691406 57.941406 59.710938 55.539062 59.800781 Z M 55.539062 59.800781 "/>
</g>
</svg>
