<?xml version="1.0" encoding="UTF-8"?>
<svg xmlns="http://www.w3.org/2000/svg" xmlns:xlink="http://www.w3.org/1999/xlink" width="85pt" height="85pt" viewBox="0 0 85 85" version="1.1">
<g id="surface1">
<path style=" stroke:none;fill-rule:nonzero;fill:rgb(85.098039%,28.235294%,26.27451%);fill-opacity:1;" d="M 84.347656 42.5 C 84.347656 65.609375 65.609375 84.34375 42.5 84.34375 C 19.390625 84.34375 0.652344 65.609375 0.652344 42.5 C 0.652344 19.386719 19.390625 0.652344 42.5 0.652344 C 65.609375 0.652344 84.347656 19.386719 84.347656 42.5 Z M 84.347656 42.5 "/>
<path style=" stroke:none;fill-rule:nonzero;fill:rgb(100%,100%,100%);fill-opacity:1;" d="M 30.101562 55.0625 C 30.101562 55.796875 29.503906 56.390625 28.769531 56.390625 C 28.035156 56.390625 27.441406 55.796875 27.441406 55.0625 C 27.441406 54.328125 28.035156 53.730469 28.769531 53.730469 C 29.503906 53.730469 30.101562 54.328125 30.101562 55.0625 Z M 30.101562 55.0625 "/>
<path style=" stroke:none;fill-rule:nonzero;fill:rgb(100%,100%,100%);fill-opacity:1;" d="M 32.792969 48.78125 C 32.792969 49.515625 32.195312 50.109375 31.460938 50.109375 C 30.726562 50.109375 30.132812 49.515625 30.132812 48.78125 C 30.132812 48.046875 30.726562 47.449219 31.460938 47.449219 C 32.195312 47.449219 32.792969 48.046875 32.792969 48.78125 Z M 32.792969 48.78125 "/>
<path style=" stroke:none;fill-rule:nonzero;fill:rgb(100%,100%,100%);fill-opacity:1;" d="M 39.863281 55.726562 C 39.863281 56.460938 39.265625 57.054688 38.53125 57.054688 C 37.796875 57.054688 37.203125 56.460938 37.203125 55.726562 C 37.203125 54.992188 37.796875 54.398438 38.53125 54.398438 C 39.265625 54.398438 39.863281 54.992188 39.863281 55.726562 Z M 39.863281 55.726562 "/>
<path style=" stroke:none;fill-rule:nonzero;fill:rgb(100%,100%,100%);fill-opacity:1;" d="M 41.359375 44.855469 C 41.359375 45.589844 40.761719 46.1875 40.027344 46.1875 C 39.292969 46.1875 38.699219 45.589844 38.699219 44.855469 C 38.699219 44.121094 39.292969 43.527344 40.027344 43.527344 C 40.761719 43.527344 41.359375 44.121094 41.359375 44.855469 Z M 41.359375 44.855469 "/>
<path style=" stroke:none;fill-rule:nonzero;fill:rgb(100%,100%,100%);fill-opacity:1;" d="M 46.542969 49.742188 C 46.542969 50.476562 45.949219 51.070312 45.214844 51.070312 C 44.480469 51.070312 43.882812 50.476562 43.882812 49.742188 C 43.882812 49.007812 44.480469 48.414062 45.214844 48.414062 C 45.949219 48.414062 46.542969 49.007812 46.542969 49.742188 Z M 46.542969 49.742188 "/>
<path style=" stroke:none;fill-rule:nonzero;fill:rgb(100%,100%,100%);fill-opacity:1;" d="M 60.007812 54.03125 C 60.007812 54.765625 59.410156 55.359375 58.675781 55.359375 C 57.941406 55.359375 57.347656 54.765625 57.347656 54.03125 C 57.347656 53.296875 57.941406 52.703125 58.675781 52.703125 C 59.410156 52.703125 60.007812 53.296875 60.007812 54.03125 Z M 60.007812 54.03125 "/>
<path style=" stroke:none;fill-rule:nonzero;fill:rgb(100%,100%,100%);fill-opacity:1;" d="M 46.742188 36.878906 C 46.742188 37.613281 46.148438 38.207031 45.414062 38.207031 C 44.679688 38.207031 44.082031 37.613281 44.082031 36.878906 C 44.082031 36.144531 44.679688 35.546875 45.414062 35.546875 C 46.148438 35.546875 46.742188 36.144531 46.742188 36.878906 Z M 46.742188 36.878906 "/>
<path style=" stroke:none;fill-rule:nonzero;fill:rgb(100%,100%,100%);fill-opacity:1;" d="M 37.667969 33.984375 C 37.667969 34.722656 37.070312 35.316406 36.335938 35.316406 C 35.601562 35.316406 35.007812 34.722656 35.007812 33.984375 C 35.007812 33.25 35.601562 32.65625 36.335938 32.65625 C 37.070312 32.65625 37.667969 33.25 37.667969 33.984375 Z M 37.667969 33.984375 "/>
<path style=" stroke:none;fill-rule:nonzero;fill:rgb(100%,100%,100%);fill-opacity:1;" d="M 51.929688 41.765625 C 51.929688 42.5 51.335938 43.09375 50.601562 43.09375 C 49.867188 43.09375 49.269531 42.5 49.269531 41.765625 C 49.269531 41.03125 49.867188 40.433594 50.601562 40.433594 C 51.335938 40.433594 51.929688 41.03125 51.929688 41.765625 Z M 51.929688 41.765625 "/>
<path style=" stroke:none;fill-rule:nonzero;fill:rgb(100%,100%,100%);fill-opacity:1;" d="M 47.339844 41.566406 C 47.339844 42.300781 46.746094 42.894531 46.011719 42.894531 C 45.277344 42.894531 44.683594 42.300781 44.683594 41.566406 C 44.683594 40.832031 45.277344 40.234375 46.011719 40.234375 C 46.746094 40.234375 47.339844 40.832031 47.339844 41.566406 Z M 47.339844 41.566406 "/>
<path style=" stroke:none;fill-rule:nonzero;fill:rgb(100%,100%,100%);fill-opacity:1;" d="M 36.96875 41.765625 C 36.96875 42.5 36.375 43.09375 35.640625 43.09375 C 34.90625 43.09375 34.308594 42.5 34.308594 41.765625 C 34.308594 41.03125 34.90625 40.433594 35.640625 40.433594 C 36.375 40.433594 36.96875 41.03125 36.96875 41.765625 Z M 36.96875 41.765625 "/>
<path style=" stroke:none;fill-rule:nonzero;fill:rgb(100%,100%,100%);fill-opacity:1;" d="M 40.757812 49.84375 C 40.757812 50.578125 40.164062 51.171875 39.429688 51.171875 C 38.695312 51.171875 38.097656 50.578125 38.097656 49.84375 C 38.097656 49.109375 38.695312 48.511719 39.429688 48.511719 C 40.164062 48.511719 40.757812 49.109375 40.757812 49.84375 Z M 40.757812 49.84375 "/>
<path style=" stroke:none;fill-rule:nonzero;fill:rgb(100%,100%,100%);fill-opacity:1;" d="M 55.417969 28.101562 C 55.417969 28.835938 54.824219 29.433594 54.089844 29.433594 C 53.355469 29.433594 52.757812 28.835938 52.757812 28.101562 C 52.757812 27.367188 53.355469 26.773438 54.089844 26.773438 C 54.824219 26.773438 55.417969 27.367188 55.417969 28.101562 Z M 55.417969 28.101562 "/>
<path style=" stroke:none;fill-rule:nonzero;fill:rgb(100%,100%,100%);fill-opacity:1;" d="M 59.609375 35.582031 C 59.609375 36.316406 59.011719 36.910156 58.277344 36.910156 C 57.542969 36.910156 56.949219 36.316406 56.949219 35.582031 C 56.949219 34.847656 57.542969 34.25 58.277344 34.25 C 59.011719 34.25 59.609375 34.847656 59.609375 35.582031 Z M 59.609375 35.582031 "/>
<path style=" stroke:none;fill-rule:nonzero;fill:rgb(100%,100%,100%);fill-opacity:1;" d="M 53.027344 34.085938 C 53.027344 34.820312 52.429688 35.414062 51.695312 35.414062 C 50.960938 35.414062 50.367188 34.820312 50.367188 34.085938 C 50.367188 33.351562 50.960938 32.753906 51.695312 32.753906 C 52.429688 32.753906 53.027344 33.351562 53.027344 34.085938 Z M 53.027344 34.085938 "/>
<path style=" stroke:none;fill-rule:nonzero;fill:rgb(100%,100%,100%);fill-opacity:1;" d="M 63.097656 28.800781 C 63.097656 29.535156 62.503906 30.128906 61.769531 30.128906 C 61.035156 30.128906 60.441406 29.535156 60.441406 28.800781 C 60.441406 28.066406 61.035156 27.46875 61.769531 27.46875 C 62.503906 27.46875 63.097656 28.066406 63.097656 28.800781 Z M 63.097656 28.800781 "/>
<path style=" stroke:none;fill-rule:nonzero;fill:rgb(100%,100%,100%);fill-opacity:1;" d="M 60.101562 23.515625 C 60.101562 24.25 59.507812 24.84375 58.773438 24.84375 C 58.039062 24.84375 57.445312 24.25 57.445312 23.515625 C 57.445312 22.78125 58.039062 22.1875 58.773438 22.1875 C 59.507812 22.1875 60.101562 22.78125 60.101562 23.515625 Z M 60.101562 23.515625 "/>
<path style=" stroke:none;fill-rule:nonzero;fill:rgb(100%,100%,100%);fill-opacity:1;" d="M 65.257812 63.789062 L 19.601562 63.789062 L 19.601562 21.320312 C 19.601562 20.777344 20.039062 20.339844 20.582031 20.339844 C 21.125 20.339844 21.5625 20.777344 21.5625 21.320312 L 21.5625 61.828125 L 65.257812 61.828125 C 65.800781 61.828125 66.242188 62.265625 66.242188 62.808594 C 66.242188 63.347656 65.800781 63.789062 65.257812 63.789062 Z M 65.257812 63.789062 "/>
</g>
</svg>
