<?xml version="1.0" encoding="UTF-8"?>
<svg xmlns="http://www.w3.org/2000/svg" xmlns:xlink="http://www.w3.org/1999/xlink" width="85pt" height="85pt" viewBox="0 0 85 85" version="1.1">
<g id="surface1">
<path style=" stroke:none;fill-rule:nonzero;fill:rgb(85.098039%,28.235294%,26.27451%);fill-opacity:1;" d="M 84.347656 42.5 C 84.347656 65.609375 65.609375 84.34375 42.5 84.34375 C 19.390625 84.34375 0.652344 65.609375 0.652344 42.5 C 0.652344 19.386719 19.390625 0.652344 42.5 0.652344 C 65.609375 0.652344 84.347656 19.386719 84.347656 42.5 Z M 84.347656 42.5 "/>
<path style=" stroke:none;fill-rule:nonzero;fill:rgb(100%,100%,100%);fill-opacity:1;" d="M 51.933594 34.421875 L 49.628906 36.726562 C 50.679688 38.195312 51.441406 40.324219 51.441406 42.519531 C 51.441406 43.976562 51.109375 45.65625 50.628906 46.8125 L 53.484375 48.441406 C 54.363281 46.738281 54.898438 44.5625 54.898438 42.519531 C 54.898438 39.542969 53.679688 36.558594 51.933594 34.421875 Z M 51.085938 33.503906 C 48.984375 31.542969 45.855469 30.171875 42.789062 30.042969 L 42.789062 33.5 C 45.089844 33.601562 47.378906 34.496094 48.8125 35.777344 Z M 33.503906 42.519531 C 33.503906 37.5 36.691406 34.050781 41.445312 33.574219 L 41.445312 30.109375 C 35.128906 30.699219 30.042969 36.046875 30.042969 42.519531 C 30.042969 45.257812 31.066406 48.085938 32.570312 50.144531 L 35.019531 48.015625 C 34.121094 46.601562 33.503906 44.539062 33.503906 42.519531 Z M 42.472656 51.488281 C 39.757812 51.488281 37.148438 50.429688 35.585938 48.863281 L 33.164062 50.960938 C 35.421875 53.308594 38.957031 54.945312 42.472656 54.945312 C 46.679688 54.945312 50.636719 52.664062 52.886719 49.460938 L 50.027344 47.839844 C 48.824219 49.589844 46.078125 51.488281 42.472656 51.488281 Z M 42.472656 51.488281 "/>
<path style=" stroke:none;fill-rule:nonzero;fill:rgb(100%,100%,100%);fill-opacity:1;" d="M 38.144531 30.1875 L 37.054688 26.882812 C 35.617188 27.382812 34.265625 28.0625 33.039062 28.914062 L 35.152344 31.679688 C 36.070312 31.058594 37.078125 30.5625 38.144531 30.1875 Z M 41.625 29.480469 L 41.625 26 C 40.324219 26.066406 39.0625 26.273438 37.863281 26.621094 L 38.953125 29.933594 C 39.808594 29.691406 40.703125 29.539062 41.625 29.480469 Z M 31.140625 36.003906 L 28.140625 34.242188 C 26.792969 36.578125 25.996094 39.269531 25.933594 42.148438 L 29.414062 42.097656 C 29.484375 39.882812 30.101562 37.808594 31.140625 36.003906 Z M 51.582031 33.144531 L 54.175781 30.804688 C 52.691406 29.320312 50.925781 28.121094 48.964844 27.28125 L 47.6875 30.527344 C 49.140625 31.160156 50.457031 32.050781 51.582031 33.144531 Z M 29.414062 42.945312 L 25.9375 42.996094 C 26.042969 46.730469 27.378906 50.15625 29.566406 52.878906 L 32.222656 50.632812 C 30.539062 48.503906 29.503906 45.847656 29.414062 42.945312 Z M 54.835938 38.277344 L 58.238281 37.460938 C 57.511719 35.195312 56.304688 33.15625 54.746094 31.429688 L 52.164062 33.757812 C 53.339844 35.054688 54.253906 36.589844 54.835938 38.277344 Z M 58.464844 38.28125 L 55.082031 39.089844 C 55.378906 40.183594 55.550781 41.332031 55.550781 42.519531 C 55.550781 42.964844 55.53125 43.402344 55.484375 43.835938 L 58.902344 44.507812 C 58.980469 43.855469 59.03125 43.191406 59.03125 42.519531 C 59.03125 41.050781 58.820312 39.636719 58.464844 38.28125 Z M 42.472656 55.601562 C 41.003906 55.601562 39.597656 55.347656 38.285156 54.902344 L 37.054688 58.152344 C 38.753906 58.742188 40.570312 59.078125 42.472656 59.078125 C 43.640625 59.078125 44.777344 58.953125 45.875 58.722656 L 45.160156 55.320312 C 44.292969 55.503906 43.394531 55.601562 42.472656 55.601562 Z M 45.984375 55.109375 L 46.699219 58.511719 C 50.683594 57.460938 54.082031 54.976562 56.292969 51.625 L 53.40625 49.691406 C 51.933594 51.929688 49.46875 54.140625 45.984375 55.109375 Z M 32.773438 51.277344 L 30.121094 53.519531 C 31.796875 55.398438 33.886719 56.898438 36.257812 57.859375 L 37.488281 54.613281 C 35.671875 53.863281 34.070312 52.710938 32.773438 51.277344 Z M 46.894531 30.222656 L 48.171875 26.984375 C 46.390625 26.332031 44.480469 25.957031 42.472656 25.957031 C 42.472656 25.957031 42.472656 25.957031 42.46875 25.957031 L 42.46875 29.4375 C 42.472656 29.4375 42.472656 29.4375 42.472656 29.4375 C 44.027344 29.4375 45.511719 29.722656 46.894531 30.222656 Z M 34.472656 32.1875 L 32.363281 29.421875 C 30.882812 30.566406 29.605469 31.949219 28.582031 33.519531 L 31.582031 35.277344 C 32.371094 34.09375 33.351562 33.054688 34.472656 32.1875 Z M 53.847656 48.96875 L 56.734375 50.902344 C 57.726562 49.214844 58.425781 47.34375 58.773438 45.347656 L 55.359375 44.675781 C 55.105469 46.214844 54.585938 47.660156 53.847656 48.96875 Z M 53.847656 48.96875 "/>
<path style=" stroke:none;fill-rule:nonzero;fill:rgb(100%,100%,100%);fill-opacity:1;" d="M 33.070312 56.894531 L 30.339844 60.570312 C 31.644531 61.449219 33.050781 62.183594 34.535156 62.765625 L 36.175781 58.496094 C 35.082031 58.066406 34.042969 57.527344 33.070312 56.894531 Z M 27.28125 50.535156 L 23.152344 52.507812 C 23.828125 53.808594 24.625 55.027344 25.535156 56.15625 L 29.097656 53.292969 C 28.40625 52.4375 27.796875 51.515625 27.28125 50.535156 Z M 25.949219 47.1875 L 21.507812 48.300781 C 21.835938 49.496094 22.261719 50.648438 22.777344 51.746094 L 26.914062 49.769531 C 26.523438 48.941406 26.199219 48.082031 25.949219 47.1875 Z M 36.265625 21.671875 L 37.613281 26.046875 C 38.898438 25.667969 40.25 25.449219 41.640625 25.378906 L 41.570312 20.789062 C 39.734375 20.867188 37.957031 21.167969 36.265625 21.671875 Z M 25.308594 42.886719 L 20.730469 42.847656 C 20.753906 44.441406 20.953125 45.988281 21.296875 47.480469 L 25.738281 46.367188 C 25.480469 45.246094 25.332031 44.078125 25.308594 42.886719 Z M 59.492188 40.28125 L 64.050781 39.824219 C 63.914062 38.726562 63.695312 37.65625 63.402344 36.613281 L 59.027344 37.980469 C 59.230469 38.726562 59.386719 39.496094 59.492188 40.28125 Z M 35.328125 63.058594 C 37.195312 63.707031 39.179688 64.113281 41.238281 64.230469 L 41.496094 59.652344 C 39.921875 59.5625 38.40625 59.269531 36.972656 58.785156 Z M 36.808594 26.316406 L 35.457031 21.929688 C 34.769531 22.164062 34.097656 22.433594 33.445312 22.730469 L 35.363281 26.890625 C 35.835938 26.675781 36.316406 26.484375 36.808594 26.316406 Z M 54.734375 54.542969 L 57.820312 57.929688 C 58.972656 56.777344 59.996094 55.496094 60.867188 54.113281 L 56.929688 51.78125 C 56.292969 52.773438 55.5625 53.703125 54.734375 54.542969 Z M 34.601562 27.257812 L 32.679688 23.097656 C 31.84375 23.519531 31.035156 23.992188 30.261719 24.519531 L 32.765625 28.347656 C 33.351562 27.949219 33.964844 27.585938 34.601562 27.257812 Z M 25.738281 38.671875 L 21.332031 37.40625 C 20.976562 38.886719 20.773438 40.421875 20.738281 42 L 25.316406 42.039062 C 25.347656 40.882812 25.488281 39.757812 25.738281 38.671875 Z M 27.652344 33.855469 L 23.851562 31.269531 C 22.859375 32.914062 22.082031 34.699219 21.546875 36.585938 L 25.949219 37.851562 C 26.351562 36.433594 26.925781 35.097656 27.652344 33.855469 Z M 29.3125 31.480469 L 25.980469 28.347656 C 25.378906 29.046875 24.820312 29.785156 24.308594 30.558594 L 28.09375 33.128906 C 28.46875 32.554688 28.875 32.003906 29.3125 31.480469 Z M 58.792969 37.167969 L 63.160156 35.804688 C 62.609375 34.105469 61.855469 32.496094 60.925781 31.011719 L 57.09375 33.527344 C 57.792969 34.660156 58.367188 35.878906 58.792969 37.167969 Z M 57.371094 51.054688 L 61.304688 53.386719 C 62.59375 51.164062 63.5 48.691406 63.929688 46.054688 L 59.394531 45.410156 C 59.046875 47.433594 58.355469 49.339844 57.371094 51.054688 Z M 56.640625 32.808594 L 60.464844 30.296875 C 59.84375 29.386719 59.160156 28.53125 58.410156 27.726562 L 55.132812 30.933594 C 55.675781 31.527344 56.1875 32.148438 56.640625 32.808594 Z M 64.136719 40.667969 L 59.582031 41.125 C 59.621094 41.585938 59.652344 42.046875 59.652344 42.519531 C 59.652344 43.214844 59.597656 43.898438 59.519531 44.574219 L 64.046875 45.214844 C 64.15625 44.332031 64.222656 43.433594 64.222656 42.515625 C 64.222656 41.894531 64.1875 41.277344 64.136719 40.667969 Z M 32.085938 28.859375 L 29.570312 25.007812 C 28.480469 25.816406 27.464844 26.722656 26.542969 27.714844 L 29.882812 30.855469 C 30.558594 30.128906 31.292969 29.460938 32.085938 28.859375 Z M 29.652344 53.933594 L 26.082031 56.804688 C 27.144531 58.023438 28.339844 59.125 29.652344 60.082031 L 32.382812 56.40625 C 31.382812 55.679688 30.472656 54.851562 29.652344 53.933594 Z M 42.472656 59.703125 C 42.425781 59.703125 42.382812 59.695312 42.339844 59.695312 L 42.085938 64.257812 C 42.214844 64.261719 42.34375 64.269531 42.472656 64.269531 C 44.007812 64.269531 45.507812 64.105469 46.953125 63.804688 L 46.023438 59.332031 C 44.878906 59.570312 43.691406 59.703125 42.472656 59.703125 Z M 44.632812 25.488281 L 45.242188 20.949219 C 44.335938 20.835938 43.414062 20.765625 42.472656 20.765625 C 42.453125 20.765625 42.4375 20.769531 42.421875 20.769531 L 42.484375 25.339844 C 43.214844 25.339844 43.925781 25.398438 44.632812 25.488281 Z M 51.078125 27.664062 L 53.414062 23.726562 C 52.535156 23.210938 51.617188 22.757812 50.660156 22.367188 L 49.078125 26.660156 C 49.769531 26.949219 50.433594 27.292969 51.078125 27.664062 Z M 54.554688 30.3125 L 57.824219 27.113281 C 56.710938 26.003906 55.472656 25.015625 54.140625 24.167969 L 51.800781 28.105469 C 52.796875 28.75 53.71875 29.484375 54.554688 30.3125 Z M 46.84375 59.117188 L 47.78125 63.609375 C 49.734375 63.121094 51.582031 62.363281 53.285156 61.386719 L 50.949219 57.453125 C 49.675781 58.179688 48.300781 58.738281 46.84375 59.117188 Z M 51.675781 57.011719 L 54.011719 60.949219 C 55.152344 60.234375 56.21875 59.417969 57.203125 58.511719 L 54.117188 55.128906 C 53.359375 55.824219 52.546875 56.457031 51.675781 57.011719 Z M 49.871094 22.0625 C 48.65625 21.621094 47.386719 21.289062 46.082031 21.070312 L 45.46875 25.617188 C 46.4375 25.789062 47.375 26.042969 48.28125 26.367188 Z M 49.871094 22.0625 "/>
<path style=" stroke:none;fill-rule:nonzero;fill:rgb(100%,100%,100%);fill-opacity:1;" d="M 22.738281 52.941406 L 17.457031 55.632812 C 17.835938 56.355469 18.246094 57.058594 18.6875 57.742188 L 23.628906 54.46875 C 23.3125 53.972656 23.015625 53.460938 22.738281 52.941406 Z M 20.382812 45.65625 L 14.496094 46.402344 C 14.628906 47.355469 14.804688 48.292969 15.03125 49.214844 L 20.761719 47.675781 C 20.605469 47.011719 20.476562 46.339844 20.382812 45.65625 Z M 23.355469 31.007812 L 18.367188 27.789062 C 17.996094 28.394531 17.652344 29.015625 17.328125 29.648438 L 22.648438 32.277344 C 22.871094 31.847656 23.105469 31.425781 23.355469 31.007812 Z M 22.273438 33.039062 L 16.949219 30.410156 C 16.671875 30.988281 16.421875 31.582031 16.1875 32.179688 L 21.707031 34.355469 C 21.882812 33.910156 22.070312 33.46875 22.273438 33.039062 Z M 36.253906 70.070312 C 36.996094 70.234375 37.746094 70.375 38.511719 70.480469 L 39.300781 64.609375 C 38.757812 64.53125 38.222656 64.433594 37.691406 64.320312 Z M 35.226562 63.628906 L 33.105469 69.167969 C 33.867188 69.433594 34.640625 69.675781 35.425781 69.878906 L 36.867188 64.125 C 36.308594 63.980469 35.761719 63.8125 35.226562 63.628906 Z M 30.105469 61.09375 L 26.664062 65.929688 C 27.03125 66.179688 27.40625 66.417969 27.785156 66.652344 L 30.847656 61.570312 C 30.597656 61.417969 30.347656 61.257812 30.105469 61.09375 Z M 39.351562 70.589844 C 39.914062 70.652344 40.484375 70.699219 41.054688 70.726562 L 41.273438 64.804688 C 40.894531 64.78125 40.515625 64.753906 40.140625 64.714844 Z M 33.144531 62.792969 L 30.488281 68.09375 C 31.082031 68.375 31.691406 68.632812 32.3125 68.871094 L 34.429688 63.335938 C 33.996094 63.167969 33.566406 62.988281 33.144531 62.792969 Z M 31.578125 61.996094 L 28.519531 67.074219 C 28.914062 67.300781 29.316406 67.515625 29.726562 67.722656 L 32.382812 62.421875 C 32.109375 62.285156 31.84375 62.144531 31.578125 61.996094 Z M 24.09375 55.175781 L 19.152344 58.453125 C 19.613281 59.128906 20.101562 59.78125 20.621094 60.414062 L 25.183594 56.625 C 24.800781 56.160156 24.4375 55.671875 24.09375 55.175781 Z M 21.410156 35.152344 L 15.882812 32.972656 C 15.652344 33.621094 15.445312 34.285156 15.257812 34.957031 L 20.96875 36.566406 C 21.101562 36.085938 21.246094 35.617188 21.410156 35.152344 Z M 27.21875 26.242188 L 23.269531 21.808594 C 22.738281 22.300781 22.226562 22.8125 21.734375 23.34375 L 26.140625 27.324219 C 26.488281 26.953125 26.847656 26.59375 27.21875 26.242188 Z M 29.15625 24.617188 L 25.683594 19.804688 C 25.070312 20.257812 24.476562 20.742188 23.902344 21.242188 L 27.847656 25.675781 C 28.269531 25.308594 28.703125 24.953125 29.15625 24.617188 Z M 37.460938 20.78125 L 36.242188 14.96875 C 35.523438 15.128906 34.8125 15.3125 34.113281 15.527344 L 35.960938 21.175781 C 36.453125 21.027344 36.953125 20.894531 37.460938 20.78125 Z M 63.558594 49.820312 L 69.140625 51.820312 C 69.363281 51.191406 69.5625 50.550781 69.738281 49.898438 L 63.992188 48.414062 C 63.863281 48.890625 63.71875 49.359375 63.558594 49.820312 Z M 51.570312 62.894531 L 53.929688 68.332031 C 54.867188 67.917969 55.773438 67.453125 56.65625 66.941406 L 53.621094 61.847656 C 52.957031 62.230469 52.273438 62.582031 51.570312 62.894531 Z M 48.035156 64.136719 L 49.464844 69.890625 C 50.734375 69.570312 51.960938 69.15625 53.152344 68.667969 L 50.792969 63.230469 C 49.898438 63.585938 48.980469 63.894531 48.035156 64.136719 Z M 47.457031 20.773438 L 48.964844 15.03125 C 48.347656 14.882812 47.726562 14.757812 47.09375 14.652344 L 46.175781 20.519531 C 46.605469 20.59375 47.035156 20.675781 47.457031 20.773438 Z M 46.257812 14.53125 C 45.71875 14.457031 45.179688 14.402344 44.632812 14.359375 L 44.195312 20.28125 C 44.578125 20.308594 44.960938 20.347656 45.335938 20.398438 Z M 43.347656 20.230469 L 43.785156 14.304688 C 43.351562 14.285156 42.910156 14.269531 42.472656 14.269531 C 42.453125 14.269531 42.433594 14.273438 42.414062 14.273438 L 42.414062 20.210938 C 42.433594 20.210938 42.453125 20.210938 42.472656 20.210938 C 42.765625 20.207031 43.058594 20.21875 43.347656 20.230469 Z M 61.789062 53.6875 L 66.839844 56.800781 C 67.203125 56.179688 67.546875 55.546875 67.867188 54.898438 L 62.488281 52.386719 C 62.269531 52.828125 62.035156 53.261719 61.789062 53.6875 Z M 62.84375 51.621094 L 68.21875 54.128906 C 68.445312 53.632812 68.65625 53.128906 68.851562 52.617188 L 63.265625 50.617188 C 63.132812 50.957031 62.992188 51.289062 62.84375 51.621094 Z M 64.609375 39.761719 L 70.5 39.078125 C 70.421875 38.425781 70.324219 37.777344 70.199219 37.140625 L 64.386719 38.328125 C 64.476562 38.800781 64.550781 39.28125 64.609375 39.761719 Z M 64.210938 37.5 L 70.027344 36.3125 C 69.917969 35.820312 69.792969 35.335938 69.65625 34.855469 L 63.953125 36.488281 C 64.046875 36.824219 64.132812 37.160156 64.210938 37.5 Z M 62.792969 33.3125 L 68.3125 31.109375 C 68.0625 30.546875 67.796875 29.996094 67.511719 29.453125 L 62.257812 32.207031 C 62.445312 32.570312 62.625 32.9375 62.792969 33.3125 Z M 63.710938 35.675781 L 69.421875 34.042969 C 69.191406 33.3125 68.929688 32.59375 68.640625 31.890625 L 63.132812 34.089844 C 63.34375 34.609375 63.539062 35.136719 63.710938 35.675781 Z M 64.199219 47.597656 L 69.945312 49.078125 C 70.117188 48.355469 70.265625 47.625 70.382812 46.878906 L 64.5 46.078125 C 64.417969 46.589844 64.3125 47.09375 64.199219 47.597656 Z M 53.898438 23.355469 L 57.160156 18.386719 C 56.539062 18.007812 55.898438 17.660156 55.246094 17.328125 L 52.566406 22.625 C 53.015625 22.851562 53.460938 23.09375 53.898438 23.355469 Z M 51.804688 22.253906 L 54.488281 16.953125 C 54.0625 16.75 53.628906 16.5625 53.191406 16.382812 L 50.953125 21.882812 C 51.242188 22 51.523438 22.125 51.804688 22.253906 Z M 55.738281 24.582031 L 59.511719 19.992188 C 58.980469 19.589844 58.433594 19.210938 57.875 18.847656 L 54.613281 23.804688 C 54.996094 24.054688 55.371094 24.3125 55.738281 24.582031 Z M 61.851562 31.464844 L 67.109375 28.707031 C 66.894531 28.320312 66.667969 27.9375 66.433594 27.5625 L 61.402344 30.714844 C 61.558594 30.960938 61.707031 31.210938 61.851562 31.464844 Z M 61.851562 31.464844 "/>
</g>
</svg>
