<?xml version="1.0" encoding="UTF-8"?>
<svg xmlns="http://www.w3.org/2000/svg" xmlns:xlink="http://www.w3.org/1999/xlink" width="85pt" height="85pt" viewBox="0 0 85 85" version="1.1">
<g id="surface1">
<path style=" stroke:none;fill-rule:nonzero;fill:rgb(85.098039%,28.235294%,26.27451%);fill-opacity:1;" d="M 84.347656 42.5 C 84.347656 65.609375 65.609375 84.34375 42.5 84.34375 C 19.390625 84.34375 0.652344 65.609375 0.652344 42.5 C 0.652344 19.386719 19.390625 0.652344 42.5 0.652344 C 65.609375 0.652344 84.347656 19.386719 84.347656 42.5 Z M 84.347656 42.5 "/>
<path style=" stroke:none;fill-rule:nonzero;fill:rgb(100%,100%,100%);fill-opacity:1;" d="M 37.171875 14.414062 L 48.042969 14.414062 L 48.042969 19.460938 L 37.171875 19.460938 Z M 37.171875 14.414062 "/>
<path style=" stroke:none;fill-rule:nonzero;fill:rgb(100%,100%,100%);fill-opacity:1;" d="M 37.171875 55.0625 L 48.042969 55.0625 L 48.042969 60.109375 L 37.171875 60.109375 Z M 37.171875 55.0625 "/>
<path style=" stroke:none;fill-rule:nonzero;fill:rgb(100%,100%,100%);fill-opacity:1;" d="M 13.695312 55.0625 L 24.566406 55.0625 L 24.566406 60.109375 L 13.695312 60.109375 Z M 13.695312 55.0625 "/>
<path style=" stroke:none;fill-rule:nonzero;fill:rgb(100%,100%,100%);fill-opacity:1;" d="M 60.433594 55.0625 L 71.304688 55.0625 L 71.304688 60.109375 L 60.433594 60.109375 Z M 60.433594 55.0625 "/>
<path style=" stroke:none;fill-rule:nonzero;fill:rgb(100%,100%,100%);fill-opacity:1;" d="M 26.085938 33.40625 L 36.957031 33.40625 L 36.957031 38.449219 L 26.085938 38.449219 Z M 26.085938 33.40625 "/>
<path style=" stroke:none;fill-rule:nonzero;fill:rgb(100%,100%,100%);fill-opacity:1;" d="M 48.480469 33.40625 L 59.351562 33.40625 L 59.351562 38.449219 L 48.480469 38.449219 Z M 48.480469 33.40625 "/>
<path style=" stroke:none;fill-rule:nonzero;fill:rgb(100%,100%,100%);fill-opacity:1;" d="M 54.347656 35.183594 L 53.695312 35.183594 L 53.695312 27.945312 L 31.957031 27.945312 L 31.957031 35.035156 L 31.304688 35.035156 L 31.304688 27.289062 L 54.347656 27.289062 Z M 54.347656 35.183594 "/>
<path style=" stroke:none;fill-rule:nonzero;fill:rgb(100%,100%,100%);fill-opacity:1;" d="M 42.773438 55.542969 L 42.117188 55.542969 L 42.117188 48.304688 L 19.160156 48.304688 L 19.160156 55.398438 L 18.503906 55.398438 L 18.503906 47.652344 L 42.773438 47.652344 Z M 42.773438 55.542969 "/>
<path style=" stroke:none;fill-rule:nonzero;fill:rgb(100%,100%,100%);fill-opacity:1;" d="M 42.28125 17.828125 L 42.9375 17.828125 L 42.9375 27.617188 L 42.28125 27.617188 Z M 42.28125 17.828125 "/>
<path style=" stroke:none;fill-rule:nonzero;fill:rgb(100%,100%,100%);fill-opacity:1;" d="M 31.359375 38.1875 L 32.011719 38.1875 L 32.011719 47.976562 L 31.359375 47.976562 Z M 31.359375 38.1875 "/>
<path style=" stroke:none;fill-rule:nonzero;fill:rgb(100%,100%,100%);fill-opacity:1;" d="M 66.25 56.582031 L 65.597656 56.582031 L 65.597656 48.121094 L 53.613281 48.121094 L 53.613281 38.226562 L 54.265625 38.226562 L 54.265625 47.46875 L 66.25 47.46875 Z M 66.25 56.582031 "/>
</g>
</svg>
