<?xml version="1.0" encoding="UTF-8"?>
<svg xmlns="http://www.w3.org/2000/svg" xmlns:xlink="http://www.w3.org/1999/xlink" width="85pt" height="85pt" viewBox="0 0 85 85" version="1.1">
<g id="surface1">
<path style=" stroke:none;fill-rule:nonzero;fill:rgb(85.098039%,28.235294%,26.27451%);fill-opacity:1;" d="M 84.347656 42.5 C 84.347656 65.609375 65.609375 84.34375 42.5 84.34375 C 19.390625 84.34375 0.652344 65.609375 0.652344 42.5 C 0.652344 19.386719 19.390625 0.652344 42.5 0.652344 C 65.609375 0.652344 84.347656 19.386719 84.347656 42.5 Z M 84.347656 42.5 "/>
<path style=" stroke:none;fill-rule:nonzero;fill:rgb(100%,100%,100%);fill-opacity:1;" d="M 20.414062 22.546875 L 33.136719 22.546875 L 33.136719 34.675781 L 20.414062 34.675781 Z M 20.414062 22.546875 "/>
<path style=" stroke:none;fill-rule:nonzero;fill:rgb(100%,100%,100%);fill-opacity:1;" d="M 52.6875 22.546875 L 64.582031 22.546875 L 64.582031 37.101562 L 52.6875 37.101562 Z M 52.6875 22.546875 "/>
<path style=" stroke:none;fill-rule:nonzero;fill:rgb(100%,100%,100%);fill-opacity:1;" d="M 52.6875 38.4375 L 64.582031 38.4375 L 64.582031 41.226562 L 52.6875 41.226562 Z M 52.6875 38.4375 "/>
<path style=" stroke:none;fill-rule:nonzero;fill:rgb(100%,100%,100%);fill-opacity:1;" d="M 52.6875 52.144531 L 60.34375 52.144531 L 60.34375 62.453125 L 52.6875 62.453125 Z M 52.6875 52.144531 "/>
<path style=" stroke:none;fill-rule:nonzero;fill:rgb(100%,100%,100%);fill-opacity:1;" d="M 52.6875 42.4375 L 55.632812 42.4375 L 55.632812 50.808594 L 52.6875 50.808594 Z M 52.6875 42.4375 "/>
<path style=" stroke:none;fill-rule:nonzero;fill:rgb(100%,100%,100%);fill-opacity:1;" d="M 56.929688 42.4375 L 60.109375 42.4375 L 60.109375 50.808594 L 56.929688 50.808594 Z M 56.929688 42.4375 "/>
<path style=" stroke:none;fill-rule:nonzero;fill:rgb(100%,100%,100%);fill-opacity:1;" d="M 61.640625 42.4375 L 64.347656 42.4375 L 64.347656 50.808594 L 61.640625 50.808594 Z M 61.640625 42.4375 "/>
<path style=" stroke:none;fill-rule:nonzero;fill:rgb(100%,100%,100%);fill-opacity:1;" d="M 61.640625 58.027344 L 64.347656 58.027344 L 64.347656 62.332031 L 61.640625 62.332031 Z M 61.640625 58.027344 "/>
<path style=" stroke:none;fill-rule:nonzero;fill:rgb(100%,100%,100%);fill-opacity:1;" d="M 61.640625 52.324219 L 64.347656 52.324219 L 64.347656 56.628906 L 61.640625 56.628906 Z M 61.640625 52.324219 "/>
<path style=" stroke:none;fill-rule:nonzero;fill:rgb(100%,100%,100%);fill-opacity:1;" d="M 34.550781 22.546875 L 51.273438 22.546875 L 51.273438 41.226562 L 34.550781 41.226562 Z M 34.550781 22.546875 "/>
<path style=" stroke:none;fill-rule:nonzero;fill:rgb(100%,100%,100%);fill-opacity:1;" d="M 34.550781 42.4375 L 43.972656 42.4375 L 43.972656 53.960938 L 34.550781 53.960938 Z M 34.550781 42.4375 "/>
<path style=" stroke:none;fill-rule:nonzero;fill:rgb(100%,100%,100%);fill-opacity:1;" d="M 45.152344 42.4375 L 51.273438 42.4375 L 51.273438 53.960938 L 45.152344 53.960938 Z M 45.152344 42.4375 "/>
<path style=" stroke:none;fill-rule:nonzero;fill:rgb(100%,100%,100%);fill-opacity:1;" d="M 45.152344 59.539062 L 51.273438 59.539062 L 51.273438 62.332031 L 45.152344 62.332031 Z M 45.152344 59.539062 "/>
<path style=" stroke:none;fill-rule:nonzero;fill:rgb(100%,100%,100%);fill-opacity:1;" d="M 45.152344 55.417969 L 51.273438 55.417969 L 51.273438 58.449219 L 45.152344 58.449219 Z M 45.152344 55.417969 "/>
<path style=" stroke:none;fill-rule:nonzero;fill:rgb(100%,100%,100%);fill-opacity:1;" d="M 34.550781 55.234375 L 39.027344 55.234375 L 39.027344 62.273438 L 34.550781 62.273438 Z M 34.550781 55.234375 "/>
<path style=" stroke:none;fill-rule:nonzero;fill:rgb(100%,100%,100%);fill-opacity:1;" d="M 40.320312 55.234375 L 43.972656 55.234375 L 43.972656 62.273438 L 40.320312 62.273438 Z M 40.320312 55.234375 "/>
<path style=" stroke:none;fill-rule:nonzero;fill:rgb(100%,100%,100%);fill-opacity:1;" d="M 20.414062 50.199219 L 26.070312 50.199219 L 26.070312 62.332031 L 20.414062 62.332031 Z M 20.414062 50.199219 "/>
<path style=" stroke:none;fill-rule:nonzero;fill:rgb(100%,100%,100%);fill-opacity:1;" d="M 20.414062 36.160156 L 33.136719 36.160156 L 33.136719 41.742188 L 20.414062 41.742188 Z M 20.414062 36.160156 "/>
<path style=" stroke:none;fill-rule:nonzero;fill:rgb(100%,100%,100%);fill-opacity:1;" d="M 20.414062 43.167969 L 26.070312 43.167969 L 26.070312 48.746094 L 20.414062 48.746094 Z M 20.414062 43.167969 "/>
<path style=" stroke:none;fill-rule:nonzero;fill:rgb(100%,100%,100%);fill-opacity:1;" d="M 27.71875 43.226562 L 33.371094 43.226562 L 33.371094 48.804688 L 27.71875 48.804688 Z M 27.71875 43.226562 "/>
<path style=" stroke:none;fill-rule:nonzero;fill:rgb(100%,100%,100%);fill-opacity:1;" d="M 27.71875 59.054688 L 33.371094 59.054688 L 33.371094 62.332031 L 27.71875 62.332031 Z M 27.71875 59.054688 "/>
<path style=" stroke:none;fill-rule:nonzero;fill:rgb(100%,100%,100%);fill-opacity:1;" d="M 27.71875 50.292969 L 33.371094 50.292969 L 33.371094 57.570312 L 27.71875 57.570312 Z M 27.71875 50.292969 "/>
</g>
</svg>
