<?xml version="1.0" encoding="UTF-8"?>
<svg xmlns="http://www.w3.org/2000/svg" xmlns:xlink="http://www.w3.org/1999/xlink" width="85pt" height="85pt" viewBox="0 0 85 85" version="1.1">
<g id="surface1">
<path style=" stroke:none;fill-rule:nonzero;fill:rgb(85.098039%,28.235294%,26.27451%);fill-opacity:1;" d="M 84.347656 42.5 C 84.347656 65.609375 65.609375 84.34375 42.5 84.34375 C 19.390625 84.34375 0.652344 65.609375 0.652344 42.5 C 0.652344 19.386719 19.390625 0.652344 42.5 0.652344 C 65.609375 0.652344 84.347656 19.386719 84.347656 42.5 Z M 84.347656 42.5 "/>
<path style=" stroke:none;fill-rule:nonzero;fill:rgb(100%,100%,100%);fill-opacity:1;" d="M 68.917969 56.445312 L 55.984375 24.210938 C 55.886719 23.964844 55.644531 23.800781 55.378906 23.800781 C 55.113281 23.800781 54.871094 23.960938 54.773438 24.207031 L 45.996094 45.710938 L 40.273438 31.765625 C 40.167969 31.511719 39.925781 31.347656 39.644531 31.363281 C 39.371094 31.371094 39.128906 31.550781 39.046875 31.8125 L 32.488281 52.089844 L 26.175781 40.097656 C 26.0625 39.882812 25.84375 39.75 25.601562 39.746094 C 25.355469 39.753906 25.136719 39.878906 25.023438 40.089844 L 16.113281 56.503906 C 16.003906 56.707031 16.007812 56.953125 16.128906 57.148438 C 16.246094 57.347656 16.457031 57.46875 16.6875 57.46875 L 64.152344 57.410156 L 68.324219 57.34375 C 68.539062 57.339844 68.738281 57.230469 68.855469 57.050781 C 68.976562 56.871094 69 56.644531 68.917969 56.445312 Z M 68.917969 56.445312 "/>
</g>
</svg>
