<?xml version="1.0" encoding="UTF-8"?>
<svg xmlns="http://www.w3.org/2000/svg" xmlns:xlink="http://www.w3.org/1999/xlink" width="85pt" height="85pt" viewBox="0 0 85 85" version="1.1">
<g id="surface1">
<path style=" stroke:none;fill-rule:nonzero;fill:#f1274c;fill-opacity:1;" d="M 84.402344 42.445312 C 84.402344 65.558594 65.664062 84.292969 42.554688 84.292969 C 19.445312 84.292969 0.707031 65.558594 0.707031 42.445312 C 0.707031 19.335938 19.445312 0.597656 42.554688 0.597656 C 65.664062 0.597656 84.402344 19.335938 84.402344 42.445312 Z M 84.402344 42.445312 "/>
<path style=" stroke:none;fill-rule:nonzero;fill:rgb(100%,100%,100%);fill-opacity:1;" d="M 18.792969 39.476562 L 28.410156 39.476562 L 28.410156 61.019531 L 18.792969 61.019531 Z M 18.792969 39.476562 "/>
<path style=" stroke:none;fill-rule:nonzero;fill:rgb(100%,100%,100%);fill-opacity:1;" d="M 56.703125 43.832031 L 66.316406 43.832031 L 66.316406 61.019531 L 56.703125 61.019531 Z M 56.703125 43.832031 "/>
<path style=" stroke:none;fill-rule:nonzero;fill:rgb(100%,100%,100%);fill-opacity:1;" d="M 44.066406 32.164062 L 53.683594 32.164062 L 53.683594 61.019531 L 44.066406 61.019531 Z M 44.066406 32.164062 "/>
<path style=" stroke:none;fill-rule:nonzero;fill:rgb(100%,100%,100%);fill-opacity:1;" d="M 31.429688 19.46875 L 41.042969 19.46875 L 41.042969 61.019531 L 31.429688 61.019531 Z M 31.429688 19.46875 "/>
</g>
</svg>
