<?xml version="1.0" encoding="UTF-8"?>
<svg xmlns="http://www.w3.org/2000/svg" xmlns:xlink="http://www.w3.org/1999/xlink" width="85pt" height="85pt" viewBox="0 0 85 85" version="1.1">
<defs>
<filter id="alpha" filterUnits="objectBoundingBox" x="0%" y="0%" width="100%" height="100%">
  <feColorMatrix type="matrix" in="SourceGraphic" values="0 0 0 0 1 0 0 0 0 1 0 0 0 0 1 0 0 0 1 0"/>
</filter>
<mask id="mask0">
  <g filter="url(#alpha)">
<rect x="0" y="0" width="85" height="85" style="fill:rgb(0%,0%,0%);fill-opacity:0.701961;stroke:none;"/>
  </g>
</mask>
<clipPath id="clip1">
  <rect x="0" y="0" width="85" height="85"/>
</clipPath>
<g id="surface5" clip-path="url(#clip1)">
<path style=" stroke:none;fill-rule:nonzero;fill:rgb(100%,100%,100%);fill-opacity:1;" d="M 18.074219 25.378906 L 26.683594 25.378906 L 26.683594 33.988281 L 18.074219 33.988281 Z M 18.074219 25.378906 "/>
</g>
<mask id="mask1">
  <g filter="url(#alpha)">
<rect x="0" y="0" width="85" height="85" style="fill:rgb(0%,0%,0%);fill-opacity:0.701961;stroke:none;"/>
  </g>
</mask>
<clipPath id="clip2">
  <rect x="0" y="0" width="85" height="85"/>
</clipPath>
<g id="surface8" clip-path="url(#clip2)">
<path style=" stroke:none;fill-rule:nonzero;fill:rgb(100%,100%,100%);fill-opacity:1;" d="M 28.128906 25.378906 L 36.738281 25.378906 L 36.738281 33.988281 L 28.128906 33.988281 Z M 28.128906 25.378906 "/>
</g>
<mask id="mask2">
  <g filter="url(#alpha)">
<rect x="0" y="0" width="85" height="85" style="fill:rgb(0%,0%,0%);fill-opacity:0.701961;stroke:none;"/>
  </g>
</mask>
<clipPath id="clip3">
  <rect x="0" y="0" width="85" height="85"/>
</clipPath>
<g id="surface11" clip-path="url(#clip3)">
<path style=" stroke:none;fill-rule:nonzero;fill:rgb(100%,100%,100%);fill-opacity:1;" d="M 38.179688 25.378906 L 46.789062 25.378906 L 46.789062 33.988281 L 38.179688 33.988281 Z M 38.179688 25.378906 "/>
</g>
<mask id="mask3">
  <g filter="url(#alpha)">
<rect x="0" y="0" width="85" height="85" style="fill:rgb(0%,0%,0%);fill-opacity:0.701961;stroke:none;"/>
  </g>
</mask>
<clipPath id="clip4">
  <rect x="0" y="0" width="85" height="85"/>
</clipPath>
<g id="surface14" clip-path="url(#clip4)">
<path style=" stroke:none;fill-rule:nonzero;fill:rgb(100%,100%,100%);fill-opacity:1;" d="M 48.234375 25.378906 L 56.84375 25.378906 L 56.84375 33.988281 L 48.234375 33.988281 Z M 48.234375 25.378906 "/>
</g>
<mask id="mask4">
  <g filter="url(#alpha)">
<rect x="0" y="0" width="85" height="85" style="fill:rgb(0%,0%,0%);fill-opacity:0.701961;stroke:none;"/>
  </g>
</mask>
<clipPath id="clip5">
  <rect x="0" y="0" width="85" height="85"/>
</clipPath>
<g id="surface17" clip-path="url(#clip5)">
<path style=" stroke:none;fill-rule:nonzero;fill:rgb(100%,100%,100%);fill-opacity:1;" d="M 58.285156 25.378906 L 66.894531 25.378906 L 66.894531 33.988281 L 58.285156 33.988281 Z M 58.285156 25.378906 "/>
</g>
<mask id="mask5">
  <g filter="url(#alpha)">
<rect x="0" y="0" width="85" height="85" style="fill:rgb(0%,0%,0%);fill-opacity:0.701961;stroke:none;"/>
  </g>
</mask>
<clipPath id="clip6">
  <rect x="0" y="0" width="85" height="85"/>
</clipPath>
<g id="surface20" clip-path="url(#clip6)">
<path style=" stroke:none;fill-rule:nonzero;fill:rgb(100%,100%,100%);fill-opacity:1;" d="M 18.074219 35.453125 L 26.683594 35.453125 L 26.683594 44.066406 L 18.074219 44.066406 Z M 18.074219 35.453125 "/>
</g>
<mask id="mask6">
  <g filter="url(#alpha)">
<rect x="0" y="0" width="85" height="85" style="fill:rgb(0%,0%,0%);fill-opacity:0.701961;stroke:none;"/>
  </g>
</mask>
<clipPath id="clip7">
  <rect x="0" y="0" width="85" height="85"/>
</clipPath>
<g id="surface23" clip-path="url(#clip7)">
<path style=" stroke:none;fill-rule:nonzero;fill:rgb(100%,100%,100%);fill-opacity:1;" d="M 28.128906 35.453125 L 36.738281 35.453125 L 36.738281 44.066406 L 28.128906 44.066406 Z M 28.128906 35.453125 "/>
</g>
<mask id="mask7">
  <g filter="url(#alpha)">
<rect x="0" y="0" width="85" height="85" style="fill:rgb(0%,0%,0%);fill-opacity:0.701961;stroke:none;"/>
  </g>
</mask>
<clipPath id="clip8">
  <rect x="0" y="0" width="85" height="85"/>
</clipPath>
<g id="surface26" clip-path="url(#clip8)">
<path style=" stroke:none;fill-rule:nonzero;fill:rgb(100%,100%,100%);fill-opacity:1;" d="M 38.179688 35.453125 L 46.789062 35.453125 L 46.789062 44.066406 L 38.179688 44.066406 Z M 38.179688 35.453125 "/>
</g>
<mask id="mask8">
  <g filter="url(#alpha)">
<rect x="0" y="0" width="85" height="85" style="fill:rgb(0%,0%,0%);fill-opacity:0.701961;stroke:none;"/>
  </g>
</mask>
<clipPath id="clip9">
  <rect x="0" y="0" width="85" height="85"/>
</clipPath>
<g id="surface29" clip-path="url(#clip9)">
<path style=" stroke:none;fill-rule:nonzero;fill:rgb(100%,100%,100%);fill-opacity:1;" d="M 48.234375 35.453125 L 56.84375 35.453125 L 56.84375 44.066406 L 48.234375 44.066406 Z M 48.234375 35.453125 "/>
</g>
<mask id="mask9">
  <g filter="url(#alpha)">
<rect x="0" y="0" width="85" height="85" style="fill:rgb(0%,0%,0%);fill-opacity:0.701961;stroke:none;"/>
  </g>
</mask>
<clipPath id="clip10">
  <rect x="0" y="0" width="85" height="85"/>
</clipPath>
<g id="surface32" clip-path="url(#clip10)">
<path style=" stroke:none;fill-rule:nonzero;fill:rgb(100%,100%,100%);fill-opacity:1;" d="M 58.285156 35.453125 L 66.894531 35.453125 L 66.894531 44.066406 L 58.285156 44.066406 Z M 58.285156 35.453125 "/>
</g>
<mask id="mask10">
  <g filter="url(#alpha)">
<rect x="0" y="0" width="85" height="85" style="fill:rgb(0%,0%,0%);fill-opacity:0.701961;stroke:none;"/>
  </g>
</mask>
<clipPath id="clip11">
  <rect x="0" y="0" width="85" height="85"/>
</clipPath>
<g id="surface35" clip-path="url(#clip11)">
<path style=" stroke:none;fill-rule:nonzero;fill:rgb(100%,100%,100%);fill-opacity:1;" d="M 18.074219 45.621094 L 26.683594 45.621094 L 26.683594 54.230469 L 18.074219 54.230469 Z M 18.074219 45.621094 "/>
</g>
<mask id="mask11">
  <g filter="url(#alpha)">
<rect x="0" y="0" width="85" height="85" style="fill:rgb(0%,0%,0%);fill-opacity:0.701961;stroke:none;"/>
  </g>
</mask>
<clipPath id="clip12">
  <rect x="0" y="0" width="85" height="85"/>
</clipPath>
<g id="surface38" clip-path="url(#clip12)">
<path style=" stroke:none;fill-rule:nonzero;fill:rgb(100%,100%,100%);fill-opacity:1;" d="M 28.128906 45.621094 L 36.738281 45.621094 L 36.738281 54.230469 L 28.128906 54.230469 Z M 28.128906 45.621094 "/>
</g>
<mask id="mask12">
  <g filter="url(#alpha)">
<rect x="0" y="0" width="85" height="85" style="fill:rgb(0%,0%,0%);fill-opacity:0.701961;stroke:none;"/>
  </g>
</mask>
<clipPath id="clip13">
  <rect x="0" y="0" width="85" height="85"/>
</clipPath>
<g id="surface41" clip-path="url(#clip13)">
<path style=" stroke:none;fill-rule:nonzero;fill:rgb(100%,100%,100%);fill-opacity:1;" d="M 38.179688 45.621094 L 46.789062 45.621094 L 46.789062 54.230469 L 38.179688 54.230469 Z M 38.179688 45.621094 "/>
</g>
<mask id="mask13">
  <g filter="url(#alpha)">
<rect x="0" y="0" width="85" height="85" style="fill:rgb(0%,0%,0%);fill-opacity:0.701961;stroke:none;"/>
  </g>
</mask>
<clipPath id="clip14">
  <rect x="0" y="0" width="85" height="85"/>
</clipPath>
<g id="surface44" clip-path="url(#clip14)">
<path style=" stroke:none;fill-rule:nonzero;fill:rgb(100%,100%,100%);fill-opacity:1;" d="M 48.234375 45.621094 L 56.84375 45.621094 L 56.84375 54.230469 L 48.234375 54.230469 Z M 48.234375 45.621094 "/>
</g>
<mask id="mask14">
  <g filter="url(#alpha)">
<rect x="0" y="0" width="85" height="85" style="fill:rgb(0%,0%,0%);fill-opacity:0.701961;stroke:none;"/>
  </g>
</mask>
<clipPath id="clip15">
  <rect x="0" y="0" width="85" height="85"/>
</clipPath>
<g id="surface47" clip-path="url(#clip15)">
<path style=" stroke:none;fill-rule:nonzero;fill:rgb(100%,100%,100%);fill-opacity:1;" d="M 58.285156 45.621094 L 66.894531 45.621094 L 66.894531 54.230469 L 58.285156 54.230469 Z M 58.285156 45.621094 "/>
</g>
<mask id="mask15">
  <g filter="url(#alpha)">
<rect x="0" y="0" width="85" height="85" style="fill:rgb(0%,0%,0%);fill-opacity:0.701961;stroke:none;"/>
  </g>
</mask>
<clipPath id="clip16">
  <rect x="0" y="0" width="85" height="85"/>
</clipPath>
<g id="surface50" clip-path="url(#clip16)">
<path style=" stroke:none;fill-rule:nonzero;fill:rgb(100%,100%,100%);fill-opacity:1;" d="M 18.074219 55.699219 L 26.683594 55.699219 L 26.683594 64.308594 L 18.074219 64.308594 Z M 18.074219 55.699219 "/>
</g>
<mask id="mask16">
  <g filter="url(#alpha)">
<rect x="0" y="0" width="85" height="85" style="fill:rgb(0%,0%,0%);fill-opacity:0.701961;stroke:none;"/>
  </g>
</mask>
<clipPath id="clip17">
  <rect x="0" y="0" width="85" height="85"/>
</clipPath>
<g id="surface53" clip-path="url(#clip17)">
<path style=" stroke:none;fill-rule:nonzero;fill:rgb(100%,100%,100%);fill-opacity:1;" d="M 28.128906 55.699219 L 36.738281 55.699219 L 36.738281 64.308594 L 28.128906 64.308594 Z M 28.128906 55.699219 "/>
</g>
<mask id="mask17">
  <g filter="url(#alpha)">
<rect x="0" y="0" width="85" height="85" style="fill:rgb(0%,0%,0%);fill-opacity:0.701961;stroke:none;"/>
  </g>
</mask>
<clipPath id="clip18">
  <rect x="0" y="0" width="85" height="85"/>
</clipPath>
<g id="surface56" clip-path="url(#clip18)">
<path style=" stroke:none;fill-rule:nonzero;fill:rgb(100%,100%,100%);fill-opacity:1;" d="M 38.179688 55.699219 L 46.789062 55.699219 L 46.789062 64.308594 L 38.179688 64.308594 Z M 38.179688 55.699219 "/>
</g>
<mask id="mask18">
  <g filter="url(#alpha)">
<rect x="0" y="0" width="85" height="85" style="fill:rgb(0%,0%,0%);fill-opacity:0.701961;stroke:none;"/>
  </g>
</mask>
<clipPath id="clip19">
  <rect x="0" y="0" width="85" height="85"/>
</clipPath>
<g id="surface59" clip-path="url(#clip19)">
<path style=" stroke:none;fill-rule:nonzero;fill:rgb(100%,100%,100%);fill-opacity:1;" d="M 48.234375 55.699219 L 56.84375 55.699219 L 56.84375 64.308594 L 48.234375 64.308594 Z M 48.234375 55.699219 "/>
</g>
<mask id="mask19">
  <g filter="url(#alpha)">
<rect x="0" y="0" width="85" height="85" style="fill:rgb(0%,0%,0%);fill-opacity:0.701961;stroke:none;"/>
  </g>
</mask>
<clipPath id="clip20">
  <rect x="0" y="0" width="85" height="85"/>
</clipPath>
<g id="surface62" clip-path="url(#clip20)">
<path style=" stroke:none;fill-rule:nonzero;fill:rgb(100%,100%,100%);fill-opacity:1;" d="M 58.285156 55.699219 L 66.894531 55.699219 L 66.894531 64.308594 L 58.285156 64.308594 Z M 58.285156 55.699219 "/>
</g>
</defs>
<g id="surface1">
<path style=" stroke:none;fill-rule:nonzero;fill:rgb(85.098039%,28.235294%,26.27451%);fill-opacity:1;" d="M 84.347656 42.5 C 84.347656 65.609375 65.609375 84.34375 42.5 84.34375 C 19.390625 84.34375 0.652344 65.609375 0.652344 42.5 C 0.652344 19.386719 19.390625 0.652344 42.5 0.652344 C 65.609375 0.652344 84.347656 19.386719 84.347656 42.5 Z M 84.347656 42.5 "/>
<path style=" stroke:none;fill-rule:nonzero;fill:rgb(100%,100%,100%);fill-opacity:1;" d="M 18.074219 20.691406 L 66.925781 20.691406 L 66.925781 24.113281 L 18.074219 24.113281 Z M 18.074219 20.691406 "/>
<use xlink:href="#surface5" mask="url(#mask0)"/>
<use xlink:href="#surface8" mask="url(#mask1)"/>
<use xlink:href="#surface11" mask="url(#mask2)"/>
<use xlink:href="#surface14" mask="url(#mask3)"/>
<use xlink:href="#surface17" mask="url(#mask4)"/>
<path style=" stroke:none;fill-rule:nonzero;fill:rgb(85.098039%,28.235294%,26.27451%);fill-opacity:1;" d="M 22.980469 27.695312 L 22.980469 30.882812 C 22.980469 31.121094 22.992188 31.273438 23.011719 31.339844 C 23.03125 31.40625 23.078125 31.460938 23.144531 31.5 C 23.210938 31.542969 23.320312 31.566406 23.464844 31.566406 L 23.554688 31.566406 L 23.554688 31.671875 L 21.503906 31.671875 L 21.503906 31.566406 L 21.605469 31.566406 C 21.773438 31.566406 21.890625 31.546875 21.960938 31.507812 C 22.035156 31.46875 22.082031 31.417969 22.105469 31.351562 C 22.132812 31.285156 22.144531 31.128906 22.144531 30.882812 L 22.144531 28.863281 C 22.144531 28.679688 22.136719 28.570312 22.117188 28.523438 C 22.101562 28.480469 22.066406 28.441406 22.023438 28.410156 C 21.972656 28.375 21.921875 28.359375 21.859375 28.359375 C 21.761719 28.359375 21.640625 28.390625 21.503906 28.453125 L 21.449219 28.351562 L 22.882812 27.695312 Z M 22.980469 27.695312 "/>
<path style=" stroke:none;fill-rule:nonzero;fill:rgb(85.098039%,28.235294%,26.27451%);fill-opacity:1;" d="M 33.265625 31.671875 L 30.972656 31.671875 L 30.972656 31.609375 C 31.675781 30.769531 32.101562 30.207031 32.253906 29.917969 C 32.402344 29.628906 32.480469 29.347656 32.480469 29.070312 C 32.480469 28.871094 32.417969 28.703125 32.292969 28.570312 C 32.167969 28.4375 32.015625 28.371094 31.835938 28.371094 C 31.539062 28.371094 31.3125 28.515625 31.148438 28.8125 L 31.042969 28.773438 C 31.144531 28.40625 31.300781 28.132812 31.511719 27.957031 C 31.726562 27.78125 31.96875 27.695312 32.242188 27.695312 C 32.441406 27.695312 32.621094 27.738281 32.78125 27.832031 C 32.945312 27.925781 33.074219 28.050781 33.164062 28.210938 C 33.257812 28.371094 33.304688 28.519531 33.304688 28.660156 C 33.304688 28.914062 33.230469 29.171875 33.089844 29.4375 C 32.898438 29.789062 32.472656 30.285156 31.824219 30.917969 L 32.664062 30.917969 C 32.871094 30.917969 33.007812 30.910156 33.070312 30.894531 C 33.132812 30.875 33.183594 30.847656 33.222656 30.804688 C 33.265625 30.765625 33.316406 30.679688 33.382812 30.546875 L 33.484375 30.546875 Z M 33.265625 31.671875 "/>
<path style=" stroke:none;fill-rule:nonzero;fill:rgb(85.098039%,28.235294%,26.27451%);fill-opacity:1;" d="M 41.8125 29.636719 L 41.8125 29.535156 C 42.03125 29.472656 42.183594 29.410156 42.265625 29.359375 C 42.351562 29.304688 42.421875 29.21875 42.484375 29.105469 C 42.546875 28.996094 42.578125 28.882812 42.578125 28.765625 C 42.578125 28.609375 42.519531 28.472656 42.402344 28.355469 C 42.289062 28.242188 42.144531 28.1875 41.972656 28.1875 C 41.703125 28.1875 41.476562 28.328125 41.289062 28.609375 L 41.179688 28.574219 C 41.320312 28.253906 41.496094 28.011719 41.710938 27.851562 C 41.925781 27.691406 42.164062 27.609375 42.429688 27.609375 C 42.699219 27.609375 42.921875 27.691406 43.097656 27.859375 C 43.273438 28.023438 43.359375 28.214844 43.359375 28.4375 C 43.359375 28.578125 43.320312 28.71875 43.238281 28.851562 C 43.15625 28.984375 43.03125 29.101562 42.855469 29.203125 C 43.078125 29.3125 43.25 29.445312 43.367188 29.605469 C 43.484375 29.765625 43.542969 29.96875 43.542969 30.207031 C 43.542969 30.613281 43.398438 30.960938 43.101562 31.242188 C 42.808594 31.527344 42.414062 31.671875 41.921875 31.671875 C 41.59375 31.671875 41.351562 31.617188 41.199219 31.507812 C 41.089844 31.429688 41.035156 31.332031 41.035156 31.210938 C 41.035156 31.125 41.066406 31.046875 41.132812 30.984375 C 41.195312 30.921875 41.265625 30.890625 41.351562 30.890625 C 41.414062 30.890625 41.472656 30.90625 41.527344 30.933594 C 41.558594 30.945312 41.667969 31.03125 41.855469 31.183594 C 42.039062 31.335938 42.214844 31.414062 42.378906 31.414062 C 42.519531 31.414062 42.640625 31.355469 42.742188 31.242188 C 42.84375 31.132812 42.894531 30.988281 42.894531 30.816406 C 42.894531 30.554688 42.804688 30.3125 42.621094 30.09375 C 42.4375 29.871094 42.167969 29.71875 41.8125 29.636719 Z M 41.8125 29.636719 "/>
<path style=" stroke:none;fill-rule:nonzero;fill:rgb(85.098039%,28.235294%,26.27451%);fill-opacity:1;" d="M 50.949219 30.203125 L 52.796875 27.695312 L 53.148438 27.695312 L 53.148438 30.203125 L 53.507812 30.203125 L 53.507812 30.796875 L 53.148438 30.796875 L 53.148438 31.671875 L 52.359375 31.671875 L 52.359375 30.796875 L 50.949219 30.796875 Z M 51.226562 30.203125 L 52.359375 30.203125 L 52.359375 28.664062 Z M 51.226562 30.203125 "/>
<path style=" stroke:none;fill-rule:nonzero;fill:rgb(85.098039%,28.235294%,26.27451%);fill-opacity:1;" d="M 61.894531 27.847656 L 63.71875 27.847656 L 63.429688 28.585938 L 61.894531 28.585938 L 61.75 28.976562 C 62.410156 29 62.917969 29.164062 63.273438 29.46875 C 63.566406 29.722656 63.714844 30.03125 63.714844 30.40625 C 63.714844 30.644531 63.648438 30.878906 63.511719 31.109375 C 63.375 31.339844 63.183594 31.515625 62.9375 31.636719 C 62.6875 31.761719 62.417969 31.824219 62.121094 31.824219 C 61.804688 31.824219 61.5625 31.765625 61.390625 31.644531 C 61.269531 31.5625 61.210938 31.464844 61.210938 31.359375 C 61.210938 31.277344 61.242188 31.203125 61.304688 31.140625 C 61.367188 31.078125 61.441406 31.042969 61.523438 31.042969 C 61.597656 31.042969 61.671875 31.058594 61.75 31.089844 C 61.828125 31.121094 61.957031 31.203125 62.144531 31.332031 C 62.261719 31.410156 62.359375 31.46875 62.445312 31.5 C 62.503906 31.523438 62.570312 31.535156 62.648438 31.535156 C 62.804688 31.535156 62.9375 31.476562 63.046875 31.359375 C 63.160156 31.246094 63.214844 31.109375 63.214844 30.945312 C 63.214844 30.609375 63.042969 30.335938 62.707031 30.125 C 62.371094 29.914062 61.945312 29.808594 61.433594 29.808594 C 61.378906 29.808594 61.304688 29.808594 61.199219 29.8125 Z M 61.894531 27.847656 "/>
<use xlink:href="#surface20" mask="url(#mask5)"/>
<use xlink:href="#surface23" mask="url(#mask6)"/>
<use xlink:href="#surface26" mask="url(#mask7)"/>
<use xlink:href="#surface29" mask="url(#mask8)"/>
<use xlink:href="#surface32" mask="url(#mask9)"/>
<path style=" stroke:none;fill-rule:nonzero;fill:rgb(85.098039%,28.235294%,26.27451%);fill-opacity:1;" d="M 23.554688 37.867188 L 23.554688 37.949219 C 23.207031 38.039062 22.929688 38.152344 22.722656 38.289062 C 22.511719 38.429688 22.34375 38.597656 22.222656 38.796875 C 22.101562 38.992188 22.007812 39.238281 21.941406 39.53125 C 22.023438 39.476562 22.09375 39.4375 22.148438 39.421875 C 22.273438 39.382812 22.398438 39.363281 22.527344 39.363281 C 22.816406 39.363281 23.058594 39.46875 23.253906 39.679688 C 23.449219 39.890625 23.546875 40.179688 23.546875 40.546875 C 23.546875 40.804688 23.492188 41.039062 23.390625 41.253906 C 23.285156 41.46875 23.132812 41.632812 22.941406 41.75 C 22.746094 41.867188 22.539062 41.925781 22.320312 41.925781 C 22.082031 41.925781 21.859375 41.859375 21.65625 41.730469 C 21.453125 41.597656 21.292969 41.40625 21.179688 41.152344 C 21.066406 40.898438 21.007812 40.625 21.007812 40.328125 C 21.007812 39.890625 21.113281 39.484375 21.324219 39.109375 C 21.53125 38.730469 21.832031 38.433594 22.21875 38.207031 C 22.605469 37.988281 23.050781 37.871094 23.554688 37.867188 Z M 21.902344 39.765625 C 21.890625 40.03125 21.882812 40.222656 21.882812 40.347656 C 21.882812 40.609375 21.90625 40.867188 21.957031 41.113281 C 22.007812 41.359375 22.078125 41.535156 22.164062 41.632812 C 22.230469 41.703125 22.304688 41.738281 22.390625 41.738281 C 22.476562 41.738281 22.554688 41.6875 22.625 41.585938 C 22.695312 41.484375 22.726562 41.273438 22.726562 40.960938 C 22.726562 40.433594 22.664062 40.066406 22.535156 39.867188 C 22.453125 39.738281 22.34375 39.671875 22.203125 39.671875 C 22.125 39.671875 22.027344 39.703125 21.902344 39.765625 Z M 21.902344 39.765625 "/>
<path style=" stroke:none;fill-rule:nonzero;fill:rgb(85.098039%,28.235294%,26.27451%);fill-opacity:1;" d="M 31.726562 41.886719 L 32.789062 38.671875 L 31.980469 38.671875 C 31.664062 38.671875 31.425781 38.710938 31.265625 38.792969 C 31.15625 38.851562 31.0625 38.960938 30.992188 39.117188 L 30.882812 39.117188 L 31.164062 37.910156 L 33.484375 37.910156 L 32.175781 41.886719 Z M 31.726562 41.886719 "/>
<path style=" stroke:none;fill-rule:nonzero;fill:rgb(85.098039%,28.235294%,26.27451%);fill-opacity:1;" d="M 43.019531 39.636719 C 43.292969 39.839844 43.484375 40.027344 43.589844 40.199219 C 43.695312 40.371094 43.75 40.570312 43.75 40.796875 C 43.75 41.109375 43.628906 41.375 43.394531 41.59375 C 43.15625 41.8125 42.835938 41.917969 42.429688 41.917969 C 42.046875 41.917969 41.746094 41.824219 41.535156 41.632812 C 41.324219 41.445312 41.21875 41.214844 41.21875 40.941406 C 41.21875 40.730469 41.28125 40.546875 41.402344 40.390625 C 41.523438 40.234375 41.726562 40.089844 42.011719 39.960938 C 41.703125 39.722656 41.503906 39.53125 41.417969 39.382812 C 41.328125 39.230469 41.285156 39.058594 41.285156 38.863281 C 41.285156 38.601562 41.394531 38.371094 41.617188 38.171875 C 41.839844 37.976562 42.140625 37.875 42.527344 37.875 C 42.898438 37.875 43.183594 37.964844 43.382812 38.140625 C 43.585938 38.316406 43.683594 38.523438 43.683594 38.769531 C 43.683594 38.953125 43.628906 39.117188 43.523438 39.257812 C 43.414062 39.398438 43.246094 39.523438 43.019531 39.636719 Z M 42.226562 40.097656 C 42.167969 40.152344 42.125 40.199219 42.101562 40.246094 C 42.0625 40.3125 42.027344 40.410156 41.996094 40.539062 C 41.964844 40.664062 41.949219 40.800781 41.949219 40.941406 C 41.949219 41.121094 41.972656 41.269531 42.019531 41.390625 C 42.066406 41.515625 42.128906 41.601562 42.214844 41.65625 C 42.300781 41.707031 42.390625 41.734375 42.480469 41.734375 C 42.617188 41.734375 42.738281 41.683594 42.832031 41.582031 C 42.925781 41.480469 42.976562 41.339844 42.976562 41.160156 C 42.976562 40.789062 42.726562 40.433594 42.226562 40.097656 Z M 42.800781 39.492188 C 42.871094 39.394531 42.921875 39.289062 42.957031 39.171875 C 42.992188 39.050781 43.011719 38.921875 43.011719 38.777344 C 43.011719 38.53125 42.957031 38.339844 42.851562 38.207031 C 42.769531 38.105469 42.660156 38.054688 42.515625 38.054688 C 42.386719 38.054688 42.277344 38.101562 42.1875 38.195312 C 42.097656 38.289062 42.054688 38.402344 42.054688 38.539062 C 42.054688 38.679688 42.105469 38.824219 42.203125 38.976562 C 42.304688 39.125 42.503906 39.296875 42.800781 39.492188 Z M 42.800781 39.492188 "/>
<path style=" stroke:none;fill-rule:nonzero;fill:rgb(85.098039%,28.235294%,26.27451%);fill-opacity:1;" d="M 51.390625 41.789062 L 51.390625 41.707031 C 51.707031 41.636719 51.976562 41.527344 52.199219 41.386719 C 52.421875 41.246094 52.59375 41.070312 52.726562 40.859375 C 52.855469 40.652344 52.945312 40.410156 52.996094 40.140625 C 52.878906 40.199219 52.777344 40.242188 52.695312 40.265625 C 52.609375 40.289062 52.523438 40.304688 52.429688 40.304688 C 52.136719 40.304688 51.890625 40.195312 51.695312 39.984375 C 51.496094 39.773438 51.398438 39.480469 51.398438 39.109375 C 51.398438 38.851562 51.453125 38.617188 51.558594 38.40625 C 51.664062 38.191406 51.816406 38.027344 52.015625 37.90625 C 52.210938 37.789062 52.417969 37.730469 52.628906 37.730469 C 52.855469 37.730469 53.074219 37.796875 53.273438 37.925781 C 53.476562 38.054688 53.640625 38.246094 53.761719 38.492188 C 53.882812 38.738281 53.941406 39.019531 53.941406 39.335938 C 53.941406 39.746094 53.84375 40.140625 53.648438 40.515625 C 53.449219 40.890625 53.15625 41.191406 52.769531 41.417969 C 52.378906 41.644531 51.921875 41.769531 51.390625 41.789062 Z M 53.039062 39.898438 C 53.058594 39.683594 53.070312 39.496094 53.070312 39.332031 C 53.070312 38.984375 53.027344 38.660156 52.945312 38.359375 C 52.902344 38.191406 52.832031 38.070312 52.742188 37.992188 C 52.695312 37.949219 52.632812 37.925781 52.554688 37.925781 C 52.460938 37.925781 52.386719 37.96875 52.332031 38.050781 C 52.257812 38.164062 52.21875 38.378906 52.21875 38.695312 C 52.21875 39.226562 52.285156 39.59375 52.410156 39.796875 C 52.492188 39.925781 52.601562 39.992188 52.742188 39.992188 C 52.816406 39.988281 52.917969 39.960938 53.039062 39.898438 Z M 53.039062 39.898438 "/>
<path style=" stroke:none;fill-rule:nonzero;fill:rgb(85.098039%,28.235294%,26.27451%);fill-opacity:1;" d="M 61.527344 37.921875 L 61.527344 41.105469 C 61.527344 41.347656 61.539062 41.5 61.558594 41.566406 C 61.582031 41.632812 61.625 41.6875 61.691406 41.726562 C 61.757812 41.769531 61.867188 41.792969 62.015625 41.792969 L 62.101562 41.792969 L 62.101562 41.898438 L 60.050781 41.898438 L 60.050781 41.792969 L 60.15625 41.792969 C 60.320312 41.792969 60.441406 41.773438 60.511719 41.734375 C 60.582031 41.695312 60.628906 41.644531 60.65625 41.574219 C 60.679688 41.507812 60.691406 41.351562 60.691406 41.105469 L 60.691406 39.085938 C 60.691406 38.90625 60.683594 38.796875 60.667969 38.75 C 60.648438 38.703125 60.617188 38.667969 60.570312 38.632812 C 60.523438 38.601562 60.46875 38.585938 60.410156 38.585938 C 60.3125 38.585938 60.191406 38.617188 60.050781 38.679688 L 60 38.578125 L 61.433594 37.921875 Z M 61.527344 37.921875 "/>
<path style=" stroke:none;fill-rule:nonzero;fill:rgb(85.098039%,28.235294%,26.27451%);fill-opacity:1;" d="M 65.28125 39.949219 C 65.28125 40.339844 65.226562 40.703125 65.117188 41.039062 C 65.050781 41.246094 64.964844 41.414062 64.855469 41.546875 C 64.742188 41.679688 64.621094 41.785156 64.480469 41.863281 C 64.339844 41.9375 64.1875 41.976562 64.023438 41.976562 C 63.835938 41.976562 63.664062 41.929688 63.515625 41.835938 C 63.363281 41.738281 63.230469 41.601562 63.113281 41.421875 C 63.027344 41.292969 62.953125 41.121094 62.890625 40.902344 C 62.808594 40.609375 62.769531 40.308594 62.769531 39.996094 C 62.769531 39.570312 62.828125 39.183594 62.945312 38.828125 C 63.042969 38.535156 63.191406 38.3125 63.390625 38.15625 C 63.589844 38 63.800781 37.921875 64.023438 37.921875 C 64.25 37.921875 64.460938 38 64.65625 38.152344 C 64.855469 38.308594 65 38.515625 65.089844 38.773438 C 65.214844 39.132812 65.28125 39.523438 65.28125 39.949219 Z M 64.394531 39.945312 C 64.394531 39.261719 64.390625 38.867188 64.382812 38.75 C 64.367188 38.484375 64.320312 38.304688 64.246094 38.210938 C 64.199219 38.152344 64.121094 38.121094 64.011719 38.121094 C 63.929688 38.121094 63.867188 38.140625 63.816406 38.1875 C 63.746094 38.257812 63.699219 38.375 63.675781 38.542969 C 63.648438 38.714844 63.636719 39.304688 63.636719 40.316406 C 63.636719 40.871094 63.65625 41.238281 63.695312 41.425781 C 63.722656 41.5625 63.765625 41.652344 63.816406 41.699219 C 63.871094 41.746094 63.941406 41.769531 64.03125 41.769531 C 64.125 41.769531 64.195312 41.738281 64.246094 41.675781 C 64.324219 41.570312 64.371094 41.402344 64.382812 41.179688 Z M 64.394531 39.945312 "/>
<use xlink:href="#surface35" mask="url(#mask10)"/>
<use xlink:href="#surface38" mask="url(#mask11)"/>
<use xlink:href="#surface41" mask="url(#mask12)"/>
<use xlink:href="#surface44" mask="url(#mask13)"/>
<use xlink:href="#surface47" mask="url(#mask14)"/>
<path style=" stroke:none;fill-rule:nonzero;fill:rgb(85.098039%,28.235294%,26.27451%);fill-opacity:1;" d="M 21.5625 47.984375 L 21.5625 51.167969 C 21.5625 51.410156 21.574219 51.5625 21.59375 51.628906 C 21.613281 51.695312 21.660156 51.746094 21.726562 51.789062 C 21.792969 51.832031 21.902344 51.851562 22.046875 51.851562 L 22.136719 51.851562 L 22.136719 51.960938 L 20.085938 51.960938 L 20.085938 51.851562 L 20.1875 51.851562 C 20.355469 51.851562 20.472656 51.835938 20.542969 51.796875 C 20.613281 51.757812 20.664062 51.703125 20.6875 51.636719 C 20.714844 51.570312 20.726562 51.414062 20.726562 51.167969 L 20.726562 49.148438 C 20.726562 48.96875 20.71875 48.855469 20.699219 48.8125 C 20.683594 48.765625 20.648438 48.726562 20.601562 48.695312 C 20.554688 48.664062 20.503906 48.648438 20.441406 48.648438 C 20.34375 48.648438 20.222656 48.679688 20.085938 48.742188 L 20.03125 48.636719 L 21.464844 47.984375 Z M 21.5625 47.984375 "/>
<path style=" stroke:none;fill-rule:nonzero;fill:rgb(85.098039%,28.235294%,26.27451%);fill-opacity:1;" d="M 24.179688 47.984375 L 24.179688 51.167969 C 24.179688 51.410156 24.191406 51.5625 24.210938 51.628906 C 24.230469 51.695312 24.277344 51.746094 24.34375 51.789062 C 24.410156 51.832031 24.519531 51.851562 24.664062 51.851562 L 24.753906 51.851562 L 24.753906 51.960938 L 22.703125 51.960938 L 22.703125 51.851562 L 22.804688 51.851562 C 22.972656 51.851562 23.089844 51.835938 23.160156 51.796875 C 23.234375 51.757812 23.28125 51.703125 23.304688 51.636719 C 23.332031 51.570312 23.34375 51.414062 23.34375 51.167969 L 23.34375 49.148438 C 23.34375 48.96875 23.335938 48.855469 23.316406 48.8125 C 23.300781 48.765625 23.265625 48.726562 23.21875 48.695312 C 23.171875 48.664062 23.121094 48.648438 23.058594 48.648438 C 22.960938 48.648438 22.839844 48.679688 22.703125 48.742188 L 22.648438 48.636719 L 24.082031 47.984375 Z M 24.179688 47.984375 "/>
<path style=" stroke:none;fill-rule:nonzero;fill:rgb(85.098039%,28.235294%,26.27451%);fill-opacity:1;" d="M 31.355469 48.136719 L 31.355469 51.320312 C 31.355469 51.5625 31.367188 51.714844 31.386719 51.78125 C 31.40625 51.847656 31.453125 51.902344 31.519531 51.941406 C 31.585938 51.984375 31.695312 52.007812 31.839844 52.007812 L 31.929688 52.007812 L 31.929688 52.113281 L 29.878906 52.113281 L 29.878906 52.007812 L 29.980469 52.007812 C 30.148438 52.007812 30.265625 51.988281 30.335938 51.949219 C 30.410156 51.910156 30.457031 51.855469 30.480469 51.789062 C 30.507812 51.722656 30.519531 51.566406 30.519531 51.320312 L 30.519531 49.300781 C 30.519531 49.121094 30.511719 49.007812 30.492188 48.964844 C 30.476562 48.917969 30.441406 48.882812 30.398438 48.847656 C 30.347656 48.816406 30.296875 48.800781 30.234375 48.800781 C 30.136719 48.800781 30.015625 48.832031 29.878906 48.894531 L 29.824219 48.789062 L 31.257812 48.136719 Z M 31.355469 48.136719 "/>
<path style=" stroke:none;fill-rule:nonzero;fill:rgb(85.098039%,28.235294%,26.27451%);fill-opacity:1;" d="M 34.816406 52.113281 L 32.523438 52.113281 L 32.523438 52.046875 C 33.226562 51.210938 33.65625 50.648438 33.804688 50.359375 C 33.953125 50.070312 34.03125 49.789062 34.03125 49.511719 C 34.03125 49.308594 33.96875 49.144531 33.84375 49.007812 C 33.71875 48.878906 33.566406 48.808594 33.386719 48.808594 C 33.09375 48.808594 32.863281 48.957031 32.699219 49.253906 L 32.59375 49.214844 C 32.695312 48.847656 32.855469 48.574219 33.066406 48.398438 C 33.277344 48.222656 33.519531 48.136719 33.792969 48.136719 C 33.992188 48.136719 34.171875 48.179688 34.335938 48.273438 C 34.496094 48.363281 34.625 48.492188 34.714844 48.652344 C 34.808594 48.808594 34.855469 48.960938 34.855469 49.101562 C 34.855469 49.355469 34.785156 49.613281 34.640625 49.875 C 34.449219 50.230469 34.027344 50.726562 33.375 51.359375 L 34.21875 51.359375 C 34.421875 51.359375 34.558594 51.351562 34.621094 51.332031 C 34.683594 51.316406 34.734375 51.289062 34.773438 51.246094 C 34.816406 51.207031 34.867188 51.117188 34.933594 50.984375 L 35.035156 50.984375 Z M 34.816406 52.113281 "/>
<path style=" stroke:none;fill-rule:nonzero;fill:rgb(85.098039%,28.235294%,26.27451%);fill-opacity:1;" d="M 41.53125 48.136719 L 41.53125 51.320312 C 41.53125 51.5625 41.539062 51.714844 41.5625 51.78125 C 41.582031 51.847656 41.628906 51.902344 41.695312 51.941406 C 41.761719 51.984375 41.867188 52.007812 42.015625 52.007812 L 42.105469 52.007812 L 42.105469 52.113281 L 40.050781 52.113281 L 40.050781 52.007812 L 40.15625 52.007812 C 40.324219 52.007812 40.441406 51.988281 40.511719 51.949219 C 40.582031 51.910156 40.632812 51.855469 40.65625 51.789062 C 40.679688 51.722656 40.695312 51.566406 40.695312 51.320312 L 40.695312 49.300781 C 40.695312 49.121094 40.683594 49.007812 40.667969 48.964844 C 40.648438 48.917969 40.617188 48.882812 40.570312 48.847656 C 40.523438 48.816406 40.46875 48.800781 40.410156 48.800781 C 40.3125 48.800781 40.191406 48.832031 40.050781 48.894531 L 40 48.789062 L 41.433594 48.136719 Z M 41.53125 48.136719 "/>
<path style=" stroke:none;fill-rule:nonzero;fill:rgb(85.098039%,28.235294%,26.27451%);fill-opacity:1;" d="M 43.425781 50.160156 L 43.425781 50.058594 C 43.644531 49.996094 43.796875 49.933594 43.878906 49.882812 C 43.964844 49.828125 44.039062 49.742188 44.097656 49.628906 C 44.160156 49.519531 44.191406 49.40625 44.191406 49.289062 C 44.191406 49.132812 44.132812 48.996094 44.015625 48.882812 C 43.902344 48.765625 43.757812 48.710938 43.585938 48.710938 C 43.316406 48.710938 43.089844 48.851562 42.902344 49.132812 L 42.792969 49.097656 C 42.933594 48.777344 43.109375 48.535156 43.324219 48.375 C 43.539062 48.214844 43.78125 48.132812 44.042969 48.132812 C 44.3125 48.132812 44.539062 48.214844 44.710938 48.382812 C 44.886719 48.546875 44.976562 48.738281 44.976562 48.960938 C 44.976562 49.101562 44.933594 49.242188 44.851562 49.375 C 44.769531 49.507812 44.644531 49.625 44.46875 49.726562 C 44.691406 49.835938 44.863281 49.96875 44.980469 50.128906 C 45.101562 50.289062 45.160156 50.492188 45.160156 50.730469 C 45.160156 51.136719 45.011719 51.484375 44.71875 51.769531 C 44.421875 52.050781 44.027344 52.195312 43.535156 52.195312 C 43.203125 52.195312 42.964844 52.140625 42.8125 52.03125 C 42.703125 51.953125 42.648438 51.855469 42.648438 51.734375 C 42.648438 51.648438 42.679688 51.570312 42.746094 51.507812 C 42.808594 51.445312 42.878906 51.414062 42.964844 51.414062 C 43.027344 51.414062 43.085938 51.429688 43.140625 51.457031 C 43.171875 51.472656 43.28125 51.554688 43.46875 51.707031 C 43.652344 51.859375 43.828125 51.9375 43.992188 51.9375 C 44.132812 51.9375 44.253906 51.878906 44.355469 51.769531 C 44.457031 51.65625 44.507812 51.511719 44.507812 51.339844 C 44.507812 51.078125 44.417969 50.835938 44.234375 50.617188 C 44.050781 50.394531 43.78125 50.242188 43.425781 50.160156 Z M 43.425781 50.160156 "/>
<path style=" stroke:none;fill-rule:nonzero;fill:rgb(85.098039%,28.235294%,26.27451%);fill-opacity:1;" d="M 51.4375 47.984375 L 51.4375 51.167969 C 51.4375 51.410156 51.449219 51.5625 51.46875 51.628906 C 51.488281 51.695312 51.535156 51.746094 51.601562 51.789062 C 51.667969 51.832031 51.777344 51.851562 51.921875 51.851562 L 52.011719 51.851562 L 52.011719 51.960938 L 49.960938 51.960938 L 49.960938 51.851562 L 50.0625 51.851562 C 50.230469 51.851562 50.347656 51.835938 50.417969 51.796875 C 50.492188 51.757812 50.539062 51.703125 50.5625 51.636719 C 50.589844 51.570312 50.601562 51.414062 50.601562 51.167969 L 50.601562 49.148438 C 50.601562 48.96875 50.59375 48.855469 50.574219 48.8125 C 50.558594 48.765625 50.527344 48.726562 50.480469 48.695312 C 50.433594 48.664062 50.378906 48.648438 50.316406 48.648438 C 50.21875 48.648438 50.101562 48.679688 49.960938 48.742188 L 49.910156 48.636719 L 51.34375 47.984375 Z M 51.4375 47.984375 "/>
<path style=" stroke:none;fill-rule:nonzero;fill:rgb(85.098039%,28.235294%,26.27451%);fill-opacity:1;" d="M 52.609375 50.492188 L 54.460938 47.984375 L 54.808594 47.984375 L 54.808594 50.492188 L 55.167969 50.492188 L 55.167969 51.085938 L 54.808594 51.085938 L 54.808594 51.960938 L 54.019531 51.960938 L 54.019531 51.085938 L 52.609375 51.085938 Z M 52.886719 50.492188 L 54.019531 50.492188 L 54.019531 48.953125 Z M 52.886719 50.492188 "/>
<path style=" stroke:none;fill-rule:nonzero;fill:rgb(85.098039%,28.235294%,26.27451%);fill-opacity:1;" d="M 61.480469 48.0625 L 61.480469 51.25 C 61.480469 51.488281 61.492188 51.644531 61.511719 51.707031 C 61.535156 51.773438 61.578125 51.828125 61.644531 51.871094 C 61.710938 51.914062 61.820312 51.933594 61.964844 51.933594 L 62.054688 51.933594 L 62.054688 52.039062 L 60.003906 52.039062 L 60.003906 51.933594 L 60.109375 51.933594 C 60.273438 51.933594 60.390625 51.914062 60.464844 51.875 C 60.535156 51.839844 60.582031 51.785156 60.605469 51.71875 C 60.632812 51.652344 60.644531 51.496094 60.644531 51.25 L 60.644531 49.230469 C 60.644531 49.050781 60.636719 48.9375 60.617188 48.890625 C 60.601562 48.847656 60.570312 48.808594 60.523438 48.777344 C 60.476562 48.746094 60.421875 48.730469 60.359375 48.730469 C 60.261719 48.730469 60.144531 48.761719 60.003906 48.820312 L 59.953125 48.71875 L 61.386719 48.0625 Z M 61.480469 48.0625 "/>
<path style=" stroke:none;fill-rule:nonzero;fill:rgb(85.098039%,28.235294%,26.27451%);fill-opacity:1;" d="M 63.402344 48.144531 L 65.226562 48.144531 L 64.9375 48.886719 L 63.402344 48.886719 L 63.257812 49.273438 C 63.917969 49.296875 64.425781 49.464844 64.78125 49.765625 C 65.074219 50.019531 65.222656 50.332031 65.222656 50.707031 C 65.222656 50.945312 65.15625 51.179688 65.019531 51.40625 C 64.882812 51.636719 64.691406 51.8125 64.445312 51.9375 C 64.195312 52.058594 63.925781 52.121094 63.628906 52.121094 C 63.3125 52.121094 63.070312 52.0625 62.898438 51.945312 C 62.777344 51.859375 62.71875 51.765625 62.71875 51.65625 C 62.71875 51.574219 62.75 51.5 62.8125 51.4375 C 62.875 51.375 62.949219 51.34375 63.03125 51.34375 C 63.105469 51.34375 63.179688 51.359375 63.257812 51.386719 C 63.335938 51.417969 63.464844 51.5 63.652344 51.628906 C 63.769531 51.710938 63.867188 51.765625 63.953125 51.796875 C 64.011719 51.820312 64.078125 51.832031 64.15625 51.832031 C 64.3125 51.832031 64.445312 51.773438 64.554688 51.660156 C 64.667969 51.542969 64.722656 51.40625 64.722656 51.246094 C 64.722656 50.90625 64.550781 50.632812 64.214844 50.421875 C 63.878906 50.210938 63.453125 50.109375 62.941406 50.109375 C 62.886719 50.109375 62.8125 50.109375 62.707031 50.109375 Z M 63.402344 48.144531 "/>
<use xlink:href="#surface50" mask="url(#mask15)"/>
<use xlink:href="#surface53" mask="url(#mask16)"/>
<use xlink:href="#surface56" mask="url(#mask17)"/>
<use xlink:href="#surface59" mask="url(#mask18)"/>
<use xlink:href="#surface62" mask="url(#mask19)"/>
<path style=" stroke:none;fill-rule:nonzero;fill:rgb(85.098039%,28.235294%,26.27451%);fill-opacity:1;" d="M 21.148438 58.058594 L 21.148438 61.242188 C 21.148438 61.484375 21.160156 61.636719 21.179688 61.703125 C 21.203125 61.769531 21.246094 61.824219 21.3125 61.863281 C 21.378906 61.90625 21.488281 61.929688 21.636719 61.929688 L 21.722656 61.929688 L 21.722656 62.035156 L 19.671875 62.035156 L 19.671875 61.929688 L 19.777344 61.929688 C 19.941406 61.929688 20.0625 61.910156 20.132812 61.871094 C 20.203125 61.832031 20.25 61.78125 20.277344 61.710938 C 20.300781 61.644531 20.3125 61.488281 20.3125 61.242188 L 20.3125 59.222656 C 20.3125 59.042969 20.304688 58.933594 20.285156 58.886719 C 20.269531 58.839844 20.238281 58.804688 20.191406 58.769531 C 20.144531 58.738281 20.089844 58.722656 20.027344 58.722656 C 19.929688 58.722656 19.8125 58.753906 19.671875 58.816406 L 19.621094 58.710938 L 21.054688 58.058594 Z M 21.148438 58.058594 "/>
<path style=" stroke:none;fill-rule:nonzero;fill:rgb(85.098039%,28.235294%,26.27451%);fill-opacity:1;" d="M 24.941406 58.058594 L 24.941406 58.136719 C 24.59375 58.226562 24.316406 58.339844 24.105469 58.480469 C 23.894531 58.617188 23.730469 58.785156 23.609375 58.984375 C 23.488281 59.183594 23.394531 59.429688 23.324219 59.722656 C 23.410156 59.664062 23.480469 59.625 23.535156 59.609375 C 23.660156 59.570312 23.785156 59.550781 23.910156 59.550781 C 24.203125 59.550781 24.445312 59.65625 24.640625 59.867188 C 24.835938 60.082031 24.933594 60.371094 24.933594 60.734375 C 24.933594 60.992188 24.878906 61.226562 24.773438 61.441406 C 24.667969 61.65625 24.519531 61.824219 24.324219 61.941406 C 24.132812 62.054688 23.925781 62.113281 23.703125 62.113281 C 23.464844 62.113281 23.242188 62.046875 23.039062 61.917969 C 22.835938 61.785156 22.679688 61.59375 22.566406 61.34375 C 22.449219 61.089844 22.394531 60.8125 22.394531 60.515625 C 22.394531 60.078125 22.5 59.671875 22.707031 59.296875 C 22.917969 58.921875 23.214844 58.621094 23.601562 58.398438 C 23.988281 58.175781 24.433594 58.0625 24.941406 58.058594 Z M 23.289062 59.953125 C 23.273438 60.21875 23.265625 60.410156 23.265625 60.535156 C 23.265625 60.796875 23.289062 61.054688 23.339844 61.300781 C 23.390625 61.550781 23.460938 61.722656 23.550781 61.820312 C 23.613281 61.890625 23.6875 61.929688 23.773438 61.929688 C 23.863281 61.929688 23.941406 61.875 24.007812 61.773438 C 24.078125 61.671875 24.113281 61.464844 24.113281 61.148438 C 24.113281 60.621094 24.046875 60.253906 23.921875 60.054688 C 23.839844 59.925781 23.726562 59.859375 23.585938 59.859375 C 23.511719 59.859375 23.410156 59.890625 23.289062 59.953125 Z M 23.289062 59.953125 "/>
<path style=" stroke:none;fill-rule:nonzero;fill:rgb(85.098039%,28.235294%,26.27451%);fill-opacity:1;" d="M 31.28125 58.140625 L 31.28125 61.328125 C 31.28125 61.566406 31.292969 61.71875 31.3125 61.785156 C 31.335938 61.851562 31.378906 61.90625 31.445312 61.945312 C 31.511719 61.988281 31.621094 62.011719 31.769531 62.011719 L 31.855469 62.011719 L 31.855469 62.117188 L 29.804688 62.117188 L 29.804688 62.011719 L 29.910156 62.011719 C 30.074219 62.011719 30.195312 61.992188 30.265625 61.953125 C 30.335938 61.914062 30.382812 61.863281 30.410156 61.796875 C 30.433594 61.726562 30.445312 61.570312 30.445312 61.328125 L 30.445312 59.304688 C 30.445312 59.125 30.4375 59.015625 30.417969 58.96875 C 30.402344 58.925781 30.371094 58.886719 30.324219 58.851562 C 30.277344 58.820312 30.222656 58.804688 30.160156 58.804688 C 30.0625 58.804688 29.945312 58.835938 29.804688 58.898438 L 29.753906 58.796875 L 31.1875 58.140625 Z M 31.28125 58.140625 "/>
<path style=" stroke:none;fill-rule:nonzero;fill:rgb(85.098039%,28.235294%,26.27451%);fill-opacity:1;" d="M 33.351562 62.195312 L 34.410156 58.980469 L 33.605469 58.980469 C 33.289062 58.980469 33.050781 59.023438 32.890625 59.105469 C 32.78125 59.164062 32.6875 59.269531 32.617188 59.429688 L 32.507812 59.429688 L 32.789062 58.21875 L 35.109375 58.21875 L 33.800781 62.195312 Z M 33.351562 62.195312 "/>
<path style=" stroke:none;fill-rule:nonzero;fill:rgb(85.098039%,28.235294%,26.27451%);fill-opacity:1;" d="M 41.421875 58.179688 L 41.421875 61.367188 C 41.421875 61.605469 41.433594 61.757812 41.457031 61.824219 C 41.476562 61.890625 41.519531 61.945312 41.585938 61.988281 C 41.65625 62.027344 41.761719 62.050781 41.910156 62.050781 L 41.996094 62.050781 L 41.996094 62.15625 L 39.945312 62.15625 L 39.945312 62.050781 L 40.050781 62.050781 C 40.214844 62.050781 40.335938 62.03125 40.40625 61.992188 C 40.476562 61.953125 40.523438 61.902344 40.550781 61.835938 C 40.574219 61.769531 40.585938 61.613281 40.585938 61.367188 L 40.585938 59.347656 C 40.585938 59.167969 40.578125 59.054688 40.5625 59.007812 C 40.542969 58.964844 40.511719 58.925781 40.464844 58.894531 C 40.417969 58.863281 40.363281 58.847656 40.300781 58.847656 C 40.203125 58.847656 40.085938 58.875 39.945312 58.9375 L 39.894531 58.835938 L 41.328125 58.179688 Z M 41.421875 58.179688 "/>
<path style=" stroke:none;fill-rule:nonzero;fill:rgb(85.098039%,28.235294%,26.27451%);fill-opacity:1;" d="M 44.453125 59.957031 C 44.730469 60.15625 44.917969 60.34375 45.023438 60.515625 C 45.132812 60.691406 45.183594 60.890625 45.183594 61.113281 C 45.183594 61.425781 45.066406 61.695312 44.828125 61.910156 C 44.59375 62.128906 44.273438 62.238281 43.867188 62.238281 C 43.480469 62.238281 43.183594 62.140625 42.972656 61.953125 C 42.761719 61.761719 42.65625 61.53125 42.65625 61.257812 C 42.65625 61.050781 42.71875 60.863281 42.839844 60.707031 C 42.960938 60.550781 43.164062 60.40625 43.445312 60.277344 C 43.136719 60.042969 42.941406 59.847656 42.851562 59.699219 C 42.765625 59.550781 42.722656 59.378906 42.722656 59.179688 C 42.722656 58.917969 42.832031 58.691406 43.054688 58.492188 C 43.277344 58.292969 43.578125 58.195312 43.964844 58.195312 C 44.335938 58.195312 44.621094 58.28125 44.820312 58.457031 C 45.019531 58.632812 45.121094 58.84375 45.121094 59.085938 C 45.121094 59.269531 45.066406 59.433594 44.960938 59.574219 C 44.851562 59.714844 44.683594 59.84375 44.453125 59.957031 Z M 43.660156 60.414062 C 43.601562 60.46875 43.558594 60.519531 43.535156 60.5625 C 43.496094 60.628906 43.464844 60.726562 43.433594 60.855469 C 43.402344 60.984375 43.386719 61.117188 43.386719 61.257812 C 43.386719 61.4375 43.410156 61.589844 43.457031 61.710938 C 43.5 61.832031 43.566406 61.917969 43.652344 61.972656 C 43.738281 62.027344 43.824219 62.050781 43.914062 62.050781 C 44.054688 62.050781 44.171875 62 44.269531 61.898438 C 44.363281 61.796875 44.410156 61.65625 44.410156 61.476562 C 44.410156 61.105469 44.160156 60.753906 43.660156 60.414062 Z M 44.238281 59.808594 C 44.308594 59.714844 44.359375 59.605469 44.394531 59.488281 C 44.429688 59.371094 44.445312 59.238281 44.445312 59.097656 C 44.445312 58.847656 44.390625 58.65625 44.285156 58.523438 C 44.203125 58.421875 44.09375 58.375 43.953125 58.375 C 43.824219 58.375 43.714844 58.417969 43.625 58.511719 C 43.535156 58.605469 43.488281 58.71875 43.488281 58.859375 C 43.488281 59 43.539062 59.144531 43.640625 59.292969 C 43.742188 59.445312 43.941406 59.617188 44.238281 59.808594 Z M 44.238281 59.808594 "/>
<path style=" stroke:none;fill-rule:nonzero;fill:rgb(85.098039%,28.235294%,26.27451%);fill-opacity:1;" d="M 51.496094 58.179688 L 51.496094 61.367188 C 51.496094 61.605469 51.503906 61.757812 51.527344 61.824219 C 51.546875 61.890625 51.589844 61.945312 51.660156 61.988281 C 51.726562 62.027344 51.832031 62.050781 51.980469 62.050781 L 52.070312 62.050781 L 52.070312 62.15625 L 50.015625 62.15625 L 50.015625 62.050781 L 50.121094 62.050781 C 50.289062 62.050781 50.40625 62.03125 50.476562 61.992188 C 50.546875 61.953125 50.597656 61.902344 50.621094 61.835938 C 50.644531 61.765625 50.660156 61.613281 50.660156 61.367188 L 50.660156 59.347656 C 50.660156 59.167969 50.648438 59.054688 50.632812 59.007812 C 50.617188 58.964844 50.582031 58.925781 50.535156 58.894531 C 50.488281 58.863281 50.4375 58.847656 50.375 58.847656 C 50.277344 58.847656 50.160156 58.875 50.019531 58.9375 L 49.96875 58.835938 L 51.398438 58.179688 Z M 51.496094 58.179688 "/>
<path style=" stroke:none;fill-rule:nonzero;fill:rgb(85.098039%,28.235294%,26.27451%);fill-opacity:1;" d="M 52.703125 62.238281 L 52.703125 62.15625 C 53.019531 62.085938 53.289062 61.976562 53.511719 61.835938 C 53.730469 61.695312 53.90625 61.519531 54.035156 61.308594 C 54.164062 61.101562 54.257812 60.859375 54.308594 60.589844 C 54.1875 60.648438 54.089844 60.691406 54.003906 60.714844 C 53.921875 60.738281 53.832031 60.753906 53.742188 60.753906 C 53.445312 60.753906 53.203125 60.644531 53.003906 60.433594 C 52.808594 60.21875 52.710938 59.929688 52.710938 59.558594 C 52.710938 59.300781 52.761719 59.066406 52.871094 58.855469 C 52.976562 58.640625 53.128906 58.476562 53.324219 58.355469 C 53.523438 58.238281 53.726562 58.179688 53.941406 58.179688 C 54.167969 58.179688 54.382812 58.246094 54.585938 58.375 C 54.789062 58.503906 54.953125 58.695312 55.070312 58.941406 C 55.191406 59.1875 55.253906 59.46875 55.253906 59.785156 C 55.253906 60.195312 55.15625 60.589844 54.957031 60.964844 C 54.761719 61.339844 54.46875 61.640625 54.082031 61.867188 C 53.691406 62.09375 53.230469 62.21875 52.703125 62.238281 Z M 54.351562 60.347656 C 54.371094 60.132812 54.378906 59.945312 54.378906 59.78125 C 54.378906 59.433594 54.339844 59.109375 54.257812 58.808594 C 54.210938 58.640625 54.144531 58.519531 54.054688 58.441406 C 54.007812 58.398438 53.945312 58.375 53.867188 58.375 C 53.773438 58.375 53.695312 58.417969 53.644531 58.5 C 53.566406 58.613281 53.53125 58.828125 53.53125 59.144531 C 53.53125 59.675781 53.59375 60.042969 53.71875 60.242188 C 53.804688 60.375 53.914062 60.4375 54.054688 60.4375 C 54.128906 60.4375 54.226562 60.40625 54.351562 60.347656 Z M 54.351562 60.347656 "/>
<path style=" stroke:none;fill-rule:nonzero;fill:rgb(85.098039%,28.235294%,26.27451%);fill-opacity:1;" d="M 62.121094 62.15625 L 59.828125 62.15625 L 59.828125 62.09375 C 60.53125 61.257812 60.957031 60.691406 61.105469 60.402344 C 61.257812 60.113281 61.332031 59.832031 61.332031 59.554688 C 61.332031 59.355469 61.269531 59.1875 61.144531 59.054688 C 61.023438 58.921875 60.871094 58.855469 60.6875 58.855469 C 60.394531 58.855469 60.164062 59.003906 60.003906 59.296875 L 59.894531 59.257812 C 60 58.890625 60.15625 58.621094 60.367188 58.445312 C 60.578125 58.265625 60.820312 58.179688 61.097656 58.179688 C 61.292969 58.179688 61.476562 58.226562 61.636719 58.316406 C 61.800781 58.410156 61.925781 58.535156 62.019531 58.695312 C 62.113281 58.855469 62.15625 59.003906 62.15625 59.144531 C 62.15625 59.398438 62.085938 59.660156 61.945312 59.921875 C 61.75 60.277344 61.328125 60.769531 60.675781 61.402344 L 61.519531 61.402344 C 61.726562 61.402344 61.859375 61.394531 61.921875 61.378906 C 61.984375 61.363281 62.035156 61.332031 62.078125 61.289062 C 62.117188 61.25 62.167969 61.164062 62.234375 61.03125 L 62.335938 61.03125 Z M 62.121094 62.15625 "/>
<path style=" stroke:none;fill-rule:nonzero;fill:rgb(85.098039%,28.235294%,26.27451%);fill-opacity:1;" d="M 65.351562 60.207031 C 65.351562 60.597656 65.296875 60.960938 65.1875 61.296875 C 65.125 61.503906 65.035156 61.675781 64.925781 61.804688 C 64.816406 61.9375 64.691406 62.042969 64.550781 62.121094 C 64.410156 62.199219 64.257812 62.238281 64.09375 62.238281 C 63.90625 62.238281 63.738281 62.1875 63.585938 62.09375 C 63.433594 61.996094 63.300781 61.859375 63.183594 61.683594 C 63.097656 61.550781 63.027344 61.378906 62.960938 61.160156 C 62.878906 60.871094 62.839844 60.566406 62.839844 60.253906 C 62.839844 59.832031 62.898438 59.441406 63.015625 59.085938 C 63.113281 58.792969 63.261719 58.570312 63.460938 58.414062 C 63.660156 58.257812 63.871094 58.179688 64.09375 58.179688 C 64.320312 58.179688 64.53125 58.257812 64.730469 58.410156 C 64.925781 58.566406 65.070312 58.773438 65.160156 59.03125 C 65.289062 59.390625 65.351562 59.785156 65.351562 60.207031 Z M 64.46875 60.203125 C 64.46875 59.519531 64.464844 59.125 64.457031 59.011719 C 64.4375 58.746094 64.390625 58.5625 64.316406 58.46875 C 64.269531 58.410156 64.191406 58.378906 64.085938 58.378906 C 64.003906 58.378906 63.9375 58.402344 63.890625 58.445312 C 63.820312 58.515625 63.769531 58.632812 63.746094 58.800781 C 63.722656 58.972656 63.707031 59.5625 63.707031 60.578125 C 63.707031 61.128906 63.726562 61.496094 63.765625 61.683594 C 63.792969 61.820312 63.835938 61.914062 63.890625 61.957031 C 63.941406 62.003906 64.011719 62.027344 64.101562 62.027344 C 64.195312 62.027344 64.269531 61.996094 64.316406 61.933594 C 64.398438 61.828125 64.445312 61.660156 64.457031 61.4375 Z M 64.46875 60.203125 "/>
</g>
</svg>
