<?xml version="1.0" encoding="UTF-8"?>
<svg xmlns="http://www.w3.org/2000/svg" xmlns:xlink="http://www.w3.org/1999/xlink" width="85pt" height="85pt" viewBox="0 0 85 85" version="1.1">
<defs>
<filter id="alpha" filterUnits="objectBoundingBox" x="0%" y="0%" width="100%" height="100%">
  <feColorMatrix type="matrix" in="SourceGraphic" values="0 0 0 0 1 0 0 0 0 1 0 0 0 0 1 0 0 0 1 0"/>
</filter>
<mask id="mask0">
  <g filter="url(#alpha)">
<rect x="0" y="0" width="85" height="85" style="fill:rgb(0%,0%,0%);fill-opacity:0.501961;stroke:none;"/>
  </g>
</mask>
<clipPath id="clip1">
  <rect x="0" y="0" width="85" height="85"/>
</clipPath>
<g id="surface5" clip-path="url(#clip1)">
<path style=" stroke:none;fill-rule:nonzero;fill:rgb(100%,100%,100%);fill-opacity:1;" d="M 65.09375 25.722656 L 64.613281 25.597656 L 64.011719 25.953125 L 63.609375 25.953125 L 62.710938 26.078125 L 62.324219 25.628906 L 61.550781 25.550781 L 61.320312 25.863281 L 60.746094 25.597656 L 59.292969 23.789062 L 59.0625 23.789062 L 58.132812 23.402344 L 57.542969 23.941406 L 57.25 24.019531 L 56.089844 23.496094 L 55.253906 23.496094 L 55.054688 23.789062 L 54.464844 23.957031 L 54.015625 23.199219 L 53.445312 23.078125 L 52.917969 23.167969 L 52.347656 23.324219 L 52.40625 24.300781 L 52.253906 24.949219 L 52.40625 25.148438 L 52.191406 25.488281 L 52.285156 25.890625 L 51.992188 26.109375 L 52.019531 26.480469 L 51.835938 26.851562 L 52.40625 27.5625 L 52.53125 27.949219 L 52.285156 28.414062 L 52.285156 28.769531 L 51.992188 29.109375 L 51.992188 29.851562 L 52.484375 30.238281 L 52.53125 30.535156 L 52.578125 30.921875 L 52.980469 30.996094 L 53.273438 31.492188 L 54.1875 31.957031 L 55.019531 32.34375 L 55.207031 32.527344 L 54.898438 32.730469 L 55.101562 33.085938 L 55.578125 33.148438 L 56.183594 33.859375 L 56.585938 33.96875 L 56.648438 34.152344 L 56.324219 34.355469 L 56.261719 34.773438 L 56.199219 35.082031 L 56.570312 35.082031 L 56.878906 35.390625 L 57.390625 35.546875 L 57.511719 36.027344 L 57.839844 36.132812 L 58.289062 36.085938 L 58.582031 35.3125 L 58.671875 35.222656 L 59.417969 35.699219 L 60.222656 35.699219 L 60.34375 35.609375 L 60.871094 36.058594 L 61.039062 35.996094 L 61.148438 35.4375 L 61.289062 35.390625 L 62.203125 36.195312 L 62.773438 36.503906 L 63.003906 36.476562 L 63.253906 35.144531 L 63.5625 34.464844 L 64.011719 32.976562 L 64.226562 32.546875 L 64.132812 32.191406 L 63.71875 32.191406 L 63.609375 31.382812 L 63.546875 30.980469 L 64.257812 29.960938 L 64.289062 29.140625 L 64.429688 28.957031 L 64.429688 28.816406 L 64.058594 28.601562 L 64.167969 28.367188 L 64.117188 28.273438 L 63.6875 28.367188 L 63.484375 28.273438 L 62.929688 28.691406 L 62.648438 28.089844 L 62.203125 27.917969 L 62.183594 27.65625 L 62.292969 27.53125 L 62.511719 27.53125 L 62.632812 27.347656 L 62.863281 27.347656 L 62.945312 26.789062 L 64.492188 27.269531 L 64.9375 27.144531 L 65.417969 27.175781 L 65.710938 26.820312 L 66.070312 26.339844 Z M 65.09375 25.722656 "/>
<path style=" stroke:none;fill-rule:nonzero;fill:rgb(85.098039%,28.235294%,26.27451%);fill-opacity:1;" d="M 62.710938 36.84375 L 61.984375 36.441406 L 61.390625 35.914062 L 61.324219 36.238281 L 60.804688 36.429688 L 60.332031 36.027344 L 59.320312 36.027344 L 58.789062 35.683594 L 58.519531 36.390625 L 57.800781 36.464844 L 57.242188 36.277344 L 57.117188 35.804688 L 56.703125 35.679688 L 56.433594 35.410156 L 55.800781 35.410156 L 56.023438 34.15625 L 56 34.148438 L 55.414062 33.457031 L 54.894531 33.386719 L 54.464844 32.625 L 54.625 32.519531 L 54.050781 32.253906 L 53.042969 31.742188 L 52.773438 31.289062 L 52.28125 31.195312 L 52.183594 30.417969 L 51.664062 30.011719 L 51.664062 28.988281 L 51.957031 28.648438 L 51.957031 28.332031 L 52.179688 27.917969 L 52.117188 27.71875 L 51.449219 26.890625 L 51.6875 26.414062 L 51.648438 25.953125 L 51.917969 25.757812 L 51.839844 25.429688 L 52.007812 25.167969 L 51.898438 25.023438 L 52.078125 24.269531 L 52.003906 23.078125 L 52.835938 22.855469 L 53.449219 22.742188 L 54.226562 22.910156 L 54.617188 23.574219 L 54.851562 23.507812 L 55.082031 23.167969 L 56.222656 23.195312 L 57.277344 23.671875 L 57.382812 23.644531 L 58.0625 23.019531 L 59.125 23.460938 L 59.449219 23.460938 L 60.953125 25.332031 L 61.214844 25.453125 L 61.398438 25.207031 L 62.484375 25.316406 L 62.84375 25.726562 L 63.5625 25.628906 L 63.917969 25.625 L 64.5625 25.246094 L 65.269531 25.445312 L 66.539062 26.253906 L 65.5625 27.511719 L 64.972656 27.472656 L 64.484375 27.609375 L 63.210938 27.214844 L 63.148438 27.671875 L 62.808594 27.671875 L 62.738281 27.773438 L 62.886719 27.828125 L 63.054688 28.1875 L 63.445312 27.894531 L 63.722656 28.023438 L 64.292969 27.902344 L 64.527344 28.359375 L 64.480469 28.464844 L 64.753906 28.625 L 64.753906 29.0625 L 64.609375 29.253906 L 64.578125 30.070312 L 63.886719 31.058594 L 64 31.859375 L 64.386719 31.859375 L 64.574219 32.582031 L 64.300781 33.125 L 63.875 34.558594 L 63.566406 35.242188 L 63.28125 36.769531 Z M 62.390625 35.925781 L 62.738281 36.117188 L 62.957031 35.007812 L 63.265625 34.328125 L 63.699219 32.882812 L 63.878906 32.515625 L 63.429688 32.515625 L 63.203125 30.902344 L 63.933594 29.851562 L 63.96875 29.027344 L 64.019531 28.957031 L 63.632812 28.734375 L 63.644531 28.710938 L 63.523438 28.652344 L 62.800781 29.195312 L 62.40625 28.347656 L 61.886719 28.152344 L 61.847656 27.542969 L 62.144531 27.207031 L 62.335938 27.207031 L 62.457031 27.019531 L 62.582031 27.019531 L 62.667969 26.414062 L 62.578125 26.425781 L 62.160156 25.941406 L 61.699219 25.894531 L 61.421875 26.269531 L 60.539062 25.863281 L 59.132812 24.113281 L 58.933594 24.089844 L 58.199219 23.785156 L 57.703125 24.238281 L 57.21875 24.367188 L 56.019531 23.820312 L 55.425781 23.820312 L 55.257812 24.070312 L 54.3125 24.34375 L 53.804688 23.488281 L 53.4375 23.410156 L 52.6875 23.570312 L 52.734375 24.328125 L 52.605469 24.871094 L 52.804688 25.132812 L 52.539062 25.550781 L 52.652344 26.027344 L 52.332031 26.265625 L 52.355469 26.542969 L 52.222656 26.808594 L 52.71875 27.460938 L 52.886719 27.980469 L 52.609375 28.496094 L 52.609375 28.890625 L 52.316406 29.230469 L 52.316406 29.695312 L 52.789062 30.0625 L 52.875 30.644531 L 53.1875 30.703125 L 53.507812 31.246094 L 54.335938 31.664062 L 55.253906 32.113281 L 55.726562 32.582031 L 55.398438 32.796875 L 55.746094 32.84375 L 56.367188 33.570312 L 56.839844 33.699219 L 57.039062 34.296875 L 56.625 34.554688 L 56.59375 34.753906 L 56.707031 34.753906 L 57.054688 35.101562 L 57.660156 35.289062 L 57.785156 35.773438 L 57.875 35.800781 L 58.054688 35.785156 L 58.351562 35.085938 L 58.628906 34.804688 L 59.515625 35.375 L 60.148438 35.347656 L 60.359375 35.191406 L 60.792969 35.5625 L 60.863281 35.1875 L 61.363281 35.023438 Z M 62.78125 26.398438 L 64.496094 26.929688 L 64.90625 26.816406 L 65.273438 26.839844 L 65.597656 26.429688 L 64.960938 26.027344 L 64.664062 25.949219 L 64.101562 26.28125 L 63.609375 26.28125 Z M 62.78125 26.398438 "/>
</g>
<mask id="mask1">
  <g filter="url(#alpha)">
<rect x="0" y="0" width="85" height="85" style="fill:rgb(0%,0%,0%);fill-opacity:0.501961;stroke:none;"/>
  </g>
</mask>
<clipPath id="clip2">
  <rect x="0" y="0" width="85" height="85"/>
</clipPath>
<g id="surface8" clip-path="url(#clip2)">
<path style=" stroke:none;fill-rule:nonzero;fill:rgb(100%,100%,100%);fill-opacity:1;" d="M 14.210938 47.90625 L 14.503906 48 L 14.613281 47.875 L 14.179688 47.644531 Z M 15.417969 46.097656 L 15.152344 45.773438 L 14.996094 45.449219 L 14.65625 45.261719 L 14.535156 45.449219 L 14.953125 45.914062 L 15.398438 46.222656 Z M 31.074219 37.386719 L 31.074219 36.800781 L 31.257812 36.382812 L 30.949219 35.824219 L 30.578125 35.792969 L 30.300781 35.4375 L 30.300781 35.3125 L 30.207031 35.222656 L 29.742188 35.453125 L 28.875 34.957031 L 28.707031 33.597656 L 28.613281 33.503906 L 28.195312 33.734375 L 27.621094 33.890625 L 27.035156 34.414062 L 26.386719 34.507812 L 26.355469 34.015625 L 25.875 34.027344 L 25.734375 33.285156 L 25.347656 33.085938 L 25.054688 33.566406 L 24.03125 33.65625 L 22.765625 33.953125 L 22.410156 33.859375 L 22.316406 33.722656 L 21.339844 33.796875 L 21.292969 33.96875 L 21.355469 34.894531 L 21.09375 35.574219 L 21.417969 36.472656 L 21.605469 37.511719 L 21.511719 37.773438 L 21.386719 37.742188 L 20.675781 38.050781 L 20.242188 39.351562 L 19.113281 38.871094 L 18.371094 39.289062 L 17.023438 40.03125 L 16.1875 40.25 L 15.800781 40.542969 L 15.601562 41.285156 L 13.804688 42.027344 L 13.699219 42.289062 L 13.433594 42.386719 L 13.21875 42.585938 L 13.511719 42.816406 L 13.574219 43.0625 L 13.433594 43.265625 L 13.496094 43.328125 L 13.867188 43.542969 L 14.300781 43.375 L 14.796875 43.667969 L 15.398438 43.160156 L 15.988281 43.035156 L 18.089844 43.992188 L 17.828125 44.054688 L 16.480469 43.421875 L 15.476562 43.375 L 15.210938 43.605469 L 15.273438 44.257812 L 14.949219 44.410156 L 14.996094 44.457031 L 15.507812 44.550781 L 16.15625 44.875 L 16.433594 45.386719 L 16.015625 45.355469 L 15.847656 46.003906 L 15.445312 46.53125 L 15.335938 46.839844 L 16.929688 48.621094 L 17.222656 49.503906 L 18.121094 50.105469 L 18.570312 50.308594 L 19.667969 50.941406 L 19.851562 50.757812 L 20.054688 50.972656 L 20.316406 51.097656 L 20.316406 50.910156 L 20.828125 50.800781 L 21.335938 50.433594 L 21.972656 50.523438 L 21.957031 50.804688 L 22.992188 50.851562 L 23.289062 50.804688 L 23.613281 49.753906 L 23.519531 48.917969 L 23.765625 48.683594 L 23.226562 47.617188 L 22.960938 47.339844 L 23.316406 47.042969 L 23.382812 46.984375 L 21.832031 45.296875 L 22.667969 45.480469 L 23.859375 45.359375 L 24.152344 44.910156 L 24.601562 44.675781 L 26.257812 44.707031 L 26.613281 44.460938 L 26.832031 44.011719 L 27.125 43.964844 L 27.511719 42.804688 L 27.742188 42.296875 L 27.914062 41.320312 L 27.914062 40.65625 L 28.160156 40.59375 L 28.78125 40.808594 L 30.140625 39.679688 L 30.140625 39.449219 L 30.480469 39.292969 L 30.882812 38.613281 L 30.945312 38.289062 L 31.332031 38.023438 L 31.378906 37.808594 Z M 31.074219 37.386719 "/>
<path style=" stroke:none;fill-rule:nonzero;fill:rgb(85.098039%,28.235294%,26.27451%);fill-opacity:1;" d="M 20.644531 51.609375 L 19.84375 51.226562 L 19.71875 51.347656 L 18.40625 50.589844 L 17.988281 50.402344 L 16.949219 49.710938 L 16.640625 48.785156 L 14.964844 46.914062 L 15.132812 46.433594 L 14.707031 46.132812 L 14.121094 45.480469 L 14.550781 44.832031 L 15.246094 45.210938 L 15.433594 45.597656 L 15.570312 45.769531 L 15.761719 45.042969 L 15.402344 44.863281 L 14.839844 44.761719 L 14.433594 44.363281 L 14.929688 44.0625 L 14.921875 43.992188 L 14.828125 44.070312 L 14.273438 43.738281 L 13.839844 43.910156 L 13.207031 43.5 L 13.011719 43.308594 L 13.21875 43.003906 L 12.714844 42.609375 L 13.324219 42.078125 L 13.449219 42.035156 L 13.554688 41.78125 L 15.328125 41.046875 L 15.515625 40.351562 L 16.109375 39.933594 L 16.902344 39.726562 L 19.09375 38.511719 L 20.046875 38.914062 L 20.414062 37.8125 L 21.261719 37.441406 L 21.097656 36.53125 L 20.742188 35.574219 L 21.027344 34.847656 L 20.964844 33.9375 L 21.085938 33.492188 L 22.480469 33.382812 L 22.613281 33.574219 L 22.769531 33.617188 L 23.957031 33.339844 L 24.859375 33.253906 L 25.230469 32.65625 L 26.027344 33.070312 L 26.144531 33.695312 L 26.660156 33.675781 L 26.6875 34.136719 L 26.890625 34.105469 L 27.460938 33.59375 L 28.070312 33.433594 L 28.667969 33.101562 L 29.015625 33.445312 L 29.179688 34.753906 L 29.753906 35.082031 L 30.269531 34.824219 L 30.625 35.179688 L 30.625 35.328125 L 30.746094 35.480469 L 31.148438 35.515625 L 31.625 36.367188 L 31.398438 36.871094 L 31.398438 37.28125 L 31.730469 37.730469 L 31.625 38.21875 L 31.242188 38.480469 L 31.164062 38.777344 L 30.710938 39.546875 L 30.46875 39.679688 L 30.46875 39.832031 L 28.847656 41.179688 L 28.242188 40.964844 L 28.242188 41.320312 L 28.039062 42.429688 L 27.808594 42.941406 L 27.371094 44.253906 L 27.050781 44.304688 L 26.871094 44.679688 L 26.359375 45.035156 L 24.679688 45.003906 L 24.378906 45.160156 L 24.046875 45.664062 L 22.742188 45.800781 L 23.835938 46.996094 L 23.4375 47.363281 L 23.515625 47.46875 L 24.167969 48.753906 L 23.863281 49.039062 L 23.945312 49.78125 L 23.539062 51.089844 L 23.011719 51.175781 L 21.613281 51.113281 L 21.628906 50.800781 L 21.421875 50.773438 L 20.894531 51.117188 L 20.644531 51.171875 Z M 19.863281 50.285156 L 20.160156 50.605469 L 20.691406 50.492188 L 21.253906 50.085938 L 22.316406 50.242188 L 22.300781 50.488281 L 22.976562 50.519531 L 23.035156 50.507812 L 23.28125 49.71875 L 23.175781 48.785156 L 23.363281 48.609375 L 22.957031 47.804688 L 22.484375 47.304688 L 22.910156 46.953125 L 20.890625 44.746094 L 22.6875 45.148438 L 23.671875 45.046875 L 23.925781 44.65625 L 24.527344 44.34375 L 26.160156 44.375 L 26.355469 44.238281 L 26.613281 43.710938 L 26.878906 43.667969 L 27.203125 42.699219 L 27.429688 42.195312 L 27.59375 41.261719 L 27.585938 40.394531 L 28.179688 40.25 L 28.714844 40.4375 L 29.816406 39.523438 L 29.816406 39.234375 L 30.253906 39.035156 L 30.574219 38.492188 L 30.648438 38.089844 L 31.007812 37.847656 L 30.746094 37.492188 L 30.777344 36.664062 L 30.894531 36.398438 L 30.75 36.136719 L 30.410156 36.105469 L 30.0625 35.660156 L 29.734375 35.824219 L 28.574219 35.160156 L 28.425781 33.980469 L 28.28125 34.050781 L 27.785156 34.183594 L 27.179688 34.722656 L 26.082031 34.878906 L 26.050781 34.347656 L 25.605469 34.363281 L 25.453125 33.542969 L 25.25 33.875 L 24.0625 33.980469 L 22.761719 34.289062 L 22.207031 34.140625 L 22.152344 34.058594 L 21.632812 34.101562 L 21.6875 34.945312 L 21.445312 35.578125 L 21.726562 36.359375 L 21.945312 37.535156 L 21.722656 38.160156 L 21.421875 38.085938 L 20.941406 38.292969 L 20.445312 39.789062 L 19.136719 39.234375 L 17.109375 40.347656 L 16.335938 40.546875 L 16.089844 40.734375 L 15.878906 41.523438 L 14.058594 42.277344 L 13.945312 42.546875 L 13.78125 42.605469 L 13.804688 42.625 L 13.929688 43.125 L 13.894531 43.175781 L 13.898438 43.179688 L 14.332031 43.007812 L 14.765625 43.265625 L 15.253906 42.855469 L 16.027344 42.691406 L 19.097656 44.089844 L 17.792969 44.398438 L 16.40625 43.742188 L 15.59375 43.707031 L 15.554688 43.738281 L 15.613281 44.234375 L 16.394531 44.628906 L 17.011719 45.753906 L 16.265625 45.699219 L 16.109375 46.203125 L 15.710938 46.765625 L 17.242188 48.515625 L 17.5 49.292969 L 18.304688 49.832031 L 18.703125 50.007812 L 19.617188 50.53125 Z M 14.609375 48.375 L 13.910156 48.15625 L 13.78125 47.0625 L 15.128906 47.78125 Z M 14.609375 48.375 "/>
</g>
<mask id="mask2">
  <g filter="url(#alpha)">
<rect x="0" y="0" width="85" height="85" style="fill:rgb(0%,0%,0%);fill-opacity:0.74902;stroke:none;"/>
  </g>
</mask>
<clipPath id="clip3">
  <rect x="0" y="0" width="85" height="85"/>
</clipPath>
<g id="surface11" clip-path="url(#clip3)">
<path style=" stroke:none;fill-rule:nonzero;fill:rgb(100%,100%,100%);fill-opacity:1;" d="M 35.527344 26.339844 L 35.265625 26.078125 L 35.527344 25.691406 L 35.621094 25.429688 L 35.171875 24.980469 L 35.097656 24.359375 L 35.453125 23.941406 L 35.453125 23.820312 L 35.109375 23.757812 L 35.1875 23.355469 L 35.234375 23.109375 L 34.753906 22.132812 L 34.351562 21.886719 L 33.71875 21.175781 L 33.410156 20.925781 L 32.558594 21.777344 L 30.886719 22.457031 L 29.960938 22.597656 L 28.785156 23.167969 L 27.980469 23.910156 L 27.546875 24.113281 L 26.925781 25.507812 L 27.066406 25.785156 L 28.070312 25.84375 L 28.414062 26.015625 L 28.164062 26.109375 L 28.257812 26.976562 L 28.519531 27.4375 L 28.195312 27.671875 L 28.226562 27.886719 L 28.582031 28.011719 L 28.707031 29.3125 L 28.722656 29.730469 L 28.785156 30.300781 L 29.742188 30.300781 L 30.269531 31.183594 L 30.71875 31.632812 L 30.886719 32.191406 L 31.613281 31.601562 L 32.1875 31.429688 L 32.558594 31.121094 L 33.117188 31.214844 L 33.71875 30.996094 L 34.167969 30.378906 L 34.648438 30.085938 L 34.414062 29.109375 L 34.585938 28.832031 L 35.035156 28.601562 L 35.265625 27.4375 L 35.714844 27.113281 Z M 35.527344 26.339844 "/>
<path style=" stroke:none;fill-rule:nonzero;fill:rgb(85.098039%,28.235294%,26.27451%);fill-opacity:1;" d="M 30.71875 32.746094 L 30.429688 31.804688 L 29.988281 31.351562 L 29.558594 30.628906 L 28.488281 30.628906 L 28.277344 28.25 L 27.929688 28.132812 L 27.84375 27.519531 L 28.089844 27.34375 L 27.933594 27.007812 L 27.839844 26.160156 L 26.855469 26.101562 L 26.566406 25.515625 L 27.296875 23.867188 L 27.796875 23.636719 L 28.640625 22.875 L 29.910156 22.273438 L 30.800781 22.140625 L 32.375 21.5 L 33.382812 20.488281 L 33.921875 20.917969 L 34.5625 21.632812 L 35.007812 21.902344 L 35.578125 23.0625 L 35.496094 23.496094 L 35.777344 23.546875 L 35.777344 24.0625 L 35.4375 24.464844 L 35.484375 24.828125 L 36 25.34375 L 35.800781 25.875 L 35.6875 26.039062 L 35.828125 26.175781 L 36.085938 27.25 L 35.5625 27.628906 L 35.324219 28.820312 L 34.816406 29.082031 L 34.765625 29.167969 L 35.019531 30.242188 L 34.394531 30.625 L 33.925781 31.273438 L 33.148438 31.550781 L 32.652344 31.46875 L 32.28125 31.746094 L 31.769531 31.894531 Z M 30.527344 30.980469 L 31.003906 31.457031 L 31.058594 31.628906 L 31.519531 31.289062 L 32.03125 31.136719 L 32.464844 30.773438 L 33.085938 30.878906 L 33.511719 30.722656 L 33.996094 30.097656 L 34.273438 29.929688 L 34.066406 29.054688 L 34.355469 28.582031 L 34.742188 28.378906 L 34.96875 27.25 L 35.34375 26.976562 L 35.230469 26.503906 L 34.84375 26.117188 L 35.246094 25.511719 L 34.863281 25.128906 L 34.753906 24.257812 L 34.925781 24.054688 L 34.726562 24.019531 L 34.894531 23.152344 L 34.503906 22.359375 L 34.109375 22.101562 L 33.4375 21.359375 L 32.679688 22.078125 L 30.9375 22.78125 L 30.058594 22.914062 L 28.96875 23.441406 L 28.117188 24.207031 L 27.792969 24.359375 L 27.296875 25.46875 L 28.21875 25.550781 L 29.222656 26.058594 L 28.515625 26.324219 L 28.574219 26.871094 L 28.949219 27.53125 L 28.707031 27.707031 L 28.886719 27.769531 L 29.074219 29.972656 L 29.925781 29.972656 Z M 30.527344 30.980469 "/>
</g>
<mask id="mask3">
  <g filter="url(#alpha)">
<rect x="0" y="0" width="85" height="85" style="fill:rgb(0%,0%,0%);fill-opacity:0.74902;stroke:none;"/>
  </g>
</mask>
<clipPath id="clip4">
  <rect x="0" y="0" width="85" height="85"/>
</clipPath>
<g id="surface14" clip-path="url(#clip4)">
<path style=" stroke:none;fill-rule:nonzero;fill:rgb(100%,100%,100%);fill-opacity:1;" d="M 63.5625 39.832031 L 63.515625 39.707031 L 63.808594 38.996094 L 64.195312 38.765625 L 64.613281 38.703125 L 64.554688 38.128906 L 63.996094 37.804688 L 63.902344 37.480469 L 63.484375 36.832031 L 63.003906 36.476562 L 62.773438 36.503906 L 62.203125 36.195312 L 61.289062 35.390625 L 61.148438 35.4375 L 61.039062 35.996094 L 60.871094 36.058594 L 60.34375 35.609375 L 60.222656 35.699219 L 59.417969 35.699219 L 58.671875 35.222656 L 58.582031 35.3125 L 58.289062 36.085938 L 57.839844 36.132812 L 57.730469 36.414062 L 57.511719 36.445312 L 57.28125 36.800781 L 56.988281 36.832031 L 56.800781 37.480469 L 56.632812 38.222656 L 56.261719 38.410156 L 55.765625 38.253906 L 55.253906 38.515625 L 55.207031 38.855469 L 55.839844 39.027344 L 55.671875 39.738281 L 55.347656 39.800781 L 55.285156 39.894531 L 55.546875 40.125 L 55.546875 40.542969 L 55.964844 40.652344 L 56.246094 41.394531 L 56.027344 41.609375 L 56.089844 41.964844 L 55.90625 42.183594 L 55.949219 42.507812 L 55.703125 42.773438 L 55.640625 43.128906 L 55.253906 43.222656 L 55.101562 43.484375 L 55.253906 43.621094 L 55.019531 43.902344 L 55.101562 44.195312 L 55.457031 44.367188 L 55.671875 44.488281 L 55.949219 44.675781 L 56.027344 44.644531 L 56.089844 44.8125 L 55.519531 45.152344 L 55.519531 45.324219 L 55.734375 45.539062 L 55.640625 45.742188 L 55.90625 45.945312 L 56.027344 46.003906 L 56.089844 46.902344 L 55.839844 47.089844 L 55.890625 47.398438 L 56.136719 47.488281 L 56.199219 47.675781 L 55.734375 47.90625 L 55.703125 48.140625 L 56.324219 48.914062 L 56.507812 48.914062 L 56.769531 49.316406 L 57.097656 49.207031 L 57.449219 48.804688 L 57.871094 48.867188 L 58.023438 49.070312 L 58.671875 48.882812 L 59.800781 47.785156 L 59.773438 47.488281 L 59.867188 47.242188 L 59.972656 46.933594 L 59.957031 46.714844 L 60.59375 45.601562 L 61.289062 45.152344 L 61.457031 44.675781 L 61.335938 43.871094 L 61.457031 43.484375 L 62.710938 42.773438 L 62.882812 42.121094 L 63.5625 41.546875 L 63.625 41.191406 L 64.226562 40.296875 L 64.257812 40.03125 L 64.074219 39.738281 Z M 63.5625 39.832031 "/>
<path style=" stroke:none;fill-rule:nonzero;fill:rgb(85.098039%,28.235294%,26.27451%);fill-opacity:1;" d="M 56.632812 49.707031 L 56.324219 49.242188 L 56.164062 49.242188 L 55.359375 48.234375 L 55.433594 47.695312 L 55.59375 47.613281 L 55.488281 46.945312 L 55.75 46.746094 L 55.703125 46.203125 L 55.234375 45.839844 L 55.34375 45.609375 L 55.191406 45.457031 L 55.191406 44.96875 L 55.515625 44.773438 L 55.296875 44.652344 L 54.820312 44.425781 L 54.660156 43.820312 L 54.800781 43.65625 L 54.679688 43.546875 L 55.042969 42.9375 L 55.355469 42.859375 L 55.394531 42.621094 L 55.605469 42.398438 L 55.558594 42.082031 L 55.742188 41.871094 L 55.675781 41.5 L 55.863281 41.3125 L 55.71875 40.925781 L 55.21875 40.796875 L 55.21875 40.273438 L 54.855469 39.949219 L 55.148438 39.503906 L 55.402344 39.457031 L 55.449219 39.261719 L 54.84375 39.097656 L 54.953125 38.304688 L 55.734375 37.902344 L 56.230469 38.058594 L 56.347656 38 L 56.480469 37.40625 L 56.730469 36.527344 L 57.089844 36.492188 L 57.320312 36.140625 L 57.492188 36.117188 L 57.605469 35.828125 L 58.050781 35.78125 L 58.347656 35.082031 L 58.628906 34.804688 L 59.511719 35.375 L 60.148438 35.347656 L 60.355469 35.1875 L 60.792969 35.558594 L 60.863281 35.1875 L 61.363281 35.019531 L 62.390625 35.925781 L 62.835938 36.167969 L 63.09375 36.132812 L 63.761719 36.652344 L 64.214844 37.390625 L 64.273438 37.589844 L 64.859375 37.929688 L 64.972656 38.980469 L 64.308594 39.078125 L 64.070312 39.222656 L 63.988281 39.421875 L 64.230469 39.378906 L 64.597656 39.957031 L 64.542969 40.414062 L 63.933594 41.316406 L 63.863281 41.722656 L 63.171875 42.304688 L 62.992188 42.988281 L 61.730469 43.703125 L 61.667969 43.898438 L 61.792969 44.707031 L 61.558594 45.367188 L 60.835938 45.832031 L 60.292969 46.792969 L 60.304688 46.976562 L 60.105469 47.53125 L 60.144531 47.910156 L 58.84375 49.175781 L 57.898438 49.445312 L 57.691406 49.171875 L 57.578125 49.15625 L 57.285156 49.492188 Z M 56.480469 48.585938 L 56.683594 48.585938 L 56.90625 48.925781 L 56.910156 48.925781 L 57.324219 48.457031 L 58.050781 48.5625 L 58.148438 48.691406 L 58.503906 48.589844 L 59.460938 47.660156 L 59.4375 47.445312 L 59.640625 46.886719 L 59.625 46.640625 L 60.347656 45.371094 L 61.015625 44.941406 L 61.121094 44.644531 L 61 43.84375 L 61.183594 43.261719 L 62.429688 42.558594 L 62.589844 41.941406 L 63.257812 41.375 L 63.351562 41.011719 L 63.917969 40.109375 L 63.914062 40.101562 L 63.351562 40.203125 L 63.164062 39.703125 L 63.546875 38.773438 L 64.148438 38.441406 L 64.253906 38.425781 L 64.242188 38.328125 L 63.714844 38.023438 L 63.597656 37.617188 L 63.242188 37.058594 L 62.914062 36.816406 L 62.710938 36.84375 L 61.984375 36.445312 L 61.386719 35.917969 L 61.324219 36.238281 L 60.800781 36.429688 L 60.328125 36.027344 L 59.316406 36.027344 L 58.789062 35.6875 L 58.519531 36.394531 L 58.066406 36.441406 L 57.964844 36.710938 L 57.703125 36.75 L 57.464844 37.109375 L 57.238281 37.132812 L 57.113281 37.570312 L 56.914062 38.449219 L 56.285156 38.761719 L 55.792969 38.605469 L 55.703125 38.652344 L 56.230469 38.796875 L 55.941406 40.023438 L 55.871094 40.035156 L 55.871094 40.292969 L 56.210938 40.378906 L 56.621094 41.480469 L 56.378906 41.722656 L 56.4375 42.0625 L 56.246094 42.285156 L 56.292969 42.621094 L 56.003906 42.925781 L 55.925781 43.398438 L 55.582031 43.480469 L 55.707031 43.59375 L 55.386719 43.972656 L 55.984375 44.308594 L 56.214844 44.214844 L 56.488281 44.957031 L 55.9375 45.285156 L 56.125 45.472656 L 56.046875 45.644531 L 56.167969 45.710938 L 56.339844 45.792969 L 56.425781 47.058594 L 56.253906 47.1875 L 56.394531 47.238281 L 56.597656 47.84375 L 56.085938 48.097656 Z M 56.480469 48.585938 "/>
</g>
<mask id="mask4">
  <g filter="url(#alpha)">
<rect x="0" y="0" width="85" height="85" style="fill:rgb(0%,0%,0%);fill-opacity:0.501961;stroke:none;"/>
  </g>
</mask>
<clipPath id="clip5">
  <rect x="0" y="0" width="85" height="85"/>
</clipPath>
<g id="surface17" clip-path="url(#clip5)">
<path style=" stroke:none;fill-rule:nonzero;fill:rgb(100%,100%,100%);fill-opacity:1;" d="M 55.890625 47.398438 L 55.839844 47.089844 L 56.089844 46.902344 L 56.027344 46.003906 L 55.90625 45.945312 L 55.640625 45.742188 L 55.734375 45.539062 L 55.519531 45.324219 L 55.519531 45.152344 L 56.089844 44.8125 L 56.027344 44.644531 L 55.949219 44.675781 L 55.671875 44.488281 L 55.457031 44.367188 L 55.101562 44.195312 L 55.019531 43.902344 L 55.253906 43.621094 L 55.101562 43.484375 L 55.253906 43.222656 L 55.640625 43.128906 L 55.703125 42.773438 L 55.949219 42.507812 L 55.90625 42.183594 L 56.089844 41.964844 L 56.027344 41.609375 L 56.246094 41.394531 L 55.964844 40.652344 L 55.546875 40.542969 L 55.546875 40.125 L 55.285156 39.894531 L 55.347656 39.800781 L 55.671875 39.738281 L 55.839844 39.027344 L 55.207031 38.855469 L 54.757812 39.152344 L 54.464844 38.855469 L 54.21875 38.734375 L 54.03125 38.855469 L 53.675781 38.734375 L 53.414062 38.578125 L 53.539062 38.316406 L 53.382812 38.253906 L 53.210938 38.363281 L 52.996094 38.363281 L 53.027344 38.023438 L 52.734375 37.773438 L 52.996094 37.433594 L 52.316406 36.707031 L 52.113281 36.132812 L 51.433594 35.964844 L 51.125 36.179688 L 50.691406 36.085938 L 50.597656 36.257812 L 50.828125 36.582031 L 50.644531 36.691406 L 49.453125 36.582031 L 49.21875 36.859375 L 48.835938 36.738281 L 48.523438 36.9375 L 48.027344 37.09375 L 47.441406 36.921875 L 46.667969 35.902344 L 45.863281 35.253906 L 45.738281 34.570312 L 45.058594 33.796875 L 44.410156 33.660156 L 43.46875 33.765625 L 42.523438 34.308594 L 42.523438 34.988281 L 42.242188 35.253906 L 42.074219 35.578125 L 42.523438 35.730469 L 42.832031 36.027344 L 43.078125 37.03125 L 42.539062 37.867188 L 42.722656 38.175781 L 42.523438 38.609375 L 42.398438 38.578125 L 41.886719 38.703125 L 41.78125 38.933594 L 42.660156 40.09375 L 42.011719 40.449219 L 42.074219 40.652344 L 42.273438 41.039062 L 42.179688 41.964844 L 42.722656 42.679688 L 43.21875 44.90625 L 43.339844 46.003906 L 43.339844 46.578125 L 44.175781 47.132812 L 44.65625 46.871094 L 45.042969 47.089844 L 45.335938 46.902344 L 45.695312 47.257812 L 45.894531 47.132812 L 46.484375 46.578125 L 47.054688 47.398438 L 47.472656 48.078125 L 48.339844 48.527344 L 48.480469 49.546875 L 48.246094 49.996094 L 48.339844 50.304688 L 48.308594 50.523438 L 48.570312 50.617188 L 48.757812 50.90625 L 49.3125 50.691406 L 50.054688 50.738281 L 50.242188 50.9375 L 50.921875 50.304688 L 50.859375 50.105469 L 50.769531 49.78125 L 51 49.546875 L 51.371094 49.84375 L 51.511719 49.546875 L 51.726562 49.5 L 51.835938 49.71875 L 51.992188 49.75 L 52.128906 49.363281 L 52.484375 49.421875 L 52.609375 49.609375 L 52.546875 49.75 L 52.703125 49.949219 L 52.671875 50.136719 L 52.980469 50.523438 L 53.800781 47.769531 L 54.714844 47.582031 L 54.804688 47.523438 L 55.703125 48.140625 L 55.734375 47.90625 L 56.199219 47.675781 L 56.136719 47.488281 Z M 55.890625 47.398438 "/>
<path style=" stroke:none;fill-rule:nonzero;fill:rgb(85.098039%,28.235294%,26.27451%);fill-opacity:1;" d="M 50.226562 51.402344 L 49.90625 51.058594 L 49.363281 51.023438 L 48.625 51.308594 L 48.355469 50.886719 L 47.945312 50.742188 L 48.007812 50.328125 L 47.894531 49.964844 L 48.140625 49.488281 L 48.039062 48.738281 L 47.242188 48.324219 L 46.777344 47.566406 L 46.429688 47.074219 L 46.066406 47.410156 L 45.644531 47.671875 L 45.289062 47.316406 L 45.050781 47.46875 L 44.65625 47.242188 L 44.160156 47.515625 L 43.015625 46.75 L 43.015625 46.003906 L 42.890625 44.941406 L 42.417969 42.816406 L 41.84375 42.0625 L 41.9375 41.101562 L 41.78125 40.800781 L 41.621094 40.292969 L 42.171875 39.988281 L 41.398438 38.972656 L 41.65625 38.421875 L 42.324219 38.257812 L 42.351562 38.195312 L 42.152344 37.859375 L 42.726562 36.972656 L 42.535156 36.195312 L 42.347656 36.015625 L 41.605469 35.761719 L 42.019531 35.015625 L 42.195312 34.847656 L 42.195312 34.117188 L 43.429688 33.441406 L 44.425781 33.328125 L 45.234375 33.5 L 46.042969 34.421875 L 46.164062 35.074219 L 46.925781 35.703125 L 47.636719 36.636719 L 48.023438 36.75 L 48.382812 36.640625 L 48.785156 36.378906 L 49.109375 36.480469 L 49.3125 36.238281 L 50.246094 36.324219 L 50.210938 36.28125 L 50.519531 35.714844 L 51.050781 35.832031 L 51.367188 35.609375 L 52.363281 35.859375 L 52.597656 36.53125 L 53.421875 37.410156 L 53.183594 37.722656 L 53.367188 37.878906 L 53.363281 37.894531 L 53.980469 38.140625 L 53.835938 38.449219 L 53.839844 38.449219 L 53.980469 38.496094 L 54.191406 38.355469 L 54.695312 38.625 L 54.800781 38.730469 L 55.148438 38.5 L 56.230469 38.792969 L 55.941406 40.019531 L 55.875 40.03125 L 55.875 40.289062 L 56.210938 40.378906 L 56.625 41.476562 L 56.378906 41.722656 L 56.4375 42.0625 L 56.246094 42.285156 L 56.292969 42.617188 L 56.007812 42.921875 L 55.925781 43.394531 L 55.582031 43.476562 L 55.707031 43.589844 L 55.386719 43.972656 L 55.988281 44.304688 L 56.21875 44.214844 L 56.488281 44.953125 L 55.9375 45.28125 L 56.125 45.46875 L 56.046875 45.640625 L 56.167969 45.710938 L 56.339844 45.792969 L 56.425781 47.058594 L 56.253906 47.183594 L 56.394531 47.238281 L 56.597656 47.839844 L 56.035156 48.125 L 55.953125 48.707031 L 54.78125 47.902344 L 54.058594 48.050781 L 53.113281 51.214844 L 52.324219 50.222656 L 52.355469 50.035156 L 52.273438 49.929688 L 52.203125 50.125 L 51.648438 50.015625 L 51.488281 50.351562 L 51.210938 50.132812 L 51.296875 50.40625 Z M 48.671875 50.304688 L 48.789062 50.34375 L 48.890625 50.503906 L 49.261719 50.359375 L 50.207031 50.421875 L 50.257812 50.476562 L 50.550781 50.207031 L 50.398438 49.683594 L 50.972656 49.109375 L 51.25 49.332031 L 51.285156 49.261719 L 51.863281 49.136719 L 51.914062 48.996094 L 52.679688 49.125 L 52.9375 49.515625 L 53.542969 47.484375 L 54.625 47.25 L 54.808594 47.125 L 55.546875 47.636719 L 55.59375 47.613281 L 55.488281 46.945312 L 55.75 46.746094 L 55.703125 46.203125 L 55.234375 45.839844 L 55.339844 45.609375 L 55.191406 45.457031 L 55.191406 44.96875 L 55.511719 44.773438 L 55.292969 44.652344 L 54.820312 44.425781 L 54.660156 43.820312 L 54.800781 43.65625 L 54.679688 43.546875 L 55.042969 42.9375 L 55.355469 42.859375 L 55.394531 42.621094 L 55.601562 42.398438 L 55.558594 42.082031 L 55.742188 41.871094 L 55.675781 41.5 L 55.863281 41.3125 L 55.71875 40.925781 L 55.21875 40.796875 L 55.21875 40.273438 L 54.855469 39.949219 L 55.148438 39.503906 L 55.402344 39.457031 L 55.449219 39.261719 L 55.261719 39.210938 L 54.714844 39.570312 L 54.238281 39.109375 L 54.078125 39.21875 L 53.566406 39.042969 L 52.988281 38.707031 L 52.996094 38.6875 L 52.632812 38.6875 L 52.683594 38.160156 L 52.28125 37.820312 L 52.566406 37.453125 L 52.003906 36.816406 L 51.863281 36.40625 L 51.496094 36.316406 L 51.191406 36.53125 L 51.300781 36.683594 L 50.714844 37.023438 L 49.589844 36.921875 L 49.328125 37.238281 L 48.878906 37.09375 L 48.621094 37.25 L 48.03125 37.433594 L 47.246094 37.207031 L 46.429688 36.128906 L 45.5625 35.429688 L 45.433594 34.71875 L 44.882812 34.09375 L 44.390625 33.988281 L 43.570312 34.082031 L 42.847656 34.496094 L 42.847656 35.128906 L 42.5625 35.398438 L 42.746094 35.492188 L 43.121094 35.851562 L 43.429688 37.089844 L 42.921875 37.871094 L 43.089844 38.15625 L 42.703125 38.992188 L 42.394531 38.914062 L 42.207031 38.960938 L 43.148438 40.199219 L 42.410156 40.605469 L 42.605469 40.972656 L 42.515625 41.871094 L 43.039062 42.605469 L 43.535156 44.835938 L 43.664062 45.964844 L 43.664062 46.402344 L 44.191406 46.75 L 44.65625 46.496094 L 45.03125 46.707031 L 45.382812 46.484375 L 45.730469 46.835938 L 46.53125 46.078125 L 47.320312 47.207031 L 47.699219 47.828125 L 48.636719 48.3125 L 48.816406 49.605469 L 48.597656 50.027344 L 48.671875 50.277344 Z M 48.671875 50.304688 "/>
</g>
<mask id="mask5">
  <g filter="url(#alpha)">
<rect x="0" y="0" width="85" height="85" style="fill:rgb(0%,0%,0%);fill-opacity:0.501961;stroke:none;"/>
  </g>
</mask>
<clipPath id="clip6">
  <rect x="0" y="0" width="85" height="85"/>
</clipPath>
<g id="surface20" clip-path="url(#clip6)">
<path style=" stroke:none;fill-rule:nonzero;fill:rgb(100%,100%,100%);fill-opacity:1;" d="M 40.914062 54.761719 L 40.664062 54.652344 L 40.542969 53.957031 L 40.789062 53.648438 L 41.113281 53.136719 L 41.035156 52.101562 L 40.992188 51.726562 L 40.941406 51.4375 L 40.542969 50.738281 L 39.921875 50.289062 L 39.304688 49.484375 L 38.746094 49.484375 L 38.019531 49.609375 L 36.984375 49.484375 L 36.597656 49.253906 L 36.488281 49.332031 L 36.457031 49.6875 L 35.976562 49.8125 L 35.621094 49.5625 L 35.203125 49.65625 L 34.753906 50.246094 L 33.550781 50.105469 L 32.820312 50.304688 L 32.527344 50.90625 L 31.941406 50.816406 L 31.613281 51.496094 L 31.585938 52.132812 L 31.585938 52.425781 L 32.03125 53.03125 L 32.125 53.367188 L 32 53.617188 L 31.675781 53.648438 L 31.585938 54.589844 L 30.949219 54.949219 L 30.65625 55.425781 L 31.382812 55.8125 L 31.320312 55.875 L 31.460938 56.433594 L 31.628906 56.492188 L 32.0625 56.136719 L 32.773438 56.136719 L 33.117188 56.617188 L 33.394531 56.617188 L 33.5625 56.742188 L 33.550781 56.972656 L 33.550781 57.207031 L 33.980469 57.378906 L 34.367188 57.980469 L 34.074219 58.910156 L 34.074219 59.15625 L 34.351562 59.433594 L 34.367188 59.648438 L 34.429688 59.710938 L 34.972656 59.757812 L 34.972656 60.003906 L 35.390625 60.703125 L 36.238281 60.59375 L 36.984375 61.242188 L 38.53125 60.824219 L 38.980469 60.625 L 39.039062 60.082031 L 39.367188 59.558594 L 39.613281 58.691406 L 40.25 57.855469 L 40.199219 57.378906 L 40.292969 57.332031 L 40.585938 57.53125 L 40.757812 57.484375 L 40.882812 57.171875 L 40.941406 56.679688 L 40.992188 56.292969 L 40.757812 55.566406 L 41.035156 55.273438 Z M 40.914062 54.761719 "/>
<path style=" stroke:none;fill-rule:nonzero;fill:rgb(85.098039%,28.235294%,26.27451%);fill-opacity:1;" d="M 36.898438 61.605469 L 36.136719 60.9375 L 35.21875 61.054688 L 34.644531 60.058594 L 34.28125 60.027344 L 34.050781 59.792969 L 34.035156 59.578125 L 33.746094 59.292969 L 33.761719 58.8125 L 34.011719 58.027344 L 33.761719 57.644531 L 33.222656 57.429688 L 33.222656 56.945312 L 32.945312 56.945312 L 32.605469 56.46875 L 32.179688 56.46875 L 31.691406 56.867188 L 31.1875 56.683594 L 31.011719 55.988281 L 30.195312 55.554688 L 30.714844 54.707031 L 31.273438 54.390625 L 31.375 53.347656 L 31.769531 53.3125 L 31.730469 53.175781 L 31.253906 52.535156 L 31.316406 51.359375 L 31.746094 50.457031 L 32.335938 50.550781 L 32.589844 50.03125 L 33.519531 49.773438 L 34.605469 49.898438 L 35.015625 49.363281 L 35.6875 49.214844 L 36.039062 49.457031 L 36.148438 49.429688 L 36.175781 49.152344 L 36.578125 48.863281 L 37.089844 49.171875 L 38.007812 49.28125 L 38.6875 49.164062 L 39.460938 49.160156 L 40.148438 50.054688 L 40.820312 50.578125 L 41.261719 51.386719 L 41.359375 52.0625 L 41.445312 53.222656 L 40.886719 54.046875 L 40.953125 54.425781 L 41.191406 54.527344 L 41.394531 55.367188 L 41.128906 55.652344 L 41.324219 56.261719 L 41.1875 57.292969 L 41.003906 57.757812 L 40.578125 57.875 L 40.585938 57.953125 L 39.910156 58.839844 L 39.644531 59.730469 L 39.359375 60.195312 L 39.285156 60.847656 L 38.664062 61.125 Z M 36.34375 60.25 L 37.066406 60.882812 L 38.445312 60.511719 L 38.675781 60.40625 L 38.761719 59.910156 L 39.0625 59.425781 L 39.351562 58.492188 L 39.910156 57.757812 L 39.855469 57.183594 L 40.320312 56.953125 L 40.554688 57.113281 L 40.5625 57.09375 L 40.65625 56.324219 L 40.386719 55.484375 L 40.675781 55.175781 L 40.632812 54.996094 L 40.371094 54.882812 L 40.191406 53.871094 L 40.535156 53.445312 L 40.78125 53.054688 L 40.628906 51.546875 L 40.292969 50.960938 L 39.664062 50.488281 L 39.144531 49.8125 L 38.746094 49.8125 L 38.027344 49.941406 L 36.78125 49.746094 L 36.761719 49.945312 L 35.914062 50.164062 L 35.550781 49.914062 L 35.390625 49.949219 L 34.902344 50.589844 L 33.574219 50.4375 L 33.050781 50.582031 L 32.714844 51.269531 L 32.128906 51.175781 L 31.9375 51.578125 L 31.910156 52.148438 L 31.910156 52.316406 L 32.347656 52.941406 L 32.472656 53.402344 L 32.210938 53.925781 L 31.972656 53.945312 L 31.890625 54.792969 L 31.183594 55.191406 L 31.113281 55.300781 L 31.925781 55.730469 L 31.679688 55.972656 L 31.691406 56.019531 L 31.945312 55.8125 L 32.941406 55.8125 L 33.28125 56.289062 L 33.5 56.289062 L 33.898438 56.582031 L 33.875 56.984375 L 34.199219 57.109375 L 34.726562 57.929688 L 34.398438 59.019531 L 34.667969 59.285156 L 34.679688 59.402344 L 35.296875 59.457031 L 35.296875 59.914062 L 35.558594 60.351562 Z M 36.34375 60.25 "/>
</g>
<mask id="mask6">
  <g filter="url(#alpha)">
<rect x="0" y="0" width="85" height="85" style="fill:rgb(0%,0%,0%);fill-opacity:0.34902;stroke:none;"/>
  </g>
</mask>
<clipPath id="clip7">
  <rect x="0" y="0" width="85" height="85"/>
</clipPath>
<g id="surface23" clip-path="url(#clip7)">
<path style=" stroke:none;fill-rule:nonzero;fill:rgb(100%,100%,100%);fill-opacity:1;" d="M 43.21875 44.90625 L 42.722656 42.679688 L 42.179688 41.964844 L 42.273438 41.039062 L 42.074219 40.652344 L 42.011719 40.449219 L 42.660156 40.09375 L 41.78125 38.933594 L 41.886719 38.703125 L 42.398438 38.578125 L 42.523438 38.609375 L 42.722656 38.175781 L 42.539062 37.867188 L 43.078125 37.03125 L 42.832031 36.027344 L 42.523438 35.730469 L 42.074219 35.578125 L 41.855469 35.578125 L 41.40625 35.792969 L 41.113281 35.546875 L 40.851562 35.640625 L 40.726562 35.996094 L 40.015625 35.996094 L 39.660156 35.902344 L 39.691406 35.839844 L 40.015625 35.453125 L 39.273438 34.464844 L 38.5 34.507812 L 37.324219 34.957031 L 37.105469 35.019531 L 37.078125 34.757812 L 36.875 33.890625 L 36.085938 33.320312 L 35.171875 31.800781 L 34.648438 30.085938 L 34.167969 30.378906 L 33.71875 30.996094 L 33.117188 31.214844 L 32.558594 31.121094 L 32.1875 31.429688 L 31.613281 31.601562 L 30.886719 32.191406 L 31.492188 32.992188 L 31.675781 33.828125 L 31.585938 34.152344 L 31.136719 34.480469 L 30.703125 34.804688 L 30.949219 35.824219 L 31.257812 36.382812 L 31.074219 36.800781 L 31.074219 37.386719 L 31.382812 37.804688 L 31.335938 38.023438 L 30.949219 38.285156 L 30.886719 38.609375 L 30.484375 39.289062 L 30.144531 39.445312 L 30.144531 39.675781 L 28.785156 40.804688 L 28.164062 40.589844 L 27.917969 40.652344 L 27.917969 41.316406 L 27.746094 42.292969 L 27.515625 42.800781 L 27.128906 43.960938 L 27.421875 44.304688 L 28.488281 44.859375 L 28.722656 45.773438 L 28.84375 45.773438 L 29.914062 45.492188 L 29.960938 45.355469 L 30.144531 45.234375 L 30.421875 45.417969 L 30.886719 46.160156 L 31.878906 47.273438 L 31.847656 48.324219 L 32.804688 48.914062 L 33.488281 49.6875 L 33.550781 50.105469 L 34.753906 50.246094 L 35.203125 49.65625 L 35.621094 49.5625 L 35.976562 49.8125 L 36.457031 49.6875 L 36.488281 49.332031 L 36.597656 49.253906 L 36.984375 49.484375 L 38.019531 49.609375 L 38.746094 49.484375 L 39.304688 49.484375 L 39.800781 48.804688 L 40.882812 48.511719 L 41.050781 48.203125 L 41.097656 47.335938 L 41.332031 47.039062 L 41.980469 46.808594 L 42.597656 46.300781 L 43.078125 46.191406 L 43.339844 46.28125 L 43.339844 46.003906 Z M 43.21875 44.90625 "/>
<path style=" stroke:none;fill-rule:nonzero;fill:rgb(85.098039%,28.235294%,26.27451%);fill-opacity:1;" d="M 34.902344 50.589844 L 33.265625 50.402344 L 33.179688 49.832031 L 32.59375 49.164062 L 31.515625 48.503906 L 31.546875 47.394531 L 30.644531 46.375 L 30.199219 45.671875 L 30.167969 45.765625 L 28.722656 46.097656 L 28.46875 46.097656 L 28.207031 45.082031 L 27.175781 44.515625 L 26.761719 44.035156 L 27.207031 42.699219 L 27.433594 42.195312 L 27.59375 41.261719 L 27.589844 40.398438 L 28.179688 40.25 L 28.71875 40.4375 L 29.816406 39.523438 L 29.816406 39.234375 L 30.257812 39.035156 L 30.578125 38.492188 L 30.652344 38.089844 L 31.007812 37.847656 L 30.746094 37.496094 L 30.773438 36.667969 L 30.894531 36.398438 L 30.632812 35.902344 L 30.335938 34.671875 L 31.300781 33.953125 L 31.339844 33.816406 L 31.1875 33.132812 L 30.4375 32.132812 L 31.523438 31.285156 L 32.03125 31.136719 L 32.464844 30.773438 L 33.085938 30.875 L 33.515625 30.722656 L 34 30.097656 L 34.839844 29.585938 L 35.472656 31.667969 L 36.332031 33.09375 L 37.167969 33.695312 L 37.375 34.589844 L 38.480469 34.183594 L 39.429688 34.125 L 40.433594 35.464844 L 40.265625 35.667969 L 40.496094 35.667969 L 40.59375 35.382812 L 41.183594 35.175781 L 41.457031 35.40625 L 41.855469 35.25 L 42.179688 35.265625 L 42.75 35.492188 L 43.125 35.855469 L 43.433594 37.089844 L 42.921875 37.875 L 43.09375 38.15625 L 42.707031 38.992188 L 42.398438 38.914062 L 42.210938 38.960938 L 43.152344 40.199219 L 42.414062 40.605469 L 42.609375 40.972656 L 42.519531 41.871094 L 43.042969 42.605469 L 43.539062 44.835938 L 43.667969 45.96875 L 43.667969 46.746094 L 43.058594 46.53125 L 42.746094 46.601562 L 42.089844 47.113281 L 41.53125 47.316406 L 41.417969 47.457031 L 41.339844 48.359375 L 41.101562 48.789062 L 39.996094 49.089844 L 39.46875 49.8125 L 38.746094 49.8125 L 38.027344 49.941406 L 36.78125 49.746094 L 36.761719 49.945312 L 35.914062 50.164062 L 35.550781 49.914062 L 35.390625 49.949219 Z M 33.835938 49.808594 L 34.609375 49.898438 L 35.015625 49.363281 L 35.691406 49.214844 L 36.039062 49.457031 L 36.152344 49.429688 L 36.175781 49.152344 L 36.582031 48.863281 L 37.089844 49.167969 L 38.011719 49.28125 L 38.691406 49.164062 L 39.136719 49.160156 L 39.601562 48.519531 L 40.660156 48.234375 L 40.730469 48.109375 L 40.777344 47.214844 L 41.132812 46.765625 L 41.816406 46.519531 L 42.453125 46 L 43 45.875 L 42.894531 44.945312 L 42.417969 42.820312 L 41.84375 42.0625 L 41.941406 41.105469 L 41.785156 40.804688 L 41.621094 40.292969 L 42.171875 39.992188 L 41.398438 38.976562 L 41.660156 38.425781 L 42.324219 38.261719 L 42.355469 38.199219 L 42.152344 37.863281 L 42.726562 36.976562 L 42.535156 36.199219 L 42.347656 36.019531 L 41.929688 35.90625 L 41.359375 36.183594 L 41.085938 35.953125 L 40.960938 36.324219 L 39.933594 36.3125 L 39.191406 36.121094 L 39.441406 35.632812 L 39.597656 35.445312 L 39.117188 34.804688 L 38.570312 34.835938 L 36.828125 35.445312 L 36.75 34.796875 L 36.585938 34.085938 L 35.804688 33.488281 L 34.859375 31.898438 L 34.457031 30.585938 L 34.394531 30.625 L 33.921875 31.273438 L 33.144531 31.550781 L 32.652344 31.472656 L 32.28125 31.746094 L 31.769531 31.894531 L 31.339844 32.246094 L 31.8125 32.921875 L 32.011719 33.839844 L 31.867188 34.351562 L 31.070312 34.9375 L 31.253906 35.707031 L 31.625 36.367188 L 31.398438 36.871094 L 31.398438 37.28125 L 31.734375 37.726562 L 31.628906 38.21875 L 31.242188 38.480469 L 31.167969 38.777344 L 30.714844 39.546875 L 30.46875 39.675781 L 30.46875 39.832031 L 28.851562 41.175781 L 28.242188 40.964844 L 28.242188 41.316406 L 28.042969 42.425781 L 27.8125 42.9375 L 27.496094 43.890625 L 27.628906 44.042969 L 28.769531 44.636719 L 28.964844 45.402344 L 29.65625 45.222656 L 29.683594 45.144531 L 30.144531 44.839844 L 30.699219 45.242188 L 31.164062 45.988281 L 32.207031 47.152344 L 32.179688 48.144531 L 33.050781 48.699219 L 33.792969 49.542969 Z M 33.835938 49.808594 "/>
</g>
<mask id="mask7">
  <g filter="url(#alpha)">
<rect x="0" y="0" width="85" height="85" style="fill:rgb(0%,0%,0%);fill-opacity:0.74902;stroke:none;"/>
  </g>
</mask>
<clipPath id="clip8">
  <rect x="0" y="0" width="85" height="85"/>
</clipPath>
<g id="surface26" clip-path="url(#clip8)">
<path style=" stroke:none;fill-rule:nonzero;fill:rgb(100%,100%,100%);fill-opacity:1;" d="M 51.957031 58.011719 L 51.511719 57.855469 L 51.308594 57.5625 L 51.246094 57.050781 L 49.964844 56.851562 L 49.515625 57.207031 L 49.28125 57.171875 L 48.757812 57.171875 L 48.988281 56.292969 L 48.925781 55.953125 L 47.921875 54.882812 L 47.472656 54.203125 L 47.675781 52.984375 L 47.859375 51.914062 L 47.535156 50.753906 L 47.796875 50.367188 L 48.246094 49.996094 L 48.480469 49.546875 L 48.339844 48.527344 L 47.472656 48.078125 L 47.054688 47.398438 L 46.484375 46.578125 L 45.894531 47.132812 L 45.695312 47.257812 L 45.335938 46.902344 L 45.042969 47.089844 L 44.65625 46.871094 L 44.175781 47.132812 L 43.339844 46.578125 L 43.339844 46.28125 L 43.078125 46.191406 L 42.597656 46.300781 L 41.980469 46.808594 L 41.332031 47.039062 L 41.097656 47.335938 L 41.050781 48.203125 L 40.882812 48.511719 L 39.800781 48.804688 L 39.304688 49.484375 L 39.921875 50.289062 L 40.542969 50.738281 L 40.941406 51.4375 L 40.992188 51.726562 L 41.035156 52.101562 L 41.113281 53.136719 L 40.789062 53.648438 L 40.542969 53.957031 L 40.664062 54.652344 L 40.914062 54.761719 L 41.035156 55.273438 L 40.757812 55.566406 L 40.992188 56.292969 L 40.941406 56.679688 L 40.882812 57.171875 L 40.757812 57.484375 L 40.585938 57.53125 L 40.292969 57.332031 L 40.199219 57.378906 L 40.25 57.855469 L 39.613281 58.691406 L 39.367188 59.558594 L 39.039062 60.082031 L 38.980469 60.625 L 38.53125 60.824219 L 38.886719 61.089844 L 38.949219 61.566406 L 39.179688 61.832031 L 39.304688 62.1875 L 39.117188 63.085938 L 39.394531 63.238281 L 39.394531 63.734375 L 39.660156 63.378906 L 40.371094 63.117188 L 40.605469 63.363281 L 40.882812 63.378906 L 41.40625 63.054688 L 41.53125 62.621094 L 41.78125 62.234375 L 41.796875 61.878906 L 42.148438 61.445312 L 42.628906 60.980469 L 42.816406 61.664062 L 43.171875 61.664062 L 43.496094 61.988281 L 43.621094 62.761719 L 43.945312 63.117188 L 44.59375 61.132812 L 44.996094 61.429688 L 45.925781 60.5 L 46.484375 61.753906 L 46.992188 61.382812 L 47.210938 61.074219 L 47.378906 61.042969 L 47.65625 61.089844 L 47.675781 61.242188 L 47.828125 61.339844 L 48.015625 61.242188 L 48.523438 61.753906 L 48.710938 62.1875 L 49.019531 61.988281 L 49.4375 61.339844 L 49.730469 61.273438 L 49.824219 61.074219 L 50.800781 60.332031 L 50.828125 60.113281 L 51.09375 59.960938 L 51.09375 59.789062 L 51.511719 59.464844 L 51.496094 59.28125 Z M 51.957031 58.011719 "/>
<path style=" stroke:none;fill-rule:nonzero;fill:rgb(85.098039%,28.235294%,26.27451%);fill-opacity:1;" d="M 39.070312 64.722656 L 39.070312 63.429688 L 38.75 63.253906 L 38.964844 62.210938 L 38.894531 62 L 38.636719 61.707031 L 38.582031 61.269531 L 37.886719 60.753906 L 38.675781 60.402344 L 38.761719 59.910156 L 39.066406 59.425781 L 39.351562 58.492188 L 39.910156 57.757812 L 39.855469 57.183594 L 40.320312 56.953125 L 40.554688 57.113281 L 40.5625 57.089844 L 40.65625 56.324219 L 40.390625 55.480469 L 40.675781 55.175781 L 40.632812 54.996094 L 40.375 54.878906 L 40.195312 53.867188 L 40.535156 53.441406 L 40.78125 53.054688 L 40.628906 51.546875 L 40.292969 50.960938 L 39.664062 50.488281 L 38.898438 49.488281 L 39.601562 48.519531 L 40.664062 48.230469 L 40.730469 48.109375 L 40.777344 47.214844 L 41.132812 46.765625 L 41.816406 46.519531 L 42.453125 45.996094 L 43.101562 45.851562 L 43.671875 46.050781 L 43.671875 46.402344 L 44.195312 46.75 L 44.660156 46.496094 L 45.035156 46.707031 L 45.386719 46.484375 L 45.734375 46.835938 L 46.535156 46.078125 L 47.324219 47.210938 L 47.703125 47.828125 L 48.644531 48.3125 L 48.820312 49.605469 L 48.457031 50.246094 L 48.042969 50.585938 L 47.894531 50.8125 L 48.195312 51.894531 L 47.816406 54.128906 L 48.195312 54.703125 L 49.234375 55.796875 L 49.324219 56.304688 L 49.183594 56.84375 L 49.421875 56.863281 L 49.875 56.503906 L 51.542969 56.765625 L 51.625 57.441406 L 51.722656 57.578125 L 52.382812 57.808594 L 51.828125 59.320312 L 51.855469 59.609375 L 51.421875 59.957031 L 51.421875 60.144531 L 51.132812 60.3125 L 51.105469 60.507812 L 50.089844 61.28125 L 49.960938 61.558594 L 49.640625 61.625 L 49.199219 62.261719 L 48.566406 62.671875 L 48.25 61.9375 L 47.953125 61.640625 L 47.816406 61.707031 L 47.367188 61.421875 L 47.1875 61.644531 L 46.351562 62.253906 L 45.820312 61.066406 L 45.03125 61.855469 L 44.769531 61.664062 L 44.082031 63.75 L 43.316406 62.90625 L 43.191406 62.140625 L 43.039062 61.988281 L 42.566406 61.988281 L 42.460938 61.597656 L 42.378906 61.679688 L 42.117188 62 L 42.101562 62.335938 L 41.835938 62.753906 L 41.6875 63.265625 L 40.964844 63.707031 L 40.457031 63.679688 L 40.28125 63.496094 L 39.863281 63.652344 Z M 40.753906 63.042969 L 40.796875 63.046875 L 41.128906 62.84375 L 41.257812 62.445312 L 41.457031 62.132812 L 41.472656 61.753906 L 41.898438 61.238281 L 42.800781 60.359375 L 43.0625 61.335938 L 43.308594 61.335938 L 43.800781 61.832031 L 43.875 62.28125 L 44.421875 60.605469 L 44.964844 61 L 46.03125 59.933594 L 46.617188 61.25 L 46.757812 61.148438 L 47.015625 60.777344 L 47.375 60.710938 L 47.957031 60.808594 L 47.964844 60.902344 L 48.078125 60.84375 L 48.839844 61.660156 L 49.234375 61.046875 L 49.503906 60.988281 L 49.5625 60.863281 L 50.492188 60.152344 L 50.527344 59.914062 L 50.765625 59.773438 L 50.765625 59.628906 L 51.167969 59.316406 L 51.164062 59.234375 L 51.535156 58.210938 L 51.300781 58.128906 L 50.992188 57.679688 L 50.953125 57.335938 L 50.054688 57.195312 L 49.605469 57.550781 L 49.234375 57.496094 L 48.332031 57.5 L 48.652344 56.28125 L 48.621094 56.105469 L 47.683594 55.109375 L 47.128906 54.277344 L 47.523438 51.933594 L 47.179688 50.699219 L 47.589844 50.113281 L 47.984375 49.789062 L 48.140625 49.488281 L 48.039062 48.738281 L 47.238281 48.328125 L 46.773438 47.570312 L 46.429688 47.078125 L 46.066406 47.414062 L 45.644531 47.671875 L 45.289062 47.320312 L 45.050781 47.46875 L 44.652344 47.246094 L 44.160156 47.515625 L 43.011719 46.753906 L 43.011719 46.539062 L 42.746094 46.601562 L 42.089844 47.117188 L 41.527344 47.316406 L 41.417969 47.457031 L 41.335938 48.359375 L 41.101562 48.789062 L 39.996094 49.089844 L 39.710938 49.480469 L 40.152344 50.054688 L 40.824219 50.578125 L 41.265625 51.382812 L 41.359375 52.058594 L 41.449219 53.222656 L 40.890625 54.046875 L 40.957031 54.421875 L 41.191406 54.527344 L 41.394531 55.367188 L 41.128906 55.652344 L 41.324219 56.261719 L 41.1875 57.292969 L 41.003906 57.757812 L 40.578125 57.875 L 40.585938 57.953125 L 39.910156 58.839844 L 39.644531 59.730469 L 39.359375 60.195312 L 39.285156 60.847656 L 39.175781 60.898438 L 39.195312 60.910156 L 39.261719 61.425781 L 39.492188 61.722656 L 39.644531 62.164062 L 39.488281 62.914062 L 39.683594 63.023438 L 40.464844 62.734375 Z M 40.753906 63.042969 "/>
</g>
<mask id="mask8">
  <g filter="url(#alpha)">
<rect x="0" y="0" width="85" height="85" style="fill:rgb(0%,0%,0%);fill-opacity:0.501961;stroke:none;"/>
  </g>
</mask>
<clipPath id="clip9">
  <rect x="0" y="0" width="85" height="85"/>
</clipPath>
<g id="surface29" clip-path="url(#clip9)">
<path style=" stroke:none;fill-rule:nonzero;fill:rgb(100%,100%,100%);fill-opacity:1;" d="M 47.796875 22.8125 L 47.78125 22.179688 L 48.027344 21.917969 L 48 20.785156 L 47.347656 20.726562 L 46.730469 20.847656 L 46.699219 20.753906 L 46.851562 20.601562 L 46.636719 20.398438 L 46.019531 20.910156 L 45.183594 20.308594 L 44.703125 20.585938 L 44.441406 20.429688 L 44.253906 20.585938 L 44.238281 20.847656 L 42.429688 20.910156 L 42.210938 20.648438 L 41.238281 20.695312 L 40.820312 21.113281 L 40.664062 20.539062 L 40.355469 20.371094 L 39.011719 20.074219 L 38.683594 20.292969 L 38.53125 20.199219 L 38.5 20.042969 L 38.886719 19.65625 L 38.652344 19.394531 L 37.820312 19.457031 L 37.078125 19.78125 L 36.890625 19.65625 L 36.8125 19.117188 L 35.46875 18.589844 L 34.492188 18.652344 L 34.308594 18.761719 L 34.230469 19.164062 L 35.003906 19.980469 L 35.003906 20.105469 L 34.910156 20.136719 L 34.199219 19.90625 L 33.71875 20.601562 L 33.410156 20.925781 L 33.71875 21.175781 L 34.351562 21.886719 L 34.753906 22.132812 L 35.234375 23.109375 L 35.1875 23.355469 L 35.109375 23.757812 L 35.453125 23.820312 L 35.453125 23.941406 L 35.097656 24.359375 L 35.171875 24.980469 L 35.621094 25.429688 L 35.527344 25.691406 L 35.265625 26.078125 L 35.527344 26.339844 L 35.714844 27.113281 L 35.265625 27.4375 L 35.902344 28.011719 L 36.78125 27.78125 L 37.199219 27.53125 L 37.941406 27.796875 L 38.128906 27.949219 L 38.5625 27.671875 L 39.457031 28.304688 L 39.859375 28.398438 L 40.046875 28.246094 L 40.109375 28.179688 L 40.464844 28.539062 L 40.851562 28.210938 L 42.242188 28.367188 L 42.476562 28.210938 L 42.988281 28.460938 L 43.792969 29.496094 L 44.625 29.761719 L 45.367188 28.628906 L 45.304688 28.523438 L 44.996094 28.570312 L 44.886719 28.460938 L 44.917969 28.246094 L 45.121094 28.027344 L 44.980469 27.65625 L 45.304688 27.5625 L 45.554688 27.59375 L 45.695312 27.410156 L 45.214844 27.113281 L 45.273438 26.246094 L 46.171875 25.863281 L 46.234375 25.691406 L 46.914062 25.722656 L 47.117188 25.398438 L 47.347656 25.304688 L 47.410156 24.886719 L 47.175781 24.53125 L 47.175781 24.375 L 47.054688 24.082031 L 47.226562 23.433594 Z M 47.796875 22.8125 "/>
<path style=" stroke:none;fill-rule:nonzero;fill:rgb(85.098039%,28.235294%,26.27451%);fill-opacity:1;" d="M 44.761719 30.144531 L 43.597656 29.777344 L 42.773438 28.722656 L 42.5 28.589844 L 42.324219 28.707031 L 40.953125 28.554688 L 40.445312 28.980469 L 40.09375 28.628906 L 39.945312 28.753906 L 39.269531 28.574219 L 38.550781 28.066406 L 38.101562 28.355469 L 37.777344 28.082031 L 37.234375 27.890625 L 36.863281 28.097656 L 35.8125 28.371094 L 34.746094 27.410156 L 35.34375 26.976562 L 35.234375 26.507812 L 34.84375 26.117188 L 35.246094 25.515625 L 34.863281 25.132812 L 34.753906 24.257812 L 34.925781 24.058594 L 34.726562 24.023438 L 34.894531 23.15625 L 34.503906 22.363281 L 34.109375 22.105469 L 33.476562 21.390625 L 32.925781 20.960938 L 33.480469 20.375 L 34.066406 19.519531 L 34.136719 19.542969 L 33.878906 19.265625 L 34.015625 18.554688 L 34.394531 18.332031 L 35.519531 18.261719 L 37.109375 18.882812 L 37.179688 19.378906 L 37.796875 19.128906 L 38.792969 19.058594 L 39.335938 19.671875 L 39.21875 19.785156 L 40.515625 20.082031 L 40.945312 20.320312 L 40.988281 20.480469 L 41.09375 20.375 L 42.359375 20.3125 L 42.578125 20.578125 L 43.929688 20.53125 L 43.9375 20.425781 L 44.40625 20.03125 L 44.703125 20.207031 L 45.203125 19.917969 L 46.007812 20.496094 L 46.648438 19.964844 L 47.152344 20.429688 L 47.332031 20.394531 L 48.320312 20.488281 L 48.359375 22.042969 L 48.113281 22.304688 L 48.128906 22.9375 L 47.519531 23.59375 L 47.398438 24.058594 L 47.503906 24.433594 L 47.753906 24.8125 L 47.640625 25.539062 L 47.335938 25.660156 L 47.089844 26.058594 L 46.457031 26.027344 L 46.429688 26.105469 L 45.585938 26.46875 L 45.554688 26.941406 L 46.167969 27.316406 L 45.703125 27.945312 L 45.425781 27.90625 L 45.496094 28.101562 L 45.429688 28.171875 L 45.476562 28.164062 L 45.75 28.640625 Z M 43.984375 29.214844 L 44.488281 29.375 L 44.828125 28.859375 L 44.542969 28.574219 L 44.609375 28.097656 L 44.742188 27.953125 L 44.550781 27.4375 L 44.9375 27.328125 L 44.871094 27.289062 L 44.960938 26.027344 L 45.929688 25.578125 L 46.011719 25.355469 L 46.738281 25.386719 L 46.894531 25.132812 L 47.050781 25.070312 L 47.070312 24.960938 L 46.851562 24.628906 L 46.851562 24.441406 L 46.710938 24.105469 L 46.929688 23.269531 L 47.46875 22.6875 L 47.449219 22.050781 L 47.699219 21.789062 L 47.679688 21.085938 L 47.363281 21.054688 L 46.511719 21.226562 L 46.433594 20.992188 L 46.03125 21.324219 L 45.164062 20.695312 L 44.703125 20.964844 L 44.566406 20.882812 L 44.546875 21.164062 L 42.277344 21.242188 L 42.0625 20.980469 L 41.378906 21.015625 L 40.652344 21.742188 L 40.386719 20.757812 L 40.238281 20.679688 L 39.074219 20.425781 L 38.691406 20.679688 L 38.238281 20.40625 L 38.144531 19.9375 L 38.335938 19.746094 L 37.898438 19.777344 L 37.042969 20.152344 L 36.585938 19.847656 L 36.515625 19.351562 L 35.417969 18.921875 L 34.597656 18.972656 L 34.582031 19.058594 L 35.332031 19.851562 L 35.332031 20.34375 L 34.910156 20.480469 L 34.328125 20.289062 L 33.890625 20.890625 L 33.921875 20.917969 L 34.566406 21.632812 L 35.007812 21.902344 L 35.578125 23.0625 L 35.496094 23.496094 L 35.777344 23.546875 L 35.777344 24.0625 L 35.4375 24.464844 L 35.484375 24.828125 L 36 25.34375 L 35.800781 25.875 L 35.6875 26.039062 L 35.828125 26.175781 L 36.085938 27.25 L 35.785156 27.46875 L 35.988281 27.652344 L 36.65625 27.476562 L 37.164062 27.175781 L 38.152344 27.546875 L 38.570312 27.277344 L 39.59375 28.003906 L 39.777344 28.042969 L 39.875 27.953125 L 40.105469 27.71875 L 40.484375 28.097656 L 40.75 27.875 L 42.160156 28.03125 L 42.449219 27.839844 L 43.199219 28.199219 Z M 43.984375 29.214844 "/>
</g>
<mask id="mask9">
  <g filter="url(#alpha)">
<rect x="0" y="0" width="85" height="85" style="fill:rgb(0%,0%,0%);fill-opacity:0.34902;stroke:none;"/>
  </g>
</mask>
<clipPath id="clip10">
  <rect x="0" y="0" width="85" height="85"/>
</clipPath>
<g id="surface32" clip-path="url(#clip10)">
<path style=" stroke:none;fill-rule:nonzero;fill:rgb(100%,100%,100%);fill-opacity:1;" d="M 66.640625 55.210938 L 66.425781 54.855469 L 65.621094 54.234375 L 65.386719 53.460938 L 64.96875 53.042969 L 64.429688 52.984375 L 64.304688 52.78125 L 64.257812 52.535156 L 65.464844 51.203125 L 65.109375 50.289062 L 64.257812 49.78125 L 64.011719 49.394531 L 64.132812 48.417969 L 63.808594 48.015625 L 63.75 47.382812 L 62.929688 47.226562 L 61.335938 47.644531 L 60.933594 48.0625 L 60.714844 48.527344 L 60.839844 48.941406 L 61.101562 49.070312 L 61.148438 49.207031 L 60.359375 49.871094 L 59.476562 50.167969 L 59.386719 49.933594 L 59.539062 49.609375 L 60.035156 49.363281 L 60.128906 48.265625 L 59.800781 47.785156 L 58.671875 48.882812 L 58.023438 49.070312 L 57.871094 48.867188 L 57.449219 48.804688 L 57.097656 49.207031 L 56.769531 49.316406 L 56.507812 48.914062 L 56.324219 48.914062 L 55.703125 48.140625 L 54.804688 47.523438 L 54.714844 47.582031 L 53.800781 47.769531 L 52.980469 50.523438 L 52.671875 50.136719 L 52.703125 49.949219 L 52.546875 49.75 L 52.609375 49.609375 L 52.484375 49.421875 L 52.128906 49.363281 L 51.992188 49.75 L 51.835938 49.71875 L 51.726562 49.5 L 51.511719 49.546875 L 51.371094 49.84375 L 51 49.546875 L 50.769531 49.78125 L 50.859375 50.105469 L 50.921875 50.304688 L 50.242188 50.9375 L 50.054688 50.738281 L 49.3125 50.691406 L 48.757812 50.90625 L 48.570312 50.617188 L 48.308594 50.523438 L 48.339844 50.304688 L 48.246094 49.996094 L 47.796875 50.367188 L 47.535156 50.753906 L 47.859375 51.914062 L 47.675781 52.984375 L 47.472656 54.203125 L 47.921875 54.882812 L 48.925781 55.953125 L 48.988281 56.292969 L 48.757812 57.171875 L 49.28125 57.171875 L 49.515625 57.207031 L 49.964844 56.851562 L 51.246094 57.050781 L 51.308594 57.5625 L 51.511719 57.855469 L 51.957031 58.011719 L 51.496094 59.28125 L 51.511719 59.464844 L 51.09375 59.789062 L 51.09375 59.960938 L 50.828125 60.113281 L 50.800781 60.332031 L 49.824219 61.074219 L 49.730469 61.273438 L 49.4375 61.339844 L 49.019531 61.988281 L 48.710938 62.1875 L 49.082031 63.425781 L 49.4375 63.441406 L 49.699219 64.277344 L 50.148438 64.460938 L 50.242188 65.28125 L 50.644531 65.144531 L 50.921875 65.375 L 51.15625 65.734375 L 51.308594 65.734375 L 51.339844 65.46875 L 51.433594 65.222656 L 51.726562 65.160156 L 52.175781 65.375 L 52.546875 64.988281 L 53.164062 65.3125 L 53.351562 65.5 L 53.507812 65.097656 L 54.1875 65.097656 L 54.402344 65.589844 L 54.480469 65.667969 L 54.714844 65.40625 L 55.207031 65.3125 L 55.609375 64.957031 L 55.90625 65.050781 L 56.246094 64.910156 L 56.445312 65.667969 L 56.585938 65.761719 L 56.863281 65.546875 L 57.0625 65.65625 L 57.125 65.699219 L 57.328125 65.5 L 57.574219 65.609375 L 57.730469 65.945312 L 57.902344 65.886719 L 58.425781 66.398438 L 58.8125 66.148438 L 58.765625 66.085938 L 58.613281 65.761719 L 58.859375 65.53125 L 59.089844 65.964844 L 59.167969 65.945312 L 59.261719 65.609375 L 59.261719 65.375 L 58.96875 64.539062 L 58.734375 64.570312 L 58.488281 64.507812 L 58.347656 64.601562 L 58.257812 64.539062 L 57.605469 63.828125 L 57.667969 63.734375 L 57.960938 63.765625 L 57.902344 63.378906 L 57.992188 63.363281 L 58.765625 63.378906 L 58.9375 63.117188 L 58.671875 62.683594 L 58.921875 61.957031 L 59.152344 61.941406 L 59.476562 61.753906 L 59.617188 61.785156 L 59.773438 61.367188 L 59.832031 61.210938 L 60.636719 60.640625 L 60.59375 60.5 L 60.871094 60.238281 L 61.320312 60.113281 L 62.140625 59.601562 L 62.261719 58.925781 L 62.183594 58.816406 L 61.675781 58.847656 L 61.582031 58.660156 L 61.90625 57.933594 L 62.589844 58.414062 L 63.097656 58.367188 L 63.808594 57.792969 L 64.167969 57.421875 L 65.15625 57.5 L 65.480469 57.421875 L 65.851562 56.742188 L 66.285156 56.460938 L 66.640625 56.105469 L 66.535156 55.6875 Z M 66.640625 55.210938 "/>
<path style=" stroke:none;fill-rule:nonzero;fill:rgb(85.098039%,28.235294%,26.27451%);fill-opacity:1;" d="M 58.382812 66.8125 L 57.816406 66.261719 L 57.558594 66.355469 L 57.363281 65.925781 L 57.160156 66.128906 L 56.894531 65.9375 L 56.597656 66.167969 L 56.160156 65.871094 L 56.023438 65.355469 L 55.921875 65.398438 L 55.6875 65.328125 L 55.355469 65.617188 L 54.882812 65.707031 L 54.496094 66.148438 L 54.101562 65.722656 L 53.972656 65.425781 L 53.730469 65.425781 L 53.472656 66.089844 L 52.96875 65.582031 L 52.613281 65.394531 L 52.246094 65.773438 L 51.683594 65.503906 L 51.675781 65.507812 L 51.660156 65.546875 L 51.597656 66.0625 L 50.976562 66.0625 L 50.675781 65.597656 L 50.578125 65.515625 L 49.964844 65.726562 L 49.847656 64.691406 L 49.433594 64.523438 L 49.195312 63.757812 L 48.835938 63.742188 L 48.328125 62.046875 L 48.78125 61.753906 L 49.234375 61.046875 L 49.503906 60.992188 L 49.5625 60.863281 L 50.492188 60.15625 L 50.527344 59.914062 L 50.765625 59.773438 L 50.765625 59.628906 L 51.167969 59.316406 L 51.164062 59.238281 L 51.535156 58.210938 L 51.300781 58.128906 L 50.992188 57.683594 L 50.953125 57.335938 L 50.054688 57.195312 L 49.605469 57.550781 L 49.234375 57.496094 L 48.332031 57.5 L 48.652344 56.28125 L 48.621094 56.105469 L 47.683594 55.109375 L 47.128906 54.277344 L 47.523438 51.933594 L 47.179688 50.699219 L 47.589844 50.113281 L 48.414062 49.433594 L 48.671875 50.28125 L 48.671875 50.304688 L 48.785156 50.34375 L 48.886719 50.503906 L 49.261719 50.359375 L 50.207031 50.421875 L 50.257812 50.476562 L 50.550781 50.207031 L 50.398438 49.683594 L 50.972656 49.109375 L 51.25 49.332031 L 51.285156 49.261719 L 51.863281 49.136719 L 51.914062 48.996094 L 52.679688 49.125 L 52.9375 49.515625 L 53.542969 47.484375 L 54.621094 47.25 L 54.808594 47.125 L 55.957031 47.933594 L 56.507812 48.585938 L 56.683594 48.585938 L 56.90625 48.925781 L 57.324219 48.457031 L 58.046875 48.5625 L 58.148438 48.691406 L 58.503906 48.589844 L 59.851562 47.277344 L 60.460938 48.175781 L 60.449219 48.320312 L 60.695312 47.835938 L 61.160156 47.351562 L 62.914062 46.894531 L 64.050781 47.105469 L 64.125 47.886719 L 64.472656 48.320312 L 64.347656 49.316406 L 64.492188 49.539062 L 65.371094 50.066406 L 65.84375 51.273438 L 64.609375 52.632812 L 64.621094 52.675781 L 65.121094 52.730469 L 65.675781 53.289062 L 65.902344 54.042969 L 66.703125 54.683594 L 66.988281 55.152344 L 66.871094 55.683594 L 67.003906 56.207031 L 66.460938 56.734375 L 66.097656 56.972656 L 65.695312 57.710938 L 65.179688 57.828125 L 64.292969 57.761719 L 64.042969 58.019531 L 63.226562 58.683594 L 62.535156 58.746094 L 62.609375 58.84375 L 62.433594 59.804688 L 61.40625 60.429688 L 61.035156 60.53125 L 60.96875 60.597656 L 61.023438 60.769531 L 60.101562 61.421875 L 59.828125 62.164062 L 59.53125 62.101562 L 59.25 62.261719 L 59.160156 62.269531 L 59.03125 62.644531 L 59.324219 63.121094 L 58.941406 63.707031 L 58.28125 63.695312 L 58.347656 64.136719 L 58.328125 64.136719 L 58.378906 64.1875 L 58.425781 64.15625 L 58.753906 64.238281 L 59.1875 64.179688 L 59.589844 65.375 L 59.574219 65.695312 L 59.429688 66.222656 L 59.234375 66.265625 Z M 57.984375 65.511719 L 58.257812 65.777344 L 58.214844 65.6875 L 58.824219 65.113281 L 58.75 64.898438 L 58.71875 64.902344 L 58.546875 64.859375 L 58.347656 64.996094 L 58.015625 64.757812 L 57.191406 63.859375 L 57.503906 63.386719 L 57.574219 63.394531 L 57.527344 63.105469 L 57.941406 63.039062 L 58.511719 63.046875 L 58.316406 62.722656 L 58.683594 61.644531 L 59.058594 61.621094 L 59.40625 61.417969 L 59.5625 61.003906 L 60.253906 60.511719 L 60.21875 60.40625 L 60.703125 59.945312 L 61.1875 59.8125 L 61.84375 59.402344 L 61.886719 59.160156 L 61.480469 59.183594 L 61.21875 58.667969 L 61.769531 57.4375 L 62.675781 58.078125 L 62.96875 58.050781 L 63.605469 57.539062 L 64.039062 57.085938 L 65.132812 57.171875 L 65.261719 57.140625 L 65.605469 56.515625 L 66.078125 56.207031 L 66.277344 56.007812 L 66.195312 55.695312 L 66.292969 55.269531 L 66.175781 55.078125 L 65.335938 54.429688 L 65.097656 53.636719 L 64.820312 53.355469 L 64.234375 53.289062 L 63.984375 52.84375 L 63.90625 52.433594 L 65.085938 51.132812 L 64.84375 50.511719 L 64.023438 50.019531 L 63.671875 49.46875 L 63.792969 48.515625 L 63.492188 48.144531 L 63.445312 47.65625 L 62.941406 47.5625 L 61.507812 47.9375 L 61.207031 48.25 L 61.066406 48.550781 L 61.113281 48.710938 L 61.371094 48.832031 L 61.527344 49.3125 L 60.464844 50.183594 L 59.289062 50.574219 L 59.027344 49.921875 L 59.292969 49.367188 L 59.722656 49.152344 L 59.792969 48.351562 L 59.75 48.289062 L 58.84375 49.171875 L 57.898438 49.441406 L 57.691406 49.171875 L 57.578125 49.152344 L 57.285156 49.488281 L 56.636719 49.707031 L 56.324219 49.238281 L 56.164062 49.238281 L 55.476562 48.382812 L 54.78125 47.902344 L 54.058594 48.050781 L 53.113281 51.214844 L 52.324219 50.226562 L 52.355469 50.035156 L 52.273438 49.929688 L 52.203125 50.125 L 51.652344 50.015625 L 51.488281 50.351562 L 51.210938 50.132812 L 51.296875 50.40625 L 50.226562 51.402344 L 49.90625 51.058594 L 49.367188 51.023438 L 48.625 51.3125 L 48.355469 50.886719 L 47.945312 50.742188 L 47.949219 50.730469 L 47.890625 50.8125 L 48.195312 51.898438 L 47.816406 54.128906 L 48.195312 54.703125 L 49.230469 55.800781 L 49.324219 56.304688 L 49.183594 56.847656 L 49.421875 56.863281 L 49.871094 56.503906 L 51.542969 56.765625 L 51.625 57.441406 L 51.71875 57.582031 L 52.378906 57.808594 L 51.828125 59.324219 L 51.851562 59.613281 L 51.421875 59.957031 L 51.421875 60.144531 L 51.132812 60.316406 L 51.105469 60.507812 L 50.085938 61.285156 L 49.960938 61.558594 L 49.640625 61.628906 L 49.199219 62.261719 L 49.09375 62.328125 L 49.328125 63.109375 L 49.679688 63.121094 L 49.96875 64.03125 L 50.453125 64.234375 L 50.519531 64.839844 L 50.710938 64.773438 L 51.125 65.113281 L 51.191406 64.9375 L 51.769531 64.816406 L 52.105469 64.976562 L 52.480469 64.582031 L 53.207031 64.964844 L 53.285156 64.769531 L 54.402344 64.769531 L 54.546875 65.101562 L 55.058594 65.007812 L 55.535156 64.589844 L 55.890625 64.703125 L 56.464844 64.460938 L 56.679688 65.273438 L 56.832031 65.15625 L 57.074219 65.285156 L 57.253906 65.109375 L 57.820312 65.355469 L 57.902344 65.535156 Z M 60.421875 48.683594 L 60.355469 49.449219 L 60.640625 49.210938 L 60.566406 49.175781 Z M 60.421875 48.683594 "/>
</g>
</defs>
<g id="surface1">
<path style=" stroke:none;fill-rule:nonzero;fill:#f1274c;fill-opacity:1;" d="M 84.347656 42.5 C 84.347656 65.609375 65.609375 84.34375 42.5 84.34375 C 19.390625 84.34375 0.652344 65.609375 0.652344 42.5 C 0.652344 19.386719 19.390625 0.652344 42.5 0.652344 C 65.609375 0.652344 84.347656 19.386719 84.347656 42.5 Z M 84.347656 42.5 "/>
<path style=" stroke:none;fill-rule:nonzero;fill:rgb(100%,100%,100%);fill-opacity:1;" d="M 44.765625 32.25 L 44.996094 31.863281 L 44.953125 31.679688 L 44.828125 31.664062 L 44.59375 31.742188 L 44.410156 31.539062 L 44.625 31.214844 L 44.765625 31.089844 L 44.378906 30.765625 L 44.472656 30.347656 L 44.65625 30.054688 L 44.625 29.761719 L 43.792969 29.496094 L 42.988281 28.460938 L 42.476562 28.210938 L 42.242188 28.367188 L 40.851562 28.210938 L 40.464844 28.539062 L 40.109375 28.179688 L 40.046875 28.246094 L 39.859375 28.398438 L 39.457031 28.304688 L 38.5625 27.671875 L 38.128906 27.949219 L 37.941406 27.796875 L 37.199219 27.53125 L 36.78125 27.78125 L 35.902344 28.011719 L 35.265625 27.4375 L 35.035156 28.601562 L 34.585938 28.832031 L 34.414062 29.109375 L 34.648438 30.085938 L 35.171875 31.800781 L 36.085938 33.320312 L 36.875 33.890625 L 37.078125 34.757812 L 37.105469 35.019531 L 37.324219 34.957031 L 38.5 34.507812 L 39.273438 34.464844 L 40.015625 35.453125 L 39.691406 35.839844 L 39.660156 35.902344 L 40.015625 35.996094 L 40.726562 35.996094 L 40.851562 35.640625 L 41.113281 35.546875 L 41.40625 35.792969 L 41.855469 35.578125 L 42.074219 35.578125 L 42.242188 35.253906 L 42.523438 34.988281 L 42.523438 34.308594 L 43.46875 33.765625 L 44.410156 33.660156 L 44.175781 32.976562 L 44.8125 32.574219 Z M 44.765625 32.25 "/>
<path style=" stroke:none;fill-rule:nonzero;fill:#f1274c;fill-opacity:1;" d="M 40.960938 36.320312 L 39.933594 36.3125 L 39.191406 36.117188 L 39.441406 35.628906 L 39.597656 35.441406 L 39.117188 34.800781 L 38.570312 34.832031 L 36.828125 35.441406 L 36.753906 34.796875 L 36.585938 34.085938 L 35.804688 33.488281 L 34.859375 31.898438 L 34.335938 30.179688 L 34.066406 29.054688 L 34.355469 28.585938 L 34.742188 28.382812 L 35.058594 26.8125 L 35.988281 27.652344 L 36.652344 27.476562 L 37.164062 27.171875 L 38.152344 27.546875 L 38.570312 27.277344 L 39.59375 28.003906 L 39.777344 28.042969 L 39.871094 27.953125 L 40.105469 27.714844 L 40.480469 28.09375 L 40.746094 27.871094 L 42.160156 28.03125 L 42.449219 27.835938 L 43.195312 28.199219 L 43.984375 29.21875 L 44.925781 29.515625 L 44.992188 30.132812 L 44.777344 30.476562 L 44.738281 30.644531 L 45.261719 31.082031 L 44.960938 31.351562 L 45.214844 31.382812 L 45.34375 31.917969 L 45.105469 32.320312 L 45.164062 32.738281 L 44.566406 33.117188 L 44.847656 33.9375 L 43.570312 34.085938 L 42.847656 34.5 L 42.847656 35.132812 L 42.507812 35.453125 L 42.269531 35.90625 L 41.929688 35.90625 L 41.355469 36.179688 L 41.085938 35.953125 Z M 40.261719 35.667969 L 40.496094 35.667969 L 40.59375 35.382812 L 41.179688 35.175781 L 41.457031 35.40625 L 41.875 35.25 L 42.019531 35.015625 L 42.195312 34.847656 L 42.195312 34.121094 L 43.429688 33.441406 L 43.96875 33.378906 L 43.785156 32.839844 L 44.457031 32.414062 L 44.421875 32.183594 L 44.476562 32.09375 L 43.992188 31.574219 L 44.292969 31.121094 L 44.015625 30.890625 L 44.195312 30.175781 L 44.300781 30.003906 L 43.59375 29.78125 L 42.773438 28.722656 L 42.5 28.589844 L 42.324219 28.707031 L 40.953125 28.554688 L 40.445312 28.980469 L 40.09375 28.628906 L 39.941406 28.753906 L 39.269531 28.574219 L 38.550781 28.066406 L 38.101562 28.355469 L 37.777344 28.082031 L 37.234375 27.890625 L 36.863281 28.097656 L 35.8125 28.371094 L 35.472656 28.066406 L 35.324219 28.816406 L 34.816406 29.082031 L 34.765625 29.164062 L 34.964844 30.011719 L 35.472656 31.667969 L 36.332031 33.09375 L 37.164062 33.699219 L 37.375 34.589844 L 38.480469 34.183594 L 39.429688 34.128906 L 40.433594 35.464844 Z M 40.261719 35.667969 "/>
<path style=" stroke:none;fill-rule:nonzero;fill:rgb(100%,100%,100%);fill-opacity:1;" d="M 68.421875 26.371094 L 67.722656 26.1875 L 66.070312 26.339844 L 65.710938 26.820312 L 65.417969 27.175781 L 64.9375 27.144531 L 64.492188 27.269531 L 62.945312 26.789062 L 62.863281 27.347656 L 62.632812 27.347656 L 62.511719 27.53125 L 62.292969 27.53125 L 62.183594 27.65625 L 62.203125 27.917969 L 62.648438 28.089844 L 62.929688 28.691406 L 63.484375 28.273438 L 63.6875 28.367188 L 64.117188 28.273438 L 64.167969 28.367188 L 64.058594 28.601562 L 64.429688 28.816406 L 64.429688 28.957031 L 64.289062 29.140625 L 64.257812 29.960938 L 63.546875 30.980469 L 63.609375 31.382812 L 63.71875 32.191406 L 64.132812 32.191406 L 64.226562 32.546875 L 64.011719 32.976562 L 63.5625 34.464844 L 63.253906 35.144531 L 63.003906 36.476562 L 63.484375 36.832031 L 63.902344 37.480469 L 63.996094 37.804688 L 64.554688 38.128906 L 64.613281 38.703125 L 65 39.152344 L 65.109375 38.996094 L 65.777344 38.917969 L 66.425781 38.671875 L 66.457031 38.316406 L 66.964844 37.621094 L 66.515625 37.0625 L 66.394531 36.503906 L 66.65625 35.019531 L 66.5625 33.722656 L 66.535156 33.410156 L 66.871094 32.191406 L 67.089844 30.625 L 67.167969 29.636719 L 68.066406 28.460938 L 68.886719 26.726562 Z M 68.421875 26.371094 "/>
<path style=" stroke:none;fill-rule:nonzero;fill:#f1274c;fill-opacity:1;" d="M 65.027344 39.683594 L 64.300781 38.839844 L 64.246094 38.328125 L 63.71875 38.019531 L 63.601562 37.617188 L 63.242188 37.058594 L 62.644531 36.617188 L 62.957031 35.007812 L 63.265625 34.328125 L 63.699219 32.882812 L 63.878906 32.515625 L 63.429688 32.515625 L 63.203125 30.902344 L 63.933594 29.851562 L 63.96875 29.027344 L 64.019531 28.957031 L 63.632812 28.734375 L 63.644531 28.710938 L 63.523438 28.652344 L 62.800781 29.195312 L 62.40625 28.347656 L 61.886719 28.152344 L 61.847656 27.542969 L 62.144531 27.207031 L 62.335938 27.207031 L 62.457031 27.019531 L 62.582031 27.019531 L 62.671875 26.363281 L 64.496094 26.929688 L 64.902344 26.816406 L 65.273438 26.839844 L 65.890625 26.03125 L 67.75 25.855469 L 68.621094 26.113281 L 69.292969 26.628906 L 68.324219 28.660156 L 67.484375 29.757812 L 67.414062 30.652344 L 67.195312 32.234375 L 66.863281 33.441406 L 66.984375 35.039062 L 66.726562 36.5 L 66.820312 36.917969 L 67.378906 37.609375 L 66.773438 38.4375 L 66.730469 38.90625 L 65.8125 39.246094 L 65.269531 39.339844 Z M 64.925781 38.566406 L 65.023438 38.675781 L 65.695312 38.601562 L 66.117188 38.441406 L 66.136719 38.195312 L 66.554688 37.628906 L 66.214844 37.207031 L 66.058594 36.511719 L 66.328125 35.003906 L 66.203125 33.382812 L 66.558594 32.101562 L 66.765625 30.582031 L 66.847656 29.515625 L 67.785156 28.289062 L 68.476562 26.824219 L 68.273438 26.671875 L 67.695312 26.515625 L 66.246094 26.652344 L 65.5625 27.511719 L 64.972656 27.476562 L 64.484375 27.609375 L 63.214844 27.214844 L 63.148438 27.671875 L 62.808594 27.671875 L 62.742188 27.773438 L 62.890625 27.832031 L 63.054688 28.1875 L 63.445312 27.894531 L 63.722656 28.023438 L 64.296875 27.902344 L 64.53125 28.359375 L 64.480469 28.46875 L 64.757812 28.628906 L 64.757812 29.0625 L 64.613281 29.253906 L 64.582031 30.070312 L 63.890625 31.0625 L 64.003906 31.863281 L 64.386719 31.863281 L 64.574219 32.582031 L 64.300781 33.125 L 63.875 34.558594 L 63.566406 35.242188 L 63.363281 36.332031 L 63.761719 36.652344 L 64.214844 37.390625 L 64.273438 37.589844 L 64.859375 37.929688 Z M 64.925781 38.566406 "/>
<use xlink:href="#surface5" mask="url(#mask0)"/>
<use xlink:href="#surface8" mask="url(#mask1)"/>
<use xlink:href="#surface11" mask="url(#mask2)"/>
<use xlink:href="#surface14" mask="url(#mask3)"/>
<use xlink:href="#surface17" mask="url(#mask4)"/>
<use xlink:href="#surface20" mask="url(#mask5)"/>
<use xlink:href="#surface23" mask="url(#mask6)"/>
<path style=" stroke:none;fill-rule:nonzero;fill:rgb(100%,100%,100%);fill-opacity:1;" d="M 33.488281 49.6875 L 32.804688 48.910156 L 31.847656 48.324219 L 31.878906 47.273438 L 30.886719 46.160156 L 30.421875 45.417969 L 30.144531 45.234375 L 29.957031 45.355469 L 29.914062 45.496094 L 28.84375 45.773438 L 28.71875 45.773438 L 28.488281 44.859375 L 27.421875 44.304688 L 27.125 43.964844 L 26.832031 44.007812 L 26.617188 44.457031 L 26.261719 44.707031 L 24.605469 44.675781 L 24.15625 44.90625 L 23.863281 45.355469 L 22.671875 45.480469 L 21.835938 45.292969 L 23.382812 46.980469 L 23.320312 47.042969 L 22.964844 47.335938 L 23.226562 47.617188 L 23.769531 48.683594 L 23.519531 48.914062 L 23.613281 49.75 L 23.289062 50.800781 L 22.996094 50.847656 L 21.960938 50.800781 L 21.972656 50.523438 L 21.339844 50.429688 L 20.828125 50.800781 L 20.984375 51.359375 L 20.707031 51.480469 L 20.472656 51.851562 L 20.472656 52.222656 L 20.613281 52.222656 L 21.09375 52.78125 L 21.125 54.234375 L 20.921875 54.515625 L 20.800781 54.40625 L 20.675781 54.515625 L 20.707031 54.808594 L 20.535156 55.007812 L 20.304688 55.367188 L 20.378906 56.109375 L 20.800781 55.894531 L 22.46875 57.050781 L 23.164062 58.167969 L 23.273438 58.601562 L 23.675781 58.601562 L 24.636719 58.925781 L 24.804688 59.402344 L 25.132812 59.898438 L 26.324219 60.332031 L 26.832031 60.144531 L 27.234375 59.667969 L 27.574219 59.40625 L 28.164062 59.375 L 28.582031 58.910156 L 28.71875 57.734375 L 29.292969 57.300781 L 29.910156 56.558594 L 30.652344 55.425781 L 30.945312 54.949219 L 31.582031 54.59375 L 31.675781 53.648438 L 32 53.617188 L 32.121094 53.367188 L 32.03125 53.027344 L 31.582031 52.425781 L 31.582031 52.132812 L 31.613281 51.496094 L 31.9375 50.816406 L 32.527344 50.910156 L 32.820312 50.304688 L 33.546875 50.105469 Z M 20.488281 54.558594 L 20.597656 54.203125 L 20.304688 53.789062 L 19.34375 52.875 L 19.34375 53.214844 L 20.382812 54.683594 Z M 20.121094 52.039062 L 20.058594 51.976562 L 19.75 51.835938 L 19.253906 51.542969 L 18.898438 51.652344 L 18.867188 51.542969 L 18.929688 51.4375 L 18.835938 51.359375 L 18.699219 51.328125 L 18.574219 51.621094 L 18.898438 51.882812 L 19.160156 51.851562 L 19.902344 52.175781 Z M 20.121094 52.039062 "/>
<path style=" stroke:none;fill-rule:nonzero;fill:rgb(85.098039%,28.235294%,26.27451%);fill-opacity:1;" d="M 26.324219 60.679688 L 24.917969 60.167969 L 24.5 59.511719 L 24.382812 59.183594 L 23.621094 58.925781 L 23.019531 58.925781 L 22.859375 58.296875 L 22.226562 57.28125 L 20.773438 56.273438 L 20.105469 56.617188 L 19.964844 55.285156 L 20.175781 54.960938 L 19.019531 53.316406 L 19.019531 52.199219 L 18.800781 52.222656 L 18.175781 51.71875 L 18.503906 50.949219 L 18.984375 51.054688 L 19.183594 51.222656 L 19.296875 51.191406 L 19.914062 51.554688 L 20.195312 51.679688 L 20.480469 51.222656 L 20.59375 51.171875 L 20.453125 50.667969 L 21.253906 50.089844 L 22.316406 50.242188 L 22.300781 50.488281 L 22.976562 50.519531 L 23.035156 50.507812 L 23.28125 49.71875 L 23.175781 48.789062 L 23.363281 48.609375 L 22.957031 47.804688 L 22.488281 47.304688 L 22.914062 46.953125 L 20.890625 44.746094 L 22.691406 45.148438 L 23.671875 45.046875 L 23.929688 44.65625 L 24.527344 44.347656 L 26.160156 44.375 L 26.359375 44.238281 L 26.613281 43.710938 L 27.253906 43.609375 L 27.625 44.042969 L 28.769531 44.636719 L 28.964844 45.40625 L 29.660156 45.222656 L 29.683594 45.144531 L 30.144531 44.84375 L 30.699219 45.242188 L 31.164062 45.988281 L 32.207031 47.152344 L 32.179688 48.148438 L 33.050781 48.695312 L 33.796875 49.546875 L 33.914062 50.34375 L 33.050781 50.582031 L 32.714844 51.269531 L 32.128906 51.179688 L 31.9375 51.582031 L 31.90625 52.148438 L 31.90625 52.316406 L 32.34375 52.945312 L 32.46875 53.402344 L 32.210938 53.925781 L 31.972656 53.949219 L 31.890625 54.792969 L 31.179688 55.191406 L 30.933594 55.597656 L 30.183594 56.734375 L 29.488281 57.558594 L 29.027344 57.910156 L 28.894531 59.050781 L 28.316406 59.691406 L 27.695312 59.726562 L 27.460938 59.902344 L 27.027344 60.421875 Z M 25.34375 59.628906 L 26.320312 59.984375 L 26.636719 59.867188 L 27.035156 59.410156 L 27.457031 59.082031 L 28.011719 59.054688 L 28.269531 58.769531 L 28.410156 57.554688 L 29.066406 57.058594 L 29.660156 56.347656 L 30.710938 54.703125 L 31.273438 54.390625 L 31.375 53.347656 L 31.765625 53.308594 L 31.730469 53.175781 L 31.253906 52.535156 L 31.316406 51.355469 L 31.746094 50.457031 L 32.335938 50.546875 L 32.589844 50.027344 L 33.179688 49.863281 L 33.175781 49.828125 L 32.589844 49.164062 L 31.511719 48.503906 L 31.546875 47.390625 L 30.640625 46.375 L 30.195312 45.667969 L 30.164062 45.765625 L 28.71875 46.097656 L 28.464844 46.097656 L 28.207031 45.082031 L 27.171875 44.515625 L 27.03125 44.351562 L 26.871094 44.675781 L 26.359375 45.035156 L 24.679688 45.003906 L 24.382812 45.15625 L 24.050781 45.664062 L 22.746094 45.800781 L 23.839844 46.992188 L 23.441406 47.363281 L 23.519531 47.464844 L 24.171875 48.75 L 23.867188 49.039062 L 23.949219 49.777344 L 23.542969 51.089844 L 23.015625 51.175781 L 21.617188 51.109375 L 21.632812 50.800781 L 21.425781 50.769531 L 21.207031 50.929688 L 21.375 51.542969 L 20.929688 51.738281 L 20.804688 51.941406 L 21.417969 52.65625 L 21.453125 54.335938 L 21.042969 54.902344 L 21.046875 54.910156 L 20.976562 54.996094 L 20.976562 54.992188 L 20.785156 55.21875 L 20.640625 55.445312 L 20.65625 55.597656 L 20.824219 55.507812 L 22.746094 56.875 L 23.484375 58.085938 L 23.53125 58.269531 L 23.78125 58.289062 L 24.890625 58.664062 L 25.101562 59.253906 Z M 19.101562 52.1875 L 20.53125 53.550781 L 20.789062 53.910156 L 20.765625 52.90625 L 20.460938 52.550781 L 20.148438 52.550781 L 20.148438 52.410156 L 19.933594 52.546875 L 19.113281 52.1875 Z M 19.101562 52.1875 "/>
<path style=" stroke:none;fill-rule:nonzero;fill:rgb(100%,100%,100%);fill-opacity:1;" d="M 31.492188 32.992188 L 30.886719 32.191406 L 30.71875 31.632812 L 30.269531 31.183594 L 29.742188 30.300781 L 28.785156 30.300781 L 28.722656 29.730469 L 28.707031 29.3125 L 28.582031 28.011719 L 28.226562 27.886719 L 28.195312 27.671875 L 28.523438 27.4375 L 28.257812 26.972656 L 28.167969 26.109375 L 27.734375 26.292969 L 26.136719 27.332031 L 25.90625 27.285156 L 25.503906 27.410156 L 24.25 26.976562 L 23.058594 27.039062 L 21.417969 26.589844 L 20.984375 26.757812 L 20.707031 27.175781 L 20.445312 27.113281 L 20.492188 26.757812 L 20.304688 26.371094 L 19.964844 25.398438 L 20.148438 25.210938 L 20.179688 24.886719 L 19.996094 24.46875 L 19.007812 24.316406 L 18.773438 24.625 L 18.324219 24.703125 L 17.96875 24.53125 L 17.519531 24.40625 L 16.777344 24.175781 L 16.59375 24.316406 L 17.054688 25.183594 L 16.960938 25.691406 L 17.226562 26.851562 L 18.261719 28.214844 L 18.308594 29.3125 L 18.570312 29.636719 L 18.601562 30.378906 L 18.449219 30.441406 L 18.308594 30.890625 L 18.601562 31.542969 L 19.128906 32.40625 L 19.347656 32.484375 L 19.40625 32.640625 L 19.316406 32.761719 L 19.128906 32.761719 L 18.820312 33.058594 L 19.128906 33.910156 L 19.609375 34.015625 L 19.855469 33.738281 L 20.597656 33.445312 L 21.339844 33.800781 L 22.316406 33.722656 L 22.410156 33.863281 L 22.765625 33.957031 L 24.035156 33.660156 L 25.054688 33.570312 L 25.351562 33.089844 L 25.734375 33.289062 L 25.875 34.03125 L 26.355469 34.015625 L 26.386719 34.511719 L 27.035156 34.417969 L 27.621094 33.894531 L 28.195312 33.738281 L 28.613281 33.507812 L 28.707031 33.601562 L 28.878906 34.960938 L 29.742188 35.457031 L 30.207031 35.222656 L 30.300781 35.316406 L 30.300781 35.441406 L 30.578125 35.796875 L 30.949219 35.828125 L 30.703125 34.808594 L 31.136719 34.480469 L 31.585938 34.15625 L 31.675781 33.832031 Z M 16.964844 30.640625 L 17.058594 30.828125 L 17.226562 30.765625 L 17.210938 30.6875 Z M 17.289062 30.378906 L 17.519531 30.59375 L 17.582031 30.503906 L 17.472656 30.378906 Z M 17.289062 30.378906 "/>
<path style=" stroke:none;fill-rule:nonzero;fill:rgb(85.098039%,28.235294%,26.27451%);fill-opacity:1;" d="M 31.375 36.191406 L 30.410156 36.109375 L 30.058594 35.664062 L 29.734375 35.828125 L 28.574219 35.164062 L 28.425781 33.984375 L 28.28125 34.054688 L 27.785156 34.1875 L 27.179688 34.730469 L 26.082031 34.886719 L 26.046875 34.355469 L 25.605469 34.367188 L 25.453125 33.546875 L 25.246094 33.878906 L 24.0625 33.988281 L 22.761719 34.292969 L 22.207031 34.148438 L 22.152344 34.066406 L 21.277344 34.132812 L 20.585938 33.800781 L 20.050781 34.015625 L 19.726562 34.378906 L 18.882812 34.1875 L 18.4375 32.96875 L 18.847656 32.578125 L 18.324219 31.710938 L 17.960938 30.914062 L 18.179688 30.199219 L 18.265625 30.164062 L 18.25 29.761719 L 17.988281 29.433594 L 17.941406 28.332031 L 16.90625 26.925781 L 16.628906 25.699219 L 16.714844 25.234375 L 16.171875 24.222656 L 16.714844 23.8125 L 18.054688 24.214844 L 18.371094 24.363281 L 18.589844 24.324219 L 18.863281 23.960938 L 20.222656 24.175781 L 20.515625 24.832031 L 20.464844 25.359375 L 20.339844 25.484375 L 20.613281 26.265625 L 20.742188 26.53125 L 20.769531 26.492188 L 21.398438 26.246094 L 23.09375 26.707031 L 24.296875 26.644531 L 25.507812 27.066406 L 25.886719 26.949219 L 26.070312 26.984375 L 27.554688 26.019531 L 28.445312 25.632812 L 28.578125 26.875 L 28.953125 27.535156 L 28.707031 27.707031 L 28.886719 27.769531 L 29.078125 29.976562 L 29.929688 29.976562 L 30.527344 30.980469 L 31.003906 31.460938 L 31.183594 32.039062 L 31.808594 32.921875 L 32.011719 33.84375 L 31.867188 34.355469 L 31.070312 34.941406 Z M 29.179688 34.757812 L 29.753906 35.085938 L 30.273438 34.824219 L 30.402344 34.957031 L 30.332031 34.675781 L 31.300781 33.957031 L 31.339844 33.824219 L 31.1875 33.132812 L 30.578125 32.285156 L 30.429688 31.804688 L 29.988281 31.351562 L 29.558594 30.628906 L 28.492188 30.628906 L 28.277344 28.25 L 27.929688 28.128906 L 27.847656 27.519531 L 28.09375 27.34375 L 27.933594 27.007812 L 27.886719 26.582031 L 27.859375 26.59375 L 26.203125 27.679688 L 25.921875 27.621094 L 25.496094 27.753906 L 24.203125 27.304688 L 23.023438 27.367188 L 21.4375 26.933594 L 21.199219 27.027344 L 20.851562 27.546875 L 20.082031 27.363281 L 20.152344 26.8125 L 20.011719 26.511719 L 19.589844 25.3125 L 19.835938 25.066406 L 19.847656 24.941406 L 19.769531 24.765625 L 19.148438 24.667969 L 18.957031 24.925781 L 18.277344 25.042969 L 17.828125 24.828125 L 17.128906 24.628906 L 17.398438 25.128906 L 17.296875 25.683594 L 17.527344 26.710938 L 18.585938 28.097656 L 18.632812 29.191406 L 18.894531 29.515625 L 18.9375 30.59375 L 18.714844 30.6875 L 18.660156 30.867188 L 18.902344 31.40625 L 19.347656 32.136719 L 19.59375 32.226562 L 19.78125 32.6875 L 19.480469 33.089844 L 19.261719 33.089844 L 19.203125 33.144531 L 19.375 33.628906 L 19.496094 33.65625 L 19.664062 33.464844 L 20.613281 33.085938 L 21.40625 33.46875 L 22.480469 33.382812 L 22.613281 33.578125 L 22.773438 33.617188 L 23.960938 33.339844 L 24.863281 33.257812 L 25.230469 32.65625 L 26.027344 33.070312 L 26.144531 33.695312 L 26.660156 33.679688 L 26.691406 34.136719 L 26.890625 34.109375 L 27.464844 33.597656 L 28.070312 33.433594 L 28.667969 33.101562 L 29.015625 33.445312 Z M 16.894531 31.234375 L 16.375 30.199219 L 16.679688 30.257812 L 16.460938 30.050781 L 17.621094 30.050781 L 17.992188 30.476562 L 17.578125 31.097656 L 17.496094 31.019531 Z M 16.894531 31.234375 "/>
<path style=" stroke:none;fill-rule:nonzero;fill:rgb(100%,100%,100%);fill-opacity:1;" d="M 57.511719 36.027344 L 57.390625 35.546875 L 56.878906 35.390625 L 56.570312 35.082031 L 56.199219 35.082031 L 56.261719 34.773438 L 56.324219 34.355469 L 56.648438 34.152344 L 56.585938 33.96875 L 56.183594 33.859375 L 55.578125 33.148438 L 55.101562 33.085938 L 54.898438 32.730469 L 55.207031 32.527344 L 55.019531 32.34375 L 54.1875 31.957031 L 53.273438 31.492188 L 52.980469 30.996094 L 52.578125 30.921875 L 52.53125 30.535156 L 52.484375 30.238281 L 51.992188 29.851562 L 51.992188 29.109375 L 52.285156 28.769531 L 52.285156 28.414062 L 52.53125 27.949219 L 52.40625 27.5625 L 51.835938 26.851562 L 52.019531 26.480469 L 51.992188 26.109375 L 52.285156 25.890625 L 52.191406 25.488281 L 52.40625 25.148438 L 52.253906 24.949219 L 52.40625 24.300781 L 52.347656 23.324219 L 52.917969 23.167969 L 53.445312 23.078125 L 53.445312 22.921875 L 53.226562 22.660156 L 52.609375 22.457031 L 51.726562 21.730469 L 51.125 21.683594 L 51 21.5 L 51.046875 21.234375 L 50.769531 20.847656 L 50.644531 20.585938 L 50.828125 20.074219 L 50.753906 19.796875 L 50.921875 19.269531 L 50.828125 19.007812 L 50.644531 19.054688 L 50.242188 19.425781 L 49.902344 20.355469 L 49.5625 20.695312 L 48.757812 20.847656 L 48 20.785156 L 48.027344 21.917969 L 47.78125 22.179688 L 47.796875 22.8125 L 47.226562 23.433594 L 47.054688 24.082031 L 47.175781 24.375 L 47.175781 24.53125 L 47.410156 24.886719 L 47.347656 25.304688 L 47.117188 25.398438 L 46.914062 25.722656 L 46.234375 25.691406 L 46.171875 25.863281 L 45.273438 26.246094 L 45.214844 27.113281 L 45.695312 27.410156 L 45.554688 27.59375 L 45.304688 27.5625 L 44.980469 27.65625 L 45.121094 28.027344 L 44.917969 28.246094 L 44.886719 28.460938 L 44.996094 28.570312 L 45.304688 28.523438 L 45.367188 28.628906 L 44.625 29.761719 L 44.65625 30.054688 L 44.472656 30.347656 L 44.378906 30.765625 L 44.765625 31.089844 L 44.625 31.214844 L 44.410156 31.539062 L 44.59375 31.742188 L 44.828125 31.664062 L 44.953125 31.679688 L 44.996094 31.863281 L 44.765625 32.25 L 44.8125 32.574219 L 44.175781 32.976562 L 44.410156 33.660156 L 45.058594 33.796875 L 45.738281 34.570312 L 45.863281 35.253906 L 46.667969 35.902344 L 47.441406 36.921875 L 48.027344 37.09375 L 48.523438 36.9375 L 48.835938 36.738281 L 49.21875 36.859375 L 49.453125 36.582031 L 50.644531 36.691406 L 50.828125 36.582031 L 50.597656 36.257812 L 50.691406 36.085938 L 51.125 36.179688 L 51.433594 35.964844 L 52.113281 36.132812 L 52.316406 36.707031 L 52.996094 37.433594 L 52.734375 37.773438 L 53.027344 38.023438 L 52.996094 38.363281 L 53.210938 38.363281 L 53.382812 38.253906 L 53.539062 38.316406 L 53.414062 38.578125 L 53.675781 38.734375 L 54.03125 38.855469 L 54.21875 38.734375 L 54.464844 38.855469 L 54.757812 39.152344 L 55.207031 38.855469 L 55.253906 38.515625 L 55.765625 38.253906 L 56.261719 38.410156 L 56.632812 38.222656 L 56.800781 37.480469 L 56.988281 36.832031 L 57.28125 36.800781 L 57.511719 36.445312 L 57.730469 36.414062 L 57.839844 36.132812 Z M 57.511719 36.027344 "/>
<path style=" stroke:none;fill-rule:nonzero;fill:rgb(85.098039%,28.235294%,26.27451%);fill-opacity:1;" d="M 54.714844 39.570312 L 54.242188 39.109375 L 54.078125 39.21875 L 53.570312 39.042969 L 52.992188 38.707031 L 53 38.6875 L 52.636719 38.6875 L 52.6875 38.160156 L 52.28125 37.824219 L 52.566406 37.453125 L 52.007812 36.816406 L 51.863281 36.410156 L 51.5 36.316406 L 51.195312 36.53125 L 51.304688 36.683594 L 50.71875 37.023438 L 49.59375 36.921875 L 49.328125 37.238281 L 48.882812 37.09375 L 48.621094 37.25 L 48.03125 37.433594 L 47.25 37.207031 L 46.433594 36.128906 L 45.566406 35.429688 L 45.433594 34.71875 L 44.886719 34.09375 L 44.160156 33.9375 L 43.785156 32.839844 L 44.460938 32.410156 L 44.425781 32.183594 L 44.476562 32.09375 L 43.996094 31.570312 L 44.296875 31.121094 L 44.015625 30.886719 L 44.195312 30.171875 L 44.320312 29.976562 L 44.289062 29.679688 L 44.828125 28.859375 L 44.542969 28.574219 L 44.609375 28.097656 L 44.742188 27.953125 L 44.550781 27.4375 L 44.9375 27.328125 L 44.871094 27.289062 L 44.960938 26.027344 L 45.929688 25.578125 L 46.011719 25.351562 L 46.738281 25.386719 L 46.894531 25.132812 L 47.050781 25.070312 L 47.070312 24.960938 L 46.851562 24.628906 L 46.851562 24.441406 L 46.710938 24.105469 L 46.929688 23.269531 L 47.46875 22.6875 L 47.449219 22.050781 L 47.699219 21.789062 L 47.660156 20.429688 L 48.738281 20.519531 L 49.402344 20.390625 L 49.617188 20.171875 L 49.960938 19.238281 L 50.480469 18.757812 L 51.039062 18.617188 L 51.269531 19.265625 L 51.09375 19.804688 L 51.171875 20.089844 L 50.996094 20.570312 L 51.0625 20.707031 L 51.390625 21.15625 L 51.351562 21.371094 L 51.855469 21.410156 L 52.769531 22.164062 L 53.417969 22.375 L 53.769531 22.804688 L 53.769531 23.347656 L 52.6875 23.570312 L 52.734375 24.328125 L 52.605469 24.871094 L 52.804688 25.132812 L 52.539062 25.550781 L 52.652344 26.027344 L 52.332031 26.265625 L 52.355469 26.542969 L 52.222656 26.808594 L 52.71875 27.460938 L 52.886719 27.980469 L 52.609375 28.496094 L 52.609375 28.890625 L 52.316406 29.230469 L 52.316406 29.695312 L 52.789062 30.0625 L 52.875 30.644531 L 53.1875 30.703125 L 53.507812 31.246094 L 54.335938 31.664062 L 55.253906 32.113281 L 55.726562 32.582031 L 55.398438 32.796875 L 55.746094 32.84375 L 56.367188 33.570312 L 56.839844 33.699219 L 57.039062 34.296875 L 56.625 34.554688 L 56.59375 34.753906 L 56.707031 34.753906 L 57.054688 35.101562 L 57.660156 35.289062 L 57.785156 35.773438 L 58.265625 35.933594 L 57.96875 36.710938 L 57.707031 36.746094 L 57.46875 37.109375 L 57.242188 37.132812 L 57.117188 37.570312 L 56.917969 38.445312 L 56.289062 38.761719 L 55.796875 38.605469 L 55.558594 38.730469 L 55.511719 39.050781 Z M 54.195312 38.355469 L 54.699219 38.625 L 54.804688 38.730469 L 54.90625 38.664062 L 54.953125 38.304688 L 55.734375 37.902344 L 56.230469 38.058594 L 56.347656 38 L 56.484375 37.40625 L 56.734375 36.527344 L 57.09375 36.492188 L 57.238281 36.265625 L 57.121094 35.804688 L 56.707031 35.679688 L 56.433594 35.410156 L 55.800781 35.410156 L 56.023438 34.15625 L 56 34.148438 L 55.414062 33.457031 L 54.894531 33.390625 L 54.464844 32.625 L 54.625 32.519531 L 54.050781 32.253906 L 53.042969 31.742188 L 52.773438 31.292969 L 52.28125 31.195312 L 52.183594 30.417969 L 51.664062 30.011719 L 51.664062 28.988281 L 51.957031 28.648438 L 51.957031 28.332031 L 52.179688 27.917969 L 52.117188 27.722656 L 51.449219 26.894531 L 51.6875 26.417969 L 51.648438 25.953125 L 51.917969 25.757812 L 51.839844 25.429688 L 52.007812 25.167969 L 51.898438 25.027344 L 52.078125 24.273438 L 52.003906 23.078125 L 52.800781 22.863281 L 52.402344 22.710938 L 51.597656 22.050781 L 50.941406 22 L 50.65625 21.574219 L 50.699219 21.316406 L 50.5 21.039062 L 50.289062 20.601562 L 50.488281 20.0625 L 50.429688 19.859375 L 50.132812 20.585938 L 49.722656 20.996094 L 48.773438 21.179688 L 48.335938 21.144531 L 48.359375 22.042969 L 48.109375 22.304688 L 48.128906 22.941406 L 47.519531 23.59375 L 47.398438 24.058594 L 47.503906 24.433594 L 47.753906 24.8125 L 47.640625 25.539062 L 47.335938 25.664062 L 47.089844 26.058594 L 46.457031 26.03125 L 46.429688 26.109375 L 45.585938 26.472656 L 45.550781 26.941406 L 46.167969 27.320312 L 45.699219 27.945312 L 45.421875 27.910156 L 45.496094 28.105469 L 45.429688 28.171875 L 45.476562 28.167969 L 45.75 28.644531 L 44.960938 29.84375 L 44.992188 30.132812 L 44.773438 30.476562 L 44.738281 30.644531 L 45.261719 31.082031 L 44.960938 31.351562 L 45.210938 31.382812 L 45.34375 31.917969 L 45.101562 32.320312 L 45.164062 32.738281 L 44.566406 33.117188 L 44.65625 33.378906 L 45.230469 33.5 L 46.042969 34.425781 L 46.160156 35.074219 L 46.925781 35.703125 L 47.632812 36.640625 L 48.023438 36.753906 L 48.382812 36.640625 L 48.785156 36.378906 L 49.109375 36.484375 L 49.308594 36.242188 L 50.242188 36.328125 L 50.210938 36.28125 L 50.519531 35.714844 L 51.050781 35.832031 L 51.367188 35.609375 L 52.363281 35.859375 L 52.597656 36.535156 L 53.421875 37.414062 L 53.179688 37.726562 L 53.363281 37.882812 L 53.363281 37.894531 L 53.976562 38.144531 L 53.832031 38.449219 L 53.839844 38.453125 L 53.980469 38.496094 Z M 54.195312 38.355469 "/>
<use xlink:href="#surface26" mask="url(#mask7)"/>
<use xlink:href="#surface29" mask="url(#mask8)"/>
<use xlink:href="#surface32" mask="url(#mask9)"/>
</g>
</svg>
