<?xml version="1.0" encoding="UTF-8"?>
<svg xmlns="http://www.w3.org/2000/svg" xmlns:xlink="http://www.w3.org/1999/xlink" width="85pt" height="85pt" viewBox="0 0 85 85" version="1.1">
<g id="surface1">
<path style=" stroke:none;fill-rule:nonzero;fill:rgb(31.372549%,70.588235%,23.529412%);fill-opacity:1;" d="M 84.75 42.5 C 84.75 65.835938 65.832031 84.75 42.5 84.75 C 19.167969 84.75 0.25 65.835938 0.25 42.5 C 0.25 19.164062 19.167969 0.25 42.5 0.25 C 65.832031 0.25 84.75 19.164062 84.75 42.5 Z M 84.75 42.5 "/>
<path style=" stroke:none;fill-rule:nonzero;fill:rgb(100%,100%,100%);fill-opacity:1;" d="M 59.230469 32.695312 C 58.402344 30.050781 56.328125 28.378906 53.792969 28.292969 C 53.726562 26.914062 53.210938 25.675781 52.285156 24.675781 C 51.03125 23.320312 49.074219 22.515625 47.050781 22.515625 C 45.476562 22.515625 44.011719 23.003906 42.898438 23.878906 C 41.734375 21.710938 39.636719 20.242188 37.207031 19.957031 C 34.203125 19.605469 31.496094 20.8125 29.550781 23.332031 C 29.164062 22.84375 28.753906 22.417969 28.203125 22.085938 C 27.121094 21.425781 25.976562 21.09375 24.796875 21.09375 C 22.234375 21.09375 19.828125 22.6875 18.667969 25.152344 C 17.738281 27.128906 17.824219 29.285156 18.867188 31.117188 C 15.039062 32.1875 13.488281 35.839844 13.691406 39.035156 C 14.023438 44.195312 17.789062 46.542969 21.152344 46.542969 C 21.378906 46.542969 21.609375 46.535156 21.84375 46.515625 C 21.785156 48.078125 22.265625 49.539062 23.238281 50.703125 C 24.515625 52.234375 26.539062 53.148438 28.652344 53.148438 C 30.03125 53.148438 31.324219 52.769531 32.429688 52.046875 C 33.953125 53.644531 35.640625 54.53125 37.574219 54.757812 C 37.957031 54.800781 38.34375 54.824219 38.71875 54.824219 C 41.828125 54.824219 44.570312 53.328125 46.878906 50.382812 C 50.988281 51.085938 54.289062 50.117188 56.179688 47.699219 C 57.710938 45.734375 58.179688 42.972656 57.511719 39.878906 C 59.378906 38.285156 60.085938 35.410156 59.230469 32.695312 Z M 59.230469 32.695312 "/>
<path style=" stroke:none;fill-rule:nonzero;fill:rgb(100%,100%,100%);fill-opacity:1;" d="M 56.957031 50.859375 C 54.523438 50.859375 52.542969 52.84375 52.542969 55.277344 C 52.542969 57.710938 54.523438 59.695312 56.957031 59.695312 C 59.394531 59.695312 61.375 57.710938 61.375 55.277344 C 61.375 52.84375 59.394531 50.859375 56.957031 50.859375 Z M 56.957031 50.859375 "/>
<path style=" stroke:none;fill-rule:nonzero;fill:rgb(100%,100%,100%);fill-opacity:1;" d="M 65.707031 57.40625 C 64.238281 57.40625 63.042969 58.601562 63.042969 60.070312 C 63.042969 61.539062 64.238281 62.734375 65.707031 62.734375 C 67.175781 62.734375 68.371094 61.539062 68.371094 60.070312 C 68.371094 58.601562 67.175781 57.40625 65.707031 57.40625 Z M 65.707031 57.40625 "/>
</g>
</svg>
