<?xml version="1.0" encoding="UTF-8"?>
<svg xmlns="http://www.w3.org/2000/svg" xmlns:xlink="http://www.w3.org/1999/xlink" width="85pt" height="85pt" viewBox="0 0 85 85" version="1.1">
<g id="surface1">
<path style=" stroke:none;fill-rule:nonzero;fill:#f1274c;fill-opacity:1;" d="M 84.75 42.5 C 84.75 65.835938 65.832031 84.75 42.5 84.75 C 19.167969 84.75 0.25 65.835938 0.25 42.5 C 0.25 19.164062 19.167969 0.25 42.5 0.25 C 65.832031 0.25 84.75 19.164062 84.75 42.5 Z M 84.75 42.5 "/>
<path style=" stroke:none;fill-rule:nonzero;fill:rgb(100%,100%,100%);fill-opacity:1;" d="M 22.332031 38.246094 C 22.332031 39.628906 21.214844 40.746094 19.832031 40.746094 C 18.453125 40.746094 17.332031 39.628906 17.332031 38.246094 C 17.332031 36.867188 18.453125 35.746094 19.832031 35.746094 C 21.214844 35.746094 22.332031 36.867188 22.332031 38.246094 Z M 22.332031 38.246094 "/>
<path style=" stroke:none;fill-rule:nonzero;fill:rgb(100%,100%,100%);fill-opacity:1;" d="M 22.835938 50 C 22.835938 51.378906 21.714844 52.5 20.335938 52.5 C 18.953125 52.5 17.835938 51.378906 17.835938 50 C 17.835938 48.621094 18.953125 47.5 20.335938 47.5 C 21.714844 47.5 22.835938 48.621094 22.835938 50 Z M 22.835938 50 "/>
<path style=" stroke:none;fill-rule:nonzero;fill:rgb(100%,100%,100%);fill-opacity:1;" d="M 28.335938 40.167969 C 28.335938 41.546875 27.214844 42.667969 25.835938 42.667969 C 24.453125 42.667969 23.335938 41.546875 23.335938 40.167969 C 23.335938 38.785156 24.453125 37.667969 25.835938 37.667969 C 27.214844 37.667969 28.335938 38.785156 28.335938 40.167969 Z M 28.335938 40.167969 "/>
<path style=" stroke:none;fill-rule:nonzero;fill:rgb(100%,100%,100%);fill-opacity:1;" d="M 33.167969 47.5 C 33.167969 48.878906 32.046875 50 30.667969 50 C 29.285156 50 28.167969 48.878906 28.167969 47.5 C 28.167969 46.121094 29.285156 45 30.667969 45 C 32.046875 45 33.167969 46.121094 33.167969 47.5 Z M 33.167969 47.5 "/>
<path style=" stroke:none;fill-rule:nonzero;fill:rgb(100%,100%,100%);fill-opacity:1;" d="M 30.835938 57.332031 C 30.835938 58.714844 29.714844 59.832031 28.335938 59.832031 C 26.953125 59.832031 25.835938 58.714844 25.835938 57.332031 C 25.835938 55.953125 26.953125 54.832031 28.335938 54.832031 C 29.714844 54.832031 30.835938 55.953125 30.835938 57.332031 Z M 30.835938 57.332031 "/>
<path style=" stroke:none;fill-rule:nonzero;fill:rgb(100%,100%,100%);fill-opacity:1;" d="M 22.5 56.5 C 22.5 57.878906 21.382812 59 20 59 C 18.621094 59 17.5 57.878906 17.5 56.5 C 17.5 55.121094 18.621094 54 20 54 C 21.382812 54 22.5 55.121094 22.5 56.5 Z M 22.5 56.5 "/>
<path style=" stroke:none;fill-rule:nonzero;fill:rgb(100%,100%,100%);fill-opacity:1;" d="M 40.667969 37.332031 C 40.667969 38.714844 39.546875 39.832031 38.167969 39.832031 C 36.785156 39.832031 35.667969 38.714844 35.667969 37.332031 C 35.667969 35.953125 36.785156 34.832031 38.167969 34.832031 C 39.546875 34.832031 40.667969 35.953125 40.667969 37.332031 Z M 40.667969 37.332031 "/>
<path style=" stroke:none;fill-rule:nonzero;fill:rgb(100%,100%,100%);fill-opacity:1;" d="M 29.5 26.667969 C 29.5 28.046875 28.382812 29.167969 27 29.167969 C 25.621094 29.167969 24.5 28.046875 24.5 26.667969 C 24.5 25.285156 25.621094 24.167969 27 24.167969 C 28.382812 24.167969 29.5 25.285156 29.5 26.667969 Z M 29.5 26.667969 "/>
<path style=" stroke:none;fill-rule:nonzero;fill:rgb(100%,100%,100%);fill-opacity:1;" d="M 43.835938 53.5 C 43.835938 54.878906 42.714844 56 41.335938 56 C 39.953125 56 38.835938 54.878906 38.835938 53.5 C 38.835938 52.121094 39.953125 51 41.335938 51 C 42.714844 51 43.835938 52.121094 43.835938 53.5 Z M 43.835938 53.5 "/>
<path style=" stroke:none;fill-rule:nonzero;fill:rgb(100%,100%,100%);fill-opacity:1;" d="M 39.5 43.667969 C 39.5 45.046875 38.382812 46.167969 37 46.167969 C 35.621094 46.167969 34.5 45.046875 34.5 43.667969 C 34.5 42.285156 35.621094 41.167969 37 41.167969 C 38.382812 41.167969 39.5 42.285156 39.5 43.667969 Z M 39.5 43.667969 "/>
<path style=" stroke:none;fill-rule:nonzero;fill:rgb(100%,100%,100%);fill-opacity:1;" d="M 35.167969 39 C 35.167969 40.378906 34.046875 41.5 32.667969 41.5 C 31.285156 41.5 30.167969 40.378906 30.167969 39 C 30.167969 37.621094 31.285156 36.5 32.667969 36.5 C 34.046875 36.5 35.167969 37.621094 35.167969 39 Z M 35.167969 39 "/>
<path style=" stroke:none;fill-rule:nonzero;fill:rgb(100%,100%,100%);fill-opacity:1;" d="M 17.5 44.667969 C 17.5 46.046875 16.382812 47.167969 15 47.167969 C 13.621094 47.167969 12.5 46.046875 12.5 44.667969 C 12.5 43.285156 13.621094 42.167969 15 42.167969 C 16.382812 42.167969 17.5 43.285156 17.5 44.667969 Z M 17.5 44.667969 "/>
<path style=" stroke:none;fill-rule:nonzero;fill:rgb(100%,100%,100%);fill-opacity:1;" d="M 30.167969 33.667969 C 30.167969 35.046875 29.046875 36.167969 27.667969 36.167969 C 26.285156 36.167969 25.167969 35.046875 25.167969 33.667969 C 25.167969 32.285156 26.285156 31.167969 27.667969 31.167969 C 29.046875 31.167969 30.167969 32.285156 30.167969 33.667969 Z M 30.167969 33.667969 "/>
<path style=" stroke:none;fill-rule:nonzero;fill:rgb(100%,100%,100%);fill-opacity:1;" d="M 40.667969 29.832031 C 40.667969 31.214844 39.546875 32.332031 38.167969 32.332031 C 36.785156 32.332031 35.667969 31.214844 35.667969 29.832031 C 35.667969 28.453125 36.785156 27.332031 38.167969 27.332031 C 39.546875 27.332031 40.667969 28.453125 40.667969 29.832031 Z M 40.667969 29.832031 "/>
<path style=" stroke:none;fill-rule:nonzero;fill:rgb(100%,100%,100%);fill-opacity:1;" d="M 63.164062 40.164062 C 63.164062 41.546875 62.046875 42.664062 60.664062 42.664062 C 59.285156 42.664062 58.164062 41.546875 58.164062 40.164062 C 58.164062 38.785156 59.285156 37.664062 60.664062 37.664062 C 62.046875 37.664062 63.164062 38.785156 63.164062 40.164062 Z M 63.164062 40.164062 "/>
<path style=" stroke:none;fill-rule:nonzero;fill:rgb(100%,100%,100%);fill-opacity:1;" d="M 70.5 42 C 70.5 43.378906 69.378906 44.5 68 44.5 C 66.617188 44.5 65.5 43.378906 65.5 42 C 65.5 40.617188 66.617188 39.5 68 39.5 C 69.378906 39.5 70.5 40.617188 70.5 42 Z M 70.5 42 "/>
<path style=" stroke:none;fill-rule:nonzero;fill:rgb(100%,100%,100%);fill-opacity:1;" d="M 66.164062 49 C 66.164062 50.378906 65.046875 51.5 63.664062 51.5 C 62.285156 51.5 61.164062 50.378906 61.164062 49 C 61.164062 47.617188 62.285156 46.5 63.664062 46.5 C 65.046875 46.5 66.164062 47.617188 66.164062 49 Z M 66.164062 49 "/>
</g>
</svg>
