<?xml version="1.0" encoding="UTF-8"?>
<svg xmlns="http://www.w3.org/2000/svg" xmlns:xlink="http://www.w3.org/1999/xlink" width="85pt" height="85pt" viewBox="0 0 85 85" version="1.1">
<defs>
<filter id="alpha" filterUnits="objectBoundingBox" x="0%" y="0%" width="100%" height="100%">
  <feColorMatrix type="matrix" in="SourceGraphic" values="0 0 0 0 1 0 0 0 0 1 0 0 0 0 1 0 0 0 1 0"/>
</filter>
<mask id="mask0">
  <g filter="url(#alpha)">
<rect x="0" y="0" width="85" height="85" style="fill:rgb(0%,0%,0%);fill-opacity:0.501961;stroke:none;"/>
  </g>
</mask>
<clipPath id="clip1">
  <rect x="0" y="0" width="85" height="85"/>
</clipPath>
<g id="surface5" clip-path="url(#clip1)">
<path style=" stroke:none;fill-rule:nonzero;fill:rgb(100%,100%,100%);fill-opacity:1;" d="M 54.136719 42.503906 C 54.136719 45.011719 52.101562 47.046875 49.589844 47.046875 C 47.078125 47.046875 45.042969 45.011719 45.042969 42.503906 C 45.042969 39.992188 47.078125 37.957031 49.589844 37.957031 C 52.101562 37.957031 54.136719 39.992188 54.136719 42.503906 Z M 54.136719 42.503906 "/>
</g>
<mask id="mask1">
  <g filter="url(#alpha)">
<rect x="0" y="0" width="85" height="85" style="fill:rgb(0%,0%,0%);fill-opacity:0.501961;stroke:none;"/>
  </g>
</mask>
<clipPath id="clip2">
  <rect x="0" y="0" width="85" height="85"/>
</clipPath>
<g id="surface8" clip-path="url(#clip2)">
<path style=" stroke:none;fill-rule:nonzero;fill:rgb(100%,100%,100%);fill-opacity:1;" d="M 54.136719 55.875 C 54.136719 58.382812 52.101562 60.421875 49.589844 60.421875 C 47.078125 60.421875 45.042969 58.382812 45.042969 55.875 C 45.042969 53.363281 47.078125 51.328125 49.589844 51.328125 C 52.101562 51.328125 54.136719 53.363281 54.136719 55.875 Z M 54.136719 55.875 "/>
</g>
</defs>
<g id="surface1">
<path style=" stroke:none;fill-rule:nonzero;fill:rgb(85.098039%,28.235294%,26.27451%);fill-opacity:1;" d="M 84.347656 42.5 C 84.347656 65.609375 65.609375 84.347656 42.5 84.347656 C 19.390625 84.347656 0.652344 65.609375 0.652344 42.5 C 0.652344 19.390625 19.390625 0.652344 42.5 0.652344 C 65.609375 0.652344 84.347656 19.390625 84.347656 42.5 Z M 84.347656 42.5 "/>
<path style=" stroke:none;fill-rule:nonzero;fill:rgb(100%,100%,100%);fill-opacity:1;" d="M 25.964844 29.128906 C 25.964844 31.640625 23.929688 33.675781 21.417969 33.675781 C 18.910156 33.675781 16.875 31.640625 16.875 29.128906 C 16.875 26.621094 18.910156 24.582031 21.417969 24.582031 C 23.929688 24.582031 25.964844 26.621094 25.964844 29.128906 Z M 25.964844 29.128906 "/>
<path style=" stroke:none;fill-rule:nonzero;fill:rgb(100%,100%,100%);fill-opacity:1;" d="M 25.964844 42.503906 C 25.964844 45.011719 23.929688 47.046875 21.417969 47.046875 C 18.910156 47.046875 16.875 45.011719 16.875 42.503906 C 16.875 39.992188 18.910156 37.957031 21.417969 37.957031 C 23.929688 37.957031 25.964844 39.992188 25.964844 42.503906 Z M 25.964844 42.503906 "/>
<path style=" stroke:none;fill-rule:nonzero;fill:rgb(100%,100%,100%);fill-opacity:1;" d="M 25.964844 55.875 C 25.964844 58.382812 23.929688 60.421875 21.417969 60.421875 C 18.910156 60.421875 16.875 58.382812 16.875 55.875 C 16.875 53.363281 18.910156 51.328125 21.417969 51.328125 C 23.929688 51.328125 25.964844 53.363281 25.964844 55.875 Z M 25.964844 55.875 "/>
<path style=" stroke:none;fill-rule:nonzero;fill:rgb(100%,100%,100%);fill-opacity:1;" d="M 40.050781 29.128906 C 40.050781 31.640625 38.015625 33.675781 35.503906 33.675781 C 32.992188 33.675781 30.957031 31.640625 30.957031 29.128906 C 30.957031 26.621094 32.992188 24.582031 35.503906 24.582031 C 38.015625 24.582031 40.050781 26.621094 40.050781 29.128906 Z M 40.050781 29.128906 "/>
<path style=" stroke:none;fill-rule:nonzero;fill:rgb(100%,100%,100%);fill-opacity:1;" d="M 40.050781 42.503906 C 40.050781 45.011719 38.015625 47.046875 35.503906 47.046875 C 32.992188 47.046875 30.957031 45.011719 30.957031 42.503906 C 30.957031 39.992188 32.992188 37.957031 35.503906 37.957031 C 38.015625 37.957031 40.050781 39.992188 40.050781 42.503906 Z M 40.050781 42.503906 "/>
<path style=" stroke:none;fill-rule:nonzero;fill:rgb(100%,100%,100%);fill-opacity:1;" d="M 40.050781 55.875 C 40.050781 58.382812 38.015625 60.421875 35.503906 60.421875 C 32.992188 60.421875 30.957031 58.382812 30.957031 55.875 C 30.957031 53.363281 32.992188 51.328125 35.503906 51.328125 C 38.015625 51.328125 40.050781 53.363281 40.050781 55.875 Z M 40.050781 55.875 "/>
<path style=" stroke:none;fill-rule:nonzero;fill:rgb(100%,100%,100%);fill-opacity:1;" d="M 54.136719 29.128906 C 54.136719 31.640625 52.101562 33.675781 49.589844 33.675781 C 47.078125 33.675781 45.042969 31.640625 45.042969 29.128906 C 45.042969 26.621094 47.078125 24.582031 49.589844 24.582031 C 52.101562 24.582031 54.136719 26.621094 54.136719 29.128906 Z M 54.136719 29.128906 "/>
<use xlink:href="#surface5" mask="url(#mask0)"/>
<use xlink:href="#surface8" mask="url(#mask1)"/>
<path style="fill:none;stroke-width:1;stroke-linecap:butt;stroke-linejoin:miter;stroke:rgb(100%,100%,100%);stroke-opacity:1;stroke-miterlimit:4;" d="M 104.131434 44.550092 C 104.131434 48.278033 101.11443 51.301011 97.386489 51.301011 C 93.658548 51.301011 90.63557 48.278033 90.63557 44.550092 C 90.63557 40.822151 93.658548 37.805147 97.386489 37.805147 C 101.11443 37.805147 104.131434 40.822151 104.131434 44.550092 Z M 104.131434 44.550092 " transform="matrix(0.653846,0,0,0.653846,0,0)"/>
<path style="fill:none;stroke-width:1;stroke-linecap:butt;stroke-linejoin:miter;stroke:rgb(100%,100%,100%);stroke-opacity:1;stroke-miterlimit:4;" d="M 104.131434 65.005974 C 104.131434 68.733915 101.11443 71.750919 97.386489 71.750919 C 93.658548 71.750919 90.63557 68.733915 90.63557 65.005974 C 90.63557 61.272059 93.658548 58.255055 97.386489 58.255055 C 101.11443 58.255055 104.131434 61.272059 104.131434 65.005974 Z M 104.131434 65.005974 " transform="matrix(0.653846,0,0,0.653846,0,0)"/>
<path style="fill:none;stroke-width:1;stroke-linecap:butt;stroke-linejoin:miter;stroke:rgb(100%,100%,100%);stroke-opacity:1;stroke-miterlimit:4;" d="M 104.131434 85.455882 C 104.131434 89.183824 101.11443 92.200827 97.386489 92.200827 C 93.658548 92.200827 90.63557 89.183824 90.63557 85.455882 C 90.63557 81.727941 93.658548 78.704963 97.386489 78.704963 C 101.11443 78.704963 104.131434 81.727941 104.131434 85.455882 Z M 104.131434 85.455882 " transform="matrix(0.653846,0,0,0.653846,0,0)"/>
</g>
</svg>
