<?xml version="1.0" encoding="UTF-8"?>
<svg xmlns="http://www.w3.org/2000/svg" xmlns:xlink="http://www.w3.org/1999/xlink" width="85pt" height="85pt" viewBox="0 0 85 85" version="1.1">
<g id="surface1">
<path style=" stroke:none;fill-rule:nonzero;fill:rgb(85.098039%,28.235294%,26.27451%);fill-opacity:1;" d="M 84.347656 42.5 C 84.347656 65.609375 65.609375 84.34375 42.5 84.34375 C 19.390625 84.34375 0.652344 65.609375 0.652344 42.5 C 0.652344 19.386719 19.390625 0.652344 42.5 0.652344 C 65.609375 0.652344 84.347656 19.386719 84.347656 42.5 Z M 84.347656 42.5 "/>
<path style=" stroke:none;fill-rule:nonzero;fill:rgb(100%,100%,100%);fill-opacity:1;" d="M 17.117188 39.605469 L 21.207031 39.605469 L 21.207031 53.796875 L 17.117188 53.796875 Z M 17.117188 39.605469 "/>
<path style=" stroke:none;fill-rule:nonzero;fill:rgb(100%,100%,100%);fill-opacity:1;" d="M 22.953125 42.445312 L 27.039062 42.445312 L 27.039062 53.796875 L 22.953125 53.796875 Z M 22.953125 42.445312 "/>
<path style=" stroke:none;fill-rule:nonzero;fill:rgb(100%,100%,100%);fill-opacity:1;" d="M 57.960938 39.625 L 62.046875 39.625 L 62.046875 53.796875 L 57.960938 53.796875 Z M 57.960938 39.625 "/>
<path style=" stroke:none;fill-rule:nonzero;fill:rgb(100%,100%,100%);fill-opacity:1;" d="M 63.792969 43.171875 L 67.878906 43.171875 L 67.878906 53.796875 L 63.792969 53.796875 Z M 63.792969 43.171875 "/>
<path style=" stroke:none;fill-rule:nonzero;fill:rgb(100%,100%,100%);fill-opacity:1;" d="M 28.789062 35.347656 L 32.875 35.347656 L 32.875 53.796875 L 28.789062 53.796875 Z M 28.789062 35.347656 "/>
<path style=" stroke:none;fill-rule:nonzero;fill:rgb(100%,100%,100%);fill-opacity:1;" d="M 52.128906 30.070312 L 56.214844 30.070312 L 56.214844 53.796875 L 52.128906 53.796875 Z M 52.128906 30.070312 "/>
<path style=" stroke:none;fill-rule:nonzero;fill:rgb(100%,100%,100%);fill-opacity:1;" d="M 34.621094 22.429688 L 38.710938 22.429688 L 38.710938 53.796875 L 34.621094 53.796875 Z M 34.621094 22.429688 "/>
<path style=" stroke:none;fill-rule:nonzero;fill:rgb(100%,100%,100%);fill-opacity:1;" d="M 46.292969 20.066406 L 50.378906 20.066406 L 50.378906 53.796875 L 46.292969 53.796875 Z M 46.292969 20.066406 "/>
<path style=" stroke:none;fill-rule:nonzero;fill:rgb(100%,100%,100%);fill-opacity:1;" d="M 40.457031 13.152344 L 44.542969 13.152344 L 44.542969 53.796875 L 40.457031 53.796875 Z M 40.457031 13.152344 "/>
<path style="fill:none;stroke-width:2;stroke-linecap:butt;stroke-linejoin:miter;stroke:rgb(100%,100%,100%);stroke-opacity:1;stroke-miterlimit:10;" d="M 26.179228 94.524816 L 102.440717 94.524816 " transform="matrix(0.653846,0,0,0.653846,0,0)"/>
<path style=" stroke:none;fill-rule:nonzero;fill:rgb(100%,100%,100%);fill-opacity:1;" d="M 63.945312 65.546875 L 63.320312 64.878906 L 66.625 61.804688 L 63.320312 58.730469 L 63.945312 58.0625 L 67.972656 61.804688 Z M 63.945312 65.546875 "/>
</g>
</svg>
