<?xml version="1.0" encoding="UTF-8"?>
<svg xmlns="http://www.w3.org/2000/svg" xmlns:xlink="http://www.w3.org/1999/xlink" width="85pt" height="85pt" viewBox="0 0 85 85" version="1.1">
<g id="surface1">
<path style=" stroke:none;fill-rule:nonzero;fill:rgb(85.098039%,28.235294%,26.27451%);fill-opacity:1;" d="M 84.347656 42.5 C 84.347656 65.609375 65.609375 84.34375 42.5 84.34375 C 19.390625 84.34375 0.652344 65.609375 0.652344 42.5 C 0.652344 19.386719 19.390625 0.652344 42.5 0.652344 C 65.609375 0.652344 84.347656 19.386719 84.347656 42.5 Z M 84.347656 42.5 "/>
<path style=" stroke:none;fill-rule:nonzero;fill:rgb(100%,100%,100%);fill-opacity:1;" d="M 26.214844 59.09375 L 16.121094 59.09375 L 16.121094 38.550781 L 26.214844 38.550781 Z M 17.425781 57.785156 L 24.90625 57.785156 L 24.90625 39.859375 L 17.425781 39.859375 Z M 17.425781 57.785156 "/>
<path style=" stroke:none;fill-rule:nonzero;fill:rgb(100%,100%,100%);fill-opacity:1;" d="M 28.574219 19.925781 L 37.675781 19.925781 L 37.675781 59.242188 L 28.574219 59.242188 Z M 28.574219 19.925781 "/>
<path style=" stroke:none;fill-rule:nonzero;fill:rgb(100%,100%,100%);fill-opacity:1;" d="M 56.941406 59.09375 L 46.847656 59.09375 L 46.847656 30.71875 L 56.941406 30.71875 Z M 48.15625 57.785156 L 55.632812 57.785156 L 55.632812 32.027344 L 48.15625 32.027344 Z M 48.15625 57.785156 "/>
<path style=" stroke:none;fill-rule:nonzero;fill:rgb(100%,100%,100%);fill-opacity:1;" d="M 59.300781 34.382812 L 68.402344 34.382812 L 68.402344 59.242188 L 59.300781 59.242188 Z M 59.300781 34.382812 "/>
</g>
</svg>
