<?xml version="1.0" encoding="UTF-8"?>
<svg xmlns="http://www.w3.org/2000/svg" xmlns:xlink="http://www.w3.org/1999/xlink" width="85pt" height="85pt" viewBox="0 0 85 85" version="1.1">
<g id="surface1">
<path style=" stroke:none;fill-rule:nonzero;fill:rgb(85.098039%,28.235294%,26.27451%);fill-opacity:1;" d="M 84.347656 42.5 C 84.347656 65.609375 65.609375 84.347656 42.5 84.347656 C 19.390625 84.347656 0.652344 65.609375 0.652344 42.5 C 0.652344 19.390625 19.390625 0.652344 42.5 0.652344 C 65.609375 0.652344 84.347656 19.390625 84.347656 42.5 Z M 84.347656 42.5 "/>
<path style=" stroke:none;fill-rule:evenodd;fill:rgb(100%,100%,100%);fill-opacity:1;" d="M 23.425781 28.175781 C 23.660156 28.257812 23.4375 28.335938 23.277344 28.328125 C 28.351562 29.628906 35.78125 30.667969 43.480469 30.152344 C 43.542969 30.960938 44.566406 31.234375 45.300781 30.914062 C 46.148438 31.59375 47.105469 31.492188 48.492188 31.671875 C 47.839844 32.179688 46.960938 32.46875 46.671875 33.34375 C 47.082031 33.886719 47.261719 32.933594 47.734375 33.035156 C 48.355469 32.992188 47.710938 33.25 47.886719 33.644531 C 48.765625 33.625 49.414062 32.707031 50.316406 32.277344 C 49.945312 32.96875 50.800781 33.164062 51.078125 33.644531 C 52.546875 33.171875 53.214844 32.945312 54.265625 33.492188 C 54.15625 35.066406 56.132812 34.867188 55.332031 36.683594 C 55.460938 37.128906 55.710938 36.484375 56.089844 36.683594 C 56.953125 37.8125 56.222656 38.636719 55.785156 39.875 C 57.609375 40.585938 60.160156 39.023438 60.496094 36.835938 C 61.578125 36.839844 62.203125 36.820312 62.925781 36.230469 C 62.644531 33.300781 65.199219 33.695312 67.179688 32.886719 C 68.296875 31.882812 67.484375 28.292969 69.914062 29.089844 C 70.019531 30.351562 70.515625 31.21875 71.433594 31.671875 C 71.265625 32.566406 70.269531 32.632812 70.21875 33.644531 C 68.839844 33.644531 68.832031 34.960938 68.699219 36.53125 C 68.839844 36.664062 69.558594 36.96875 69.613281 36.683594 C 69.816406 37.25 69.109375 38.207031 68.242188 38.207031 C 67.71875 38.839844 67.183594 39.472656 66.117188 39.570312 C 66.570312 41.367188 65.320312 41.839844 65.8125 43.671875 C 64.171875 44.34375 65.667969 46.320312 66.117188 47.167969 C 65.703125 48.476562 63.886719 48.378906 63.835938 50.050781 C 63.40625 50.074219 63.042969 50.152344 62.625 50.507812 C 62.398438 51.652344 61.773438 52.398438 60.800781 52.789062 C 60.683594 53.75 60.210938 54.539062 60.34375 55.523438 C 60.523438 56.84375 61.828125 57.578125 62.015625 59.015625 C 62.761719 59.953125 63.402344 61.054688 63.078125 62.660156 C 62.804688 62.644531 62.757812 62.847656 62.46875 62.8125 C 60.914062 61.613281 59.160156 60.410156 59.28125 57.953125 C 58.464844 57.65625 58.328125 56.679688 57.304688 56.585938 C 56.726562 56.664062 56.660156 57.253906 56.089844 57.34375 C 54.996094 55.4375 52.863281 57.277344 51.078125 56.886719 C 50.84375 57.320312 50.761719 57.988281 50.921875 58.410156 C 49.007812 59.164062 48.960938 58.207031 47.128906 58.257812 C 44.699219 56.84375 43.199219 59.753906 41.203125 60.230469 C 40.550781 61.199219 40.558594 62.234375 41.050781 63.421875 C 39.824219 63.359375 39.71875 62.859375 38.46875 62.664062 C 38.253906 61.714844 38.179688 60.625 37.25 60.386719 C 37.011719 58.800781 36.296875 57.695312 34.671875 57.5 C 34.128906 57.714844 33.929688 58.277344 33.609375 58.714844 C 32.058594 58.488281 31.984375 57.277344 31.785156 56.585938 C 31.511719 55.644531 30.375 55.507812 29.960938 54.308594 C 29.441406 54.53125 28.753906 54.261719 28.136719 54.15625 C 27.648438 54.019531 27.824219 54.550781 27.527344 54.613281 C 23.828125 54.96875 22.597656 52.855469 20.085938 52.027344 C 20.148438 51.710938 19.980469 51.625 19.933594 51.417969 C 18.726562 51.324219 18.175781 51.480469 17.199219 51.117188 C 17.210938 48.976562 15.605469 48.40625 14.007812 47.46875 C 13.980469 44.542969 12.164062 42.238281 12.640625 39.265625 C 11.347656 38.136719 13.847656 36.976562 12.792969 35.773438 C 13.890625 33.046875 15.449219 31.574219 15.222656 27.417969 C 15.9375 27.464844 16.117188 28.042969 17.046875 27.875 C 17.234375 27.382812 16.554688 27.757812 16.742188 27.265625 C 17.066406 27.335938 17.035156 27.050781 17.046875 26.808594 C 19.042969 27.054688 21.476562 28.476562 23.425781 28.175781 Z M 23.425781 28.175781 "/>
<path style=" stroke:none;fill-rule:evenodd;fill:rgb(85.098039%,28.235294%,26.27451%);fill-opacity:1;" d="M 22.148438 33.835938 C 22.148438 34.378906 21.710938 34.816406 21.167969 34.816406 C 20.625 34.816406 20.1875 34.378906 20.1875 33.835938 C 20.1875 33.292969 20.625 32.855469 21.167969 32.855469 C 21.710938 32.855469 22.148438 33.292969 22.148438 33.835938 Z M 22.148438 33.835938 "/>
<path style=" stroke:none;fill-rule:evenodd;fill:rgb(85.098039%,28.235294%,26.27451%);fill-opacity:1;" d="M 25.910156 33.835938 C 25.910156 34.378906 25.46875 34.816406 24.929688 34.816406 C 24.386719 34.816406 23.945312 34.378906 23.945312 33.835938 C 23.945312 33.292969 24.386719 32.855469 24.929688 32.855469 C 25.46875 32.855469 25.910156 33.292969 25.910156 33.835938 Z M 25.910156 33.835938 "/>
<path style=" stroke:none;fill-rule:evenodd;fill:rgb(85.098039%,28.235294%,26.27451%);fill-opacity:1;" d="M 29.257812 43.480469 C 29.257812 44.023438 28.820312 44.460938 28.277344 44.460938 C 27.738281 44.460938 27.296875 44.023438 27.296875 43.480469 C 27.296875 42.9375 27.738281 42.5 28.277344 42.5 C 28.820312 42.5 29.257812 42.9375 29.257812 43.480469 Z M 29.257812 43.480469 "/>
<path style=" stroke:none;fill-rule:evenodd;fill:rgb(85.098039%,28.235294%,26.27451%);fill-opacity:1;" d="M 26.890625 36.777344 C 26.890625 37.320312 26.449219 37.757812 25.910156 37.757812 C 25.367188 37.757812 24.929688 37.320312 24.929688 36.777344 C 24.929688 36.238281 25.367188 35.796875 25.910156 35.796875 C 26.449219 35.796875 26.890625 36.238281 26.890625 36.777344 Z M 26.890625 36.777344 "/>
<path style=" stroke:none;fill-rule:evenodd;fill:rgb(85.098039%,28.235294%,26.27451%);fill-opacity:1;" d="M 30.976562 33.292969 C 30.976562 33.832031 30.535156 34.273438 29.996094 34.273438 C 29.453125 34.273438 29.015625 33.832031 29.015625 33.292969 C 29.015625 32.75 29.453125 32.3125 29.996094 32.3125 C 30.535156 32.3125 30.976562 32.75 30.976562 33.292969 Z M 30.976562 33.292969 "/>
<path style=" stroke:none;fill-rule:evenodd;fill:rgb(85.098039%,28.235294%,26.27451%);fill-opacity:1;" d="M 24.109375 35.796875 C 24.109375 36.339844 23.671875 36.777344 23.128906 36.777344 C 22.589844 36.777344 22.148438 36.339844 22.148438 35.796875 C 22.148438 35.257812 22.589844 34.816406 23.128906 34.816406 C 23.671875 34.816406 24.109375 35.257812 24.109375 35.796875 Z M 24.109375 35.796875 "/>
<path style=" stroke:none;fill-rule:evenodd;fill:rgb(85.098039%,28.235294%,26.27451%);fill-opacity:1;" d="M 19.042969 29.585938 C 19.042969 30.128906 18.605469 30.566406 18.0625 30.566406 C 17.519531 30.566406 17.082031 30.128906 17.082031 29.585938 C 17.082031 29.042969 17.519531 28.605469 18.0625 28.605469 C 18.605469 28.605469 19.042969 29.042969 19.042969 29.585938 Z M 19.042969 29.585938 "/>
<path style=" stroke:none;fill-rule:evenodd;fill:rgb(85.098039%,28.235294%,26.27451%);fill-opacity:1;" d="M 42.417969 33.292969 C 42.417969 33.832031 41.980469 34.273438 41.4375 34.273438 C 40.894531 34.273438 40.457031 33.832031 40.457031 33.292969 C 40.457031 32.75 40.894531 32.3125 41.4375 32.3125 C 41.980469 32.3125 42.417969 32.75 42.417969 33.292969 Z M 42.417969 33.292969 "/>
<path style=" stroke:none;fill-rule:evenodd;fill:rgb(85.098039%,28.235294%,26.27451%);fill-opacity:1;" d="M 45.851562 41.519531 C 45.851562 42.0625 45.410156 42.5 44.871094 42.5 C 44.328125 42.5 43.890625 42.0625 43.890625 41.519531 C 43.890625 40.976562 44.328125 40.539062 44.871094 40.539062 C 45.410156 40.539062 45.851562 40.976562 45.851562 41.519531 Z M 45.851562 41.519531 "/>
<path style=" stroke:none;fill-rule:evenodd;fill:rgb(85.098039%,28.235294%,26.27451%);fill-opacity:1;" d="M 52.308594 48.058594 C 52.308594 48.597656 51.867188 49.039062 51.328125 49.039062 C 50.785156 49.039062 50.347656 48.597656 50.347656 48.058594 C 50.347656 47.515625 50.785156 47.078125 51.328125 47.078125 C 51.867188 47.078125 52.308594 47.515625 52.308594 48.058594 Z M 52.308594 48.058594 "/>
<path style=" stroke:none;fill-rule:evenodd;fill:rgb(85.098039%,28.235294%,26.27451%);fill-opacity:1;" d="M 41.027344 51.570312 C 41.027344 52.113281 40.589844 52.554688 40.046875 52.554688 C 39.507812 52.554688 39.066406 52.113281 39.066406 51.570312 C 39.066406 51.03125 39.507812 50.589844 40.046875 50.589844 C 40.589844 50.589844 41.027344 51.03125 41.027344 51.570312 Z M 41.027344 51.570312 "/>
<path style=" stroke:none;fill-rule:evenodd;fill:rgb(85.098039%,28.235294%,26.27451%);fill-opacity:1;" d="M 40.046875 58.710938 C 40.046875 59.25 39.609375 59.691406 39.066406 59.691406 C 38.527344 59.691406 38.085938 59.25 38.085938 58.710938 C 38.085938 58.167969 38.527344 57.730469 39.066406 57.730469 C 39.609375 57.730469 40.046875 58.167969 40.046875 58.710938 Z M 40.046875 58.710938 "/>
<path style=" stroke:none;fill-rule:evenodd;fill:rgb(85.098039%,28.235294%,26.27451%);fill-opacity:1;" d="M 48.546875 54.296875 C 48.546875 54.835938 48.109375 55.277344 47.566406 55.277344 C 47.027344 55.277344 46.585938 54.835938 46.585938 54.296875 C 46.585938 53.753906 47.027344 53.316406 47.566406 53.316406 C 48.109375 53.316406 48.546875 53.753906 48.546875 54.296875 Z M 48.546875 54.296875 "/>
<path style=" stroke:none;fill-rule:evenodd;fill:rgb(85.098039%,28.235294%,26.27451%);fill-opacity:1;" d="M 50.019531 37.921875 C 50.019531 38.464844 49.582031 38.902344 49.039062 38.902344 C 48.496094 38.902344 48.058594 38.464844 48.058594 37.921875 C 48.058594 37.382812 48.496094 36.941406 49.039062 36.941406 C 49.582031 36.941406 50.019531 37.382812 50.019531 37.921875 Z M 50.019531 37.921875 "/>
<path style=" stroke:none;fill-rule:evenodd;fill:rgb(85.098039%,28.235294%,26.27451%);fill-opacity:1;" d="M 63.53125 45.824219 C 63.53125 46.367188 63.09375 46.804688 62.550781 46.804688 C 62.007812 46.804688 61.570312 46.367188 61.570312 45.824219 C 61.570312 45.28125 62.007812 44.84375 62.550781 44.84375 C 63.09375 44.84375 63.53125 45.28125 63.53125 45.824219 Z M 63.53125 45.824219 "/>
<path style=" stroke:none;fill-rule:evenodd;fill:rgb(85.098039%,28.235294%,26.27451%);fill-opacity:1;" d="M 36.777344 36.941406 C 36.777344 37.484375 36.339844 37.921875 35.796875 37.921875 C 35.257812 37.921875 34.816406 37.484375 34.816406 36.941406 C 34.816406 36.402344 35.257812 35.960938 35.796875 35.960938 C 36.339844 35.960938 36.777344 36.402344 36.777344 36.941406 Z M 36.777344 36.941406 "/>
<path style=" stroke:none;fill-rule:evenodd;fill:rgb(85.098039%,28.235294%,26.27451%);fill-opacity:1;" d="M 17.492188 40.128906 C 17.492188 40.671875 17.050781 41.109375 16.507812 41.109375 C 15.96875 41.109375 15.527344 40.671875 15.527344 40.128906 C 15.527344 39.589844 15.96875 39.148438 16.507812 39.148438 C 17.050781 39.148438 17.492188 39.589844 17.492188 40.128906 Z M 17.492188 40.128906 "/>
<path style=" stroke:none;fill-rule:evenodd;fill:rgb(85.098039%,28.235294%,26.27451%);fill-opacity:1;" d="M 24.929688 50.019531 C 24.929688 50.5625 24.488281 51 23.945312 51 C 23.40625 51 22.964844 50.5625 22.964844 50.019531 C 22.964844 49.476562 23.40625 49.039062 23.945312 49.039062 C 24.488281 49.039062 24.929688 49.476562 24.929688 50.019531 Z M 24.929688 50.019531 "/>
<path style=" stroke:none;fill-rule:evenodd;fill:rgb(85.098039%,28.235294%,26.27451%);fill-opacity:1;" d="M 31.222656 50.019531 C 31.222656 50.5625 30.78125 51 30.242188 51 C 29.699219 51 29.257812 50.5625 29.257812 50.019531 C 29.257812 49.476562 29.699219 49.039062 30.242188 49.039062 C 30.78125 49.039062 31.222656 49.476562 31.222656 50.019531 Z M 31.222656 50.019531 "/>
<path style=" stroke:none;fill-rule:evenodd;fill:rgb(85.098039%,28.235294%,26.27451%);fill-opacity:1;" d="M 37.757812 45.117188 C 37.757812 45.65625 37.320312 46.097656 36.777344 46.097656 C 36.238281 46.097656 35.796875 45.65625 35.796875 45.117188 C 35.796875 44.574219 36.238281 44.132812 36.777344 44.132812 C 37.320312 44.132812 37.757812 44.574219 37.757812 45.117188 Z M 37.757812 45.117188 "/>
<path style=" stroke:none;fill-rule:evenodd;fill:rgb(85.098039%,28.235294%,26.27451%);fill-opacity:1;" d="M 46.257812 36.941406 C 46.257812 37.484375 45.820312 37.921875 45.277344 37.921875 C 44.738281 37.921875 44.296875 37.484375 44.296875 36.941406 C 44.296875 36.402344 44.738281 35.960938 45.277344 35.960938 C 45.820312 35.960938 46.257812 36.402344 46.257812 36.941406 Z M 46.257812 36.941406 "/>
<path style=" stroke:none;fill-rule:evenodd;fill:rgb(85.098039%,28.235294%,26.27451%);fill-opacity:1;" d="M 51 41.519531 C 51 42.0625 50.5625 42.5 50.019531 42.5 C 49.476562 42.5 49.039062 42.0625 49.039062 41.519531 C 49.039062 40.976562 49.476562 40.539062 50.019531 40.539062 C 50.5625 40.539062 51 40.976562 51 41.519531 Z M 51 41.519531 "/>
<path style=" stroke:none;fill-rule:evenodd;fill:rgb(85.098039%,28.235294%,26.27451%);fill-opacity:1;" d="M 56.3125 48.058594 C 56.3125 48.597656 55.875 49.039062 55.332031 49.039062 C 54.789062 49.039062 54.351562 48.597656 54.351562 48.058594 C 54.351562 47.515625 54.789062 47.078125 55.332031 47.078125 C 55.875 47.078125 56.3125 47.515625 56.3125 48.058594 Z M 56.3125 48.058594 "/>
<path style=" stroke:none;fill-rule:evenodd;fill:rgb(85.098039%,28.235294%,26.27451%);fill-opacity:1;" d="M 63.996094 40.128906 C 63.996094 40.671875 63.554688 41.109375 63.015625 41.109375 C 62.472656 41.109375 62.035156 40.671875 62.035156 40.128906 C 62.035156 39.589844 62.472656 39.148438 63.015625 39.148438 C 63.554688 39.148438 63.996094 39.589844 63.996094 40.128906 Z M 63.996094 40.128906 "/>
<path style=" stroke:none;fill-rule:evenodd;fill:rgb(85.098039%,28.235294%,26.27451%);fill-opacity:1;" d="M 68.246094 34.980469 C 68.246094 35.523438 67.804688 35.960938 67.265625 35.960938 C 66.722656 35.960938 66.285156 35.523438 66.285156 34.980469 C 66.285156 34.4375 66.722656 34 67.265625 34 C 67.804688 34 68.246094 34.4375 68.246094 34.980469 Z M 68.246094 34.980469 "/>
<path style=" stroke:none;fill-rule:evenodd;fill:rgb(85.098039%,28.235294%,26.27451%);fill-opacity:1;" d="M 58.273438 50.019531 C 58.273438 50.5625 57.835938 51 57.292969 51 C 56.75 51 56.3125 50.5625 56.3125 50.019531 C 56.3125 49.476562 56.75 49.039062 57.292969 49.039062 C 57.835938 49.039062 58.273438 49.476562 58.273438 50.019531 Z M 58.273438 50.019531 "/>
<path style=" stroke:none;fill-rule:evenodd;fill:rgb(85.098039%,28.235294%,26.27451%);fill-opacity:1;" d="M 58.273438 53.535156 C 58.273438 54.074219 57.835938 54.515625 57.292969 54.515625 C 56.75 54.515625 56.3125 54.074219 56.3125 53.535156 C 56.3125 52.992188 56.75 52.554688 57.292969 52.554688 C 57.835938 52.554688 58.273438 52.992188 58.273438 53.535156 Z M 58.273438 53.535156 "/>
</g>
</svg>
