<?xml version="1.0" encoding="UTF-8"?>
<svg xmlns="http://www.w3.org/2000/svg" xmlns:xlink="http://www.w3.org/1999/xlink" width="85pt" height="85pt" viewBox="0 0 85 85" version="1.1">
<g id="surface1">
<path style=" stroke:none;fill-rule:nonzero;fill:rgb(85.098039%,28.235294%,26.27451%);fill-opacity:1;" d="M 84.347656 42.5 C 84.347656 65.609375 65.609375 84.347656 42.5 84.347656 C 19.390625 84.347656 0.652344 65.609375 0.652344 42.5 C 0.652344 19.390625 19.390625 0.652344 42.5 0.652344 C 65.609375 0.652344 84.347656 19.390625 84.347656 42.5 Z M 84.347656 42.5 "/>
<path style=" stroke:none;fill-rule:nonzero;fill:rgb(100%,100%,100%);fill-opacity:1;" d="M 11.769531 29.421875 L 35.960938 29.421875 L 35.960938 54.269531 L 11.769531 54.269531 Z M 11.769531 29.421875 "/>
<path style=" stroke:none;fill-rule:nonzero;fill:rgb(100%,100%,100%);fill-opacity:1;" d="M 39.230469 35.960938 L 57.539062 35.960938 L 57.539062 54.269531 L 39.230469 54.269531 Z M 39.230469 35.960938 "/>
<path style=" stroke:none;fill-rule:nonzero;fill:rgb(100%,100%,100%);fill-opacity:1;" d="M 60.808594 41.847656 L 73.230469 41.847656 L 73.230469 54.269531 L 60.808594 54.269531 Z M 60.808594 41.847656 "/>
</g>
</svg>
