<?xml version="1.0" encoding="UTF-8"?>
<svg xmlns="http://www.w3.org/2000/svg" xmlns:xlink="http://www.w3.org/1999/xlink" width="85pt" height="85pt" viewBox="0 0 85 85" version="1.1">
<g id="surface1">
<path style=" stroke:none;fill-rule:nonzero;fill:rgb(85.098039%,28.235294%,26.27451%);fill-opacity:1;" d="M 84.347656 42.5 C 84.347656 65.609375 65.609375 84.34375 42.5 84.34375 C 19.390625 84.34375 0.652344 65.609375 0.652344 42.5 C 0.652344 19.386719 19.390625 0.652344 42.5 0.652344 C 65.609375 0.652344 84.347656 19.386719 84.347656 42.5 Z M 84.347656 42.5 "/>
<path style=" stroke:none;fill-rule:nonzero;fill:rgb(100%,100%,100%);fill-opacity:1;" d="M 12.480469 41.609375 L 70.335938 41.609375 L 70.335938 43.570312 L 12.480469 43.570312 Z M 12.480469 41.609375 "/>
<path style=" stroke:none;fill-rule:nonzero;fill:rgb(85.098039%,28.235294%,26.27451%);fill-opacity:1;" d="M 31.402344 42.589844 C 31.402344 44.601562 29.773438 46.230469 27.761719 46.230469 C 25.753906 46.230469 24.125 44.601562 24.125 42.589844 C 24.125 40.582031 25.753906 38.953125 27.761719 38.953125 C 29.773438 38.953125 31.402344 40.582031 31.402344 42.589844 Z M 31.402344 42.589844 "/>
<path style=" stroke:none;fill-rule:nonzero;fill:rgb(100%,100%,100%);fill-opacity:1;" d="M 27.761719 47.210938 C 25.214844 47.210938 23.144531 45.136719 23.144531 42.589844 C 23.144531 40.042969 25.214844 37.972656 27.761719 37.972656 C 30.3125 37.972656 32.382812 40.042969 32.382812 42.589844 C 32.382812 45.136719 30.308594 47.210938 27.761719 47.210938 Z M 27.761719 39.933594 C 26.296875 39.933594 25.105469 41.125 25.105469 42.589844 C 25.105469 44.058594 26.296875 45.25 27.761719 45.25 C 29.230469 45.25 30.421875 44.058594 30.421875 42.589844 C 30.421875 41.125 29.230469 39.933594 27.761719 39.933594 Z M 27.761719 39.933594 "/>
<path style=" stroke:none;fill-rule:nonzero;fill:rgb(85.098039%,28.235294%,26.27451%);fill-opacity:1;" d="M 52.503906 42.589844 C 52.503906 44.601562 50.875 46.230469 48.867188 46.230469 C 46.859375 46.230469 45.226562 44.601562 45.226562 42.589844 C 45.226562 40.582031 46.859375 38.953125 48.867188 38.953125 C 50.875 38.953125 52.503906 40.582031 52.503906 42.589844 Z M 52.503906 42.589844 "/>
<path style=" stroke:none;fill-rule:nonzero;fill:rgb(100%,100%,100%);fill-opacity:1;" d="M 48.867188 47.210938 C 46.320312 47.210938 44.25 45.136719 44.25 42.589844 C 44.25 40.042969 46.320312 37.972656 48.867188 37.972656 C 51.414062 37.972656 53.488281 40.042969 53.488281 42.589844 C 53.488281 45.136719 51.414062 47.210938 48.867188 47.210938 Z M 48.867188 39.933594 C 47.402344 39.933594 46.210938 41.125 46.210938 42.589844 C 46.210938 44.058594 47.402344 45.25 48.867188 45.25 C 50.332031 45.25 51.527344 44.058594 51.527344 42.589844 C 51.527344 41.125 50.332031 39.933594 48.867188 39.933594 Z M 48.867188 39.933594 "/>
<path style=" stroke:none;fill-rule:nonzero;fill:rgb(100%,100%,100%);fill-opacity:1;" d="M 65.5625 49.582031 L 64.167969 48.203125 L 69.824219 42.5 L 64.167969 36.796875 L 65.5625 35.417969 L 72.589844 42.5 Z M 65.5625 49.582031 "/>
</g>
</svg>
