<?xml version="1.0" encoding="UTF-8"?>
<svg xmlns="http://www.w3.org/2000/svg" xmlns:xlink="http://www.w3.org/1999/xlink" width="85pt" height="85pt" viewBox="0 0 85 85" version="1.1">
<g id="surface1">
<path style=" stroke:none;fill-rule:nonzero;fill:rgb(85.098039%,28.235294%,26.27451%);fill-opacity:1;" d="M 84.347656 42.5 C 84.347656 65.609375 65.609375 84.347656 42.5 84.347656 C 19.390625 84.347656 0.652344 65.609375 0.652344 42.5 C 0.652344 19.390625 19.390625 0.652344 42.5 0.652344 C 65.609375 0.652344 84.347656 19.390625 84.347656 42.5 Z M 84.347656 42.5 "/>
<path style="fill:none;stroke-width:3;stroke-linecap:round;stroke-linejoin:round;stroke:rgb(100%,100%,100%);stroke-opacity:1;stroke-miterlimit:4;" d="M 70.980239 65 C 70.980239 78.555607 59.987592 89.542279 46.43796 89.542279 C 32.882353 89.542279 21.89568 78.555607 21.89568 65 C 21.89568 51.444393 32.882353 40.457721 46.43796 40.457721 C 59.987592 40.457721 70.980239 51.444393 70.980239 65 Z M 70.980239 65 " transform="matrix(0.653846,0,0,0.653846,0,0)"/>
<path style="fill:none;stroke-width:3;stroke-linecap:round;stroke-linejoin:round;stroke:rgb(100%,100%,100%);stroke-opacity:1;stroke-miterlimit:4;" d="M 108.10432 65 C 108.10432 78.555607 97.117647 89.542279 83.56204 89.542279 C 70.012408 89.542279 59.019761 78.555607 59.019761 65 C 59.019761 51.444393 70.012408 40.457721 83.56204 40.457721 C 97.117647 40.457721 108.10432 51.444393 108.10432 65 Z M 108.10432 65 " transform="matrix(0.653846,0,0,0.653846,0,0)"/>
</g>
</svg>
