<?xml version="1.0" encoding="utf-8"?>
<!-- Generator: Adobe Illustrator 16.0.0, SVG Export Plug-In . SVG Version: 6.00 Build 0)  -->
<!DOCTYPE svg PUBLIC "-//W3C//DTD SVG 1.1//EN" "http://www.w3.org/Graphics/SVG/1.1/DTD/svg11.dtd">
<svg version="1.1" id="Layer_1" xmlns="http://www.w3.org/2000/svg" xmlns:xlink="http://www.w3.org/1999/xlink" x="0px" y="0px"
	 width="130px" height="130px" viewBox="0 0 130 130" enable-background="new 0 0 130 130" xml:space="preserve">
<g>
	<circle fill="#D94843" cx="65" cy="64.999" r="64"/>
	<g>
		<g opacity="0.5">
			<path fill="#FFFFFF" d="M38.229,43.212c0.347,0.12,0.017,0.235-0.222,0.226c7.483,1.919,18.436,3.45,29.78,2.687
				c0.096,1.195,1.604,1.594,2.688,1.121c1.243,1.001,2.656,0.856,4.701,1.117c-0.963,0.753-2.256,1.177-2.685,2.47
				c0.603,0.8,0.87-0.609,1.567-0.456c0.914-0.066-0.037,0.315,0.224,0.898c1.296-0.029,2.253-1.386,3.581-2.015
				c-0.547,1.017,0.713,1.303,1.121,2.015c2.17-0.697,3.154-1.034,4.703-0.223c-0.164,2.315,2.754,2.022,1.57,4.701
				c0.188,0.657,0.559-0.291,1.115,0c1.273,1.663,0.2,2.881-0.448,4.706c2.688,1.048,6.45-1.255,6.941-4.48
				c1.598,0.003,2.521-0.022,3.583-0.896c-0.415-4.318,3.355-3.737,6.27-4.925c1.652-1.481,0.454-6.774,4.032-5.597
				c0.156,1.858,0.888,3.139,2.239,3.802c-0.248,1.322-1.713,1.421-1.789,2.912c-2.032-0.002-2.049,1.94-2.241,4.256
				c0.204,0.196,1.269,0.641,1.347,0.222c0.303,0.836-0.74,2.248-2.021,2.244c-0.774,0.937-1.562,1.868-3.134,2.011
				c0.668,2.651-1.176,3.348-0.449,6.049c-2.417,0.99-0.213,3.903,0.449,5.149c-0.609,1.928-3.286,1.786-3.357,4.254
				c-0.635,0.03-1.172,0.144-1.787,0.672c-0.337,1.685-1.255,2.787-2.691,3.358c-0.174,1.416-0.871,2.578-0.672,4.031
				c0.267,1.949,2.188,3.031,2.463,5.148c1.104,1.383,2.047,3.007,1.567,5.374c-0.401-0.024-0.474,0.276-0.897,0.222
				c-2.295-1.768-4.883-3.543-4.701-7.162c-1.204-0.438-1.404-1.879-2.909-2.016c-0.854,0.119-0.954,0.986-1.793,1.121
				c-1.608-2.812-4.759-0.1-7.39-0.676c-0.344,0.637-0.467,1.621-0.227,2.242c-2.82,1.111-2.892-0.299-5.594-0.224
				c-3.582-2.083-5.789,2.204-8.737,2.909c-0.96,1.426-0.945,2.952-0.221,4.704c-1.81-0.095-1.967-0.83-3.806-1.122
				c-0.319-1.396-0.431-3.004-1.797-3.355c-0.354-2.336-1.408-3.965-3.803-4.254c-0.8,0.316-1.093,1.146-1.567,1.789
				c-2.283-0.326-2.395-2.115-2.688-3.136c-0.398-1.39-2.076-1.587-2.687-3.358c-0.766,0.332-1.779-0.067-2.688-0.225
				c-0.723-0.197-0.464,0.58-0.897,0.672c-5.451,0.523-7.269-2.585-10.971-3.812c0.093-0.466-0.154-0.589-0.226-0.894
				c-1.778-0.142-2.588,0.088-4.029-0.445c0.017-3.154-2.346-3.993-4.703-5.377c-0.043-4.312-2.719-7.714-2.017-12.09
				c-1.907-1.666,1.78-3.379,0.226-5.15c1.62-4.021,3.915-6.189,3.582-12.315c1.053,0.066,1.316,0.92,2.688,0.672
				c0.276-0.724-0.724-0.174-0.448-0.897c0.477,0.104,0.428-0.319,0.448-0.673C31.769,41.56,35.356,43.656,38.229,43.212z"/>
		</g>
		<circle fill="#FFFFFF" cx="37.883" cy="57.149" r="9.823"/>
		<path fill="#FFFFFF" d="M70.96,57.056c0,2.775-2.25,5.031-5.03,5.031c-2.778,0-5.029-2.255-5.029-5.031
			c0-2.779,2.251-5.031,5.029-5.031C68.71,52.024,70.96,54.276,70.96,57.056z"/>
		<circle fill="#FFFFFF" cx="74.02" cy="71.122" r="2.567"/>
		<path fill="#FFFFFF" d="M65.47,73.87c0,4.548-3.685,8.233-8.233,8.233c-4.545,0-8.231-3.687-8.231-8.233
			c0-4.544,3.687-8.231,8.231-8.231C61.785,65.639,65.47,69.326,65.47,73.87z"/>
		<path fill="#FFFFFF" d="M95.551,70.068c0,3.537-2.867,6.404-6.406,6.404c-3.531,0-6.399-2.867-6.399-6.404
			c0-3.536,2.868-6.401,6.399-6.401C92.684,63.667,95.551,66.532,95.551,70.068z"/>
	</g>
</g>
</svg>
