<?xml version="1.0" encoding="utf-8"?>
<!-- Generator: Adobe Illustrator 16.0.0, SVG Export Plug-In . SVG Version: 6.00 Build 0)  -->
<!DOCTYPE svg PUBLIC "-//W3C//DTD SVG 1.1//EN" "http://www.w3.org/Graphics/SVG/1.1/DTD/svg11.dtd">
<svg version="1.1" id="Layer_1" xmlns="http://www.w3.org/2000/svg" xmlns:xlink="http://www.w3.org/1999/xlink" x="0px" y="0px"
	 width="130px" height="130px" viewBox="0 0 130 130" enable-background="new 0 0 130 130" xml:space="preserve">
<circle fill="#D94843" cx="65" cy="64.999" r="64"/>
<g>
	<rect x="27.644" y="31.647" fill="#FFFFFF" width="74.713" height="5.23"/>
	<rect x="27.644" y="38.815" opacity="0.7" fill="#FFFFFF" enable-background="new    " width="13.168" height="13.167"/>
	<rect x="43.018" y="38.815" opacity="0.7" fill="#FFFFFF" enable-background="new    " width="13.167" height="13.167"/>
	<rect x="58.392" y="38.815" opacity="0.7" fill="#FFFFFF" enable-background="new    " width="13.168" height="13.167"/>
	<rect x="73.768" y="38.815" opacity="0.7" fill="#FFFFFF" enable-background="new    " width="13.168" height="13.167"/>
	<rect x="89.143" y="38.815" opacity="0.7" fill="#FFFFFF" enable-background="new    " width="13.166" height="13.167"/>
	<g enable-background="new    ">
		<path fill="#D94843" d="M35.147,42.357v4.873c0,0.367,0.016,0.601,0.048,0.701c0.032,0.102,0.1,0.185,0.202,0.248
			c0.103,0.065,0.267,0.098,0.492,0.098h0.136v0.162h-3.138v-0.162h0.158c0.255,0,0.437-0.029,0.545-0.088s0.182-0.14,0.22-0.242
			s0.057-0.341,0.057-0.717v-3.089c0-0.275-0.013-0.447-0.04-0.517c-0.026-0.068-0.076-0.127-0.147-0.176
			c-0.072-0.048-0.155-0.072-0.249-0.072c-0.149,0-0.331,0.047-0.545,0.141l-0.079-0.158l2.193-1.002H35.147z"/>
	</g>
	<g enable-background="new    ">
		<path fill="#D94843" d="M50.878,48.439h-3.507v-0.097c1.075-1.28,1.728-2.142,1.958-2.584c0.229-0.442,0.345-0.874,0.345-1.296
			c0-0.309-0.095-0.563-0.286-0.768c-0.19-0.203-0.423-0.305-0.699-0.305c-0.451,0-0.801,0.226-1.05,0.676l-0.163-0.057
			c0.158-0.562,0.398-0.979,0.721-1.248s0.694-0.404,1.116-0.404c0.302,0,0.577,0.07,0.826,0.211s0.444,0.333,0.584,0.578
			c0.141,0.244,0.211,0.474,0.211,0.688c0,0.39-0.108,0.785-0.325,1.187c-0.296,0.542-0.942,1.298-1.938,2.268h1.288
			c0.316,0,0.522-0.013,0.618-0.04c0.095-0.025,0.173-0.07,0.235-0.134c0.062-0.062,0.142-0.195,0.242-0.397h0.158L50.878,48.439z"
			/>
	</g>
	<g enable-background="new    ">
		<path fill="#D94843" d="M63.949,45.324V45.17c0.334-0.096,0.565-0.187,0.694-0.27c0.129-0.084,0.24-0.211,0.334-0.383
			c0.094-0.171,0.141-0.345,0.141-0.521c0-0.243-0.089-0.452-0.266-0.626c-0.177-0.175-0.397-0.262-0.661-0.262
			c-0.41,0-0.759,0.217-1.046,0.65l-0.163-0.057c0.211-0.489,0.481-0.857,0.811-1.104c0.329-0.246,0.696-0.369,1.101-0.369
			c0.413,0,0.754,0.126,1.021,0.378c0.269,0.252,0.402,0.547,0.402,0.884c0,0.219-0.062,0.431-0.187,0.635
			c-0.125,0.203-0.32,0.383-0.587,0.538c0.343,0.167,0.604,0.373,0.784,0.617c0.181,0.245,0.271,0.552,0.271,0.921
			c0,0.621-0.225,1.149-0.675,1.584c-0.45,0.436-1.052,0.652-1.808,0.652c-0.504,0-0.872-0.083-1.103-0.25
			c-0.167-0.117-0.25-0.268-0.25-0.453c0-0.134,0.048-0.249,0.145-0.345c0.097-0.095,0.208-0.143,0.334-0.143
			c0.097,0,0.188,0.021,0.272,0.062c0.047,0.023,0.213,0.151,0.499,0.385c0.285,0.232,0.553,0.35,0.802,0.35
			c0.217,0,0.403-0.086,0.558-0.258c0.155-0.171,0.233-0.389,0.233-0.652c0-0.401-0.141-0.771-0.422-1.109
			C64.902,45.687,64.491,45.453,63.949,45.324z"/>
	</g>
	<g enable-background="new    ">
		<path fill="#D94843" d="M77.921,46.193l2.83-3.836h0.537v3.836h0.545v0.91h-0.545v1.336h-1.209v-1.336h-2.158V46.193z
			 M78.348,46.193h1.731v-2.351L78.348,46.193z"/>
	</g>
	<g enable-background="new    ">
		<path fill="#D94843" d="M94.664,42.588h2.79l-0.443,1.134h-2.347l-0.224,0.593c1.01,0.039,1.788,0.291,2.333,0.756
			c0.448,0.385,0.673,0.861,0.673,1.434c0,0.366-0.104,0.724-0.312,1.074c-0.208,0.35-0.501,0.619-0.879,0.809
			c-0.378,0.188-0.793,0.283-1.244,0.283c-0.486,0-0.859-0.091-1.12-0.272c-0.182-0.129-0.272-0.275-0.272-0.439
			c0-0.126,0.047-0.237,0.143-0.334s0.206-0.146,0.332-0.146c0.114,0,0.23,0.024,0.348,0.07c0.117,0.048,0.317,0.171,0.602,0.369
			c0.179,0.123,0.332,0.209,0.461,0.256c0.092,0.035,0.193,0.053,0.309,0.053c0.24,0,0.443-0.088,0.612-0.264
			s0.253-0.387,0.253-0.633c0-0.516-0.258-0.935-0.773-1.258c-0.516-0.321-1.166-0.482-1.951-0.482
			c-0.079,0-0.197,0.001-0.355,0.004L94.664,42.588z"/>
	</g>
	<rect x="27.644" y="54.225" opacity="0.7" fill="#FFFFFF" enable-background="new    " width="13.168" height="13.169"/>
	<rect x="43.018" y="54.225" opacity="0.7" fill="#FFFFFF" enable-background="new    " width="13.167" height="13.169"/>
	<rect x="58.392" y="54.225" opacity="0.7" fill="#FFFFFF" enable-background="new    " width="13.168" height="13.169"/>
	<rect x="73.768" y="54.225" opacity="0.7" fill="#FFFFFF" enable-background="new    " width="13.168" height="13.169"/>
	<rect x="89.143" y="54.225" opacity="0.7" fill="#FFFFFF" enable-background="new    " width="13.166" height="13.169"/>
	<g enable-background="new    ">
		<path fill="#D94843" d="M36.026,57.917v0.123c-0.53,0.135-0.956,0.309-1.276,0.521c-0.321,0.213-0.575,0.471-0.761,0.773
			c-0.186,0.304-0.33,0.679-0.433,1.128c0.129-0.088,0.236-0.146,0.321-0.172c0.19-0.059,0.382-0.088,0.576-0.088
			c0.445,0,0.816,0.162,1.114,0.485c0.297,0.324,0.446,0.766,0.446,1.325c0,0.393-0.081,0.753-0.242,1.081s-0.39,0.582-0.686,0.761
			c-0.296,0.178-0.612,0.268-0.949,0.268c-0.366,0-0.705-0.101-1.015-0.301c-0.311-0.201-0.553-0.494-0.727-0.881
			c-0.175-0.387-0.262-0.808-0.262-1.262c0-0.668,0.16-1.29,0.481-1.865c0.32-0.576,0.776-1.034,1.366-1.376
			C34.571,58.097,35.253,57.923,36.026,57.917z M33.5,60.818c-0.023,0.404-0.035,0.7-0.035,0.888c0,0.404,0.039,0.796,0.117,1.173
			c0.077,0.379,0.184,0.644,0.318,0.796c0.097,0.108,0.211,0.163,0.343,0.163c0.135,0,0.255-0.079,0.36-0.235
			c0.105-0.157,0.158-0.476,0.158-0.956c0-0.809-0.098-1.367-0.294-1.674c-0.126-0.199-0.296-0.299-0.51-0.299
			C33.839,60.673,33.687,60.721,33.5,60.818z"/>
	</g>
	<g enable-background="new    ">
		<path fill="#D94843" d="M48.523,64.061l1.622-4.918H48.91c-0.483,0-0.847,0.063-1.09,0.189c-0.17,0.088-0.311,0.254-0.422,0.496
			h-0.167l0.431-1.85h3.551l-2,6.082H48.523z"/>
	</g>
	<g enable-background="new    ">
		<path fill="#D94843" d="M65.794,60.623c0.419,0.308,0.71,0.594,0.872,0.859c0.163,0.265,0.244,0.569,0.244,0.911
			c0,0.481-0.181,0.888-0.543,1.22c-0.362,0.333-0.854,0.499-1.474,0.499c-0.589,0-1.044-0.145-1.367-0.436
			c-0.322-0.289-0.483-0.644-0.483-1.062c0-0.319,0.093-0.6,0.279-0.84c0.186-0.24,0.496-0.46,0.929-0.659
			c-0.472-0.36-0.774-0.655-0.908-0.884s-0.2-0.493-0.2-0.795c0-0.398,0.169-0.749,0.507-1.053c0.339-0.303,0.802-0.455,1.391-0.455
			c0.569,0,1.005,0.135,1.312,0.402c0.306,0.269,0.459,0.59,0.459,0.965c0,0.281-0.083,0.529-0.248,0.745
			C66.399,60.255,66.143,60.45,65.794,60.623z M64.581,61.326c-0.091,0.082-0.155,0.157-0.193,0.224
			c-0.059,0.104-0.111,0.253-0.158,0.449s-0.07,0.401-0.07,0.615c0,0.275,0.035,0.506,0.105,0.691c0.07,0.187,0.17,0.32,0.301,0.402
			s0.265,0.123,0.402,0.123c0.214,0,0.394-0.078,0.54-0.235c0.146-0.156,0.221-0.371,0.221-0.644
			C65.729,62.383,65.346,61.841,64.581,61.326z M65.46,60.399c0.108-0.146,0.188-0.311,0.241-0.492s0.08-0.381,0.08-0.598
			c0-0.381-0.082-0.673-0.246-0.875c-0.124-0.155-0.293-0.232-0.51-0.232c-0.196,0-0.363,0.07-0.501,0.213
			c-0.138,0.142-0.207,0.318-0.207,0.529c0,0.214,0.077,0.436,0.23,0.666C64.702,59.839,65.006,60.103,65.46,60.399z"/>
	</g>
	<g enable-background="new    ">
		<path fill="#D94843" d="M78.598,63.912v-0.123c0.486-0.111,0.898-0.275,1.236-0.492c0.339-0.217,0.606-0.484,0.805-0.805
			c0.197-0.318,0.336-0.687,0.415-1.103c-0.182,0.094-0.336,0.159-0.464,0.195c-0.127,0.037-0.262,0.056-0.402,0.056
			c-0.451,0-0.826-0.163-1.127-0.488s-0.45-0.771-0.45-1.336c0-0.393,0.081-0.752,0.244-1.079c0.162-0.326,0.395-0.58,0.696-0.76
			c0.302-0.181,0.615-0.271,0.94-0.271c0.349,0,0.679,0.1,0.989,0.299s0.558,0.488,0.742,0.865c0.185,0.379,0.277,0.809,0.277,1.293
			c0,0.627-0.15,1.228-0.451,1.801c-0.301,0.575-0.748,1.035-1.342,1.383C80.111,63.694,79.408,63.883,78.598,63.912z
			 M81.119,61.021c0.029-0.328,0.045-0.616,0.045-0.866c0-0.532-0.062-1.029-0.186-1.489c-0.07-0.255-0.174-0.442-0.312-0.562
			c-0.073-0.064-0.169-0.097-0.286-0.097c-0.146,0-0.26,0.063-0.342,0.189c-0.115,0.173-0.172,0.502-0.172,0.988
			c0,0.812,0.097,1.371,0.29,1.679c0.126,0.199,0.296,0.299,0.51,0.299C80.781,61.161,80.932,61.114,81.119,61.021z"/>
	</g>
	<g enable-background="new    ">
		<path fill="#D94843" d="M94.102,57.997v4.873c0,0.367,0.017,0.601,0.049,0.701c0.032,0.102,0.1,0.185,0.202,0.248
			c0.103,0.065,0.267,0.098,0.492,0.098h0.136v0.162h-3.137v-0.162h0.158c0.254,0,0.436-0.029,0.545-0.088
			c0.107-0.059,0.182-0.14,0.219-0.242c0.039-0.103,0.058-0.341,0.058-0.717v-3.089c0-0.275-0.013-0.447-0.04-0.517
			c-0.025-0.068-0.075-0.127-0.146-0.176c-0.072-0.048-0.154-0.072-0.248-0.072c-0.15,0-0.332,0.047-0.545,0.141l-0.08-0.158
			l2.193-1.002H94.102z"/>
		<path fill="#D94843" d="M99.842,61.1c0,0.595-0.084,1.15-0.251,1.665c-0.1,0.316-0.233,0.576-0.402,0.778
			s-0.359,0.362-0.573,0.481c-0.214,0.118-0.447,0.178-0.699,0.178c-0.287,0-0.546-0.073-0.777-0.22s-0.437-0.356-0.615-0.628
			c-0.129-0.199-0.242-0.465-0.338-0.796c-0.127-0.448-0.189-0.911-0.189-1.389c0-0.647,0.091-1.242,0.272-1.784
			c0.149-0.448,0.376-0.792,0.681-1.03c0.305-0.239,0.627-0.358,0.967-0.358c0.346,0,0.669,0.118,0.97,0.354
			c0.3,0.236,0.521,0.554,0.661,0.951C99.743,59.851,99.842,60.449,99.842,61.1z M98.488,61.091c0-1.043-0.006-1.65-0.018-1.824
			c-0.029-0.406-0.1-0.682-0.211-0.826c-0.074-0.093-0.192-0.141-0.356-0.141c-0.126,0-0.226,0.035-0.299,0.105
			c-0.108,0.104-0.182,0.284-0.22,0.543c-0.038,0.26-0.057,1.164-0.057,2.714c0,0.844,0.029,1.409,0.088,1.696
			c0.043,0.208,0.106,0.348,0.188,0.418s0.19,0.105,0.325,0.105c0.146,0,0.256-0.047,0.33-0.141
			c0.123-0.164,0.193-0.418,0.211-0.761L98.488,61.091z"/>
	</g>
	<rect x="27.644" y="69.773" opacity="0.7" fill="#FFFFFF" enable-background="new    " width="13.168" height="13.17"/>
	<rect x="43.018" y="69.773" opacity="0.7" fill="#FFFFFF" enable-background="new    " width="13.167" height="13.17"/>
	<rect x="58.392" y="69.773" opacity="0.7" fill="#FFFFFF" enable-background="new    " width="13.168" height="13.17"/>
	<rect x="73.768" y="69.773" opacity="0.7" fill="#FFFFFF" enable-background="new    " width="13.168" height="13.17"/>
	<rect x="89.143" y="69.773" opacity="0.7" fill="#FFFFFF" enable-background="new    " width="13.166" height="13.17"/>
	<g enable-background="new    ">
		<path fill="#D94843" d="M32.978,73.385v4.873c0,0.367,0.016,0.601,0.048,0.701c0.032,0.102,0.1,0.185,0.202,0.248
			c0.103,0.065,0.267,0.098,0.492,0.098h0.136v0.162h-3.138v-0.162h0.158c0.255,0,0.437-0.029,0.545-0.088s0.182-0.14,0.22-0.242
			s0.057-0.341,0.057-0.717v-3.089c0-0.275-0.013-0.447-0.04-0.517c-0.026-0.068-0.076-0.127-0.147-0.176
			c-0.072-0.048-0.155-0.072-0.249-0.072c-0.149,0-0.331,0.047-0.545,0.141l-0.079-0.158l2.193-1.002H32.978z"/>
		<path fill="#D94843" d="M36.981,73.385v4.873c0,0.367,0.016,0.601,0.048,0.701c0.032,0.102,0.1,0.185,0.202,0.248
			c0.103,0.065,0.267,0.098,0.492,0.098h0.136v0.162h-3.138v-0.162h0.158c0.255,0,0.437-0.029,0.545-0.088s0.182-0.14,0.22-0.242
			s0.057-0.341,0.057-0.717v-3.089c0-0.275-0.013-0.447-0.04-0.517c-0.026-0.068-0.076-0.127-0.147-0.176
			c-0.072-0.048-0.155-0.072-0.249-0.072c-0.149,0-0.331,0.047-0.545,0.141l-0.079-0.158l2.193-1.002H36.981z"/>
	</g>
	<g enable-background="new    ">
		<path fill="#D94843" d="M47.956,73.619v4.873c0,0.367,0.016,0.601,0.048,0.701c0.032,0.102,0.1,0.185,0.202,0.248
			c0.103,0.065,0.267,0.098,0.492,0.098h0.136v0.162h-3.138v-0.162h0.158c0.255,0,0.437-0.029,0.545-0.088s0.182-0.14,0.22-0.242
			s0.057-0.341,0.057-0.717v-3.089c0-0.275-0.013-0.447-0.04-0.517c-0.026-0.068-0.076-0.127-0.147-0.176
			c-0.072-0.048-0.155-0.072-0.249-0.072c-0.149,0-0.331,0.047-0.545,0.141l-0.079-0.158l2.193-1.002H47.956z"/>
		<path fill="#D94843" d="M53.251,79.701h-3.507v-0.097c1.075-1.28,1.728-2.142,1.958-2.584c0.229-0.442,0.345-0.874,0.345-1.296
			c0-0.309-0.095-0.563-0.286-0.768c-0.19-0.203-0.423-0.305-0.699-0.305c-0.451,0-0.801,0.226-1.05,0.676l-0.163-0.057
			c0.158-0.562,0.398-0.979,0.721-1.248s0.694-0.404,1.116-0.404c0.302,0,0.577,0.07,0.826,0.211s0.444,0.333,0.584,0.578
			c0.141,0.244,0.211,0.474,0.211,0.688c0,0.39-0.108,0.785-0.325,1.187c-0.296,0.542-0.942,1.298-1.938,2.268h1.288
			c0.316,0,0.522-0.013,0.618-0.04c0.095-0.025,0.173-0.07,0.235-0.134c0.062-0.062,0.142-0.195,0.242-0.397h0.158L53.251,79.701z"
			/>
	</g>
	<g enable-background="new    ">
		<path fill="#D94843" d="M63.517,73.619v4.873c0,0.367,0.016,0.601,0.048,0.701c0.032,0.102,0.1,0.185,0.202,0.248
			c0.103,0.065,0.267,0.098,0.492,0.098h0.136v0.162h-3.138v-0.162h0.158c0.255,0,0.437-0.029,0.545-0.088s0.182-0.14,0.22-0.242
			s0.057-0.341,0.057-0.717v-3.089c0-0.275-0.013-0.447-0.04-0.517c-0.026-0.068-0.076-0.127-0.147-0.176
			c-0.072-0.048-0.155-0.072-0.249-0.072c-0.149,0-0.331,0.047-0.545,0.141l-0.079-0.158l2.193-1.002H63.517z"/>
		<path fill="#D94843" d="M66.418,76.713v-0.154c0.334-0.096,0.564-0.187,0.693-0.27c0.129-0.084,0.24-0.211,0.334-0.383
			c0.094-0.171,0.141-0.345,0.141-0.521c0-0.243-0.088-0.452-0.266-0.626c-0.178-0.175-0.397-0.262-0.661-0.262
			c-0.41,0-0.759,0.217-1.046,0.65l-0.163-0.057c0.211-0.489,0.481-0.857,0.811-1.104c0.329-0.246,0.696-0.369,1.101-0.369
			c0.413,0,0.754,0.126,1.021,0.378c0.269,0.252,0.402,0.547,0.402,0.884c0,0.219-0.062,0.431-0.187,0.635
			c-0.125,0.203-0.32,0.383-0.587,0.538c0.343,0.167,0.604,0.373,0.784,0.617c0.181,0.245,0.271,0.552,0.271,0.921
			c0,0.621-0.226,1.149-0.675,1.584c-0.449,0.436-1.053,0.652-1.809,0.652c-0.504,0-0.871-0.083-1.103-0.25
			c-0.167-0.117-0.25-0.268-0.25-0.453c0-0.134,0.048-0.249,0.145-0.345c0.097-0.095,0.208-0.143,0.334-0.143
			c0.097,0,0.188,0.021,0.272,0.062c0.047,0.023,0.213,0.151,0.499,0.385c0.285,0.232,0.553,0.35,0.802,0.35
			c0.217,0,0.402-0.086,0.559-0.258c0.154-0.171,0.232-0.389,0.232-0.652c0-0.401-0.141-0.771-0.422-1.109
			C67.371,77.075,66.959,76.842,66.418,76.713z"/>
	</g>
	<g enable-background="new    ">
		<path fill="#D94843" d="M78.669,73.385v4.873c0,0.367,0.016,0.601,0.048,0.701c0.032,0.102,0.1,0.185,0.202,0.248
			c0.103,0.065,0.267,0.098,0.492,0.098h0.137v0.162h-3.139v-0.162h0.158c0.256,0,0.438-0.029,0.545-0.088
			c0.109-0.059,0.182-0.14,0.221-0.242c0.037-0.103,0.057-0.341,0.057-0.717v-3.089c0-0.275-0.014-0.447-0.039-0.517
			c-0.027-0.068-0.076-0.127-0.147-0.176c-0.072-0.048-0.155-0.072-0.249-0.072c-0.148,0-0.33,0.047-0.545,0.141l-0.078-0.158
			l2.192-1.002H78.669z"/>
		<path fill="#D94843" d="M80.462,77.221l2.83-3.836h0.535v3.836h0.545v0.91h-0.545v1.336h-1.208v-1.336h-2.157V77.221z
			 M80.888,77.221h1.731V74.87L80.888,77.221z"/>
	</g>
	<g enable-background="new    ">
		<path fill="#D94843" d="M94.029,73.509v4.873c0,0.367,0.017,0.601,0.049,0.701c0.032,0.102,0.1,0.185,0.202,0.248
			c0.103,0.065,0.267,0.098,0.492,0.098h0.136v0.162h-3.137v-0.162h0.158c0.254,0,0.436-0.029,0.545-0.088
			c0.107-0.059,0.182-0.14,0.219-0.242c0.039-0.103,0.058-0.341,0.058-0.717v-3.089c0-0.275-0.013-0.447-0.04-0.517
			c-0.025-0.068-0.075-0.127-0.146-0.176c-0.072-0.048-0.154-0.072-0.248-0.072c-0.15,0-0.332,0.047-0.545,0.141l-0.08-0.158
			l2.193-1.002H94.029z"/>
		<path fill="#D94843" d="M96.97,73.632h2.79l-0.443,1.134H96.97l-0.224,0.593c1.01,0.039,1.788,0.291,2.333,0.756
			c0.448,0.385,0.673,0.861,0.673,1.434c0,0.366-0.104,0.724-0.312,1.074c-0.208,0.35-0.501,0.619-0.879,0.809
			c-0.378,0.188-0.793,0.283-1.244,0.283c-0.486,0-0.859-0.091-1.12-0.272c-0.182-0.129-0.272-0.275-0.272-0.439
			c0-0.126,0.047-0.237,0.143-0.334s0.206-0.146,0.332-0.146c0.114,0,0.23,0.024,0.348,0.07c0.117,0.048,0.317,0.171,0.602,0.369
			c0.179,0.123,0.332,0.209,0.461,0.256c0.092,0.035,0.193,0.053,0.309,0.053c0.24,0,0.443-0.088,0.612-0.264
			s0.253-0.387,0.253-0.633c0-0.516-0.258-0.935-0.773-1.258c-0.516-0.321-1.166-0.482-1.951-0.482
			c-0.079,0-0.197,0.001-0.355,0.004L96.97,73.632z"/>
	</g>
	<rect x="27.644" y="85.186" opacity="0.7" fill="#FFFFFF" enable-background="new    " width="13.168" height="13.168"/>
	<rect x="43.018" y="85.186" opacity="0.7" fill="#FFFFFF" enable-background="new    " width="13.167" height="13.168"/>
	<rect x="58.392" y="85.186" opacity="0.7" fill="#FFFFFF" enable-background="new    " width="13.168" height="13.168"/>
	<rect x="73.768" y="85.186" opacity="0.7" fill="#FFFFFF" enable-background="new    " width="13.168" height="13.168"/>
	<rect x="89.143" y="85.186" opacity="0.7" fill="#FFFFFF" enable-background="new    " width="13.166" height="13.168"/>
	<g enable-background="new    ">
		<path fill="#D94843" d="M32.347,88.794v4.873c0,0.367,0.016,0.601,0.048,0.701c0.032,0.102,0.1,0.185,0.202,0.248
			c0.103,0.065,0.267,0.098,0.492,0.098h0.136v0.162h-3.138v-0.162h0.158c0.255,0,0.437-0.029,0.545-0.088s0.182-0.14,0.22-0.242
			s0.057-0.341,0.057-0.717v-3.089c0-0.275-0.013-0.447-0.04-0.517c-0.026-0.068-0.076-0.127-0.147-0.176
			c-0.072-0.048-0.155-0.072-0.249-0.072c-0.149,0-0.331,0.047-0.545,0.141l-0.079-0.158l2.193-1.002H32.347z"/>
		<path fill="#D94843" d="M38.144,88.794v0.123c-0.53,0.135-0.956,0.309-1.276,0.521c-0.321,0.213-0.575,0.471-0.761,0.773
			c-0.186,0.304-0.33,0.679-0.433,1.128c0.129-0.088,0.236-0.146,0.321-0.172c0.19-0.059,0.382-0.088,0.576-0.088
			c0.445,0,0.816,0.162,1.114,0.485c0.297,0.324,0.446,0.766,0.446,1.325c0,0.393-0.081,0.753-0.242,1.081s-0.39,0.582-0.686,0.761
			c-0.296,0.178-0.612,0.268-0.949,0.268c-0.366,0-0.705-0.101-1.015-0.301c-0.311-0.201-0.553-0.494-0.727-0.881
			c-0.175-0.387-0.262-0.808-0.262-1.262c0-0.668,0.16-1.29,0.481-1.865c0.32-0.576,0.776-1.034,1.366-1.376
			C36.688,88.974,37.37,88.8,38.144,88.794z M35.617,91.694c-0.023,0.404-0.035,0.7-0.035,0.888c0,0.404,0.039,0.796,0.117,1.173
			c0.077,0.379,0.184,0.644,0.318,0.796c0.097,0.108,0.211,0.163,0.343,0.163c0.135,0,0.255-0.079,0.36-0.235
			c0.105-0.157,0.158-0.476,0.158-0.956c0-0.809-0.098-1.367-0.294-1.674c-0.126-0.199-0.296-0.299-0.51-0.299
			C35.957,91.55,35.804,91.598,35.617,91.694z"/>
	</g>
	<g enable-background="new    ">
		<path fill="#D94843" d="M47.844,88.92v4.873c0,0.367,0.016,0.601,0.048,0.701c0.032,0.102,0.1,0.185,0.202,0.248
			c0.103,0.065,0.267,0.098,0.492,0.098h0.136v0.162h-3.138V94.84h0.158c0.255,0,0.437-0.029,0.545-0.088s0.182-0.14,0.22-0.242
			s0.057-0.341,0.057-0.717v-3.089c0-0.275-0.013-0.447-0.04-0.517c-0.026-0.068-0.076-0.127-0.147-0.176
			c-0.072-0.048-0.155-0.072-0.249-0.072c-0.149,0-0.331,0.047-0.545,0.141l-0.079-0.158l2.193-1.002H47.844z"/>
		<path fill="#D94843" d="M51.008,95.125l1.622-4.918h-1.235c-0.483,0-0.847,0.063-1.09,0.189c-0.17,0.088-0.311,0.254-0.422,0.496
			h-0.167l0.431-1.85h3.551l-2,6.082H51.008z"/>
	</g>
	<g enable-background="new    ">
		<path fill="#D94843" d="M63.354,88.981v4.873c0,0.367,0.016,0.601,0.048,0.701c0.032,0.102,0.1,0.185,0.202,0.248
			c0.103,0.065,0.267,0.098,0.492,0.098h0.136v0.162h-3.138v-0.162h0.158c0.255,0,0.437-0.029,0.545-0.088s0.182-0.14,0.22-0.242
			s0.057-0.341,0.057-0.717v-3.089c0-0.275-0.013-0.447-0.04-0.517c-0.026-0.068-0.076-0.127-0.147-0.176
			c-0.072-0.048-0.155-0.072-0.249-0.072c-0.149,0-0.331,0.047-0.545,0.141l-0.079-0.158l2.193-1.002H63.354z"/>
		<path fill="#D94843" d="M67.99,91.697c0.419,0.308,0.71,0.594,0.872,0.859c0.163,0.265,0.244,0.569,0.244,0.911
			c0,0.481-0.181,0.888-0.543,1.22c-0.362,0.333-0.853,0.499-1.474,0.499c-0.59,0-1.045-0.145-1.367-0.436
			c-0.322-0.289-0.483-0.644-0.483-1.062c0-0.319,0.093-0.6,0.279-0.84c0.186-0.24,0.495-0.46,0.929-0.659
			c-0.471-0.36-0.773-0.655-0.907-0.884c-0.133-0.229-0.2-0.493-0.2-0.795c0-0.398,0.169-0.749,0.507-1.053
			c0.339-0.303,0.803-0.455,1.391-0.455c0.568,0,1.006,0.135,1.312,0.402c0.306,0.269,0.459,0.59,0.459,0.965
			c0,0.281-0.083,0.529-0.248,0.745C68.596,91.33,68.339,91.524,67.99,91.697z M66.777,92.4c-0.091,0.082-0.155,0.157-0.193,0.224
			c-0.059,0.104-0.111,0.253-0.158,0.449s-0.07,0.401-0.07,0.615c0,0.275,0.035,0.506,0.105,0.691c0.07,0.187,0.17,0.32,0.301,0.402
			s0.265,0.123,0.402,0.123c0.214,0,0.395-0.078,0.541-0.235c0.146-0.156,0.219-0.371,0.219-0.644
			C67.924,93.458,67.542,92.916,66.777,92.4z M67.656,91.474c0.108-0.146,0.189-0.311,0.242-0.492s0.078-0.381,0.078-0.598
			c0-0.381-0.082-0.673-0.246-0.875c-0.123-0.155-0.293-0.232-0.51-0.232c-0.195,0-0.363,0.07-0.5,0.213
			c-0.139,0.142-0.207,0.318-0.207,0.529c0,0.214,0.077,0.436,0.23,0.666C66.898,90.914,67.202,91.178,67.656,91.474z"/>
	</g>
	<g enable-background="new    ">
		<path fill="#D94843" d="M78.757,88.981v4.873c0,0.367,0.016,0.601,0.048,0.701c0.032,0.102,0.1,0.185,0.202,0.248
			c0.103,0.065,0.267,0.098,0.492,0.098h0.137v0.162h-3.139v-0.162h0.158c0.256,0,0.438-0.029,0.545-0.088
			c0.109-0.059,0.182-0.14,0.221-0.242c0.037-0.103,0.057-0.341,0.057-0.717v-3.089c0-0.275-0.014-0.447-0.039-0.517
			c-0.027-0.068-0.076-0.127-0.147-0.176c-0.072-0.048-0.155-0.072-0.249-0.072c-0.148,0-0.33,0.047-0.545,0.141l-0.078-0.158
			l2.192-1.002H78.757z"/>
		<path fill="#D94843" d="M80.603,95.187v-0.123c0.486-0.111,0.898-0.275,1.236-0.492c0.339-0.217,0.606-0.484,0.805-0.805
			c0.197-0.318,0.336-0.687,0.415-1.103c-0.182,0.094-0.336,0.159-0.464,0.195c-0.127,0.037-0.262,0.056-0.402,0.056
			c-0.451,0-0.826-0.163-1.127-0.488s-0.45-0.771-0.45-1.336c0-0.393,0.081-0.752,0.244-1.079c0.162-0.326,0.395-0.58,0.696-0.76
			c0.302-0.181,0.615-0.271,0.94-0.271c0.349,0,0.679,0.1,0.989,0.299s0.558,0.488,0.742,0.865c0.185,0.379,0.277,0.809,0.277,1.293
			c0,0.627-0.15,1.228-0.451,1.801c-0.301,0.575-0.748,1.035-1.342,1.383C82.116,94.969,81.413,95.157,80.603,95.187z
			 M83.124,92.295c0.029-0.328,0.045-0.616,0.045-0.866c0-0.532-0.062-1.029-0.186-1.489c-0.07-0.255-0.174-0.442-0.312-0.562
			c-0.073-0.064-0.169-0.097-0.286-0.097c-0.146,0-0.26,0.063-0.342,0.189c-0.115,0.173-0.172,0.502-0.172,0.988
			c0,0.812,0.097,1.371,0.29,1.679c0.126,0.199,0.296,0.299,0.51,0.299C82.786,92.436,82.937,92.389,83.124,92.295z"/>
	</g>
	<g enable-background="new    ">
		<path fill="#D94843" d="M95.007,95.063H91.5v-0.097c1.075-1.28,1.728-2.142,1.958-2.584c0.229-0.442,0.345-0.874,0.345-1.296
			c0-0.309-0.096-0.563-0.285-0.768c-0.191-0.203-0.424-0.305-0.699-0.305c-0.451,0-0.801,0.226-1.051,0.676l-0.162-0.057
			c0.158-0.562,0.398-0.979,0.721-1.248s0.694-0.404,1.116-0.404c0.302,0,0.577,0.07,0.826,0.211s0.444,0.333,0.585,0.578
			c0.141,0.244,0.211,0.474,0.211,0.688c0,0.39-0.109,0.785-0.326,1.187c-0.295,0.542-0.941,1.298-1.938,2.268h1.287
			c0.316,0,0.522-0.013,0.618-0.04c0.095-0.025,0.173-0.07,0.235-0.134c0.061-0.062,0.142-0.195,0.241-0.397h0.158L95.007,95.063z"
			/>
		<path fill="#D94843" d="M99.951,92.084c0,0.595-0.084,1.15-0.251,1.665c-0.1,0.316-0.233,0.576-0.402,0.778
			s-0.359,0.362-0.573,0.481c-0.214,0.118-0.447,0.178-0.699,0.178c-0.287,0-0.546-0.073-0.777-0.22s-0.437-0.356-0.615-0.628
			c-0.129-0.199-0.242-0.465-0.338-0.796c-0.127-0.448-0.189-0.911-0.189-1.389c0-0.647,0.091-1.242,0.272-1.784
			c0.149-0.448,0.376-0.792,0.681-1.03c0.305-0.239,0.627-0.358,0.967-0.358c0.346,0,0.669,0.118,0.97,0.354
			c0.3,0.236,0.521,0.554,0.661,0.951C99.853,90.835,99.951,91.434,99.951,92.084z M98.598,92.075c0-1.043-0.006-1.65-0.018-1.824
			c-0.029-0.406-0.1-0.682-0.211-0.826c-0.074-0.093-0.192-0.141-0.356-0.141c-0.126,0-0.226,0.035-0.299,0.105
			c-0.108,0.104-0.182,0.284-0.22,0.543c-0.038,0.26-0.057,1.164-0.057,2.714c0,0.844,0.029,1.409,0.088,1.696
			c0.043,0.208,0.106,0.348,0.188,0.418s0.19,0.105,0.325,0.105c0.146,0,0.256-0.047,0.33-0.141
			c0.123-0.164,0.193-0.418,0.211-0.761L98.598,92.075z"/>
	</g>
</g>
</svg>
