<?xml version="1.0" encoding="utf-8"?>
<!-- Generator: Adobe Illustrator 16.0.0, SVG Export Plug-In . SVG Version: 6.00 Build 0)  -->
<!DOCTYPE svg PUBLIC "-//W3C//DTD SVG 1.1//EN" "http://www.w3.org/Graphics/SVG/1.1/DTD/svg11.dtd">
<svg version="1.1" id="Layer_1" xmlns="http://www.w3.org/2000/svg" xmlns:xlink="http://www.w3.org/1999/xlink" x="0px" y="0px"
	 width="170px" height="170px" viewBox="0 0 170 170" enable-background="new 0 0 170 170" xml:space="preserve">
<path fill="#50B43C" d="M169.5,85c0,46.67-37.839,84.5-84.5,84.5S0.5,131.67,0.5,85S38.339,0.5,85,0.5S169.5,38.33,169.5,85z"/>
<g>
	<path fill="#FFFFFF" d="M50.582,113c0,2.762,2.238,5,5,5H119c2.762,0,5-2.238,5-5V49.582c0-2.762-2.238-5-5-5H55.582
		c-2.762,0-5,2.238-5,5V113z"/>
	<path fill="#50B43C" d="M42.873,119.646c0,3.451,2.799,6.25,6.251,6.25H88.77V80H42.873V119.646z"/>
	<path fill="#FFFFFF" d="M43.082,120.688c0,2.763,2.238,5,5,5h31.709V88.979H43.082V120.688z"/>
</g>
</svg>
