<?xml version="1.0" encoding="utf-8"?>
<!-- Generator: Adobe Illustrator 16.0.0, SVG Export Plug-In . SVG Version: 6.00 Build 0)  -->
<!DOCTYPE svg PUBLIC "-//W3C//DTD SVG 1.1//EN" "http://www.w3.org/Graphics/SVG/1.1/DTD/svg11.dtd">
<svg version="1.1" id="Layer_1" xmlns="http://www.w3.org/2000/svg" xmlns:xlink="http://www.w3.org/1999/xlink" x="0px" y="0px"
	 width="170px" height="170px" viewBox="0 0 170 170" enable-background="new 0 0 170 170" xml:space="preserve">
<path fill="#50B43C" d="M169.5,85c0,46.67-37.839,84.5-84.5,84.5S0.5,131.67,0.5,85S38.339,0.5,85,0.5S169.5,38.33,169.5,85z"/>
<g>
	<path fill="#FFFFFF" d="M122.898,40.333c-0.385,2.669-0.682,4.001-1.33,6.454c2.103,1.113,3.076,3.038,4.549,4.474
		c2.31-0.507,4.335-1.566,6.471-2.408c1.279,2.101,2.738,4.112,3.268,6.599c-0.814,0.634-1.608,1.08-2.781,1.649
		c-0.76,0.369-2.494,1.127-2.551,1.875c-0.156,2.002,0.601,4.177,0.107,6.629c2.061,0.985,4.387,1.832,6.432,2.823
		c-0.269,2.537-1.155,4.573-2.141,7.102c-2.154-0.296-4.447-0.866-6.732-1.424c-1.283,1.996-3.047,3.051-4.143,5.408
		c1.002,1.831,1.487,3.921,2.493,5.75c-2.008,1.393-4.06,2.694-6.373,3.491c-0.767-1.118-1.991-2.583-2.696-3.719
		c-0.513-0.819-0.522-1.696-1.462-1.97c-0.808-0.235-2.127,0.398-3.153,0.482c-1.185,0.096-2.153-0.006-3.336,0.122
		c-0.766,2.342-1.797,4.163-2.645,6.34c-2.205-0.402-5.143-1.128-7.059-2.277c0.293-2.078,0.824-4.274,1.336-6.461
		c-0.633-0.974-1.721-1.374-2.729-2.227c-0.848-0.72-1.585-2.047-2.593-2.187c-0.426-0.059-2.527,0.888-3.055,1.112
		c-1.014,0.43-1.911,1.152-3.058,1.113c-1.485-1.847-2.312-4.028-3.262-6.148c1.731-1.556,3.866-2.331,5.601-3.89
		c-0.504-2.157-0.629-4.511-0.611-6.938c-2.131-0.797-4.1-1.675-6.065-2.559c0.02-1.932,1.017-5.198,2.097-6.965
		c2.028,0.201,4.242,0.763,6.463,1.336c0.916-0.453,0.957-1.236,1.559-2.044c0.874-1.169,2.686-2.016,2.947-3.096
		c0.186-0.765-0.766-2.419-1.067-3.192c-0.437-1.106-0.841-2.047-1.292-2.964c1.922-1.629,4.141-2.683,6.507-3.445
		c1,1.981,2.371,3.768,3.572,5.648c2.371-0.089,4.396-0.851,7.032-0.43c0.697-2.466,1.713-4.32,2.644-6.34
		C118.111,38.333,120.84,39.314,122.898,40.333z M101.637,61.645c-0.597,2.499-0.109,5.163,0.881,7.028
		c3.477,6.537,14.207,7.063,17.545-0.035c1.787-3.799,1.207-7.152,0.136-9.247c-1.306-2.55-3.993-4.787-8.169-5.333
		C107.936,53.524,102.909,56.321,101.637,61.645z"/>
	<g>
		<path fill="#FFFFFF" d="M86.812,94.607c2.758-0.805,5.496-1.653,8.088-2.785c-0.188-3.303-0.797-6.39-2.162-9.09
			c-3.094-0.069-5.668,0.879-8.787,0.762c-0.967-2.449-2.804-4.455-4.303-6.631c1.051-3.182,2.661-5.274,3.844-8.201
			c-2.403-1.906-5.146-3.634-8.035-5.29c-1.894,2.199-3.594,4.783-5.527,6.909c-3.286-1.182-5.895-1.042-8.899-1.673
			c-0.785-2.845-1.681-5.634-2.699-8.36c-3.168,0.522-6.346,1.028-9.226,2.117c-0.08,1.411,0.392,2.724,0.582,4.235
			c0.167,1.31,0.697,3.564,0.182,4.552c-0.502,0.97-2.625,1.561-3.542,2.156c-1.365,0.884-2.09,1.863-3.265,2.692
			c-2.845-1.263-5.349-2.699-7.979-4.072c-1.919,2.37-3.797,4.823-5.104,8.394c2.268,1.785,4.618,3.527,6.636,5.438
			c-1.263,3.329-0.919,5.836-1.672,8.903c-2.729,0.714-5.321,1.703-8.004,2.512c0.098,3.386,1.082,6.32,1.941,9.318
			c3.163,0.054,5.719-1.072,9.059-0.675c1.062,2.478,3.023,4.494,4.577,6.721c-1.222,2.779-2.683,5.091-3.893,7.885
			c2.331,1.867,5.392,3.96,8.212,5.196c1.886-2.362,3.644-4.981,5.706-7c3.15,1.28,5.667,1.336,8.221,1.454
			c1.201,2.672,1.823,5.638,2.833,8.406c3.43-0.092,6.461-0.957,9.363-2.075c0.011-3.142-1.002-5.757-0.675-9.06
			c2.337-1.041,4.344-2.729,6.359-4.393c3.045,1.162,5.272,2.74,8.159,3.98c1.693-2.74,3.813-4.646,5.062-8.259
			c-2.213-1.926-4.838-3.641-6.866-5.661C86.387,99.811,86.042,97.493,86.812,94.607z M60.921,111.584
			c-9.512,0-17.222-7.709-17.222-17.221c0-9.512,7.71-17.222,17.222-17.222c9.512,0,17.221,7.71,17.221,17.222
			C78.142,103.875,70.433,111.584,60.921,111.584z"/>
	</g>
	<g>
		<path fill="#FFFFFF" d="M123.838,110.542c1.378-0.459,4.717-1.772,6.004-2.394c-0.156-1.664-0.519-3.213-1.26-4.551
			c-1.562,0.021-4.818,1.387-6.398,1.383c-0.533-1.217-1.498-2.195-2.295-3.269c0.471-1.627,2.031-4.551,2.574-6.051
			c-1.25-0.917-2.668-1.74-4.158-2.521c-0.916,1.146-2.51,4.318-3.447,5.428c-1.683-0.533-2.996-0.414-4.523-0.678
			c-0.45-1.424-0.927-4.988-1.492-6.345c-1.59,0.321-3.186,0.638-4.621,1.238c-0.013,0.716,0.286,3.274,0.41,4.034
			c0.107,0.658,0.354,2.055,0.112,2.562c-0.235,0.5-1.231,0.988-1.687,1.309c-0.672,0.472-1.084,0.826-1.66,1.267
			c-1.461-0.584-4.683-2.529-6.037-3.174c-0.924,1.233-1.827,2.505-2.422,4.334c1.18,0.858,4.328,2.963,5.385,3.891
			c-0.575,1.704-0.356,2.962-0.68,4.528c-1.365,0.408-5.219,1.701-6.559,2.16c0.111,1.709,0.663,3.172,1.154,4.67
			c1.597-0.03,5.43-1.393,7.123-1.254c0.584,1.231,1.611,2.213,2.438,3.31c-0.564,1.427-2.604,4.397-3.162,5.833
			c1.211,0.898,2.797,1.896,4.243,2.471c0.909-1.228,3.093-4.361,4.097-5.418c1.613,0.586,2.885,0.568,4.178,0.58
			c0.656,1.327,1.658,4.68,2.222,6.059c1.729-0.109,3.243-0.604,4.688-1.221c-0.053-1.588-1.246-4.757-1.142-6.43
			c1.16-0.568,2.144-1.459,3.13-2.337c1.561,0.53,4.203,2.243,5.684,2.813c0.806-1.416,1.841-2.418,2.402-4.266
			c-1.152-0.932-4-2.703-5.062-3.686C123.718,113.18,123.501,112.014,123.838,110.542z M111.076,119.598
			c-4.803,0.178-8.842-3.572-9.02-8.375c-0.178-4.804,3.575-8.844,8.377-9.021c4.805-0.176,8.842,3.574,9.02,8.377
			C119.632,115.384,115.881,119.422,111.076,119.598z"/>
	</g>
</g>
</svg>
